<svg xmlns="http://www.w3.org/2000/svg" width="157" height="36.649" viewBox="0 0 157 36.649">
  <g id="eG_Innovations_Logo" data-name="eG Innovations Logo" transform="translate(-29 -41.64)">
    <g id="Group_2014" data-name="Group 2014" transform="translate(70.338 52.438)">
      <path id="Path_2410" data-name="Path 2410" d="M164.945,95.192a4.135,4.135,0,0,1-4.255-4.409,4.081,4.081,0,0,1,4.255-4.393,3.976,3.976,0,0,1,4.148,4.192,5.367,5.367,0,0,1-.063.867h-6.516a2.345,2.345,0,0,0,2.431,2.258,2.071,2.071,0,0,0,2.013-1.19h1.9A3.9,3.9,0,0,1,164.945,95.192Zm-2.412-5.169h4.72a2.214,2.214,0,0,0-2.383-2.151A2.322,2.322,0,0,0,162.533,90.023Z" transform="translate(-160.69 -83.137)" fill="#c1c1c1"/>
      <path id="Path_2411" data-name="Path 2411" d="M201.588,82.524h-2.12a3.056,3.056,0,0,0-2.876-1.623,3.9,3.9,0,0,0,0,7.785,3.255,3.255,0,0,0,3.435-2.986h-4.038V84.286h5.926v1.379a5.3,5.3,0,0,1-5.323,4.61,5.492,5.492,0,0,1,0-10.985A5.126,5.126,0,0,1,201.588,82.524Z" transform="translate(-181.551 -78.266)" fill="#c1c1c1"/>
      <path id="Path_2412" data-name="Path 2412" d="M243.85,79.73h1.765V90.485H243.85Z" transform="translate(-217.736 -78.568)" fill="#c1c1c1"/>
      <path id="Path_2413" data-name="Path 2413" d="M262.9,90.28c0-1.564-.851-2.368-2.135-2.368a2.067,2.067,0,0,0-2.151,2.368v4.767H256.85V86.521h1.765v.973a3.277,3.277,0,0,1,2.537-1.115,3.32,3.32,0,0,1,3.5,3.636v5.031H262.9Z" transform="translate(-226.653 -83.13)" fill="#c1c1c1"/>
      <path id="Path_2414" data-name="Path 2414" d="M294.881,90.28c0-1.564-.851-2.368-2.135-2.368a2.067,2.067,0,0,0-2.151,2.368v4.767H288.83V86.521h1.765v.973a3.276,3.276,0,0,1,2.537-1.115,3.32,3.32,0,0,1,3.5,3.636v5.031h-1.749Z" transform="translate(-248.591 -83.13)" fill="#c1c1c1"/>
      <path id="Path_2415" data-name="Path 2415" d="M323.251,95.192a4.156,4.156,0,0,1-4.271-4.409,4.349,4.349,0,1,1,8.7,0A4.273,4.273,0,0,1,323.251,95.192Zm0-1.529a2.628,2.628,0,0,0,2.616-2.88,2.581,2.581,0,0,0-2.569-2.864,2.54,2.54,0,0,0-2.522,2.864C320.776,92.718,321.919,93.663,323.251,93.663Z" transform="translate(-269.273 -83.137)" fill="#c1c1c1"/>
      <path id="Path_2416" data-name="Path 2416" d="M350.917,86.83l2.415,6.946,2.415-6.946h1.872l-3.25,8.526h-2.1L349.03,86.83Z" transform="translate(-289.887 -83.439)" fill="#c1c1c1"/>
      <path id="Path_2417" data-name="Path 2417" d="M382.763,86.38a3.632,3.632,0,0,1,2.955,1.375V86.518h1.78v8.526h-1.78V93.775a3.674,3.674,0,0,1-2.986,1.407,4.121,4.121,0,0,1-3.991-4.44A4.056,4.056,0,0,1,382.763,86.38Zm.371,1.532a2.615,2.615,0,0,0-2.584,2.833,2.686,2.686,0,0,0,2.584,2.908,2.886,2.886,0,0,0,0-5.74Z" transform="translate(-310.267 -83.13)" fill="#c1c1c1"/>
      <path id="Path_2418" data-name="Path 2418" d="M412.7,83.638h-1V82.2h1V80.08h1.781V82.2h2.073v1.438h-2.073v4.72c0,.634.248.9.989.9h1.083v1.47h-1.394c-1.517,0-2.459-.634-2.459-2.368v-4.72Z" transform="translate(-332.877 -78.808)" fill="#c1c1c1"/>
      <path id="Path_2419" data-name="Path 2419" d="M431.6,77.16a1.123,1.123,0,1,1,1.13,1.13A1.118,1.118,0,0,1,431.6,77.16Zm.232,2.261H433.6v8.526h-1.765Z" transform="translate(-346.528 -76.03)" fill="#c1c1c1"/>
      <path id="Path_2420" data-name="Path 2420" d="M447.791,95.192a4.156,4.156,0,0,1-4.271-4.409,4.349,4.349,0,1,1,8.7,0A4.273,4.273,0,0,1,447.791,95.192Zm0-1.529a2.628,2.628,0,0,0,2.616-2.88,2.581,2.581,0,0,0-2.569-2.864,2.54,2.54,0,0,0-2.522,2.864C445.316,92.718,446.459,93.663,447.791,93.663Z" transform="translate(-354.704 -83.137)" fill="#c1c1c1"/>
      <path id="Path_2421" data-name="Path 2421" d="M482.821,90.28c0-1.564-.851-2.368-2.135-2.368a2.067,2.067,0,0,0-2.151,2.368v4.767H476.77V86.521h1.765v.973a3.276,3.276,0,0,1,2.537-1.115,3.32,3.32,0,0,1,3.5,3.636v5.031h-1.749Z" transform="translate(-377.513 -83.13)" fill="#c1c1c1"/>
      <path id="Path_2422" data-name="Path 2422" d="M510.828,95.192c-2.041,0-3.483-1.206-3.558-2.754H509.1a1.556,1.556,0,0,0,1.7,1.269c1.02,0,1.564-.433,1.564-1.021,0-1.671-4.952-.713-4.952-3.837,0-1.363,1.269-2.459,3.282-2.459,1.934,0,3.2,1.036,3.3,2.738h-1.765a1.41,1.41,0,0,0-1.6-1.253c-.945,0-1.438.386-1.438.961,0,1.718,4.814.757,4.9,3.837C514.094,94.109,512.841,95.192,510.828,95.192Z" transform="translate(-398.435 -83.137)" fill="#c1c1c1"/>
    </g>
    <g id="Group_2016" data-name="Group 2016" transform="translate(29 41.64)">
      <path id="Path_2423" data-name="Path 2423" d="M65.659,59.965A18.33,18.33,0,1,1,47.333,41.64,18.326,18.326,0,0,1,65.659,59.965Z" transform="translate(-29 -41.64)" fill="#f29305"/>
      <g id="Group_2015" data-name="Group 2015" transform="translate(5.703 10.148)">
        <path id="Path_2424" data-name="Path 2424" d="M71.979,90.322c-.107-.082-.217-.16-.323-.242a.155.155,0,0,0-.126-.038c-.44.047-.882.069-1.325.072-.524,0-1.052,0-1.576-.013-.314-.006-.631-.025-.945-.047a9.373,9.373,0,0,1-1.934-.308,3.308,3.308,0,0,1-.794-.327,1.808,1.808,0,0,1-.405-.317,1.156,1.156,0,0,1-.292-.964,2.709,2.709,0,0,1,.323-.93,6.7,6.7,0,0,1,1.843-2.192l.122-.094s.006-.009.016-.022c-.016-.025-.031-.053-.05-.082A14.649,14.649,0,0,1,65.346,82.8a10.53,10.53,0,0,1-.735-2.054.123.123,0,0,0-.1-.1q-2.035-.457-4.013-1.112-1.437-.476-2.845-1.039a.174.174,0,0,1-.06-.038c.754.192,1.507.389,2.264.575s1.523.361,2.289.534,1.532.32,2.318.458c-.009-.082-.019-.157-.025-.229a6.207,6.207,0,0,1,.217-2.672A5.06,5.06,0,0,1,65.9,75.073a3.493,3.493,0,0,1,1.306-.81,4.867,4.867,0,0,1,1.215-.27,5.778,5.778,0,0,1,1.093-.009,7.147,7.147,0,0,1,2.164.534,8.22,8.22,0,0,1,2.924,2.1.321.321,0,0,1,.028.041c-.038-.019-.057-.031-.079-.041a8.505,8.505,0,0,0-1.693-.82,5.741,5.741,0,0,0-1.47-.317,4.13,4.13,0,0,0-1.4.119,2.911,2.911,0,0,0-1.375.845,5.1,5.1,0,0,0-1.1,1.853,6.423,6.423,0,0,0-.317,1.416c-.022.2-.035.4-.05.6,0,.028,0,.057,0,.1.094.013.182.025.273.031.493.041.983.085,1.476.116.345.022.694.035,1.043.041.54.009,1.08.013,1.62.006q.655-.009,1.309-.047c.515-.028,1.03-.075,1.545-.113a5.857,5.857,0,0,0,.9-.126,2.092,2.092,0,0,0,.512-.173,1.494,1.494,0,0,0,.267-.173.533.533,0,0,0,.166-.606,1.212,1.212,0,0,0-.207-.374,3.205,3.205,0,0,0-.634-.6,8.3,8.3,0,0,0-1.379-.826.26.26,0,0,1-.072-.047c.022.006.044.009.069.016A19.871,19.871,0,0,1,77.377,78.7a8.407,8.407,0,0,1,1.309.741,3.319,3.319,0,0,1,.6.524,1.1,1.1,0,0,1,.27.484.55.55,0,0,1-.1.48.982.982,0,0,1-.276.245,2.624,2.624,0,0,1-.707.292,7.175,7.175,0,0,1-1.03.195c-.575.069-1.149.1-1.727.11-.55.013-1.1,0-1.646-.019-.192-.006-.383-.013-.578-.022-.44-.019-.879-.035-1.316-.06s-.86-.05-1.288-.085c-.556-.047-1.112-.091-1.664-.157-.666-.078-1.331-.173-2-.261-.019,0-.038,0-.063-.006a.575.575,0,0,0,0,.207,10.262,10.262,0,0,0,.323,1.853c.082.292.176.581.267.873.006.022.019.041.031.072.075-.031.151-.06.22-.094a11.121,11.121,0,0,1,2.776-.842c.443-.079.892-.132,1.341-.173A20.008,20.008,0,0,1,74.381,83c.414.013.826.035,1.237.066a7.618,7.618,0,0,1,1.551.254,2.526,2.526,0,0,1,.587.245,1.031,1.031,0,0,1,.267.226.664.664,0,0,1,.129.593,1.635,1.635,0,0,1-.3.6c-.013.019-.041.025-.063.035a.135.135,0,0,1-.05,0H73.819a.552.552,0,0,1,.038-.075c.066-.113.135-.22.195-.336a1.145,1.145,0,0,0,.088-.232.2.2,0,0,0-.1-.245.9.9,0,0,0-.229-.091,2.738,2.738,0,0,0-.556-.06,3.606,3.606,0,0,0-1.266.17,3.47,3.47,0,0,0-1.253.769,9.074,9.074,0,0,0-.766.826c-.279.333-.568.653-.816,1.011l-.06.088c.019.031.035.06.053.088a16.846,16.846,0,0,0,1.523,2.029.136.136,0,0,0,.148.05,3.224,3.224,0,0,0,.926-.311,2.807,2.807,0,0,0,.945-.813c.138-.185.261-.386.386-.581.013-.019.019-.041.035-.072-.33-.016-.65,0-.97,0s-.65,0-.973,0h-.977a.751.751,0,0,1,.057-.053l1.218-.942a.184.184,0,0,1,.126-.041H77.38c.025,0,.05,0,.085,0a.327.327,0,0,1-.016.05A7.41,7.41,0,0,1,76.1,88.161a5.908,5.908,0,0,1-2.277,1.413,8.732,8.732,0,0,1-1.57.38c-.176.025-.352.05-.54.075a.438.438,0,0,0,.041.057c.06.057.122.113.182.173a.415.415,0,0,0,.041.063ZM70.352,89.06a.078.078,0,0,1,.013-.022c-.575-.493-1.124-1.008-1.667-1.561-.044.107-.085.2-.119.292a1.417,1.417,0,0,0-.1.546.662.662,0,0,0,.345.578,1.211,1.211,0,0,0,.386.138,4.082,4.082,0,0,0,.917.044C70.2,89.069,70.277,89.063,70.352,89.06Z" transform="translate(-54.315 -73.962)" fill="#fff"/>
        <path id="Path_2425" data-name="Path 2425" d="M55.52,112c-.025.019-.047.041-.072.06a6.012,6.012,0,0,1-1.8.936,8.4,8.4,0,0,1-1.526.349,8.6,8.6,0,0,1-1.608.082c-.229-.009-.458-.041-.685-.069a8.487,8.487,0,0,1-1.19-.235,3.306,3.306,0,0,1-.76-.3,2.272,2.272,0,0,1-.352-.245,1.017,1.017,0,0,1-.336-1.033,2.7,2.7,0,0,1,.405-.917,3.83,3.83,0,0,1,1.287-1.2,6.376,6.376,0,0,1,1.6-.656,10.206,10.206,0,0,1,1.445-.279q.622-.08,1.244-.1c.317-.013.637-.031.955-.025a7.258,7.258,0,0,1,1.837.251,2.805,2.805,0,0,1,.644.264,1.716,1.716,0,0,1,.232.163.889.889,0,0,1,.311.964,1.816,1.816,0,0,1-.242.54c-.044.069-.1.135-.138.207a.178.178,0,0,1-.176.091q-2.214,0-4.428,0h-.983a.15.15,0,0,0-.132.063,4.68,4.68,0,0,0-.433.641,1.616,1.616,0,0,0-.154.4.532.532,0,0,0,.317.65,1.548,1.548,0,0,0,.49.129,2.185,2.185,0,0,0,.769-.025,1.081,1.081,0,0,0,.8-.656.088.088,0,0,1,.094-.066q1.149,0,2.3,0c.094,0,.188.006.283.009C55.517,111.987,55.517,111.994,55.52,112Zm-3.841-1.815c.041,0,.075.006.11.006.54,0,1.08,0,1.617,0,.286,0,.575,0,.86,0a.112.112,0,0,0,.116-.066c.06-.116.126-.232.182-.352a.852.852,0,0,0,.088-.3.322.322,0,0,0-.129-.311.67.67,0,0,0-.182-.094,1.522,1.522,0,0,0-.4-.075,2.187,2.187,0,0,0-1.222.21,2.707,2.707,0,0,0-1.024.923C51.7,110.138,51.692,110.154,51.679,110.182Z" transform="translate(-47.161 -97.555)" fill="#fff"/>
      </g>
    </g>
  </g>
</svg>
