<svg xmlns="http://www.w3.org/2000/svg" width="16" height="15.016" viewBox="0 0 16 15.016">
  <g id="classic_Header_notifications" transform="translate(-1201 -18.94)">
    <path id="Path_60702" data-name="Path 60702" d="M137.974,15.755h-10.9a2.553,2.553,0,0,1-2.223-3.8L130.3,2.049a2.55,2.55,0,0,1,4.452-.006l5.452,9.915a2.55,2.55,0,0,1-2.226,3.793M132.524,2.126a1.167,1.167,0,0,0-1.017.6l-5.446,9.906a1.166,1.166,0,0,0,1.013,1.741h10.9a1.167,1.167,0,0,0,1.166-1.165,1.142,1.142,0,0,0-.15-.571l-5.452-9.915a1.166,1.166,0,0,0-1.014-.59" transform="translate(1076.474 18.201)" fill="#6E8FC7"/>
    <path id="Path_60703" data-name="Path 60703" d="M133.262,10.611a.692.692,0,0,1-.692-.692V6.206a.692.692,0,0,1,1.385-.014v3.73a.692.692,0,0,1-.692.692" transform="translate(1075.739 16.766)" fill="#6E8FC7"/>
    <path id="Path_60704" data-name="Path 60704" d="M133.2,14.268a1.312,1.312,0,1,1,1.311-1.313h0a1.313,1.313,0,0,1-1.311,1.312m0-1.385a.072.072,0,0,0-.073.072h0c0,.081.146.081.146,0a.073.073,0,0,0-.074-.073h0" transform="translate(1075.802 16.207)" fill="#6E8FC7"/>
  </g>
</svg>
