<svg xmlns="http://www.w3.org/2000/svg" width="16" height="13.209" viewBox="0 0 16 13.209">
  <g id="classic_Header_Switch_Profile" transform="translate(-17.067 -92.879)">
    <g id="Group_14572" data-name="Group 14572" transform="translate(20.441 92.879)">
      <path id="Path_60695" data-name="Path 60695" d="M110.022,266.093h-7.9a2.376,2.376,0,0,1-2.361-2.385,4.11,4.11,0,0,1,4.085-4.126H108.3a4.11,4.11,0,0,1,4.085,4.126,2.376,2.376,0,0,1-2.361,2.385Zm-6.18-5.582a3.185,3.185,0,0,0-3.165,3.2,1.451,1.451,0,0,0,1.442,1.456h7.9a1.451,1.451,0,0,0,1.442-1.456,3.185,3.185,0,0,0-3.165-3.2Z" transform="translate(-99.757 -252.884)" fill="#6E8FC7"/>
      <path id="Path_60696" data-name="Path 60696" d="M183.24,99.07a3.1,3.1,0,1,1,3.1-3.1A3.1,3.1,0,0,1,183.24,99.07Zm0-5.262a2.167,2.167,0,1,0,2.167,2.167A2.169,2.169,0,0,0,183.24,93.808Z" transform="translate(-176.928 -92.879)" fill="#6E8FC7"/>
    </g>
    <g id="Group_14574" data-name="Group 14574" transform="translate(17.067 93.613)">
      <g id="Group_14573" data-name="Group 14573" transform="translate(0 0)">
        <path id="Path_60697" data-name="Path 60697" d="M19.313,254.124H18.92a1.855,1.855,0,0,1-1.853-1.853v-.456a3.116,3.116,0,0,1,3.112-3.112h1.367a.464.464,0,1,1,0,.929H20.179A2.186,2.186,0,0,0,18,251.815v.456a.925.925,0,0,0,.924.924h.393a.464.464,0,0,1,0,.929Z" transform="translate(-17.067 -243.182)" fill="#6E8FC7"/>
        <path id="Path_60698" data-name="Path 60698" d="M84.35,116.026a2.582,2.582,0,1,1,.793-5.04.464.464,0,1,1-.286.884,1.653,1.653,0,1,0,0,3.148.464.464,0,1,1,.284.884,2.584,2.584,0,0,1-.792.124Z" transform="translate(-79.128 -110.862)" fill="#6E8FC7"/>
      </g>
    </g>
  </g>
</svg>
