<svg xmlns="http://www.w3.org/2000/svg" width="14.025" height="15.955" viewBox="0 0 14.025 15.955">
  <g id="modern_Header_Alarms" transform="translate(7200.724 18748.294)">
    <path id="Path_60713" data-name="Path 60713" d="M11.842,8.632V7.14A4.838,4.838,0,0,0,8.414,2.518V1.843a1.4,1.4,0,1,0-2.8,0v.678A4.838,4.838,0,0,0,2.182,7.143V8.632a7.34,7.34,0,0,1-2.052,5.1.468.468,0,0,0,.338.791H4.721a2.337,2.337,0,0,0,4.58,0h4.254a.468.468,0,0,0,.337-.791,7.343,7.343,0,0,1-2.051-5.1m-5.3-6.789a.468.468,0,0,1,.935,0v.49c-.154-.015-.31-.023-.468-.023s-.313.008-.468.023Zm.468,13.619a1.405,1.405,0,0,1-1.322-.934H8.333a1.405,1.405,0,0,1-1.322.934M1.473,13.593A8.261,8.261,0,0,0,3.113,8.634V7.14A3.9,3.9,0,1,1,10.9,7.027v1.6a8.262,8.262,0,0,0,1.642,4.958Z" transform="translate(-7200.725 -18748.734)" fill="#adadad"/>
    <path id="Path_60714" data-name="Path 60714" d="M14.223,7.3a.468.468,0,1,0,.935,0A6.967,6.967,0,0,0,13.1,2.345a.468.468,0,0,0-.661.661,6.035,6.035,0,0,1,1.78,4.3" transform="translate(-7201.858 -18748.898)" fill="#adadad"/>
    <path id="Path_60715" data-name="Path 60715" d="M.47,7.77A.467.467,0,0,0,.937,7.3v0a6.035,6.035,0,0,1,1.78-4.3.468.468,0,0,0-.661-.661A6.962,6.962,0,0,0,0,7.3a.467.467,0,0,0,.466.468h0" transform="translate(-7200.725 -18748.898)" fill="#adadad"/>
  </g>
</svg>
