<svg xmlns="http://www.w3.org/2000/svg" width="15.614" height="20" viewBox="0 0 15.614 20">
  <g id="Group_15941" data-name="Group 15941" transform="translate(0)">
    <g id="Group_15945" data-name="Group 15945">
      <path id="Path_60752" data-name="Path 60752" d="M15.335,14.03l-.854-1.471a2.588,2.588,0,0,1-.347-1.283V8.821a6.308,6.308,0,0,0-3.5-5.667,2.141,2.141,0,0,0,.019-.3,2.848,2.848,0,1,0-5.7,0,2.372,2.372,0,0,0,.019.323A6.633,6.633,0,0,0,1.479,9v2.272a2.592,2.592,0,0,1-.342,1.283L.283,14.03a2.046,2.046,0,0,0,1.77,3.077H4.368a3.49,3.49,0,0,0,6.877,0H13.56a2.048,2.048,0,0,0,1.775-3.077M7.807,1.206A1.646,1.646,0,0,1,9.442,2.7a.173.173,0,0,0-.053-.01,2.7,2.7,0,0,0-.328-.077.142.142,0,0,0-.043-.01c-.13-.024-.256-.043-.386-.063s-.275-.029-.415-.039-.275-.014-.415-.014H7.691c-.1,0-.2,0-.3.014l-.179.014c-.067,0-.135.014-.2.024l-.2.029c-.1.014-.188.034-.285.053a.824.824,0,0,0-.106.024c-.087.019-.169.039-.256.063a1.647,1.647,0,0,1,1.635-1.5m0,17.589a2.3,2.3,0,0,1-2.214-1.688h4.423a2.293,2.293,0,0,1-2.209,1.688m6.487-3.318a.827.827,0,0,1-.733.424H2.053a.825.825,0,0,1-.728-.42.836.836,0,0,1,0-.849l.854-1.471a3.784,3.784,0,0,0,.506-1.886V9A5.377,5.377,0,0,1,5.9,4.08a4.97,4.97,0,0,1,1.818-.386h.1a5.323,5.323,0,0,1,.781.058,5.459,5.459,0,0,1,.675.154,3.958,3.958,0,0,1,.458.159,5.107,5.107,0,0,1,3.2,4.755v2.455a3.728,3.728,0,0,0,.511,1.886l.854,1.471a.839.839,0,0,1,0,.844" transform="translate(0)" fill="#adadad"/>
    </g>
  </g>
</svg>
