<svg id="Group_15943" data-name="Group 15943" xmlns="http://www.w3.org/2000/svg" width="17.611" height="20" viewBox="0 0 17.611 20">
  <g id="Group_15944" data-name="Group 15944">
    <path id="Path_60753" data-name="Path 60753" d="M101.892,142.58a2.57,2.57,0,0,1-.347-1.278v-2.459a6.327,6.327,0,0,0-.318-1.986l-.988.988a4.872,4.872,0,0,1,.1,1V141.3a3.759,3.759,0,0,0,.511,1.88l.853,1.471a.836.836,0,0,1,0,.849.821.821,0,0,1-.733.424H92.161l-.039.039-.362.362-.805.805h.824a3.489,3.489,0,0,0,6.876,0h2.314a2.05,2.05,0,0,0,1.774-3.081Zm-6.673,6.239a2.3,2.3,0,0,1-2.208-1.688h4.417a2.294,2.294,0,0,1-2.208,1.688" transform="translate(-86.415 -130.025)" fill="#adadad"/>
    <path id="Path_60754" data-name="Path 60754" d="M17.434,2.334a.6.6,0,0,0-.424-.174.618.618,0,0,0-.429.174l-2.7,2.7a3.051,3.051,0,0,0-.227-.284,3.124,3.124,0,0,0-.241-.27,6.16,6.16,0,0,0-1.779-1.321,2.139,2.139,0,0,0,.019-.3,2.847,2.847,0,1,0-5.694,0,2.372,2.372,0,0,0,.019.323A6.615,6.615,0,0,0,2.477,9v2.276a2.525,2.525,0,0,1-.342,1.278l-.853,1.471a2.045,2.045,0,0,0,0,2.054,2.076,2.076,0,0,0,.227.313,1.6,1.6,0,0,0,.256.256,1.621,1.621,0,0,0,.309.2l-1.89,1.89a.6.6,0,0,0,0,.853.611.611,0,0,0,.853,0l2.488-2.488L4.724,15.9,13.6,7.02l.921-.921,2.912-2.912a.6.6,0,0,0,0-.853M8.8,1.205a1.65,1.65,0,0,1,1.639,1.5.044.044,0,0,0-.024,0,2.833,2.833,0,0,0-.337-.077A.511.511,0,0,0,10,2.6c-.13-.024-.26-.048-.4-.063A4.09,4.09,0,0,0,9.179,2.5c-.135-.01-.275-.014-.41-.014H8.692c-.13,0-.26.01-.39.024s-.256.024-.381.043c-.068.01-.135.019-.2.034-.111.014-.217.039-.323.063l-.222.058h0A1.65,1.65,0,0,1,8.8,1.205M3.017,15.9a.785.785,0,0,1-.4-.111.858.858,0,0,1-.26-.251.4.4,0,0,1-.039-.058.836.836,0,0,1,0-.849l.853-1.471a3.729,3.729,0,0,0,.506-1.881V9A5.372,5.372,0,0,1,6.9,4.079a4.924,4.924,0,0,1,1.813-.386h.1a5.124,5.124,0,0,1,3.756,1.639c.082.087.159.178.236.27s.15.193.217.294Z" transform="translate(0 0)" fill="#adadad"/>
  </g>
</svg>
