<svg id="Group_2351" data-name="Group 2351" xmlns="http://www.w3.org/2000/svg" width="11.585" height="11.584" viewBox="0 0 11.585 11.584">
  <path id="Path_1859" data-name="Path 1859" d="M2177.907,76.336a5.391,5.391,0,1,1,5.39-5.391,5.4,5.4,0,0,1-5.39,5.391m0-9.291a3.9,3.9,0,1,0,3.9,3.9,3.9,3.9,0,0,0-3.9-3.9" transform="translate(-2172.518 -65.555)" fill="#fff"/>
  <path id="Path_1860" data-name="Path 1860" d="M2206.775,100.558a.744.744,0,0,1-.527-.218l-2.171-2.171a.745.745,0,0,1,1.054-1.054l2.171,2.171a.745.745,0,0,1-.526,1.272" transform="translate(-2195.934 -88.974)" fill="#fff"/>
</svg>
