<svg xmlns="http://www.w3.org/2000/svg" width="15.292" height="15.998" viewBox="0 0 15.292 15.998">
  <g id="classic_Header_User" transform="translate(-20.441 -92.879)">
    <g id="Group_14572" data-name="Group 14572" transform="translate(20.441 92.879)">
      <path id="Path_60695" data-name="Path 60695" d="M112.189,267.468h-9.572a2.877,2.877,0,0,1-2.86-2.888,4.978,4.978,0,0,1,4.947-5h5.4a4.978,4.978,0,0,1,4.947,5,2.877,2.877,0,0,1-2.86,2.888Zm-7.484-6.76a3.858,3.858,0,0,0-3.834,3.872,1.757,1.757,0,0,0,1.746,1.763h9.572a1.757,1.757,0,0,0,1.746-1.763,3.858,3.858,0,0,0-3.834-3.872Z" transform="translate(-99.757 -251.47)" fill="#2665c9"/>
      <path id="Path_60696" data-name="Path 60696" d="M183.894,100.377a3.749,3.749,0,1,1,3.749-3.749A3.753,3.753,0,0,1,183.894,100.377Zm0-6.373a2.624,2.624,0,1,0,2.624,2.624A2.627,2.627,0,0,0,183.894,94Z" transform="translate(-176.248 -92.879)" fill="#2665c9"/>
    </g>
  </g>
</svg>
