<svg xmlns="http://www.w3.org/2000/svg" width="15.955" height="15.955" viewBox="0 0 15.955 15.955">
  <g id="classic_Header_Links" transform="translate(-1170 -18.001)">
    <path id="Path_60705" data-name="Path 60705" d="M89.91,12.52,88.03,14.4a1.995,1.995,0,0,1-2.821-2.821L88.97,7.819a1.993,1.993,0,0,1,2.82,0,.665.665,0,0,0,.94-.94,3.322,3.322,0,0,0-4.7,0L84.269,10.64a3.324,3.324,0,1,0,4.7,4.7l1.88-1.88a.665.665,0,1,0-.94-.94" transform="translate(1086.705 17.641)" fill="#2665c9"/>
    <path id="Path_60706" data-name="Path 60706" d="M98.423,1.2a3.323,3.323,0,0,0-4.7,0L91.466,3.452a.665.665,0,1,0,.94.94l2.256-2.256a1.995,1.995,0,0,1,2.821,2.821L93.346,9.094a1.993,1.993,0,0,1-2.82,0,.665.665,0,0,0-.94.94,3.322,3.322,0,0,0,4.7,0L98.423,5.9a3.325,3.325,0,0,0,0-4.7" transform="translate(1086.559 17.779)" fill="#2665c9"/>
  </g>
</svg>
