<svg xmlns="http://www.w3.org/2000/svg" width="21.184" height="22.202" viewBox="0 0 21.184 22.202">
  <path id="Subtraction_3" data-name="Subtraction 3" d="M17.223,22.2H3.961A4.01,4.01,0,0,1,0,18.165a6.94,6.94,0,0,1,6.854-6.986h7.477a6.938,6.938,0,0,1,6.854,6.986A4.01,4.01,0,0,1,17.223,22.2ZM6.854,12.754a5.377,5.377,0,0,0-5.311,5.413,2.449,2.449,0,0,0,2.418,2.466H17.222a2.45,2.45,0,0,0,2.419-2.466,5.378,5.378,0,0,0-5.312-5.413Zm3.739-2.271A5.281,5.281,0,0,1,5.284,5.242a5.308,5.308,0,0,1,10.616,0A5.292,5.292,0,0,1,10.593,10.483Zm0-8.911a3.7,3.7,0,0,0-3.716,3.67,3.716,3.716,0,0,0,7.431,0A3.7,3.7,0,0,0,10.593,1.572Z" fill="#2B2A58"/>
</svg>
