<?xml version="1.0" encoding="UTF-8"?>
<svg id="Layer_1" data-name="Layer 1" xmlns="http://www.w3.org/2000/svg" viewBox="0 0 17.88 17.79">
  <defs>
    <style>
      .cls-1 {
        fill: #434ba2;
        stroke-width: 0px;
      }
    </style>
  </defs>
  <g id="audits">
    <g id="Group_15537" data-name="Group 15537">
      <g id="Group_15394" data-name="Group 15394">
        <path id="Path_3353" data-name="Path 3353" class="cls-1" d="M9,17.15H.63V1.91h2.22c.18,0,.31-.16.3-.34,0-.16-.14-.29-.3-.3H.32c-.18,0-.32.14-.32.32v15.88c0,.18.14.32.32.32h8.68c.18,0,.33-.12.34-.3s-.12-.33-.3-.34c-.01,0-.02,0-.04,0"/>
        <path id="Path_3354" data-name="Path 3354" class="cls-1" d="M11.12,1.91h2.22v6.28c0,.18.12.33.3.34s.33-.12.34-.3c0-.01,0-.02,0-.04V1.59c0-.17-.14-.31-.32-.31h-2.54c-.18,0-.33.12-.34.3,0,.18.12.33.3.34.01,0,.02,0,.04,0"/>
        <path id="Path_3355" data-name="Path 3355" class="cls-1" d="M13.14,14.94v2.22h-5.74c-.18,0-.33.12-.34.3,0,.18.12.33.3.34.01,0,.02,0,.04,0h6.06c.18,0,.32-.14.32-.32v-2.54c0-.18-.16-.31-.34-.3-.16,0-.29.14-.3.3"/>
        <path id="Path_3356" data-name="Path 3356" class="cls-1" d="M4.13,3.18h5.72c.18,0,.32-.14.32-.32v-1.27c0-.18-.14-.32-.32-.32h-1.3c-.18-.86-1.01-1.41-1.87-1.24-.62.13-1.11.61-1.24,1.24h-1.3c-.18,0-.32.14-.32.31,0,0,0,0,0,0v1.27c0,.18.14.32.32.32M4.45,1.91h1.27c.18,0,.32-.14.32-.32,0-.53.43-.95.95-.95.53,0,.95.43.95.95,0,.18.14.32.32.32h1.27v.63h-5.08v-.63Z"/>
        <path id="Path_3357" data-name="Path 3357" class="cls-1" d="M3.81,11.12c0-.18-.14-.32-.32-.32h-1.27c-.18,0-.32.14-.32.32v1.27c0,.18.14.32.32.32h1.27c.18,0,.32-.14.32-.32v-1.27ZM3.18,12.07h-.64v-.63h.63v.63Z"/>
        <path id="Path_3358" data-name="Path 3358" class="cls-1" d="M3.49,13.98h-1.27c-.18,0-.32.14-.32.32v1.27c0,.18.14.32.32.32h1.27c.18,0,.32-.14.32-.32v-1.27c0-.18-.14-.32-.32-.32M3.18,15.25h-.63v-.63h.63v.63Z"/>
        <path id="Path_3359" data-name="Path 3359" class="cls-1" d="M2.47,5.2c-.11-.14-.31-.15-.45-.04-.14.11-.15.31-.04.45l.53.64c.11.14.31.15.45.04.01-.01.03-.03.04-.04l1.06-1.27c.11-.14.09-.34-.04-.45-.14-.11-.34-.09-.45.04l-.82.98-.29-.34h0Z"/>
        <path id="Path_3360" data-name="Path 3360" class="cls-1" d="M4.01,7.7c-.13-.11-.34-.09-.45.04,0,0,0,0,0,0l-.82.98-.29-.34c-.11-.14-.31-.15-.45-.04-.14.11-.15.31-.04.45l.53.64c.11.14.31.15.45.04.01-.01.03-.03.04-.04l1.06-1.27c.11-.13.09-.34-.04-.45h0s0,0,0,0Z"/>
        <path id="Path_3361" data-name="Path 3361" class="cls-1" d="M12.06,4.77c0-.17-.14-.31-.31-.32h-6.67c-.18,0-.33.12-.34.3s.12.33.3.34c.01,0,.02,0,.04,0h6.67c.18,0,.32-.14.32-.32"/>
        <path id="Path_3362" data-name="Path 3362" class="cls-1" d="M5.08,6.35h3.18c.18,0,.31-.16.3-.34,0-.16-.14-.29-.3-.3h-3.18c-.18,0-.33.12-.34.3s.12.33.3.34c.01,0,.02,0,.04,0"/>
        <path id="Path_3363" data-name="Path 3363" class="cls-1" d="M11.24,7.94c0-.18-.14-.32-.32-.32h-5.84c-.18,0-.31.16-.3.34,0,.16.14.29.3.3h5.84c.18,0,.32-.14.32-.32"/>
        <path id="Path_3364" data-name="Path 3364" class="cls-1" d="M5.08,9.53h3.18c.18,0,.31-.16.3-.34,0-.16-.14-.29-.3-.3h-3.18c-.18,0-.31.16-.3.34,0,.16.14.29.3.3"/>
        <path id="Path_3365" data-name="Path 3365" class="cls-1" d="M5.08,11.43h3.5c.18,0,.33-.12.34-.3,0-.18-.12-.33-.3-.34-.01,0-.02,0-.04,0h-3.5c-.18,0-.31.16-.3.34,0,.16.14.29.3.3"/>
        <path id="Path_3366" data-name="Path 3366" class="cls-1" d="M5.08,12.71h3.18c.18,0,.31-.16.3-.34,0-.16-.14-.29-.3-.3h-3.18c-.18,0-.33.12-.34.3s.12.33.3.34c.01,0,.02,0,.04,0"/>
        <path id="Path_3367" data-name="Path 3367" class="cls-1" d="M9.02,14.29c0-.18-.14-.32-.32-.32h-3.62c-.18,0-.33.12-.34.3s.12.33.3.34c.01,0,.02,0,.04,0h3.62c.18,0,.32-.14.32-.32"/>
        <path id="Path_3368" data-name="Path 3368" class="cls-1" d="M5.08,15.25c-.18,0-.31.16-.3.34,0,.16.14.29.3.3h3.18c.18,0,.31-.16.3-.34,0-.16-.14-.29-.3-.3h-3.18Z"/>
        <path id="Path_3370" data-name="Path 3370" class="cls-1" d="M15.31,9.08c-1.33-1.32-3.47-1.32-4.79,0-1.32,1.33-1.32,3.47,0,4.79,1.21,1.21,3.13,1.32,4.48.27l2.23,2.22c.17.13.43.1.56-.07.11-.14.11-.34,0-.49l-2.22-2.23c1.07-1.35.96-3.29-.27-4.5M14.74,13.31c-1.01,1.01-2.65,1.02-3.66,0h0c-.49-.49-.77-1.15-.76-1.84,0-1.44,1.16-2.6,2.6-2.6s2.6,1.16,2.6,2.6c0,.69-.28,1.35-.77,1.83"/>
      </g>
    </g>
  </g>
</svg>