<?xml version="1.0" encoding="UTF-8"?>
<svg id="Layer_1" data-name="Layer 1" xmlns="http://www.w3.org/2000/svg" viewBox="0 0 17.55 17.55">
  <defs>
    <style>
      .cls-1 {
        fill: #484660;
        stroke-width: 0px;
      }
    </style>
  </defs>
  <g id="Background_reports" data-name="Background reports">
    <g id="background_reports-2" data-name="background reports-2">
      <g id="Group_15531" data-name="Group 15531">
        <g id="Group_15550" data-name="Group 15550">
          <path id="Path_4062" data-name="Path 4062" class="cls-1" d="M17.45,3.3l-.02-.02h0L14.25.1c-.06-.06-.15-.1-.24-.1h-7.27c-.51,0-.92.41-.92.92v1.71C2.42,2.82-.18,5.73,0,9.12c.17,3.13,2.67,5.63,5.8,5.8v1.71c0,.51.41.92.92.92h9.9c.51,0,.92-.41.92-.92V3.54c0-.09-.04-.18-.1-.24M11.62,9.12c-.17,2.88-2.56,5.14-5.45,5.14-.09,0-.19,0-.28,0-1.24-.06-2.42-.55-3.35-1.37l3.76-3.76h5.33ZM6.49,16.63v-1.71c3.26-.18,5.81-2.88,5.82-6.14,0-.19-.15-.34-.34-.34h-5.47V.92c0-.13.11-.24.24-.24h6.93v2.28c0,.51.41.92.92.92h2.28v12.75c0,.13-.11.24-.24.24H6.73c-.13,0-.24-.11-.24-.24M14.35,2.96v-1.8l2.04,2.04h-1.8c-.13,0-.24-.11-.24-.24h0M5.81,3.31v5.33l-3.76,3.76c-.89-1-1.38-2.29-1.38-3.62,0-2.89,2.25-5.28,5.14-5.46"/>
          <path id="Path_4063" data-name="Path 4063" class="cls-1" d="M13.48,7.61c0-3.4-2.76-6.15-6.16-6.16-.19,0-.34.15-.34.34h0v5.82c0,.19.15.34.34.34h5.82c.19,0,.34-.15.34-.34h0M12.78,7.27h-5.12V2.15c2.76.17,4.95,2.37,5.12,5.12"/>
          <rect id="Rectangle_1471" data-name="Rectangle 1471" class="cls-1" x="13.96" y="4.95" width="2.43" height=".68"/>
          <rect id="Rectangle_1472" data-name="Rectangle 1472" class="cls-1" x="13.96" y="6.69" width="2.43" height=".68"/>
          <rect id="Rectangle_1473" data-name="Rectangle 1473" class="cls-1" x="13.96" y="8.44" width="2.43" height=".68"/>
        </g>
      </g>
    </g>
  </g>
</svg>