<svg xmlns="http://www.w3.org/2000/svg" width="58.09" height="67.349" viewBox="0 0 58.09 67.349">
  <g id="logout" transform="translate(-4925.036 430.93)">
    <path id="Path_598" data-name="Path 598" d="M10750.089,83.408a29.042,29.042,0,0,1-20.567-49.557,3.121,3.121,0,0,1,4.456,4.372l-.031.031a22.793,22.793,0,1,0,32.273.012,3.122,3.122,0,1,1,4.427-4.4,29.045,29.045,0,0,1-20.569,49.556Z" transform="translate(-5796 -447)" fill="#2B2A58"/>
    <path id="Path_599" data-name="Path 599" d="M10750.089,45.293a3.216,3.216,0,0,1-3.208-3.223V19.286a3.214,3.214,0,1,1,6.429,0V42.07a3.217,3.217,0,0,1-3.212,3.223h-.009" transform="translate(-5796 -447)" fill="#2B2A58"/>
  </g>
</svg>
