<?xml version="1.0" encoding="UTF-8"?>
<svg id="Layer_1" data-name="Layer 1" xmlns="http://www.w3.org/2000/svg" viewBox="0 0 17.81 15.38">
  <defs>
    <style>
      .cls-1 {
        fill: #484660;
        stroke-width: 0px;
      }
    </style>
  </defs>
  <g id="graphs">
    <g id="Group_14746" data-name="Group 14746">
      <g id="Group_14745" data-name="Group 14745">
        <g id="Group_14744" data-name="Group 14744">
          <path id="Union_8" data-name="Union 8" class="cls-1" d="M0,15.38v-.93h17.81v.93H0Z"/>
          <path id="Union_11" data-name="Union 11" class="cls-1" d="M12.34,12.73V.39c.02-.23.21-.4.44-.39h3.36c.23-.01.42.16.44.39v12.34c-.02.23-.21.4-.44.39h-3.38c-.22,0-.4-.17-.42-.38ZM13.21,12.33h2.49V.79h-2.49v11.54ZM1.86,12.73v-5.23c.01-.22.2-.39.43-.38h3.24c.22,0,.41.16.43.38v5.23c-.01.22-.19.38-.41.38h-3.28c-.22,0-.39-.17-.41-.38ZM2.71,12.33h2.4v-4.44h-2.4v4.44Z"/>
          <path id="Path_2468" data-name="Path 2468" class="cls-1" d="M7.47,13.01h3.36c.17.01.32-.12.34-.29V4.03c-.01-.17-.16-.3-.34-.29h-3.36c-.17-.01-.32.12-.34.29v8.69c.01.17.16.3.34.29h0ZM7.8,4.32h2.69v8.11h-2.69V4.32Z"/>
          <path id="Path_2468_-_Outline" data-name="Path 2468 - Outline" class="cls-1" d="M7.44,13.11c-.22,0-.4-.17-.41-.38V4.02c.02-.23.21-.39.44-.38h3.36c.23-.01.42.16.44.38v8.71c-.02.22-.2.38-.41.38h-3.41ZM7.23,12.71c0,.12.11.21.23.2h3.38c.12,0,.22-.08.23-.19V4.03c-.01-.12-.11-.2-.23-.19h-3.38c-.12,0-.22.08-.23.19v8.68ZM10.59,12.53h-2.89V4.21h2.89v8.31ZM7.9,12.33h2.49v-7.91h-2.49v7.91Z"/>
        </g>
      </g>
    </g>
  </g>
</svg>