<?xml version="1.0" encoding="UTF-8"?>
<svg id="Layer_2" data-name="Layer 2" xmlns="http://www.w3.org/2000/svg" viewBox="0 0 17.77 14.35">
  <defs>
    <style>
      .cls-1 {
        fill: #484660;
        stroke-width: 0px;
      }
    </style>
  </defs>
  <g id="Layer_1-2" data-name="Layer 1-2">
    <g id="groups">
      <g id="Group_14756" data-name="Group 14756">
        <g id="Group_2069" data-name="Group 2069">
          <g id="Group_14741" data-name="Group 14741">
            <path id="Subtraction_8" data-name="Subtraction 8" class="cls-1" d="M15.23,14.35H6.71c-1.43-.03-2.56-1.2-2.55-2.63-.03-2.47,1.93-4.5,4.4-4.55h4.81c2.47.05,4.43,2.08,4.4,4.55.02,1.43-1.12,2.6-2.55,2.63h.01ZM8.57,8.2c-1.91.04-3.44,1.61-3.41,3.52,0,.87.69,1.58,1.55,1.6h8.52c.87-.02,1.56-.73,1.55-1.6.02-1.91-1.5-3.49-3.41-3.52,0,0-4.8,0-4.8,0ZM10.97,6.82c-1.88,0-3.41-1.53-3.41-3.41,0-1.88,1.53-3.41,3.41-3.41s3.41,1.53,3.41,3.41-1.53,3.41-3.41,3.41h0ZM10.97,1.02c-1.32,0-2.39,1.07-2.38,2.39s1.07,2.39,2.39,2.38c1.32,0,2.38-1.07,2.38-2.39s-1.07-2.39-2.39-2.39h0Z"/>
          </g>
        </g>
        <g id="Group_14574" data-name="Group 14574">
          <g id="Group_14573" data-name="Group 14573">
            <path id="Path_60697" data-name="Path 60697" class="cls-1" d="M2.47,12.67h-.43c-1.13,0-2.04-.92-2.04-2.04v-.5c0-1.9,1.54-3.43,3.43-3.43h1.5c.28-.02.53.2.54.48.02.28-.2.53-.48.54h-1.57c-1.33,0-2.4,1.07-2.41,2.4v.5c0,.56.45,1.02,1.02,1.02h.43c.28,0,.51.23.51.51s-.23.51-.51.51h0Z"/>
            <path id="Path_60698" data-name="Path 60698" class="cls-1" d="M5.75,6.5c-1.57,0-2.84-1.27-2.84-2.85S4.18.81,5.76.81c.3,0,.59.05.87.14.27.08.43.36.35.64-.08.27-.36.43-.64.35h-.02c-.96-.31-1.98.22-2.29,1.18-.31.96.22,1.98,1.18,2.29.36.12.75.12,1.11,0,.27-.09.56.05.65.31.09.27-.05.56-.31.65h-.03c-.28.1-.58.14-.87.14h-.01Z"/>
          </g>
        </g>
      </g>
    </g>
  </g>
</svg>