<?xml version="1.0" encoding="UTF-8"?>
<svg id="Layer_2" data-name="Layer 2" xmlns="http://www.w3.org/2000/svg" viewBox="0 0 17.67 17.99">
  <defs>
    <style>
      .cls-1 {
        fill: #434ba2;
        stroke-width: 0px;
      }
    </style>
  </defs>
  <g id="Layer_1-2" data-name="Layer 1-2">
    <g>
      <g id="infrastructure_modern" data-name="infrastructure modern">
        <g id="noun-infrastructure-6589025">
          <g id="Group_15087" data-name="Group 15087">
            <path id="Path_3319" data-name="Path 3319" class="cls-1" d="M17.55,9.35c-.06-.06-.13-.09-.22-.09H.39c-.08,0-.16.03-.22.09-.06.05-.09.13-.1.21v.59c0,.48.39.86.87.86h1.07c.16.65.42,1.26.77,1.84l-.75.75c-.16.16-.26.38-.25.61,0,.23.09.45.25.61l1.25,1.24c.34.33.88.33,1.23,0l.75-.75c.57.34,1.19.6,1.84.76v1.06c0,.48.39.86.87.86h1.77c.48,0,.86-.38.87-.86v-1.06c.65-.16,1.27-.42,1.84-.76l.75.75c.34.33.88.33,1.23,0l1.25-1.24c.34-.33.34-.88,0-1.22h0l-.75-.75c.34-.57.6-1.19.77-1.84h1.07c.48,0,.86-.38.87-.86v-.59c.01-.08-.02-.16-.08-.21h-.01ZM12.76,9.87c-.34,2.16-2.36,3.63-4.51,3.3-1.7-.26-3.03-1.6-3.3-3.3h7.81ZM17.03,10.15c0,.15-.12.26-.26.26h-1.3c-.14,0-.27.1-.3.24-.16.74-.45,1.45-.87,2.08-.08.12-.06.28.04.38l.93.92c.1.1.1.26,0,.37l-1.25,1.24c-.1.1-.27.1-.37,0l-.93-.92c-.1-.1-.26-.12-.38-.04-.64.41-1.35.71-2.09.86-.14.03-.24.15-.24.3v1.3c0,.14-.12.26-.26.26h-1.77c-.14,0-.26-.12-.26-.26v-1.3c0-.14-.1-.26-.24-.3-.74-.16-1.45-.45-2.09-.86-.05-.03-.11-.05-.16-.05-.08,0-.16.03-.22.09l-.92.92c-.1.1-.27.1-.37,0l-1.25-1.24c-.1-.1-.1-.26,0-.37l.92-.92c.1-.1.12-.26.04-.38-.42-.63-.71-1.34-.87-2.08-.03-.14-.15-.24-.3-.24H.94c-.15,0-.26-.12-.26-.26v-.29h3.66c.34,2.49,2.64,4.24,5.13,3.9,2.03-.28,3.62-1.87,3.9-3.9h3.66s0,.29,0,.29Z"/>
          </g>
        </g>
      </g>
      <g>
        <path class="cls-1" d="M13.5,8.18V1.39c0-.1-.07-.2-.18-.22L7.76,0c-.07,0-.13,0-.19.04-.05.04-.08.11-.08.17v1.54h-3.11c-.12,0-.22.1-.22.22v6.19H0v.52h17.67v-.52h-4.17v.02ZM7.94.49l5.12,1.07v6.61h-1.18v-2.93c0-.12-.1-.22-.22-.22h-2.18V1.99c0-.12-.1-.22-.22-.22h-1.32s0-1.28,0-1.28ZM8.17,5.47h3.27v2.71h-.71v-1.55c0-.12-.1-.22-.22-.22h-1.41c-.12,0-.22.1-.22.22v1.55h-.71v-2.71ZM9.32,8.18v-1.32h.96v1.32h-.96ZM4.61,2.21h4.43v2.82h-1.09c-.12,0-.22.1-.22.22v2.93h-3.12V2.21Z"/>
        <path class="cls-1" d="M5.25,5.47h1.74c.12,0,.22-.1.22-.22s-.1-.22-.22-.22h-1.74c-.12,0-.22.1-.22.22h0c0,.12.1.22.22.22Z"/>
        <path class="cls-1" d="M6.99,7.4h-1.74c-.12,0-.22.1-.22.22s.1.22.22.22h1.74c.12,0,.22-.1.22-.22s-.1-.22-.22-.22Z"/>
        <path class="cls-1" d="M6.99,6.61h-1.74c-.12,0-.22.1-.22.22s.1.22.22.22h1.74c.12,0,.22-.1.22-.22s-.1-.22-.22-.22Z"/>
        <path class="cls-1" d="M5.26,3.1h3c.12,0,.22-.1.22-.22s-.1-.22-.22-.22h-3c-.12,0-.22.1-.22.22h0c0,.12.1.22.22.22Z"/>
        <path class="cls-1" d="M5.26,4.68h3c.12,0,.22-.1.22-.22s-.1-.22-.22-.22h-3c-.12,0-.22.1-.22.22h0c0,.12.1.22.22.22Z"/>
        <path class="cls-1" d="M5.26,3.89h3c.12,0,.22-.1.22-.22s-.1-.22-.22-.22h-3c-.12,0-.22.1-.22.22h0c0,.12.1.22.22.22Z"/>
        <path class="cls-1" d="M6.99,5.82h-1.74c-.12,0-.22.1-.22.22s.1.22.22.22h1.74c.12,0,.22-.1.22-.22s-.1-.22-.22-.22Z"/>
      </g>
    </g>
  </g>
</svg>