<svg id="Layer_26" data-name="Layer 26" xmlns="http://www.w3.org/2000/svg" width="21.479" height="22.281" viewBox="0 0 21.479 22.281">
  <path id="Path_5" data-name="Path 5" d="M43.883,17.6H29.947a3.776,3.776,0,0,0-3.771,3.771V36.11a3.776,3.776,0,0,0,3.771,3.771H43.883a3.776,3.776,0,0,0,3.771-3.771V21.371A3.775,3.775,0,0,0,43.883,17.6Zm2.425,18.509a2.428,2.428,0,0,1-2.425,2.425H29.947a2.428,2.428,0,0,1-2.425-2.425V21.371a2.428,2.428,0,0,1,2.425-2.425H43.883a2.428,2.428,0,0,1,2.425,2.425Z" transform="translate(-26.176 -17.6)" fill="#2B2A58"/>
  <path id="Path_6" data-name="Path 6" d="M169.041,117.954h6.844a.673.673,0,1,0,0-1.346h-6.844a.673.673,0,1,0,0,1.346Z" transform="translate(-161.724 -111.982)" fill="#2B2A58"/>
  <path id="Path_7" data-name="Path 7" d="M322.528,221.154l-1.324,1.068-.309-.394a.673.673,0,0,0-1.059.831l.73.93a.671.671,0,0,0,.452.253.659.659,0,0,0,.077,0,.673.673,0,0,0,.422-.149l1.855-1.495a.674.674,0,0,0-.844-1.05Z" transform="translate(-305.977 -211.502)" fill="#2B2A58"/>
  <path id="Path_8" data-name="Path 8" d="M115.584,236.976h-6.719a.673.673,0,1,0,0,1.346h6.719a.673.673,0,1,0,0-1.346Z" transform="translate(-104.36 -226.725)" fill="#2B2A58"/>
  <path id="Path_9" data-name="Path 9" d="M322.528,334.756l-1.324,1.068-.309-.393a.673.673,0,1,0-1.059.831l.73.93a.671.671,0,0,0,.452.254.662.662,0,0,0,.077,0,.673.673,0,0,0,.422-.149l1.855-1.5a.674.674,0,0,0-.844-1.05Z" transform="translate(-305.977 -319.795)" fill="#2B2A58"/>
  <path id="Path_10" data-name="Path 10" d="M115.584,350.592h-6.719a.673.673,0,1,0,0,1.346h6.719a.673.673,0,1,0,0-1.346Z" transform="translate(-104.36 -335.032)" fill="#2B2A58"/>
</svg>
