<?xml version="1.0" encoding="UTF-8"?>
<svg id="Layer_1" data-name="Layer 1" xmlns="http://www.w3.org/2000/svg" viewBox="0 0 17.64 16.83">
  <defs>
    <style>
      .cls-1 {
        fill: #434ba2;
        stroke-width: 0px;
      }
    </style>
  </defs>
  <g id="reporter_favorites" data-name="reporter favorites">
    <g id="favorites">
      <g id="star">
        <g id="Group_15494" data-name="Group 15494">
          <path id="Path_4044" data-name="Path 4044" class="cls-1" d="M17.62,6.39c-.06-.19-.22-.32-.42-.35l-5.47-.8L9.29.29c-.13-.26-.44-.36-.69-.23-.1.05-.18.13-.23.23l-2.45,4.96L.44,6.04c-.28.04-.48.3-.44.59.02.11.07.22.15.3l3.96,3.86-.93,5.45c-.05.28.14.55.42.6.11.02.23,0,.33-.05l4.89-2.57,4.89,2.57c.25.13.57.04.7-.22.05-.1.07-.22.05-.33l-.93-5.45,3.96-3.86c.14-.14.19-.34.13-.53ZM12.61,10.23c-.12.12-.18.29-.15.46l.8,4.68-4.2-2.21c-.15-.08-.33-.08-.48,0l-4.21,2.21.8-4.68c.03-.17-.03-.34-.15-.46l-3.4-3.32,4.7-.68c.17-.02.31-.13.39-.28l2.1-4.26,2.1,4.26c.08.15.22.26.39.28l4.7.68-3.39,3.32Z"/>
        </g>
      </g>
    </g>
  </g>
</svg>