<svg xmlns="http://www.w3.org/2000/svg" width="15.999" height="16" viewBox="0 0 15.999 16"><ellipse cx="4.522" cy="4.522" rx="4.522" ry="4.522" transform="translate(3.477 3.477)" fill="#868CD6"/><path d="M39.511,34a4.094,4.094,0,0,1-5.491,5.491A4.094,4.094,0,1,0,39.511,34Z" transform="translate(-29.658 -29.637)" fill="#868CD6" opacity="0"/><g transform="translate(0 0)"><path d="M62.244,2A.245.245,0,0,0,62,2.244V3.615a.244.244,0,1,0,.489,0V2.244A.245.245,0,0,0,62.244,2Z" transform="translate(-54.245 -2)" fill="#868CD6"/><path d="M62.244,110.73a.245.245,0,0,0-.244.244v1.371a.244.244,0,1,0,.489,0v-1.371A.244.244,0,0,0,62.244,110.73Z" transform="translate(-54.245 -96.589)" fill="#868CD6"/><path d="M97.515,19.636l-.969.969a.244.244,0,1,0,.345.346l.969-.969a.244.244,0,1,0-.345-.346Z" transform="translate(-84.08 -17.419)" fill="#868CD6"/><path d="M20.635,96.516l-.969.969a.244.244,0,1,0,.345.346l.969-.969a.244.244,0,0,0-.345-.346Z" transform="translate(-17.449 -84.05)" fill="#868CD6"/><path d="M112.365,61.97h-1.371a.244.244,0,1,0,0,.489h1.371a.244.244,0,0,0,0-.489Z" transform="translate(-96.611 -54.215)" fill="#868CD6"/><path d="M3.645,61.97H2.274a.244.244,0,0,0,0,.489H3.645a.244.244,0,0,0,0-.489Z" transform="translate(-2.03 -54.215)" fill="#868CD6"/><path d="M96.892,96.516a.244.244,0,0,0-.346.346l.969.969a.244.244,0,1,0,.345-.346Z" transform="translate(-84.08 -84.05)" fill="#868CD6"/><path d="M20.012,19.636a.244.244,0,1,0-.346.346l.969.969a.244.244,0,0,0,.345-.346Z" transform="translate(-17.449 -17.419)" fill="#868CD6"/></g></svg>