<?xml version="1.0" encoding="UTF-8"?>
<svg id="Layer_2" data-name="Layer 2" xmlns="http://www.w3.org/2000/svg" viewBox="0 0 15.41 17.13">
  <defs>
    <style>
      .cls-1 {
        fill: #434ba2;
        stroke-width: 0px;
      }
    </style>
  </defs>
  <g id="Layer_1-2" data-name="Layer 1-2">
    <g>
      <path class="cls-1" d="M10.43,8.77h-5.44C2.15,8.87-.08,11.23,0,14.07c-.04,1.64,1.24,3.01,2.88,3.06h9.65c1.64-.05,2.93-1.42,2.88-3.06.08-2.84-2.15-5.2-4.99-5.29h.01ZM12.53,15.94H2.88c-1-.03-1.79-.87-1.76-1.87-.06-2.2,1.67-4.03,3.86-4.1h5.44c2.2.07,3.92,1.9,3.86,4.1.03,1-.76,1.84-1.76,1.87h.01Z"/>
      <path class="cls-1" d="M7.71,7.97c2.12-.08,3.77-1.85,3.7-3.97.01-.19.01-.38,0-.57C11.25,1.38,9.47-.15,7.42.01c-2.05.16-3.57,1.94-3.41,3.99-.07,2.12,1.58,3.89,3.7,3.97ZM7.9,1.22c1.48.06,2.64,1.3,2.59,2.78v.2c-.11,1.54-1.44,2.69-2.98,2.58-1.54-.11-2.69-1.44-2.58-2.98s1.44-2.69,2.98-2.58h0Z"/>
    </g>
  </g>
</svg>