<?xml version="1.0" encoding="UTF-8"?><svg id="Group_16329" xmlns="http://www.w3.org/2000/svg" viewBox="0 0 16 16"><defs><style>.cls-1{fill:none;}.cls-2{fill:#434BA2;}</style></defs><g id="Group_16331"><g id="Group_16329-2"><g id="Group_15814"><g id="Group_15810"><g id="Group_15813"><path id="Path_60839" class="cls-2" d="M15.8,12.83l-2.92-5.31c-.41-.73-1.34-.99-2.07-.58-.25.14-.45.34-.58.58l-2.92,5.3c-.42.73-.16,1.66.57,2.07.23.13.49.2.76.2h5.84c.84,0,1.52-.68,1.52-1.52,0-.26-.07-.51-.19-.74M11.55,7.8c.17,0,.32.09.41.24l2.89,5.21v.05l.03.05c.13.23.05.51-.18.64-.07.04-.15.06-.23.06h-5.84c-.26,0-.47-.21-.47-.47,0-.08.02-.16.06-.23l2.92-5.3c.08-.15.24-.24.41-.24"/><path id="Path_60840" class="cls-2" d="M11.55,12.11c.29,0,.53-.24.53-.53v-1.99c0-.29-.24-.53-.53-.53s-.53.24-.53.53v1.99c0,.29.24.53.53.53"/><path id="Path_60841" class="cls-2" d="M11.55,13.43c.29,0,.53-.24.53-.53s-.24-.53-.53-.53-.53.24-.53.53.24.53.53.53h0"/></g></g><path class="cls-1" d="M5.85,2.06h0c-1.18,0-2.14.96-2.14,2.14s.95,2.14,2.14,2.14,2.14-.96,2.14-2.14h0c0-1.18-.96-2.14-2.14-2.14Z"/><path class="cls-2" d="M5.85.91c-1.82,0-3.29,1.47-3.29,3.29h0c0,1.82,1.47,3.3,3.29,3.3h0c1.82,0,3.29-1.48,3.29-3.29S7.67.92,5.85.91ZM7.99,4.21c0,1.18-.96,2.14-2.14,2.14s-2.14-.96-2.14-2.14.96-2.13,2.14-2.14h0c1.18,0,2.14.96,2.14,2.14h0Z"/><path class="cls-2" d="M6.78,8.59h-3.65c-1.73,0-3.13,1.4-3.13,3.13v2.24c0,.32.26.58.58.58h5.57c.32,0,.59-.23.6-.55,0-.32-.23-.59-.55-.6H1.15v-1.66c0-1.09.89-1.98,1.98-1.98h3.65c.32,0,.58-.26.58-.58s-.26-.58-.58-.58Z"/></g></g></g></svg>