<?xml version="1.0" encoding="UTF-8"?><svg id="Layer_1" xmlns="http://www.w3.org/2000/svg" viewBox="0 0 16 16"><defs><style>.cls-1{fill:#434BA2;fill-rule:evenodd;}</style></defs><g id="Group_15784"><g id="Group_15716"><g id="Group_15783"><path id="Path_60773" class="cls-1" d="M8,0c2.24,0,4.06,1.82,4.06,4.06,0,2.24-1.82,4.06-4.06,4.06-2.24,0-4.06-1.82-4.06-4.06h0C3.93,1.82,5.75,0,7.99,0c0,0,0,0,0,0ZM8,1.2c-1.58,0-2.86,1.28-2.86,2.86s1.28,2.86,2.86,2.86,2.86-1.28,2.86-2.86h0c0-1.58-1.28-2.85-2.86-2.85"/><path id="Path_60774" class="cls-1" d="M16,14.58c-.03.81-.7,1.44-1.51,1.42H1.51C.7,16.02.03,15.39,0,14.58c.12-3.58,3.12-6.39,6.7-6.28h2.6c3.58-.11,6.58,2.7,6.7,6.28M15.37,15.17s-.02,0-.02.02l.02-.02ZM1.5,14.45c0,.11.1.2.21.19,0,0,0,0,0,0h12.58c.11,0,.2-.08.21-.19-.1-2.8-2.44-4.99-5.24-4.91h-2.52c-2.8-.08-5.14,2.11-5.23,4.91"/></g></g></g></svg>