<?xml version="1.0" encoding="UTF-8"?>
<svg id="Layer_1" xmlns="http://www.w3.org/2000/svg" version="1.1" viewBox="0 0 16 16">
  <!-- Generator: Adobe Illustrator 29.5.0, SVG Export Plug-In . SVG Version: 2.1.0 Build 137)  -->
  <defs>
    <style>
      .st0 {
        fill:#484660;
      }

      .st0, .st1 {
        fill-rule: evenodd;
      }

      .st1 {
        fill:#484660;
      }
    </style>
  </defs>
  <g id="Group_15784">
    <g id="Group_15716">
      <g id="Group_15783">
        <path id="Path_60773" class="st0" d="M8,0c2.2,0,4.1,1.8,4.1,4.1,0,2.2-1.8,4.1-4.1,4.1-2.2,0-4.1-1.8-4.1-4.1h0C3.9,1.8,5.8,0,8,0c0,0,0,0,0,0ZM8,1.2c-1.6,0-2.9,1.3-2.9,2.9s1.3,2.9,2.9,2.9,2.9-1.3,2.9-2.9h0c0-1.6-1.3-2.9-2.9-2.9"/>
        <path id="Path_60774" class="st1" d="M16,14.6c0,.8-.7,1.4-1.5,1.4H1.5C.7,16,0,15.4,0,14.6c.1-3.6,3.1-6.4,6.7-6.3h2.6c3.6-.1,6.6,2.7,6.7,6.3M15.4,15.2s0,0,0,0h0ZM1.5,14.5c0,.1,0,.2.2.2,0,0,0,0,0,0h12.6c.1,0,.2,0,.2-.2,0-2.8-2.4-5-5.2-4.9h-2.5c-2.8,0-5.1,2.1-5.2,4.9"/>
      </g>
    </g>
  </g>
</svg>