<?xml version="1.0" encoding="UTF-8"?><svg id="Layer_1" xmlns="http://www.w3.org/2000/svg" xmlns:xlink="http://www.w3.org/1999/xlink" viewBox="0 0 16 16"><defs><style>.cls-1{fill:none;}.cls-2{fill:#434BA2;}.cls-3{clip-path:url(#clippath);}</style><clipPath id="clippath"><rect class="cls-1" x=".72" width="14.56" height="16"/></clipPath></defs><g id="Group_15806"><g class="cls-3"><g id="Group_15805"><path id="Path_60828" class="cls-2" d="M14.87,7.43h-1.15V2.98h.21c.09,0,.17-.03.24-.08.09-.06.15-.16.17-.26.02-.11,0-.21-.07-.3L12.71.17s-.06-.07-.1-.09c-.19-.13-.44-.09-.57.09l-1.56,2.16c-.05.07-.08.15-.08.24,0,.23.19.41.41.41h.21v4.45h-1.68v-2.91h.21c.09,0,.17-.03.24-.08.18-.13.23-.37.1-.56,0,0,0,0,0-.01l-1.56-2.16s-.06-.07-.1-.1c-.19-.13-.44-.09-.57.1l-1.56,2.16c-.05.07-.08.15-.08.24,0,.23.19.41.41.41h.21v2.91h-1.67v-1.37h.21c.09,0,.17-.03.24-.08.18-.13.23-.38.1-.56,0,0,0,0,0-.01l-1.56-2.16s-.06-.07-.1-.1c-.19-.13-.44-.09-.57.1l-1.56,2.16c-.05.07-.08.15-.08.24,0,.23.19.41.41.41h.21v1.37h-1.15c-.22,0-.4.18-.41.41v1.93c0,.21.17.39.38.41l.8.06c.15.64.41,1.26.76,1.82l-.52.6c-.14.16-.13.4.02.55l1.38,1.37c.15.15.39.16.56.02l.61-.51c.57.35,1.19.6,1.84.75l.07.79c.02.21.2.37.41.37h1.96c.21,0,.39-.16.41-.38l.07-.79c.65-.15,1.27-.4,1.84-.75l.61.51c.16.14.41.13.56-.02l1.38-1.37c.15-.15.16-.39.02-.55l-.52-.6c.35-.56.61-1.17.76-1.82l.8-.06c.21-.02.38-.19.38-.41v-1.93c0-.23-.19-.41-.41-.41M7.22,3.74l.78-1.09.78,1.08c-.15.06-.26.21-.26.38v3.32h-1.05v-3.32c0-.17-.1-.31-.26-.37M13.37,9.78c-.14.75-.43,1.45-.87,2.07-.11.15-.1.36.02.5l.47.55-.85.84-.55-.47c-.07-.06-.17-.1-.27-.1-.08,0-.17.03-.23.07-.63.43-1.35.72-2.1.86-.18.03-.32.18-.34.37l-.06.72h-1.2l-.06-.72c-.02-.19-.15-.34-.34-.37-.75-.13-1.47-.43-2.1-.86-.15-.11-.36-.1-.5.02l-.55.47-.84-.84.47-.55c.12-.14.14-.35.03-.5-.44-.62-.73-1.33-.87-2.07-.03-.18-.19-.32-.37-.33l-.72-.05v-1.15h2.34c-.03.19-.04.37-.04.56.02,2.28,1.88,4.12,4.16,4.11h0c1.46,0,2.81-.75,3.57-1.99.49-.8.67-1.75.53-2.68h2.36v1.15l-.72.06c-.19.01-.34.15-.37.33M2.84,5.28l.79-1.08.78,1.08c-.15.06-.26.21-.26.38v1.77h-1.05v-1.78c0-.17-.1-.32-.26-.38M11.73,2.28s-.09-.07-.14-.09l.78-1.08.78,1.08c-.15.06-.26.21-.26.38v4.86h-1.05V2.57c0-.11-.04-.21-.12-.29M11.24,9.61c-.38,1.48-1.71,2.51-3.23,2.5-.27,0-.55-.03-.81-.1-1.68-.41-2.76-2.05-2.46-3.76h6.54c.09.45.08.91-.03,1.36"/></g></g></g></svg>