<?xml version="1.0" encoding="UTF-8"?><svg id="Layer_1" xmlns="http://www.w3.org/2000/svg" viewBox="0 0 16 16"><defs><style>.cls-1{fill:#434BA2;}</style></defs><g id="search"><path id="Path_60848" class="cls-1" d="M.49,8.49h3.35c.27,0,.49-.22.49-.49s-.22-.49-.49-.49H.49c-.27,0-.49.22-.49.49s.22.49.49.49Z"/><g id="Group_15821"><path id="Path_60849" class="cls-1" d="M15.55,10.8l-2.41-2.27c.72-1.57.36-3.43-.9-4.62-1.71-1.62-4.4-1.62-6.11,0-1.62,1.54-1.69,4.1-.15,5.73.05.05.1.1.15.15,1.3,1.24,3.22,1.57,4.87.84l2.39,2.26c.61.57,1.55.57,2.16,0,.58-.54.6-1.45.06-2.02-.02-.02-.04-.04-.06-.06ZM6.82,9.12c-1.26-1.19-1.31-3.18-.12-4.43.04-.04.08-.08.12-.12,1.33-1.26,3.41-1.26,4.73,0,1.26,1.19,1.31,3.18.12,4.43-.04.04-.08.08-.12.12-1.33,1.26-3.41,1.26-4.73,0ZM14.86,12.21c-.22.21-.56.21-.78,0l-2.23-2.1c.29-.22.55-.47.77-.76l2.23,2.1c.21.2.22.52.02.73,0,0-.02.02-.02.02h0Z"/><path id="Path_60850" class="cls-1" d="M.49,3.66h3.9c.27,0,.49-.22.49-.49s-.22-.49-.49-.49H.49C.22,2.69,0,2.91,0,3.17s.22.49.49.49Z"/><path id="Path_60851" class="cls-1" d="M.49,13.31h7.89c.27,0,.49-.22.49-.49s-.22-.49-.49-.49H.49c-.27,0-.49.22-.49.49s.22.49.49.49Z"/></g></g></svg>