<?xml version="1.0" encoding="UTF-8"?><svg id="Layer_1" xmlns="http://www.w3.org/2000/svg" viewBox="0 0 16 16"><defs><style>.cls-1{fill:#434BA2;}</style></defs><g id="aggregatesActive"><g id="Group_16383"><path id="Path_61576" class="cls-1" d="M12.92,4.9h-.24c-1.52,0-2.84,1.03-3.22,2.5-.1.41-.13.84-.07,1.26.06.45.21.88.44,1.26.94,1.58,2.98,2.09,4.55,1.15,1.58-.94,2.09-2.98,1.15-4.55-.56-.93-1.53-1.53-2.61-1.61M14.25,8.8h-.98v.99c0,.32-.25.58-.57.58h0c-.31,0-.56-.24-.58-.54v-1.03h-1.03c-.32-.02-.56-.29-.55-.61.02-.31.28-.55.59-.55h.99v-.99c0-.32.24-.59.56-.6.32,0,.59.24.6.56v1.03h.99c.32,0,.57.28.55.6,0,.3-.25.54-.55.55"/><path id="Path_61577" class="cls-1" d="M5.85,15.84v-1.46H0v-1.05h5.85v-1.46h1.47v-1.88H2.93V.16h9.83v3.99h-.07c-.33,0-.66.04-.98.12v-.14H3.97v1.88h5.29c-.21.32-.37.68-.48,1.05H3.97v1.87h4.71c.06.37.18.72.34,1.05h-.66v1.88h1.46v1.47h6.14v1.05h-6.14v1.46h-3.98,0ZM6.9,14.78h1.88v-1.87h-1.88s0,1.87,0,1.87ZM3.97,3.08h7.72v-1.87H3.97v1.87Z"/></g></g></svg>