<svg xmlns="http://www.w3.org/2000/svg" width="16" height="16" viewBox="0 0 16 16">
  <g id="Group_84" data-name="Group 84" transform="translate(-332.238 -129.69)">
    <path id="Path_147" data-name="Path 147" d="M344,137.22a4.235,4.235,0,1,0,4.236,4.235A4.241,4.241,0,0,0,344,137.22Zm.471.979a3.293,3.293,0,0,1,2.786,2.785h-2.786Zm-.471,6.55a3.292,3.292,0,0,1-.47-6.55v3.256a.472.472,0,0,0,.47.471h3.257A3.3,3.3,0,0,1,344,144.749Z" fill="#434BA2"/>
    <path id="Path_148" data-name="Path 148" d="M344.468,134.368a.335.335,0,0,0-.023-.118.078.078,0,0,0-.005-.033s-.009-.009-.009-.014a.4.4,0,0,0-.094-.136l-4.236-4.24a.476.476,0,0,0-.136-.094c-.005,0-.01-.01-.014-.01a.1.1,0,0,1-.033,0,.457.457,0,0,0-.118-.024c-.009,0-.019-.005-.028-.005H333.65a1.416,1.416,0,0,0-1.412,1.412v13.177a1.415,1.415,0,0,0,1.412,1.411h6.588a.471.471,0,0,0,0-.941H333.65a.472.472,0,0,1-.471-.47V131.1a.472.472,0,0,1,.471-.471H339.3v2.824a1.416,1.416,0,0,0,1.411,1.412h2.824v1.412a.47.47,0,0,0,.941,0V134.4A.161.161,0,0,1,344.468,134.368Zm-3.76-.442a.472.472,0,0,1-.47-.471v-2.16l2.63,2.631Z" fill="#434BA2"/>
    <path id="Path_149" data-name="Path 149" d="M334.12,136.749a.472.472,0,0,1,.471-.47H339.3a.47.47,0,0,1,0,.941h-4.706A.472.472,0,0,1,334.12,136.749Z" fill="#434BA2"/>
    <path id="Path_150" data-name="Path 150" d="M334.12,134.4a.472.472,0,0,1,.471-.47h3.294a.471.471,0,0,1,0,.941h-3.294A.472.472,0,0,1,334.12,134.4Z" fill="#434BA2"/>
  </g>
</svg>
