<svg xmlns="http://www.w3.org/2000/svg" xmlns:xlink="http://www.w3.org/1999/xlink" width="16" height="16" viewBox="0 0 16 16">
  <defs>
    <clipPath id="clip-path">
      <rect id="Rectangle_1674" data-name="Rectangle 1674" width="16" height="16" transform="translate(0 0)" fill="none"/>
    </clipPath>
  </defs>
  <g id="Group_15834" data-name="Group 15834" transform="translate(0 0)">
    <g id="Group_15833" data-name="Group 15833" clip-path="url(#clip-path)">
      <path id="Path_60859" data-name="Path 60859" d="M8,0A8,8,0,0,0,8,16h.114A8,8,0,0,0,8,0M8,14.743A6.745,6.745,0,1,1,14.744,8,6.745,6.745,0,0,1,8,14.743" fill="#434BA2"/>
      <path id="Path_60860" data-name="Path 60860" d="M7.516,6.638l2.909-2.963.963.906L9.454,6.574l1.958,2.064L10.4,9.624Z" fill="#434BA2"/>
      <path id="Path_60861" data-name="Path 60861" d="M4.637,11.425l1.917-2L4.588,7.368l1.006-.991,2.9,2.973L5.6,12.325Z" fill="#434BA2"/>
    </g>
  </g>
</svg>
