<?xml version="1.0" encoding="UTF-8"?><svg id="Layer_1" xmlns="http://www.w3.org/2000/svg" viewBox="0 0 16 16"><defs><style>.cls-1{fill:#484660;}.cls-2{fill:#484660;}</style></defs><g id="Group_15851"><g id="Group_15849"><g id="Group_15850"><path id="Path_60865" class="cls-2" d="M13.94,2.23h-7.13s-.1-.02-.13-.05l-1.05-1.05c-.24-.24-.58-.38-.92-.38h-2.67c-1.13,0-2.05.91-2.05,2.04v10.41c0,1.13.92,2.05,2.05,2.05h11.9c1.13,0,2.04-.92,2.05-2.05V4.28c0-1.13-.92-2.05-2.05-2.05M14.87,13.2c0,.51-.42.93-.93.93H2.05c-.51,0-.93-.42-.93-.93V2.79c0-.51.42-.93.93-.93h2.67s.1.02.13.05l1.05,1.05c.24.25.58.38.92.38h7.13c.51,0,.93.42.93.93v8.92h0Z"/><path id="Path_60866" class="cls-1" d="M5.77,6.34c-.4.43-.69.94-.84,1.51l-.34-.41c-.18-.25-.53-.31-.78-.14-.25.18-.31.53-.14.78,0,.02.03.04.05.06l1.24,1.53c.09.11.23.19.38.2.15.02.29-.03.41-.12l1.53-1.24s.04-.03.05-.05c.22-.22.21-.57,0-.79-.2-.2-.53-.21-.75-.03l-.54.44c.1-.36.29-.69.54-.97.92-.97,2.45-1,3.42-.08s1,2.45.08,3.42c-.58.61-1.44.87-2.27.69-.3-.07-.6.13-.66.43s.13.6.43.66c1.91.41,3.79-.8,4.2-2.7.41-1.91-.8-3.79-2.7-4.2-1.2-.26-2.45.12-3.3,1.01h0Z"/></g></g></g></svg>