<?xml version="1.0" encoding="UTF-8"?><svg id="Layer_1" xmlns="http://www.w3.org/2000/svg" xmlns:xlink="http://www.w3.org/1999/xlink" viewBox="0 0 16 16"><defs><style>.cls-1{fill:none;}.cls-2{fill:#484660;}.cls-3{fill:#484660;}.cls-4{clip-path:url(#clippath);}</style><clipPath id="clippath"><rect class="cls-1" y="1.36" width="16" height="13.28"/></clipPath></defs><g id="Group_15857"><g class="cls-4"><g id="Group_15856"><path id="Path_60872" class="cls-2" d="M6.32,7.78c1.77,0,3.21-1.44,3.21-3.21,0-1.77-1.44-3.21-3.21-3.21h0c-1.77,0-3.21,1.44-3.21,3.21,0,1.77,1.44,3.21,3.21,3.21h0M6.33,2.31h0c1.24,0,2.25,1.01,2.25,2.25h0c0,1.25-1,2.26-2.25,2.26-1.25,0-2.26-1-2.26-2.25,0-1.25,1-2.26,2.25-2.26,0,0,0,0,0,0"/><path id="Path_60873" class="cls-3" d="M9.24,13.91c-.09-.08-.17-.16-.25-.25h0s-.07-.1-.1-.15c-.09-.17-.11-.38-.04-.57H1.35c-.09,0-.16-.06-.16-.15,0,0,0,0,0,0h0c.07-2.21,1.93-3.95,4.14-3.88h1.99c.52-.01,1.05.08,1.53.27-.07-.23-.02-.47.13-.65h0c.08-.09.16-.17.25-.25h0s.02-.02.04-.02c-.61-.23-1.27-.34-1.93-.33h-2.04c-2.83-.09-5.2,2.13-5.3,4.96.02.64.56,1.14,1.2,1.12h8.19c-.05-.02-.1-.06-.15-.09h0"/><path id="Path_60874" class="cls-3" d="M15.99,10.92h0c-.02-.31-.25-.57-.56-.61-.07-.01-.15-.02-.22-.03-.04,0-.08-.03-.09-.07-.04-.13-.09-.25-.15-.38h0s-.01-.08.01-.11l.13-.17c.19-.25.18-.6-.03-.84h0c-.08-.08-.15-.16-.24-.23h0c-.23-.22-.59-.24-.84-.04l-.18.13s-.08.03-.12.01c-.12-.06-.25-.11-.37-.16h0s-.07-.05-.07-.09l-.03-.21c-.04-.31-.3-.55-.62-.57h-.34c-.31.02-.57.25-.61.56-.01.07-.02.15-.03.22,0,.04-.03.08-.07.09-.13.04-.25.09-.38.15h0s-.08.01-.11-.01l-.17-.13c-.19-.14-.43-.17-.65-.09-.06.03-.11.06-.16.1-.01,0-.02.01-.03.02h0c-.08.08-.16.15-.23.24h0c-.14.17-.19.4-.12.61,0,.02,0,.05,0,.07.02.06.05.11.08.16.04.06.09.12.13.17.02.03.03.08.01.12-.06.12-.11.25-.16.38h0s-.05.07-.09.07l-.21.03c-.32.04-.56.3-.58.62h0v.34h0c.02.31.25.57.56.61l.22.03s.08.03.09.07c.04.13.09.25.15.38h0s.01.08-.01.11l-.13.17c-.04.05-.07.11-.09.17-.07.23-.03.48.12.67h0c.08.08.16.16.24.23h0s.09.06.14.09c.22.12.5.1.7-.05l.18-.13s.08-.03.12-.01c.12.06.25.11.37.16h0s.07.05.07.09l.03.21c.05.31.31.54.61.57h.34c.31-.02.57-.25.61-.56.01-.07.02-.15.03-.22,0-.04.03-.08.07-.09.13-.04.25-.09.38-.15h0s.08-.02.11.01l.17.13c.25.19.6.18.84-.03h0c.08-.08.16-.15.23-.24h0c.21-.23.22-.58.03-.83-.04-.06-.09-.12-.13-.18-.03-.03-.03-.08-.01-.12.06-.12.11-.25.16-.37h0s.05-.07.09-.07l.21-.03c.32-.04.57-.3.58-.62h0v-.34M15.09,11.31l-.2.03c-.22.03-.41.19-.48.4-.03.09-.07.18-.11.27h0c-.1.2-.08.45.06.63l.12.16s.03.09,0,.12c-.06.06-.12.12-.18.18-.04.03-.09.03-.13,0l-.16-.11c-.18-.13-.41-.15-.61-.06h-.02c-.09.04-.18.08-.27.11-.22.07-.38.26-.41.49l-.03.2s-.05.08-.09.08h-.26s-.09-.04-.09-.09l-.03-.2c-.03-.22-.19-.41-.4-.48-.09-.03-.18-.07-.27-.11h0c-.2-.1-.45-.08-.63.06l-.16.12s-.09.03-.12,0c-.06-.06-.12-.12-.18-.18-.03-.04-.03-.09,0-.13l.12-.16c.14-.18.16-.42.06-.63-.04-.09-.08-.18-.11-.27h0c-.07-.22-.27-.38-.49-.4l-.2-.03s-.08-.05-.08-.09v-.26s.04-.09.09-.09l.2-.03c.22-.03.41-.19.48-.4.03-.09.07-.18.11-.27h0c.02-.05.03-.1.03-.16.04-.16,0-.34-.09-.48l-.12-.16s-.03-.09,0-.12c.06-.06.12-.12.18-.18.04-.03.09-.03.13,0l.16.12c.18.14.43.16.63.05,0,0,.02,0,.02,0,.08-.04.16-.07.25-.1h0c.22-.07.38-.26.41-.49l.03-.2s.05-.08.09-.08c.08-.01.17-.01.26-.01.05,0,.09.04.09.09l.03.2c.03.22.19.41.4.48.09.03.18.07.27.11h0c.21.11.45.08.64-.06l.16-.12s.09-.03.12,0c.06.06.12.12.18.18.03.04.03.09,0,.13l-.12.16c-.14.18-.16.42-.06.63.04.09.08.18.11.27.07.22.26.38.49.41l.2.03s.08.05.08.09v.26s-.04.09-.09.09"/><path id="Path_60875" class="cls-3" d="M12.44,9.62c-.81,0-1.46.66-1.46,1.47,0,.81.66,1.46,1.47,1.46.81,0,1.46-.66,1.46-1.46,0-.81-.66-1.47-1.47-1.47M12.44,11.97c-.49,0-.88-.39-.88-.88s.39-.88.88-.88.88.39.88.88-.39.88-.88.88h0"/></g></g></g></svg>