<?xml version="1.0" encoding="UTF-8"?><svg id="Layer_1" xmlns="http://www.w3.org/2000/svg" xmlns:xlink="http://www.w3.org/1999/xlink" viewBox="0 0 16 16"><defs><style>.cls-1{fill:none;}.cls-2{fill:#484660;}.cls-3{fill:#484660;}.cls-4{clip-path:url(#clippath);}</style><clipPath id="clippath"><rect class="cls-1" y=".79" width="16" height="14.42"/></clipPath></defs><g id="Group_15869"><g class="cls-4"><g id="Group_15868"><path id="Path_60892" class="cls-3" d="M2.98,5.35c-.11,0-.22-.04-.3-.12l-.81-.81c-.16-.18-.14-.46.04-.62.16-.15.41-.15.58,0l.48.48,1.26-1.37c.08-.09.2-.14.32-.14.11,0,.22.04.3.12.17.16.18.42.03.6l-1.56,1.72c-.08.09-.2.14-.32.14"/><path id="Path_60893" class="cls-3" d="M2.98,9.12c-.11,0-.22-.04-.3-.11l-.81-.81c-.16-.18-.15-.46.03-.62.16-.15.42-.15.58,0l.48.48,1.26-1.38c.08-.09.2-.14.32-.14.24,0,.44.19.44.44,0,.11-.04.21-.11.29l-1.56,1.71c-.08.09-.2.14-.32.14"/><path id="Path_60894" class="cls-3" d="M2.98,12.89c-.11,0-.22-.04-.3-.11l-.81-.81c-.17-.17-.17-.45,0-.62.17-.17.44-.17.61,0l.48.48,1.25-1.38c.16-.18.44-.19.62-.03s.19.44.03.62h0l-1.56,1.72c-.08.09-.2.14-.32.14"/><path id="Path_60895" class="cls-3" d="M5.97,3.98c-.1,0-.19-.05-.26-.13-.07-.09-.11-.2-.11-.32-.01-.22.15-.41.37-.43h2c.22.03.38.23.36.45.01.22-.15.4-.36.43h-2Z"/><path id="Path_60896" class="cls-3" d="M6.03,5.36c-.12,0-.23-.05-.31-.13-.17-.17-.16-.45,0-.62.08-.08.19-.12.3-.12h1.07c.24,0,.44.2.44.44s-.2.44-.44.44h-1.07Z"/><path id="Path_60897" class="cls-3" d="M5.97,7.75c-.22-.03-.38-.22-.37-.44-.01-.22.15-.41.36-.43h2c.1,0,.19.05.26.13.07.09.11.2.11.32.01.22-.15.4-.36.43h-2Z"/><path id="Path_60898" class="cls-3" d="M6.03,9.12c-.12,0-.23-.05-.31-.13-.17-.17-.16-.45,0-.62.08-.08.19-.12.3-.12h1.07c.12,0,.23.05.31.13.08.08.12.19.12.31,0,.23-.19.42-.43.43h-1.07Z"/><path id="Path_60899" class="cls-3" d="M5.97,11.52c-.1,0-.19-.05-.26-.13-.07-.09-.11-.2-.11-.32-.01-.22.15-.41.37-.43h2c.1,0,.19.05.26.13.07.09.11.2.11.31.01.22-.15.4-.36.43h-2Z"/><path id="Path_60900" class="cls-3" d="M6.03,12.89c-.12,0-.23-.05-.31-.14-.08-.08-.12-.2-.12-.31,0-.23.19-.42.43-.43h1.08c.12,0,.23.05.31.13.08.08.12.2.12.31,0,.23-.19.42-.43.43h-1.07Z"/><path id="Path_60901" class="cls-3" d="M1.81,15.21c-.91,0-1.67-.68-1.78-1.58l-.02-.69V3.07l.02-.69c.11-.9.88-1.58,1.78-1.59h9.51c.93,0,1.71.71,1.79,1.64v.11s-.23-.02-.23-.02c-.06-.01-.12-.02-.18-.02-.08,0-.15,0-.23.02l-.23.02v-.09c-.08-.45-.46-.79-.91-.79H1.81c-.52,0-.93.42-.93.93v10.8c0,.52.42.93.93.93h9.51c.4,0,.75-.27.88-.65l.02-.06h.9l-.02.11c-.16.85-.9,1.47-1.77,1.47H1.81Z"/><path id="Path_60902" class="cls-3" d="M12.27,12.89v-3.08h-.08c-1.8-.28-3.03-1.96-2.76-3.75.22-1.49,1.44-2.64,2.94-2.79h.1c.07-.02.15-.03.22-.03.06,0,.12,0,.18.02h.1c1.71.16,3.02,1.58,3.03,3.29,0,1.63-1.19,3.01-2.8,3.25h-.08v3.1h-.86ZM12.69,4.07c-.07,0-.13,0-.19.02-1.27.11-2.25,1.17-2.27,2.44,0,1.25.94,2.3,2.18,2.44.09.02.19.02.28.03.07,0,.13,0,.2-.02,1.27-.11,2.25-1.17,2.26-2.45,0-1.25-.94-2.29-2.18-2.43-.09-.02-.18-.03-.28-.03"/><path id="Path_60903" class="cls-2" d="M12.32,7.78c-.1,0-.2-.04-.27-.11l-.81-.8c-.14-.17-.12-.42.05-.56.15-.12.36-.12.51,0l.5.5,1.27-1.39c.15-.16.4-.17.57-.02.15.15.17.39.03.55l-1.55,1.7c-.08.08-.18.13-.29.13"/></g></g></g></svg>