<?xml version="1.0" encoding="UTF-8"?><svg id="Layer_1" xmlns="http://www.w3.org/2000/svg" xmlns:xlink="http://www.w3.org/1999/xlink" viewBox="0 0 16 16"><defs><style>.cls-1{fill:none;}.cls-2{fill:#434BA2;}.cls-3{clip-path:url(#clippath);}</style><clipPath id="clippath"><rect class="cls-1" y="2.76" width="16" height="10.47"/></clipPath></defs><g id="Group_15890"><path id="Path_60933" class="cls-2" d="M6.55,9.45h2.9v-5.07h-2.9v5.07ZM8.71,8.71h-1.42v-3.59h1.42v3.59Z"/><path id="Path_60934" class="cls-2" d="M10.66,9.45h2.9v-5.07h-2.9v5.07ZM12.83,8.71h-1.42v-3.59h1.42v3.59Z"/><path id="Path_60935" class="cls-2" d="M2.43,9.45h2.9v-5.07h-2.9v5.07ZM4.6,8.71h-1.43v-3.59h1.43v3.59Z"/><g id="Group_15889"><g class="cls-3"><g id="Group_15888"><path id="Path_60936" class="cls-2" d="M15.64,6.21c.2,0,.36-.17.36-.37h0v-2.16c0-.5-.39-.9-.89-.91H.89c-.5,0-.89.41-.89.91v2.16c0,.2.16.37.36.37.09,0,.17.08.17.17s-.08.17-.17.17c-.2,0-.36.17-.36.37v3.78c0,.2.16.37.36.37h.96v1.79c0,.2.16.37.36.37h4.22c.2,0,.36-.17.36-.37v-.54c0-.09.07-.17.17-.17h0c.09,0,.17.08.17.17v.54c0,.2.16.37.36.37h7.38c.2,0,.36-.17.36-.37v-1.79h.96c.2,0,.36-.17.36-.37v-3.78c0-.2-.16-.37-.36-.37-.09,0-.17-.08-.17-.17s.08-.17.17-.17M5.53,12.33v.17h-.33v-1.08h-.72v1.08h-.33v-1.08h-.72v1.08h-.33v-1.08h-.72v1.08h-.33v-1.42h11.92v1.42h-.33v-1.08h-.72v1.08h-.33v-1.08h-.72v1.08h-.33v-1.08h-.72v1.08h-.33v-1.08h-.72v1.08h-.33v-1.08h-.72v1.08h-.33v-1.08h-.72v1.08h-.33v-.17c.02-.49-.37-.9-.86-.92-.49-.02-.9.37-.92.86,0,.02,0,.04,0,.06M.72,7.21c.19-.09.35-.24.44-.44.1-.22.12-.47.04-.7-.08-.23-.25-.43-.48-.53v-1.87c0-.09.07-.17.17-.17h14.22c.09,0,.17.08.17.17v1.87c-.43.2-.63.69-.48,1.14.08.23.25.43.48.53v3.12H.72v-3.12Z"/></g></g></g></g></svg>