<?xml version="1.0" encoding="UTF-8"?><svg id="Layer_1" xmlns="http://www.w3.org/2000/svg" xmlns:xlink="http://www.w3.org/1999/xlink" viewBox="0 0 16 16"><defs><style>.cls-1{fill:none;}.cls-2{fill:#434BA2;}.cls-3{clip-path:url(#clippath);}</style><clipPath id="clippath"><rect class="cls-1" x="1.12" width="13.77" height="16"/></clipPath></defs><g id="Group_15898"><g class="cls-3"><g id="Group_15897"><path id="Path_60945" class="cls-2" d="M10.15,6.66c-.23,0-.41-.18-.43-.41v-.1c.03-.09.06-.18.08-.28.05-.17.07-.34.08-.51v-.11c0-.08,0-.15,0-.23-.08-.99-.91-1.75-1.9-1.76-.05,0-.1,0-.15,0-1.05.08-1.84,1-1.76,2.05,0,0,0,0,0,0,0,.24.04.49.12.72.05.1.06.23.03.34-.04.11-.12.19-.22.24h-1.31c-.18.01-.35-.11-.41-.28l-.02-.07h-.94c-.37,0-.68-.29-.7-.66l-.02-.95c0-.38.29-.69.66-.71h1.14l.03-.06c.04-.1.09-.2.14-.3l.03-.06-.04-.05c-.24-.28-.51-.6-.7-.84-.12-.15-.18-.34-.15-.54.02-.18.11-.33.26-.44l.72-.59c.29-.24.73-.2.97.09l.62.74.07-.03c.15-.07.3-.13.46-.18l.07-.02v-.07c0-.31,0-.63.02-.94.02-.37.33-.67.7-.67l.95.02c.38.01.68.32.68.7v1l.06.02c.09.03.18.07.27.11l.06.03.05-.05c.24-.26.49-.5.75-.72.13-.12.3-.18.48-.18.19,0,.38.08.51.22l.65.65c.27.27.27.72,0,.99,0,0,0,0,0,0l-.73.7.03.06c.07.13.13.26.18.39l.02.06h1.06c.39.03.7.34.71.73l-.02.94c-.02.37-.32.66-.69.68h-.93s-.03.06-.03.06c-.07.14-.21.24-.38.25h-1.12ZM7.97,2.59c1.34,0,2.45,1.04,2.56,2.37,0,.1.01.2,0,.3,0,.21-.02.41-.06.61l-.02.12h.62l.05-.3h1.57l-.05-1.05-1.59.04-.07-.24c-.09-.29-.22-.57-.38-.82l-.14-.22.22-.22.97-.93-.82-.7s-.28.3-.39.42c-.17.18-.34.36-.51.56l-.18.21-.24-.13c-.23-.13-.48-.24-.74-.31l-.24-.07V.62l-1.08.06v.11c.06.39.08.77.07,1.16v.27l-.26.06c-.32.07-.62.19-.9.36l-.25.15-1.04-1.25-.72.68.06.07c.25.3.59.7.84,1l.16.18-.13.21c-.14.23-.25.47-.33.72l-.08.23h-1.62l.02,1.06,1.49-.08h.09l.03.36h.59s-.03-.11-.03-.11c-.03-.17-.05-.34-.05-.51-.05-.67.17-1.33.61-1.84.44-.52,1.07-.85,1.75-.9.07,0,.14,0,.2,0"/><path id="Path_60946" class="cls-2" d="M4.75,9.9c-.14,0-.28-.07-.36-.18l-.07-.15-.84-1.67c-.03-.06-.04-.12-.02-.18l.02-.11c.02-.24.21-.42.44-.44l8.21.05s.09.01.13.03l.09.04c.22.14.3.44.17.67l-.84,1.67c-.08.16-.23.26-.41.26h-6.52ZM4.83,9.31h6.36l.76-1.5-7.9-.05.79,1.55Z"/><path id="Path_60947" class="cls-2" d="M3.53,16c-.71-.01-1.29-.59-1.3-1.3v-4.51l-.14.07c-.06.03-.13.06-.19.08-.08.02-.15.03-.23.04-.15,0-.3-.05-.4-.16-.16-.23-.18-.53-.07-.78l.04-.08.98-1.42c.02-.17.17-.3.34-.31.1,0,.2.05.27.12.07.08.09.18.08.28v.17l1.01,2.09c.06.12.18.2.31.2h7.56c.13,0,.25-.08.31-.19l.97-1.96s.03-.09.04-.15v-.12c-.05-.13-.02-.27.07-.37.06-.06.15-.1.24-.1.06,0,.11.01.17.04.12.04.21.15.23.27l.98,1.41c.14.26.13.59-.04.84-.1.11-.25.17-.4.17-.08,0-.16-.01-.23-.04-.06-.02-.11-.04-.16-.06l-.14-.07v4.56c0,.71-.59,1.29-1.3,1.3H3.53ZM2.89,10.11v4.58c0,.35.29.63.63.63h8.98c.35,0,.63-.29.63-.64v-4.6l-.18-.04-.26.53c-.17.35-.52.57-.91.57h-7.56c-.39,0-.74-.23-.91-.58l-.24-.49-.18.04Z"/></g></g></g></svg>