<svg xmlns="http://www.w3.org/2000/svg" xmlns:xlink="http://www.w3.org/1999/xlink" width="16" height="16" viewBox="0 0 16 16">
  <defs>
    <clipPath id="clip-path">
      <rect id="Rectangle_1689" data-name="Rectangle 1689" width="16" height="16" fill="#434BA2"/>
    </clipPath>
  </defs>
  <g id="Group_15907" data-name="Group 15907" transform="translate(-307 -308)">
    <g id="Group_15906" data-name="Group 15906" transform="translate(307 308)">
      <g id="Group_15905" data-name="Group 15905" clip-path="url(#clip-path)">
        <path id="Path_60960" data-name="Path 60960" d="M4.71,8.992A2.156,2.156,0,1,0,6.9,11.143,2.1,2.1,0,0,0,6.06,9.462L7.3,6.961a1.456,1.456,0,0,0,.51,0l1.36,2.731a2.1,2.1,0,0,0-.77,1.631,2.191,2.191,0,0,0,4.381,0,2.127,2.127,0,0,0-.75-1.611l1.57-2.92c.071,0,.13.019.2.019a2.181,2.181,0,0,0,2.19-2.15,2.2,2.2,0,0,0-4.391,0,2.127,2.127,0,0,0,.75,1.61l-1.57,2.921c-.071,0-.131-.02-.2-.02a.887.887,0,0,0-.17.02L9.031,6.421A2.127,2.127,0,0,0,9.742,4.84a2.191,2.191,0,0,0-4.382,0,2.1,2.1,0,0,0,.71,1.571L4.79,9H4.7" fill="#434BA2"/>
        <path id="Path_60961" data-name="Path 60961" d="M.67,0A.67.67,0,0,0,0,.66V15.33A.67.67,0,0,0,.661,16H15.335a.665.665,0,0,0,0-1.33h-14V.67A.663.663,0,0,0,.677,0H.671" fill="#434BA2"/>
      </g>
    </g>
  </g>
</svg>
