<svg id="Group_15912" data-name="Group 15912" xmlns="http://www.w3.org/2000/svg" xmlns:xlink="http://www.w3.org/1999/xlink" width="16" height="16" viewBox="0 0 16 16">
  <defs>
    <clipPath id="clip-path">
      <rect id="Rectangle_1691" data-name="Rectangle 1691" width="16" height="16" fill="none"/>
    </clipPath>
  </defs>
  <g id="Group_15911" data-name="Group 15911" clip-path="url(#clip-path)">
    <path id="Path_60965" data-name="Path 60965" d="M10.29,11.752H5.278a1.023,1.023,0,0,1-1.021-1.024V5.71a.678.678,0,0,0-.678-.678H1.852a1.841,1.841,0,0,0-1.306.539A1.865,1.865,0,0,0,0,6.885v7.261A1.855,1.855,0,0,0,1.848,16h7.27a1.855,1.855,0,0,0,1.85-1.848V12.431a.678.678,0,0,0-.678-.679M1.357,6.881A.487.487,0,0,1,1.5,6.533a.492.492,0,0,1,.35-.144H2.9v4.338a2.38,2.38,0,0,0,2.376,2.382H9.613V14.15a.5.5,0,0,1-.5.493H1.849a.5.5,0,0,1-.493-.5Z" fill="#434BA2"/>
    <path id="Path_60966" data-name="Path 60966" d="M15.456.539A1.839,1.839,0,0,0,14.148,0H6.88A1.854,1.854,0,0,0,5.033,1.854V9.122a1.857,1.857,0,0,0,1.854,1.847h7.267A1.849,1.849,0,0,0,16,9.115V1.846A1.839,1.839,0,0,0,15.456.539M6.389,1.852a.5.5,0,0,1,.492-.5h7.27a.493.493,0,0,1,.494.492V9.117a.5.5,0,0,1-.492.5H6.885a.5.5,0,0,1-.5-.492Z" fill="#434BA2"/>
  </g>
</svg>
