<?xml version="1.0" encoding="UTF-8"?><svg id="Layer_1" xmlns="http://www.w3.org/2000/svg" xmlns:xlink="http://www.w3.org/1999/xlink" viewBox="0 0 16 16"><defs><style>.cls-1{fill:none;}.cls-2{fill:#484660;}.cls-3{clip-path:url(#clippath);}</style><clipPath id="clippath"><rect class="cls-1" y="3.1" width="16" height="9.8"/></clipPath></defs><g id="Group_15913"><g class="cls-3"><g id="Group_15914"><path id="Path_60967" class="cls-2" d="M13.65,6.69c-.4-1.35-1.63-2.28-3.04-2.29-.16,0-.33.01-.49.04-.24.04-.48.11-.7.2-1.38-1.75-3.91-2.05-5.66-.67-.86.67-1.4,1.67-1.51,2.75C.58,7.23-.36,8.99.15,10.66c.41,1.34,1.65,2.25,3.05,2.24h9.64c1.75,0,3.16-1.42,3.16-3.16,0-1.43-.97-2.68-2.35-3.05M14.27,11.23c-.4.38-.93.59-1.48.58H3.16c-1.02,0-1.88-.74-2.04-1.75-.16-1.14.63-2.2,1.77-2.36,0,0,0,0,.01,0l.41-.14v-.43c0-1.62,1.32-2.93,2.94-2.93,1.03,0,1.98.54,2.51,1.42l.29.47.47-.29c.23-.14.49-.24.77-.28.11-.02.22-.03.33-.03,1.02,0,1.88.75,2.04,1.75l.06.4.4.06c1.13.15,1.92,1.19,1.77,2.32-.06.46-.28.89-.61,1.21"/></g></g></g></svg>