<?xml version="1.0" encoding="UTF-8"?><svg id="Layer_1" xmlns="http://www.w3.org/2000/svg" xmlns:xlink="http://www.w3.org/1999/xlink" viewBox="0 0 16 16"><defs><style>.cls-1{fill:none;}.cls-2{fill:#434BA2;}.cls-3{clip-path:url(#clippath);}</style><clipPath id="clippath"><rect class="cls-1" y=".12" width="16" height="15.76"/></clipPath></defs><g id="componentEntityMapping"><g class="cls-3"><g id="Group_16151"><path id="Path_61352" class="cls-2" d="M16,7.64c-.02-.55-.27-1.07-.68-1.45L9.26.66c-.85-.77-2.17-.71-2.95.14l-3.99,4.37h2.07l3.05-3.34c.21-.23.56-.24.79-.04l6.06,5.53c.23.21.24.56.04.79l-5.53,6.06c-.1.11-.24.17-.39.18-.15,0-.29-.04-.4-.14l-3.7-3.38h-2.27l4.94,4.51c.85.78,2.17.71,2.95-.14,0,0,0,0,0,0l5.53-6.06c.37-.41.57-.95.54-1.5"/><path id="Path_61353" class="cls-2" d="M8.8,10.15c1.19,0,2.15-.97,2.15-2.15,0-1.19-.97-2.15-2.15-2.15-.83,0-1.59.48-1.94,1.23H.92c-.51.02-.9.44-.89.95.02.48.4.87.89.89h5.94c.36.75,1.11,1.24,1.95,1.23"/></g></g></g></svg>