<svg id="Group_15920" data-name="Group 15920" xmlns="http://www.w3.org/2000/svg" xmlns:xlink="http://www.w3.org/1999/xlink" width="16" height="16" viewBox="0 0 16 16">
  <defs>
    <clipPath id="clip-path">
      <rect id="Rectangle_1695" data-name="Rectangle 1695" width="16" height="16" fill="none"/>
    </clipPath>
  </defs>
  <g id="Group_15921" data-name="Group 15921" clip-path="url(#clip-path)">
    <path id="Path_60990" data-name="Path 60990" d="M9.293,16H6.707l-.464-1.6a6.571,6.571,0,0,1-1.523-.633l-1.459.8L1.432,12.739l.8-1.459A6.568,6.568,0,0,1,1.6,9.757L0,9.293V6.707l1.6-.464A6.568,6.568,0,0,1,2.232,4.72l-.8-1.459L3.261,1.432l1.459.8A6.568,6.568,0,0,1,6.243,1.6L6.707,0H9.293l.464,1.6a6.571,6.571,0,0,1,1.523.633l1.459-.8,1.829,1.829-.8,1.459A6.561,6.561,0,0,1,14.4,6.243l1.6.464V9.293l-1.6.464a6.571,6.571,0,0,1-.633,1.523l.8,1.459-1.829,1.829-1.459-.8a6.571,6.571,0,0,1-1.523.633ZM7.41,15.064H8.59l.42-1.443.268-.062a5.646,5.646,0,0,0,1.744-.725l.233-.147,1.32.726.833-.833-.726-1.32.147-.234a5.646,5.646,0,0,0,.725-1.744l.062-.268L15.059,8.6V7.415L13.615,7l-.062-.268a5.646,5.646,0,0,0-.725-1.744l-.147-.233.726-1.32L12.574,2.6l-1.32.726-.233-.147a5.646,5.646,0,0,0-1.744-.725L9.009,2.39,8.59.946H7.41L6.991,2.39l-.268.062a5.646,5.646,0,0,0-1.744.725l-.234.147L3.425,2.6l-.833.833.726,1.32-.147.233A5.646,5.646,0,0,0,2.446,6.73L2.384,7,.94,7.415V8.6l1.443.419.062.268a5.646,5.646,0,0,0,.725,1.744l.147.234-.726,1.32.833.833,1.32-.726.234.147a5.646,5.646,0,0,0,1.744.725l.268.062Z" fill="#434BA2"/>
    <path id="Path_60991" data-name="Path 60991" d="M11.318,5.984a.371.371,0,0,0-.184-.49L8.155,4.139a.366.366,0,0,0-.308,0L4.864,5.494a.359.359,0,0,0-.183.185.371.371,0,0,0,.184.49L7.847,7.524A.364.364,0,0,0,8,7.558H8a.362.362,0,0,0,.154-.034l2.981-1.355a.363.363,0,0,0,.183-.185m-1.231-.151L8.042,6.8,5.918,5.831,8,4.884Z" fill="#434BA2"/>
    <path id="Path_60992" data-name="Path 60992" d="M7.611,7.934,4.63,6.579a.37.37,0,0,0-.525.337v3.252a.372.372,0,0,0,.218.339L7.3,11.862a.376.376,0,0,0,.153.034h0a.372.372,0,0,0,.37-.372V8.272a.371.371,0,0,0-.217-.338M4.847,9.929V7.491L7.087,8.51v2.437Z" fill="#434BA2"/>
    <path id="Path_60993" data-name="Path 60993" d="M11.861,6.762a.367.367,0,0,0-.337-.217.363.363,0,0,0-.153.033L8.389,7.934a.368.368,0,0,0-.217.336v3.254a.371.371,0,0,0,.371.37h.005a.338.338,0,0,0,.15-.033l2.979-1.356a.369.369,0,0,0,.217-.337V6.917a.326.326,0,0,0-.033-.155m-.7.729V9.929l-2.24,1.017V8.51Z" fill="#434BA2"/>
  </g>
</svg>
