<?xml version="1.0" encoding="UTF-8"?><svg id="Layer_1" xmlns="http://www.w3.org/2000/svg" viewBox="0 0 16 16"><defs><style>.cls-1{fill:#484660;}.cls-2{fill:#484660;}</style></defs><g id="Group_15919"><path id="Path_60982" class="cls-2" d="M5.28,5.58h5.24v5.24h-5.24v-5.24ZM9.35,1.84v2.73h-2.7V1.84h-2.55v1h1.55v1.73h-1.37v2.73h-1.74v1.01h1.74v3.51h1.37v1.34h-1.55v1.01h2.55v-2.34h2.7v2.34h2.55v-1h-1.54v-1.34h1.17v-3.51h1.93v-1.01h-1.93v-2.73h-1.17v-1.73h1.54v-1h-2.55Z"/><path id="Path_60983" class="cls-1" d="M6.3,9.8h3.2v-3.2h-3.2v3.2ZM7.26,7.56h1.28v1.28h-1.28v-1.28Z"/><path id="Path_60984" class="cls-1" d="M12.1,1.17v2.34h2.34V1.17h-2.34Z"/><path id="Path_60985" class="cls-1" d="M13.66,6.63v2.34h2.34v-2.34h-2.34Z"/><path id="Path_60986" class="cls-1" d="M0,6.63v2.34h2.34v-2.34H0Z"/><path id="Path_60987" class="cls-1" d="M1.56,1.17v2.34h2.34V1.17H1.56Z"/><path id="Path_60988" class="cls-1" d="M12.1,12.49v2.34h2.34v-2.34h-2.34Z"/><path id="Path_60989" class="cls-1" d="M1.56,12.49v2.34h2.34v-2.34H1.56Z"/></g></svg>