<svg xmlns="http://www.w3.org/2000/svg" xmlns:xlink="http://www.w3.org/1999/xlink" width="16" height="16" viewBox="0 0 16 16">
  <defs>
    <clipPath id="clip-path">
      <rect id="Rectangle_1824" data-name="Rectangle 1824" width="16" height="16" transform="translate(0 0.001)" fill="none"/>
    </clipPath>
  </defs>
  <g id="configureSchedules" transform="translate(0 -0.001)">
    <g id="Group_16157" data-name="Group 16157" clip-path="url(#clip-path)">
      <path id="Path_61366" data-name="Path 61366" d="M13.715,11.417A2.283,2.283,0,1,0,16,13.7a2.283,2.283,0,0,0-2.285-2.284m0,3.425A1.142,1.142,0,1,1,14.858,13.7h0a1.142,1.142,0,0,1-1.142,1.142h0" fill="#434BA2"/>
      <path id="Path_61367" data-name="Path 61367" d="M14.842,1.142H13.7V.571a.571.571,0,0,0-1.142,0v.571H10.275V.571a.571.571,0,1,0-1.142,0v.571H6.85V.571a.571.571,0,0,0-1.141,0v.571H3.425V.571a.571.571,0,0,0-1.141,0v.571H1.142A1.142,1.142,0,0,0,0,2.284V14.842a1.142,1.142,0,0,0,1.142,1.142H6.479a.571.571,0,1,0,0-1.142H1.142V5.709h13.7v.77a.571.571,0,0,0,1.141.048.384.384,0,0,0,0-.048v-4.2a1.143,1.143,0,0,0-1.141-1.142m-13.7,3.43V2.284H2.284a.571.571,0,0,0,1.141.048.384.384,0,0,0,0-.048H5.709a.571.571,0,0,0,1.141.048.384.384,0,0,0,0-.048H9.133a.571.571,0,1,0,1.142,0h2.283a.571.571,0,1,0,1.142,0h1.142V4.567Z" fill="#434BA2"/>
      <path id="Path_61368" data-name="Path 61368" d="M11.29,10.812a.573.573,0,0,0,.6,0,3.325,3.325,0,0,1,1.073-.445.571.571,0,0,0,.429-.417l.2-.816h.252l.2.81a.57.57,0,0,0,.428.417,3.181,3.181,0,0,1,.713.263.573.573,0,0,0,.492-1.034,4.808,4.808,0,0,0-.6-.245l-.211-.919a.572.572,0,0,0-.572-.434H13.145a.57.57,0,0,0-.571.434l-.229.913a5.23,5.23,0,0,0-.77.32l-.81-.485a.572.572,0,0,0-.7.085l-.811.811a.572.572,0,0,0-.085.7l.484.811a5.126,5.126,0,0,0-.318.771l-.914.228A.572.572,0,0,0,8,13.134v1.137a.572.572,0,0,0,.434.571l.92.228a4.467,4.467,0,0,0,.245.6.572.572,0,0,0,1.033-.491,3.246,3.246,0,0,1-.262-.713.57.57,0,0,0-.417-.428l-.811-.217V13.57l.811-.2a.57.57,0,0,0,.417-.428,3.323,3.323,0,0,1,.444-1.073.569.569,0,0,0,0-.6l-.427-.713.177-.177Z" fill="#434BA2"/>
    </g>
  </g>
</svg>
