<?xml version="1.0" encoding="UTF-8"?><svg id="correctiveScripts" xmlns="http://www.w3.org/2000/svg" xmlns:xlink="http://www.w3.org/1999/xlink" viewBox="0 0 16 16"><defs><style>.cls-1{fill:none;}.cls-2{fill:#484660;}.cls-3{fill:#484660;}.cls-4{clip-path:url(#clippath);}</style><clipPath id="clippath"><rect class="cls-1" y=".6" width="16" height="14.81"/></clipPath></defs><g class="cls-4"><g id="Group_16417"><path id="Path_61590" class="cls-2" d="M5.92,4.94c-.52-.06-.89-.52-.83-1.04.05-.47.45-.83.93-.84.04,0,.07,0,.11,0h3.89c.52.03.92.48.89.99-.03.47-.4.85-.87.89h-4.12Z"/><path id="Path_61591" class="cls-2" d="M5.92,8.94c-.52-.05-.89-.52-.84-1.03.05-.48.46-.84.94-.84.04,0,.07,0,.11,0h3.89c.52.03.91.48.88,1-.03.47-.4.84-.86.88h-4.12Z"/><path id="Path_61592" class="cls-2" d="M5.92,12.9c-.52-.06-.89-.52-.83-1.04.05-.47.45-.83.93-.84.04,0,.07,0,.11,0h3.89c.52.03.91.48.88,1-.03.47-.4.84-.86.88h-4.12Z"/><path id="Path_61593" class="cls-3" d="M3.44,15.24l-1.86-.48-.13-.06c-.55-.33-.88-.92-.89-1.56,0-.28.08-.56.2-.82l.53-1.06c.14-.28.21-.58.21-.89.01-.68-.33-1.31-.9-1.68l-.19-.12c-.08-.06-.14-.12-.2-.2-.22-.34-.13-.79.2-1.01l.2-.12c.84-.56,1.13-1.67.68-2.58l-.53-1.06c-.07-.15-.13-.3-.16-.46-.18-.99.46-1.94,1.44-2.15l1.5-.3h.1c.36,0,.67.25.73.6.06.39-.2.77-.59.85l-2.01.41.81,1.5c.58,1.2.42,2.63-.4,3.68l-.19.25.19.26c.83,1.05.98,2.48.4,3.69l-.72,1.44,1.89.46c.2.04.38.15.49.32.21.34.11.78-.22,1-.11.07-.24.11-.36.11l-.22-.03Z"/><path id="Path_61594" class="cls-3" d="M12.33,15.3c-.4,0-.71-.34-.7-.74,0-.34.26-.63.59-.69l2.02-.41-.84-1.53c-.6-1.2-.45-2.63.39-3.68l.2-.26-.19-.26c-.83-1.05-.98-2.48-.39-3.68l.78-1.56-1.98-.36c-.34-.08-.58-.38-.58-.73,0-.39.32-.71.71-.71h.23s1.38.29,1.38.29c.85.18,1.47.94,1.48,1.81,0,.28-.08.56-.2.81l-.53,1.07c-.14.28-.21.58-.21.89-.01.68.33,1.31.89,1.68l.32.25.07.1c.23.33.14.79-.19,1.02l-.2.12c-.83.57-1.12,1.67-.68,2.57l.53,1.06c.07.14.13.3.16.46.2.99-.44,1.95-1.43,2.15,0,0,0,0,0,0l-1.5.3h-.13Z"/></g></g></svg>