<?xml version="1.0" encoding="UTF-8"?><svg id="datastores" xmlns="http://www.w3.org/2000/svg" xmlns:xlink="http://www.w3.org/1999/xlink" viewBox="0 0 16 16"><defs><style>.cls-1{fill:none;}.cls-2{fill:#434BA2;}.cls-3{clip-path:url(#clippath);}</style><clipPath id="clippath"><rect class="cls-1" x=".53" width="14.93" height="16"/></clipPath></defs><g class="cls-3"><g id="Group_16418"><path id="Path_61595" class="cls-2" d="M5.61,15.16v-.27c-.86-.09-1.71-.3-2.51-.62-.95-.4-1.52-.91-1.52-1.37v-1.41c.35.25.72.45,1.12.61.93.37,1.91.61,2.91.71v-1.06c-.86-.09-1.71-.3-2.51-.62-.95-.4-1.52-.91-1.52-1.37h0v-1.42c.35.25.72.45,1.12.61.93.37,1.91.61,2.91.71v-.41c0-.1.01-.19.03-.29.03-.12.08-.23.14-.34-.92-.09-1.83-.3-2.69-.64-.95-.4-1.52-.91-1.52-1.37v-1.51c.35.26.72.48,1.12.65,1.47.6,3.05.89,4.64.86,1.59.03,3.17-.26,4.64-.86.4-.17.77-.39,1.12-.65v1.51c0,.46-.57.97-1.52,1.37-.14.06-.28.11-.42.16l.21.23.57.6.04-.02c.39-.16.77-.36,1.12-.61v.89h1.04V3.32h0c0-.96-.77-1.83-2.16-2.45C10.51.27,8.93-.03,7.34,0c-1.59-.03-3.17.26-4.64.86C1.3,1.48.53,2.35.53,3.31v9.6c0,.92.77,1.75,2.16,2.33,1.04.41,2.13.66,3.24.74-.19-.2-.3-.46-.32-.73v-.09M3.12,1.82c1.34-.54,2.77-.8,4.22-.77,1.44-.03,2.88.23,4.22.77.97.43,1.54.99,1.54,1.5s-.58,1.07-1.54,1.5c-1.34.54-2.77.8-4.22.77-3.3,0-5.76-1.2-5.76-2.27,0-.51.58-1.07,1.54-1.5"/><path id="Path_61596" class="cls-2" d="M14.38,9.93h-2.78s-.09,0-.13-.02c-.06-.02-.12-.05-.17-.1l-.11-.11-.51-.53-.19-.2-.06-.06c-.21-.2-.49-.32-.78-.31h-1.89c-.29,0-.56.11-.76.32-.14.14-.24.31-.29.51-.02.08-.03.17-.03.26v5.35c.04.53.47.96,1,1h6.69c.6,0,1.08-.49,1.08-1.09v-3.91c0-.6-.48-1.08-1.08-1.08"/></g></g></svg>