<?xml version="1.0" encoding="UTF-8"?><svg id="Layer_1" xmlns="http://www.w3.org/2000/svg" xmlns:xlink="http://www.w3.org/1999/xlink" viewBox="0 0 16 16"><defs><style>.cls-1{fill:none;}.cls-2{fill:#484660;}.cls-3{fill:#484660;}.cls-4{clip-path:url(#clippath);}</style><clipPath id="clippath"><rect class="cls-1" y="1.26" width="16" height="13.47"/></clipPath></defs><g id="databaseProperties"><g class="cls-4"><g id="Group_16165"><path id="Path_61383" class="cls-2" d="M15.07,5.94c.46,0,.85-.35.9-.81.02-.07.03-.15.03-.23,0-.51-.42-.93-.93-.93s-.93.42-.93.93h0c0,.08.01.15.03.23.05.46.44.81.9.81"/><path id="Path_61384" class="cls-3" d="M11.33,5.38h-.22c-.28,0-.5-.22-.5-.5s.22-.5.5-.5h.22v-.35h0c0-.82-.65-1.55-1.81-2.06-1.22-.5-2.53-.74-3.85-.72-1.32-.02-2.63.22-3.86.72C.64,2.49,0,3.22,0,4.03v7.96C0,12.1.01,12.21.04,12.31c.09.69.72,1.31,1.78,1.75,1.23.47,2.54.69,3.85.67,1.31.02,2.62-.2,3.85-.67.69-.23,1.28-.7,1.65-1.33h-.04s.04-.07.06-.11h-.07c-.28,0-.5-.22-.5-.5s.22-.5.5-.5h.22v-2.55h-.22c-.28,0-.5-.22-.5-.5s.22-.5.5-.5h.22v-2.68h-.01ZM9.17,10.49c-1.12.42-2.31.62-3.51.6-1.2.02-2.39-.18-3.51-.6-.78-.32-1.24-.74-1.24-1.11v-1.02c.28.2.58.36.9.49,1.23.47,2.54.69,3.85.67,1.31.02,2.62-.2,3.85-.67.32-.13.62-.29.9-.49v1.02c0,.37-.47.79-1.24,1.11M.91,10.96c.28.2.58.36.9.49,1.23.47,2.54.69,3.85.67,1.31.02,2.62-.2,3.85-.67.32-.13.62-.29.9-.49v1.02c0,.37-.47.79-1.24,1.11-1.12.42-2.31.62-3.51.6-1.2.02-2.39-.18-3.51-.6-.78-.32-1.24-.74-1.24-1.11,0,0,0-1.02,0-1.02ZM10.41,6.78c0,.37-.47.79-1.24,1.11-1.12.42-2.31.62-3.51.6-1.2.02-2.39-.18-3.51-.6-.78-.33-1.24-.74-1.24-1.11v-1.1c.28.21.58.38.91.52,1.22.5,2.53.74,3.85.72,1.32.02,2.63-.22,3.85-.71.32-.14.62-.31.9-.52v1.1h-.01ZM10.41,4.03c0,.41-.47.87-1.26,1.22-1.11.45-2.29.66-3.49.64-2.72,0-4.75-.98-4.75-1.86v-.04c.26-.51.71-.89,1.25-1.06,1.11-.45,2.3-.66,3.5-.64,1.2-.02,2.39.19,3.5.64.54.17.99.56,1.25,1.06v.04"/><path id="Path_61385" class="cls-3" d="M11.11,11.62c-.28,0-.5.22-.5.5s.22.5.5.5h.07s-.04.07-.06.11h1.63c.25,0,.46-.2.48-.45.02-.05.02-.1.02-.16,0-.28-.22-.5-.5-.5,0,0-1.64,0-1.64,0Z"/><path id="Path_61386" class="cls-3" d="M11.11,8.07c-.28,0-.5.22-.5.5s.22.5.5.5h.22v.11h1.42c.25,0,.46-.2.48-.45.02-.05.02-.1.02-.16,0-.28-.22-.5-.5-.5h-1.64Z"/><path id="Path_61387" class="cls-3" d="M11.11,4.38c-.28,0-.5.22-.5.5s.22.5.5.5h.22v.11h1.42c.25,0,.46-.2.48-.45.02-.05.02-.1.02-.16,0-.28-.22-.5-.5-.5,0,0-1.64,0-1.64,0Z"/><path id="Path_61388" class="cls-2" d="M15.07,7.69c-.51,0-.93.42-.93.93,0,.08.01.15.03.23.06.5.52.85,1.01.79.41-.05.74-.38.79-.79.02-.07.03-.15.03-.23,0-.51-.42-.93-.93-.93"/><path id="Path_61389" class="cls-2" d="M15.07,11.16c-.51,0-.93.42-.93.93s.42.93.93.93.93-.42.93-.93h0c0-.52-.42-.93-.93-.93"/></g></g></g></svg>