<?xml version="1.0" encoding="UTF-8"?><svg id="Group_15960" xmlns="http://www.w3.org/2000/svg" xmlns:xlink="http://www.w3.org/1999/xlink" viewBox="0 0 16 16"><defs><style>.cls-1{fill:none;}.cls-2{fill:#434BA2;}.cls-3{clip-path:url(#clippath);}</style><clipPath id="clippath"><rect class="cls-1" x="1.22" width="13.56" height="16"/></clipPath></defs><g class="cls-3"><g id="Group_15960-2"><path id="Path_61043" class="cls-2" d="M12.62.86c-1.47-.6-3.04-.89-4.62-.86-1.58-.03-3.16.26-4.62.86-1.39.61-2.16,1.48-2.16,2.44v9.57c0,.92.76,1.75,2.15,2.33,1.48.56,3.05.83,4.63.8,1.58.03,3.15-.24,4.63-.8,1.39-.58,2.15-1.4,2.15-2.33V3.31h0c0-.96-.77-1.83-2.16-2.44M3.8,1.81c1.33-.54,2.76-.8,4.2-.77,1.44-.03,2.87.23,4.2.77.96.43,1.54.98,1.54,1.49s-.57,1.07-1.53,1.5c-1.33.54-2.76.8-4.2.77-3.29,0-5.74-1.2-5.74-2.26,0-.51.57-1.06,1.54-1.49M12.23,14.24c-1.35.51-2.78.75-4.23.72-1.44.03-2.88-.22-4.23-.72-.95-.4-1.52-.9-1.52-1.36v-1.42c.35.24.72.45,1.12.61,1.48.56,3.05.83,4.63.8,1.58.03,3.15-.24,4.63-.8.39-.16.77-.36,1.11-.61v1.41c0,.46-.56.97-1.51,1.36M13.74,9.74c0,.46-.56.97-1.51,1.36-1.35.51-2.78.75-4.23.72-1.44.03-2.88-.22-4.23-.73-.95-.39-1.51-.9-1.51-1.36h0v-1.41c.35.24.72.45,1.11.61,1.48.56,3.05.83,4.63.8,1.58.03,3.15-.24,4.63-.8.39-.16.77-.36,1.11-.61v1.41ZM13.74,6.61c0,.46-.56.97-1.51,1.36-1.35.51-2.79.76-4.23.73-1.44.03-2.88-.22-4.23-.72-.95-.39-1.52-.9-1.52-1.36v-1.51c.35.26.72.47,1.12.64,1.47.6,3.04.89,4.63.86,1.58.03,3.16-.26,4.62-.86.4-.17.77-.39,1.11-.64v1.51Z"/></g></g></svg>