<?xml version="1.0" encoding="UTF-8"?><svg id="Layer_1" xmlns="http://www.w3.org/2000/svg" xmlns:xlink="http://www.w3.org/1999/xlink" viewBox="0 0 16 16"><defs><style>.cls-1{fill:none;}.cls-2{fill:#434BA2;}.cls-3{clip-path:url(#clippath);}</style><clipPath id="clippath"><rect class="cls-1" y=".84" width="16" height="14.32"/></clipPath></defs><g id="Group_15972"><g class="cls-3"><g id="Group_15973"><path id="Path_61076" class="cls-2" d="M15.85,8.27c-.19-.17-.49-.15-.66.04v-.32c-.02-3.95-3.22-7.15-7.18-7.16-1.15,0-2.29.28-3.31.82-.99.52-1.84,1.26-2.5,2.16-.15.21-.1.5.11.65.21.15.49.1.65-.1,2-2.79,5.89-3.43,8.68-1.43,1.63,1.17,2.6,3.05,2.6,5.06v.33c-.15-.21-.44-.25-.65-.1h0s0,0,0,0c-.2.16-.24.45-.09.66.01.02.03.03.04.05l.83.94c.17.19.47.21.66.04.01-.01.03-.02.04-.04l.83-.94c.17-.19.15-.49-.04-.66"/><path id="Path_61077" class="cls-2" d="M13.72,11.52c-.21-.15-.5-.1-.65.11,0,0,0,0,0,0-2.01,2.79-5.9,3.42-8.69,1.41-1.62-1.17-2.58-3.04-2.59-5.04v-.33c.17.18.46.19.64.02h0s.02-.02.02-.02c.16-.17.18-.42.04-.61l-.83-.94c-.17-.19-.46-.21-.66-.04,0,.01-.03.02-.04.04l-.83.94c-.18.18-.18.47,0,.65h0c.18.19.47.19.65.01h0s.01,0,.01,0c.02-.01.03-.03.04-.05v.32c0,3.95,3.21,7.15,7.16,7.16,1.15,0,2.29-.28,3.31-.82.99-.52,1.84-1.26,2.5-2.17.15-.21.1-.5-.11-.65h0"/><path id="Path_61078" class="cls-2" d="M9.04,6.68l-1.56,1.59-.62-.62c-.21-.19-.54-.17-.73.04-.17.19-.17.49,0,.68l.97.97c.2.2.53.2.73,0l1.95-1.95h-.01c.2-.19.2-.52,0-.72-.2-.2-.53-.2-.73,0"/><path id="Path_61079" class="cls-2" d="M7.95,11.74c-2.07,0-3.74-1.67-3.74-3.74s1.67-3.74,3.74-3.74c2.07,0,3.74,1.67,3.74,3.74h0c0,2.06-1.68,3.74-3.74,3.74M7.95,5.31c-1.48,0-2.69,1.2-2.69,2.68s1.2,2.68,2.68,2.68,2.68-1.2,2.68-2.68h0c0-1.48-1.2-2.68-2.68-2.68"/></g></g></g></svg>