<?xml version="1.0" encoding="UTF-8"?><svg id="Group_15981" xmlns="http://www.w3.org/2000/svg" xmlns:xlink="http://www.w3.org/1999/xlink" viewBox="0 0 16 16"><defs><style>.cls-1{fill:none;}.cls-2{fill:#434BA2;}.cls-3{clip-path:url(#clippath);}</style><clipPath id="clippath"><rect class="cls-1" x=".29" width="15.43" height="16"/></clipPath></defs><g class="cls-3"><g id="Group_15982"><path id="Path_61086" class="cls-2" d="M6,11.31c-.32,0-.57.26-.57.57h0v1.26c0,.32.26.57.57.57.32,0,.57-.26.57-.57h0v-1.26c0-.32-.26-.57-.57-.57h0"/><path id="Path_61087" class="cls-2" d="M15.27,3.29l-2.48-2.73c-.32-.36-.78-.56-1.27-.56h-6.66c-.95,0-1.71.77-1.71,1.72v.1C1.15,2.29-.09,4.29.39,6.29c.32,1.36,1.39,2.43,2.75,2.75v5.24c0,.95.77,1.71,1.71,1.71h9.14c.95,0,1.71-.77,1.71-1.71V4.44c0-.43-.16-.84-.45-1.15M11.71,1.18c.09.03.17.08.23.15l2.43,2.67h-2.09c-.32,0-.57-.26-.57-.57h0V1.18ZM1.31,5.46c0-1.47,1.19-2.65,2.66-2.65s2.65,1.19,2.65,2.66c0,1.47-1.19,2.65-2.65,2.65-1.47,0-2.66-1.19-2.66-2.65,0,0,0,0,0,0M14.57,14.29c0,.31-.25.57-.57.57,0,0,0,0,0,0H4.86c-.32,0-.57-.26-.57-.57v-5.15c2.05-.15,3.58-1.94,3.42-3.98-.14-1.83-1.59-3.29-3.42-3.42h0c0-.33.26-.58.57-.58h5.71v2.29c0,.95.77,1.71,1.71,1.71h2.29v9.14Z"/><path id="Path_61088" class="cls-2" d="M10.57,9.71c-.32,0-.57.26-.57.57h0v2.86c0,.32.26.57.57.57s.57-.26.57-.57v-2.86c0-.32-.26-.57-.57-.57h0"/><path id="Path_61089" class="cls-2" d="M12.29,13.14c.01.32.28.56.6.55.3-.01.54-.25.55-.55v-5.15c.01-.32-.23-.58-.55-.6-.32-.01-.58.23-.6.55,0,.02,0,.03,0,.05v5.15Z"/><path id="Path_61090" class="cls-2" d="M8.29,9.14c-.32,0-.57.26-.57.57h0v3.43c0,.32.26.57.57.57s.57-.26.57-.57v-3.43c0-.32-.26-.57-.57-.57h0"/><path id="Path_61091" class="cls-2" d="M5.64,4.17c-.18-.15-.45-.15-.63,0h0l-1.5,1.52-.59-.59c-.21-.17-.52-.15-.69.06-.15.18-.15.45,0,.63l.93.93c.19.19.5.19.69,0l1.87-1.86h-.01c.17-.2.15-.51-.06-.69"/></g></g></svg>