<?xml version="1.0" encoding="UTF-8"?><svg id="Layer_1" xmlns="http://www.w3.org/2000/svg" xmlns:xlink="http://www.w3.org/1999/xlink" viewBox="0 0 16 16"><defs><style>.cls-1{fill:none;}.cls-2{fill:#434BA2;}.cls-3{clip-path:url(#clippath);}</style><clipPath id="clippath"><rect class="cls-1" y="0" width="16" height="16"/></clipPath></defs><g id="Group_15990"><g class="cls-3"><g id="Group_15990-2"><path id="Path_61099" class="cls-2" d="M8,16C3.58,16,0,12.42,0,8S3.58,0,8,0s8,3.58,8,8c0,4.42-3.58,8-8,8M8,1.43c-3.63,0-6.57,2.94-6.57,6.57,0,3.63,2.94,6.57,6.57,6.57,3.63,0,6.57-2.94,6.57-6.57h0c0-3.63-2.94-6.57-6.57-6.57"/><path id="Path_61100" class="cls-2" d="M5.7,11.21c-.5,0-.91-.41-.91-.92,0-.21.08-.42.21-.58l.13-.13,1.62-1.63-1.62-1.62c-.34-.38-.3-.96.07-1.3.17-.15.38-.23.6-.23h.03c.22,0,.43.09.59.24l1.62,1.62,1.62-1.62c.36-.35.94-.35,1.29,0,.35.36.35.94,0,1.29h0l-1.62,1.62,1.62,1.61c.35.36.34.94-.02,1.29-.36.35-.93.34-1.28,0l-1.62-1.61-1.63,1.63c-.17.22-.44.35-.72.35h0Z"/></g></g></g></svg>