<?xml version="1.0" encoding="UTF-8"?><svg id="Layer_1" xmlns="http://www.w3.org/2000/svg" xmlns:xlink="http://www.w3.org/1999/xlink" viewBox="0 0 16 16"><defs><style>.cls-1{fill:none;}.cls-2{fill:#434BA2;}.cls-3{clip-path:url(#clippath);}</style><clipPath id="clippath"><rect class="cls-1" y="1.05" width="16" height="13.89"/></clipPath></defs><g id="digitalWorkspaces"><g class="cls-3"><g id="Group_16161"><path id="Path_61372" class="cls-2" d="M14.05,1.05H1.95c-1.08,0-1.95.87-1.95,1.95v7.51c0,1.08.87,1.95,1.95,1.95h.77l.02-.08c.09-.42.24-.83.46-1.2l.09-.15h-1.33c-.29,0-.52-.23-.52-.52V3.01c0-.29.23-.52.52-.52h12.1c.29,0,.52.23.52.52v7.51c0,.29-.23.52-.52.52h-1.05l.09.15c.22.37.37.78.46,1.2l.02.08h.48c1.08,0,1.95-.87,1.95-1.94V3.01c0-1.08-.87-1.95-1.95-1.95"/><path id="Path_61373" class="cls-2" d="M10.91,6.53c0-1.55-1.25-2.8-2.8-2.8-1.55,0-2.8,1.25-2.8,2.8s1.25,2.8,2.8,2.8,2.8-1.25,2.8-2.8h0M6.61,6.53c0-.79.61-1.44,1.4-1.5h.1c.83,0,1.5.67,1.5,1.5s-.67,1.5-1.5,1.5-1.5-.67-1.5-1.5"/><path id="Path_61374" class="cls-2" d="M12.78,11.77c-.77-1.34-2.19-2.16-3.74-2.16h-1.87c-1.54,0-2.97.82-3.73,2.16-.36.62-.55,1.32-.57,2.03.02.65.56,1.16,1.21,1.15h8.09c.65,0,1.17-.52,1.19-1.16,0-.25-.04-.5-.09-.75-.09-.44-.26-.87-.48-1.26M11.78,13.08c.04.16.07.32.09.48h-7.5c.06-.62.32-1.21.74-1.67.04-.05.09-.1.13-.14.54-.52,1.25-.81,2-.81h1.76c.75,0,1.46.29,2,.81.05.04.09.09.13.14.31.34.53.75.65,1.19"/></g></g></g></svg>