<?xml version="1.0" encoding="UTF-8"?><svg id="Layer_1" xmlns="http://www.w3.org/2000/svg" xmlns:xlink="http://www.w3.org/1999/xlink" viewBox="0 0 16 16"><defs><style>.cls-1{fill:none;}.cls-2{fill-rule:evenodd;}.cls-2,.cls-3{fill:#434BA2;}.cls-4{clip-path:url(#clippath);}</style><clipPath id="clippath"><rect class="cls-1" width="16" height="16"/></clipPath></defs><g id="Group_16010"><g class="cls-4"><g id="Group_16009"><path id="Path_61135" class="cls-2" d="M11.71,4.3c-.15-.15-.37-.21-.57-.15l-5.12,1.46c-.19.05-.35.21-.4.4l-1.47,5.12c-.09.31.09.63.4.72.1.03.22.03.32,0l5.12-1.47c.19-.05.35-.21.4-.4l1.47-5.12c.06-.2,0-.42-.15-.57M5.56,10.44l.91-3.16,2.25,2.25-3.16.91ZM9.54,8.71l-2.25-2.25,3.16-.91-.91,3.16Z"/><path id="Path_61136" class="cls-3" d="M8,0C3.58,0,0,3.58,0,8s3.58,8,8,8h.11c4.42-.03,7.97-3.64,7.94-8.06-.03-4.42-3.64-7.97-8.06-7.94M8,14.74c-3.73,0-6.75-3.02-6.75-6.74S4.27,1.25,8,1.25c1.46.02,2.87.49,4.04,1.35,1.72,1.26,2.72,3.27,2.7,5.4,0,3.72-3.02,6.74-6.74,6.74"/></g></g></g></svg>