<?xml version="1.0" encoding="UTF-8"?><svg id="discoveryReport" xmlns="http://www.w3.org/2000/svg" xmlns:xlink="http://www.w3.org/1999/xlink" viewBox="0 0 16 16"><defs><style>.cls-1{fill:none;}.cls-2{fill:#434BA2;}.cls-3{clip-path:url(#clippath);}</style><clipPath id="clippath"><rect class="cls-1" y=".03" width="16" height="15.94"/></clipPath></defs><g class="cls-3"><g id="Group_16177"><path id="Path_61417" class="cls-2" d="M11.21,12.51v1.74c0,.43-.35.78-.78.78H1.71c-.43,0-.78-.35-.78-.78V1.74c0-.43.35-.78.78-.78h5.57v2.65c0,.6.49,1.09,1.09,1.09h2.83v1.42c.34.15.66.36.93.61v-2.15c0-.47-.19-.92-.53-1.24L8.6.5c-.32-.3-.74-.47-1.17-.47H1.71C.77.03,0,.8,0,1.74v12.51c0,.95.77,1.71,1.71,1.71h8.72c.95,0,1.71-.77,1.71-1.71v-1.28l-.62-.62c-.1.06-.21.11-.31.16M8.22,1.42l2.48,2.35h-2.32c-.09,0-.16-.07-.16-.16h0V1.42Z"/><path id="Path_61418" class="cls-2" d="M5.82,5.39h-3.75c-.3,0-.54-.24-.54-.54,0-.3.24-.54.54-.54h3.75c.3,0,.54.24.54.54,0,.3-.24.54-.54.54h0"/><path id="Path_61419" class="cls-2" d="M3.94,7.32h-1.88c-.3,0-.54-.24-.54-.54,0-.3.24-.54.54-.54h1.88c.3,0,.54.24.54.54,0,.3-.24.54-.54.54h0"/><path id="Path_61420" class="cls-2" d="M3.94,9.25h-1.88c-.3,0-.54-.24-.54-.54s.24-.54.54-.54h1.88c.3,0,.54.24.54.54s-.24.54-.54.54"/><path id="Path_61421" class="cls-2" d="M3.94,11.12h-1.88c-.3,0-.54-.24-.54-.54s.24-.54.54-.54h1.88c.3,0,.54.24.54.54s-.24.54-.54.54"/><path id="Path_61422" class="cls-2" d="M3.94,13h-1.88c-.3,0-.54-.24-.54-.54,0-.3.24-.54.54-.54h1.88c.3,0,.54.24.54.54s-.24.54-.54.54"/><path id="Path_61423" class="cls-2" d="M15.68,14.05l-2.35-2.35c.37-.63.56-1.35.56-2.09,0-1.19-.5-2.33-1.39-3.12-.33-.3-.71-.55-1.13-.73-2.13-.94-4.62.02-5.57,2.15-.94,2.13.02,4.62,2.15,5.57.55.24,1.14.37,1.74.36.58,0,1.16-.12,1.69-.36.13-.06.26-.12.38-.19l.75.75,1.6,1.6c.44.43,1.15.42,1.58-.01.42-.44.42-1.13,0-1.56M12.51,9.97c-.07.63-.35,1.22-.8,1.66-.1.1-.21.2-.33.28-1.27.95-3.06.69-4.01-.57-.95-1.27-.69-3.06.57-4.01,1.27-.95,3.06-.69,4.01.57.3.41.5.89.55,1.39.01.11.02.22.02.33,0,.12,0,.23-.02.35"/></g></g></svg>