<?xml version="1.0" encoding="UTF-8"?><svg id="Layer_1" xmlns="http://www.w3.org/2000/svg" viewBox="0 0 16 16"><defs><style>.cls-1{fill:#484660;}.cls-2{fill:#484660;}</style></defs><g id="Group_16034"><g id="Group_16040"><path id="Path_61185" class="cls-1" d="M6.45,7.8c1.81,0,3.28-1.47,3.28-3.28,0-1.81-1.47-3.28-3.28-3.28-1.81,0-3.28,1.47-3.28,3.28,0,0,0,0,0,0,0,1.81,1.47,3.27,3.28,3.27M6.45,2.21h.01c1.27,0,2.3,1.04,2.29,2.31,0,1.27-1.04,2.3-2.31,2.29-1.27,0-2.3-1.04-2.29-2.31,0-1.27,1.03-2.29,2.29-2.29"/><path id="Path_61187" class="cls-2" d="M1.38,13.06c-.09,0-.16-.07-.16-.15,0,0,0,0,0,0h0c.07-2.26,1.97-4.03,4.23-3.96h2.03c.34,0,.68.04,1.02.12.17-.32.39-.62.64-.88-.53-.17-1.08-.25-1.63-.24h-2.09c-2.89-.09-5.31,2.17-5.41,5.06.03.65.57,1.16,1.23,1.14h8.16c-.36-.31-.67-.68-.9-1.09H1.38Z"/><path id="Path_61188" class="cls-2" d="M12.25,7.25c-2.07,0-3.76,1.68-3.76,3.75,0,2.07,1.68,3.76,3.75,3.76s3.76-1.68,3.76-3.75c0-2.07-1.68-3.75-3.75-3.76M12.25,13.71c-1.5,0-2.71-1.21-2.71-2.71,0-1.5,1.21-2.71,2.71-2.71s2.71,1.21,2.71,2.71h0c0,1.5-1.21,2.71-2.71,2.71"/><path id="Path_61189" class="cls-1" d="M13.75,9.5c-.18-.18-.47-.18-.65,0,0,0,0,0,0,0l-.83.82-.82-.82c-.08-.08-.19-.12-.3-.12h-.02c-.26,0-.46.21-.46.47,0,.11.04.22.12.31l.82.82-.82.83-.07.07c-.07.08-.11.19-.11.3,0,.26.21.46.46.47h0c.14,0,.28-.06.36-.18l.83-.83.82.82c.19.17.48.16.66-.02.16-.18.17-.45,0-.63l-.83-.82.82-.82c.18-.18.18-.47,0-.66,0,0,0,0,0,0"/></g></g></svg>