<?xml version="1.0" encoding="UTF-8"?><svg id="Group_16035" xmlns="http://www.w3.org/2000/svg" viewBox="0 0 16 16"><defs><style>.cls-1{fill:#434BA2;}</style></defs><g id="Group_16039"><path id="Path_61190" class="cls-1" d="M13.9,2.09h-1.23V.86C12.67.38,12.28,0,11.81,0h0s-9.71,0-9.71,0c-.47,0-.86.38-.86.86v12.19c0,.47.38.86.86.86h1.24v1.24c0,.47.39.86.86.86h6.47c.51-.03.99-.22,1.38-.55l2.13-2c.35-.37.56-.85.59-1.35V2.95c0-.47-.38-.86-.86-.86M4.1,15.14V2.95s.04-.09.09-.09h9.71s.09.04.09.09v9.14s0,.06,0,.09h-2.08c-.63,0-1.14.51-1.14,1.15v1.89s-.06,0-.09,0h-6.47s-.09-.04-.09-.09M11.52,13.33c0-.21.17-.38.38-.38h1.68l-2.06,1.94v-1.56ZM3.33,2.95v10.18h-1.24s-.09-.04-.09-.09V.86s.04-.09.09-.09h9.71s.09.04.09.09v1.24h-7.71c-.47,0-.86.39-.86.86"/><path id="Path_61191" class="cls-1" d="M6.29,5.53h5.52c.21-.01.37-.19.36-.4-.01-.2-.17-.35-.36-.36h-5.52c-.21-.01-.39.15-.4.36-.01.21.15.39.36.4.01,0,.03,0,.04,0"/><path id="Path_61192" class="cls-1" d="M6.29,9.34h5.52c.21,0,.38-.17.38-.38,0-.21-.17-.38-.38-.38h-5.52c-.21,0-.38.17-.38.38,0,.21.17.38.38.38"/><path id="Path_61193" class="cls-1" d="M6.29,11.24h3.05c.21,0,.38-.17.38-.38,0-.21-.17-.38-.38-.38h-3.05c-.21,0-.38.17-.38.38,0,.21.17.38.38.38h0"/><path id="Path_61194" class="cls-1" d="M6.29,7.43h5.52c.21,0,.38-.17.38-.38s-.17-.38-.38-.38h-5.52c-.21,0-.38.17-.38.38s.17.38.38.38"/></g></svg>