<?xml version="1.0" encoding="UTF-8"?><svg id="Layer_1" xmlns="http://www.w3.org/2000/svg" xmlns:xlink="http://www.w3.org/1999/xlink" viewBox="0 0 16 16"><defs><style>.cls-1{fill:none;}.cls-2{fill:#434BA2;}.cls-3{clip-path:url(#clippath);}</style><clipPath id="clippath"><rect class="cls-1" x=".89" width="14.23" height="16"/></clipPath></defs><g id="Group_16147"><g class="cls-3"><g id="Group_16148"><path id="Path_61348" class="cls-2" d="M10.95,10.37l1.03-1.6c.24-.38.29-.45.32-.49.63-.88.97-1.93.97-3.01C13.31,2.36,10.98-.03,8.08-.07c-2.91-.04-5.3,2.29-5.34,5.19,0,.05,0,.1,0,.15,0,1.09.34,2.16.99,3.04l1.32,2.06c-1.28.23-4.16.93-4.16,2.69,0,.64.4,1.55,2.33,2.23,1.47.47,3,.71,4.54.71h.24c3.53,0,7.11-1.01,7.11-2.93,0-1.76-2.88-2.47-4.16-2.69M4.8,7.56c-.49-.67-.76-1.47-.75-2.3-.03-2.18,1.71-3.98,3.89-4.02s3.98,1.71,4.02,3.89c0,.04,0,.08,0,.13,0,.81-.25,1.59-.72,2.25t-1.39,2.15l-1.85,2.88-3.2-4.97ZM8,14.7c-3.6,0-5.8-1.06-5.8-1.63,0-.36,1.06-1.16,3.62-1.49l1.63,2.53c.2.31.6.39.91.2.08-.05.15-.12.2-.2l1.63-2.53c2.56.34,3.62,1.13,3.62,1.49,0,.58-2.2,1.63-5.8,1.63"/><path id="Path_61349" class="cls-2" d="M10.88,5.47c0-1.59-1.29-2.88-2.88-2.88s-2.88,1.29-2.88,2.88,1.29,2.88,2.88,2.88c1.59,0,2.88-1.29,2.88-2.88M6.58,5.47c0-.78.64-1.42,1.42-1.42s1.42.64,1.42,1.42-.64,1.42-1.42,1.42c0,0,0,0,0,0-.78,0-1.41-.62-1.42-1.4,0,0,0-.01,0-.02"/></g></g></g></svg>