<?xml version="1.0" encoding="UTF-8"?><svg id="Layer_1" xmlns="http://www.w3.org/2000/svg" xmlns:xlink="http://www.w3.org/1999/xlink" viewBox="0 0 16 16"><defs><style>.cls-1{fill:none;}.cls-2{fill-rule:evenodd;}.cls-2,.cls-3{fill:#6e8fc7;}.cls-4{fill:#434BA2;}.cls-5{clip-path:url(#clippath-1);}.cls-6{clip-path:url(#clippath);}</style><clipPath id="clippath"><rect class="cls-1" x="1.12" width="13.76" height="16"/></clipPath><clipPath id="clippath-1"><rect class="cls-1" x="1.12" width="13.76" height="16"/></clipPath></defs><g class="cls-6"><g id="Group_16045"><path id="Path_61198" class="cls-2" d="M4.23.28c.22.22.22.58,0,.8,0,0,0,0,0,0-2.66,2.62-2.7,6.9-.08,9.56,2.62,2.66,6.9,2.7,9.56.08.03-.03.06-.06.09-.09.21-.23.57-.24.8-.03.23.21.24.57.03.8,0,0-.02.02-.03.03-3.08,3.08-8.08,3.09-11.16,0C.35,8.36.35,3.37,3.43.28c.22-.22.58-.22.8,0,0,0,0,0,0,0h0Z"/><path id="Path_61199" class="cls-2" d="M6.19,15.44c0-.31.25-.56.56-.56h4.51c.31,0,.56.25.56.56s-.25.56-.56.56h-4.51c-.31,0-.56-.25-.56-.56"/><path id="Path_61200" class="cls-2" d="M9.01,12.69c.31,0,.56.25.56.55v2.21c0,.3-.25.55-.56.55s-.56-.25-.56-.55v-2.21c0-.3.25-.55.56-.55"/><path id="Path_61201" class="cls-3" d="M13.2,1.68c-2.25-2.24-5.89-2.24-8.13,0-2.24,2.25-2.24,5.89,0,8.13,2.25,2.24,5.89,2.24,8.13,0,1.08-1.08,1.68-2.54,1.68-4.06,0-1.53-.61-2.99-1.69-4.07M8.3,7.88s-.09.03-.14.05c-.23.12-.4.33-.46.59,0-.02-.02-.05-.02-.07-.07-.19-.18-.36-.31-.51-.07-.08-.13-.17-.17-.27,0-.08,0-.16,0-.24.02-.19.01-.39-.03-.57-.09-.26-.24-.49-.44-.68-.08-.07-.14-.15-.2-.24-.03-.09-.04-.18-.02-.27.02-.19,0-.38-.04-.57-.07-.19-.21-.35-.38-.46l-.1-.07c.29.18.61.29.94.35.06.01.13.02.19.03.31.04.35.06.4.15.02.05.05.1.06.15.03.09.07.18.12.27.15.29.44.49.77.5h.04c.19-.02.37-.09.52-.22.03-.02.06-.04.07-.05.06,0,.12.03.17.07.08.05.15.12.19.21,0,.02,0,.04.01.04h0l-.67.57c-.31.22-.51.55-.55.93,0,.1.01.2.03.3M7.5,1.25c.07.21.15.42.25.65.09.17.14.36.15.54v.03h-.08c-.24.01-.47.08-.67.21-.04.03-.08.06-.12.09-.04.04-.09.06-.14.09-.04,0-.08,0-.13-.01s-.13-.01-.2-.02h-.03c-.39,0-.75.16-1.02.44-.15.18-.19.43-.12.65.02.07.06.14.1.2-.06-.06-.11-.11-.17-.17-.11-.1-.19-.22-.25-.35l-.03-.1c-.01-.06-.03-.12-.06-.17.57-.97,1.46-1.72,2.52-2.1M4.5,4.5s.08.09.12.13c.28.29.58.56.91.79l.03.02c0,.05,0,.1,0,.15-.03.27.01.54.13.78.1.17.22.33.36.46.08.07.15.16.2.26.01.08.01.16,0,.24-.02.18-.02.36.02.54.07.23.18.45.34.63.07.08.12.16.16.25.02.08.04.16.04.24,0,.11.03.22.05.34.09.41.44.72.86.75h.07c.45-.04.76-.43.81-1.02,0-.09.02-.18.03-.27h.02c.17-.03.32-.11.45-.23.2-.23.26-.55.16-.84,0-.04-.02-.1-.02-.11s.03-.07.21-.22l.67-.57c.3-.27.41-.7.28-1.08-.11-.3-.31-.55-.58-.71-.21-.15-.46-.23-.71-.24-.13,0-.25.02-.36.07-.08.03-.15.07-.22.12l-.03-.08c-.03-.09-.07-.19-.12-.28-.24-.4-.67-.65-1.13-.65-.05,0-.1-.01-.16-.02-.14-.02-.28-.07-.42-.13.07,0,.14.01.21.01.1,0,.19-.01.28-.04.17-.05.33-.14.46-.26.03-.02.05-.04.08-.06.06-.02.13-.03.19-.03.51.03.94-.37.97-.87,0-.01,0-.02,0-.03.02-.35-.06-.7-.21-1.01-.07-.16-.14-.34-.2-.52.73-.1,1.48-.03,2.19.2-.13.13-.26.26-.37.4-.09.11-.16.24-.18.38-.03.23.05.46.2.64.14.21.35.37.6.45.07.02.13.02.2.03.2,0,.4-.07.57-.16.05-.03.11-.05.16-.07.05,0,.11.02.16.04.14.05.28.08.43.09h.03c.17,0,.34-.05.48-.15.25.33.46.69.62,1.07-.05,0-.1,0-.16,0h-.06c-.16-.01-.32-.05-.47-.12-.16-.06-.33-.11-.5-.15-.08-.02-.15-.02-.23-.02-.51.02-.98.32-1.21.78-.09.16-.53,1-.14,1.54.13.17.3.3.48.4.2.13.41.23.62.33.05.02.09.03.14.05.1.03.19.07.27.13,0,0,.03.05.02.23-.02.13-.06.26-.11.39-.26.47-.21,1.06.14,1.47.05.06.11.11.17.16-1.87,1.86-4.9,1.86-6.77-.01-1.2-1.21-1.67-2.96-1.23-4.6M11.83,1.9h-.08c-.18.02-.36.08-.52.17l-.11.05h0c.08-.1.18-.2.28-.3.06-.06.12-.12.18-.17.13.08.26.17.39.26-.05,0-.09,0-.14,0M13.12,7.82c.08-.2.14-.41.17-.62.05-.32-.02-.64-.2-.91-.19-.23-.44-.39-.72-.47l-.11-.04c-.17-.07-.33-.16-.49-.26-.06-.03-.12-.07-.17-.11.02-.18.08-.36.18-.52.07-.15.2-.25.36-.28.01,0,.03,0,.04,0,.12.03.24.06.35.11.25.11.52.17.8.18.04,0,.09,0,.13,0,.05,0,.12,0,.19,0s.12,0,.18,0c.05.28.08.57.08.86,0,.93-.27,1.85-.79,2.62-.02-.01-.03-.03-.05-.05-.07-.09-.09-.13.05-.5"/></g></g><g class="cls-5"><g id="Group_16045-2"><path id="Path_61198-2" class="cls-4" d="M4.23.28c.22.22.22.58,0,.8,0,0,0,0,0,0-2.66,2.62-2.7,6.9-.08,9.56,2.62,2.66,6.9,2.7,9.56.08.03-.03.06-.06.09-.09.21-.23.57-.24.8-.03.23.21.24.57.03.8,0,0-.02.02-.03.03-3.08,3.08-8.08,3.09-11.16,0C.35,8.36.35,3.37,3.43.28c.22-.22.58-.22.8,0,0,0,0,0,0,0h0Z"/><path id="Path_61199-2" class="cls-4" d="M6.19,15.44c0-.31.25-.56.56-.56h4.51c.31,0,.56.25.56.56s-.25.56-.56.56h-4.51c-.31,0-.56-.25-.56-.56"/><path id="Path_61200-2" class="cls-4" d="M9.01,12.69c.31,0,.56.25.56.55v2.21c0,.3-.25.55-.56.55s-.56-.25-.56-.55v-2.21c0-.3.25-.55.56-.55"/><path id="Path_61201-2" class="cls-4" d="M13.2,1.68c-2.25-2.24-5.89-2.24-8.13,0-2.24,2.25-2.24,5.89,0,8.13,2.25,2.24,5.89,2.24,8.13,0,1.08-1.08,1.68-2.54,1.68-4.06,0-1.53-.61-2.99-1.69-4.07M8.3,7.88s-.09.03-.14.05c-.23.12-.4.33-.46.59,0-.02-.02-.05-.02-.07-.07-.19-.18-.36-.31-.51-.07-.08-.13-.17-.17-.27,0-.08,0-.16,0-.24.02-.19.01-.39-.03-.57-.09-.26-.24-.49-.44-.68-.08-.07-.14-.15-.2-.24-.03-.09-.04-.18-.02-.27.02-.19,0-.38-.04-.57-.07-.19-.21-.35-.38-.46l-.1-.07c.29.18.61.29.94.35.06.01.13.02.19.03.31.04.35.06.4.15.02.05.05.1.06.15.03.09.07.18.12.27.15.29.44.49.77.5h.04c.19-.02.37-.09.52-.22.03-.02.06-.04.07-.05.06,0,.12.03.17.07.08.05.15.12.19.21,0,.02,0,.04.01.04h0l-.67.57c-.31.22-.51.55-.55.93,0,.1.01.2.03.3M7.5,1.25c.07.21.15.42.25.65.09.17.14.36.15.54v.03h-.08c-.24.01-.47.08-.67.21-.04.03-.08.06-.12.09-.04.04-.09.06-.14.09-.04,0-.08,0-.13-.01s-.13-.01-.2-.02h-.03c-.39,0-.75.16-1.02.44-.15.18-.19.43-.12.65.02.07.06.14.1.2-.06-.06-.11-.11-.17-.17-.11-.1-.19-.22-.25-.35l-.03-.1c-.01-.06-.03-.12-.06-.17.57-.97,1.46-1.72,2.52-2.1M4.5,4.5s.08.09.12.13c.28.29.58.56.91.79l.03.02c0,.05,0,.1,0,.15-.03.27.01.54.13.78.1.17.22.33.36.46.08.07.15.16.2.26.01.08.01.16,0,.24-.02.18-.02.36.02.54.07.23.18.45.34.63.07.08.12.16.16.25.02.08.04.16.04.24,0,.11.03.22.05.34.09.41.44.72.86.75h.07c.45-.04.76-.43.81-1.02,0-.09.02-.18.03-.27h.02c.17-.03.32-.11.45-.23.2-.23.26-.55.16-.84,0-.04-.02-.1-.02-.11s.03-.07.21-.22l.67-.57c.3-.27.41-.7.28-1.08-.11-.3-.31-.55-.58-.71-.21-.15-.46-.23-.71-.24-.13,0-.25.02-.36.07-.08.03-.15.07-.22.12l-.03-.08c-.03-.09-.07-.19-.12-.28-.24-.4-.67-.65-1.13-.65-.05,0-.1-.01-.16-.02-.14-.02-.28-.07-.42-.13.07,0,.14.01.21.01.1,0,.19-.01.28-.04.17-.05.33-.14.46-.26.03-.02.05-.04.08-.06.06-.02.13-.03.19-.03.51.03.94-.37.97-.87,0-.01,0-.02,0-.03.02-.35-.06-.7-.21-1.01-.07-.16-.14-.34-.2-.52.73-.1,1.48-.03,2.19.2-.13.13-.26.26-.37.4-.09.11-.16.24-.18.38-.03.23.05.46.2.64.14.21.35.37.6.45.07.02.13.02.2.03.2,0,.4-.07.57-.16.05-.03.11-.05.16-.07.05,0,.11.02.16.04.14.05.28.08.43.09h.03c.17,0,.34-.05.48-.15.25.33.46.69.62,1.07-.05,0-.1,0-.16,0h-.06c-.16-.01-.32-.05-.47-.12-.16-.06-.33-.11-.5-.15-.08-.02-.15-.02-.23-.02-.51.02-.98.32-1.21.78-.09.16-.53,1-.14,1.54.13.17.3.3.48.4.2.13.41.23.62.33.05.02.09.03.14.05.1.03.19.07.27.13,0,0,.03.05.02.23-.02.13-.06.26-.11.39-.26.47-.21,1.06.14,1.47.05.06.11.11.17.16-1.87,1.86-4.9,1.86-6.77-.01-1.2-1.21-1.67-2.96-1.23-4.6M11.83,1.9h-.08c-.18.02-.36.08-.52.17l-.11.05h0c.08-.1.18-.2.28-.3.06-.06.12-.12.18-.17.13.08.26.17.39.26-.05,0-.09,0-.14,0M13.12,7.82c.08-.2.14-.41.17-.62.05-.32-.02-.64-.2-.91-.19-.23-.44-.39-.72-.47l-.11-.04c-.17-.07-.33-.16-.49-.26-.06-.03-.12-.07-.17-.11.02-.18.08-.36.18-.52.07-.15.2-.25.36-.28.01,0,.03,0,.04,0,.12.03.24.06.35.11.25.11.52.17.8.18.04,0,.09,0,.13,0,.05,0,.12,0,.19,0s.12,0,.18,0c.05.28.08.57.08.86,0,.93-.27,1.85-.79,2.62-.02-.01-.03-.03-.05-.05-.07-.09-.09-.13.05-.5"/></g></g></svg>