<?xml version="1.0" encoding="UTF-8"?><svg id="Layer_1" xmlns="http://www.w3.org/2000/svg" xmlns:xlink="http://www.w3.org/1999/xlink" viewBox="0 0 16 16"><defs><style>.cls-1{fill:none;}.cls-2{fill:#434BA2;}.cls-3{clip-path:url(#clippath-1);}.cls-4{fill:#6e8fc7;}.cls-5{clip-path:url(#clippath);}</style><clipPath id="clippath"><rect class="cls-1" x=".28" width="15.44" height="16"/></clipPath><clipPath id="clippath-1"><rect class="cls-1" x=".28" width="15.44" height="16"/></clipPath></defs><g id="globalMaintenance"><g class="cls-5"><g id="Group_16391"><path id="Path_61524" class="cls-4" d="M8,3.94c-2.24,0-4.06,1.82-4.06,4.06,0,2.24,1.82,4.06,4.06,4.06,2.24,0,4.06-1.82,4.06-4.06h0c0-2.24-1.82-4.06-4.06-4.06M9.92,7.31h1.34c.1.46.1.93,0,1.39h-1.34c.02-.23.03-.46.03-.69s0-.47-.03-.69M9.22,8c0,.24-.01.47-.03.69h-2.38c-.02-.22-.03-.45-.03-.69s.01-.47.03-.69h2.39c.02.22.03.45.03.69M9.83,6.58c-.08-.57-.26-1.13-.53-1.65.75.32,1.36.91,1.71,1.65h-1.18ZM6.9,6.58c.23-1.25.73-1.92,1.1-1.92s.86.67,1.1,1.92h-2.2ZM6.69,4.93c-.27.52-.44,1.07-.53,1.65h-1.18c.35-.74.96-1.33,1.71-1.65M6.08,8.7h-1.34c-.1-.46-.1-.93,0-1.39h1.34c-.02.22-.03.45-.03.69s.01.47.03.69M6.17,9.42c.08.57.26,1.13.53,1.65-.75-.32-1.36-.91-1.71-1.65h1.18ZM9.1,9.42c-.23,1.25-.73,1.92-1.1,1.92s-.86-.67-1.1-1.92h2.2ZM9.31,11.07c.26-.52.44-1.07.53-1.65h1.18c-.35.74-.96,1.33-1.71,1.65"/><path id="Path_61525" class="cls-4" d="M15.66,9.74c-.11-.43-.4-.8-.78-1.03l-.71-.41-.05-.58.75-.43c.81-.47,1.08-1.5.62-2.31l-1.14-1.97c-.47-.81-1.5-1.08-2.31-.62l-.65.43-.58-.33v-.81c0-.93-.76-1.69-1.69-1.69h-2.27c-.93,0-1.68.76-1.68,1.69v.81l-.48.33-.75-.43c-.81-.47-1.84-.19-2.3.62,0,0,0,0,0,0l-1.14,1.97c-.46.81-.19,1.84.62,2.3l.7.35.05.64-.75.43c-.81.47-1.08,1.5-.62,2.31l1.14,1.97c.47.81,1.5,1.08,2.31.62l.71-.41.52.25v.87c0,.93.75,1.69,1.69,1.69h2.27c.93,0,1.69-.76,1.69-1.69h0l-.05-.78.58-.33.7.41c.81.46,1.84.19,2.31-.62l1.14-1.97c.22-.39.28-.85.17-1.28M12.89,12.89c-.13,0-.25-.03-.36-.1l-.95-.55c-.07-.04-.15-.06-.24-.06-.08,0-.16.02-.24.06l-1.06.62-.07.07-.06.1-.03.09-.02.11v1.09c0,.41-.33.74-.74.74h-2.27c-.41,0-.74-.33-.74-.74v-1.15l-.03-.1-.05-.1-.09.05.02-.13-.08-.06-1-.58c-.07-.04-.15-.06-.24-.06-.08,0-.16.02-.24.06l-.94.54c-.11.07-.24.1-.37.1-.22,0-.43-.1-.57-.27l-.04-.03-.04-.08c-.06-.11-.2-.36-.55-.97l-.58-1c-.2-.36-.08-.81.27-1.01l.94-.54.1-.07.08-.1.04-.11.02-.12v-1.2l-.02-.11-.04-.09-.07-.1-.09-.06-.94-.55c-.36-.21-.48-.66-.27-1.02l1.14-1.97c.2-.35.65-.48,1.01-.28,0,0,0,0,.01,0l.94.54c.07.04.15.06.24.06.08,0,.16-.02.24-.06l1.03-.6.09-.08.06-.08.04-.1.02-.13v-1.09c0-.41.33-.74.74-.74h2.27c.41,0,.74.33.74.74v1.08l.02.13s.03.08.05.11l.07.09.09.07,1,.58c.07.04.15.06.24.06.08,0,.16-.02.23-.06l.94-.54c.11-.06.24-.1.37-.1.27,0,.51.14.64.37l1.14,1.97c.2.36.08.81-.27,1.02l-.97.56-.1.09-.06.09-.04.11v.1h0v1.22l.02.1.05.1.07.09.08.06.94.55c.36.2.48.66.27,1.01l-1.14,1.97c-.13.23-.38.37-.64.37"/></g></g><g class="cls-3"><g id="Group_16391-2"><path id="Path_61524-2" class="cls-2" d="M8,3.94c-2.24,0-4.06,1.82-4.06,4.06,0,2.24,1.82,4.06,4.06,4.06,2.24,0,4.06-1.82,4.06-4.06h0c0-2.24-1.82-4.06-4.06-4.06M9.92,7.31h1.34c.1.46.1.93,0,1.39h-1.34c.02-.23.03-.46.03-.69s0-.47-.03-.69M9.22,8c0,.24-.01.47-.03.69h-2.38c-.02-.22-.03-.45-.03-.69s.01-.47.03-.69h2.39c.02.22.03.45.03.69M9.83,6.58c-.08-.57-.26-1.13-.53-1.65.75.32,1.36.91,1.71,1.65h-1.18ZM6.9,6.58c.23-1.25.73-1.92,1.1-1.92s.86.67,1.1,1.92h-2.2ZM6.69,4.93c-.27.52-.44,1.07-.53,1.65h-1.18c.35-.74.96-1.33,1.71-1.65M6.08,8.7h-1.34c-.1-.46-.1-.93,0-1.39h1.34c-.02.22-.03.45-.03.69s.01.47.03.69M6.17,9.42c.08.57.26,1.13.53,1.65-.75-.32-1.36-.91-1.71-1.65h1.18ZM9.1,9.42c-.23,1.25-.73,1.92-1.1,1.92s-.86-.67-1.1-1.92h2.2ZM9.31,11.07c.26-.52.44-1.07.53-1.65h1.18c-.35.74-.96,1.33-1.71,1.65"/><path id="Path_61525-2" class="cls-2" d="M15.66,9.74c-.11-.43-.4-.8-.78-1.03l-.71-.41-.05-.58.75-.43c.81-.47,1.08-1.5.62-2.31l-1.14-1.97c-.47-.81-1.5-1.08-2.31-.62l-.65.43-.58-.33v-.81c0-.93-.76-1.69-1.69-1.69h-2.27c-.93,0-1.68.76-1.68,1.69v.81l-.48.33-.75-.43c-.81-.47-1.84-.19-2.3.62,0,0,0,0,0,0l-1.14,1.97c-.46.81-.19,1.84.62,2.3l.7.35.05.64-.75.43c-.81.47-1.08,1.5-.62,2.31l1.14,1.97c.47.81,1.5,1.08,2.31.62l.71-.41.52.25v.87c0,.93.75,1.69,1.69,1.69h2.27c.93,0,1.69-.76,1.69-1.69h0l-.05-.78.58-.33.7.41c.81.46,1.84.19,2.31-.62l1.14-1.97c.22-.39.28-.85.17-1.28M12.89,12.89c-.13,0-.25-.03-.36-.1l-.95-.55c-.07-.04-.15-.06-.24-.06-.08,0-.16.02-.24.06l-1.06.62-.07.07-.06.1-.03.09-.02.11v1.09c0,.41-.33.74-.74.74h-2.27c-.41,0-.74-.33-.74-.74v-1.15l-.03-.1-.05-.1-.09.05.02-.13-.08-.06-1-.58c-.07-.04-.15-.06-.24-.06-.08,0-.16.02-.24.06l-.94.54c-.11.07-.24.1-.37.1-.22,0-.43-.1-.57-.27l-.04-.03-.04-.08c-.06-.11-.2-.36-.55-.97l-.58-1c-.2-.36-.08-.81.27-1.01l.94-.54.1-.07.08-.1.04-.11.02-.12v-1.2l-.02-.11-.04-.09-.07-.1-.09-.06-.94-.55c-.36-.21-.48-.66-.27-1.02l1.14-1.97c.2-.35.65-.48,1.01-.28,0,0,0,0,.01,0l.94.54c.07.04.15.06.24.06.08,0,.16-.02.24-.06l1.03-.6.09-.08.06-.08.04-.1.02-.13v-1.09c0-.41.33-.74.74-.74h2.27c.41,0,.74.33.74.74v1.08l.02.13s.03.08.05.11l.07.09.09.07,1,.58c.07.04.15.06.24.06.08,0,.16-.02.23-.06l.94-.54c.11-.06.24-.1.37-.1.27,0,.51.14.64.37l1.14,1.97c.2.36.08.81-.27,1.02l-.97.56-.1.09-.06.09-.04.11v.1h0v1.22l.02.1.05.1.07.09.08.06.94.55c.36.2.48.66.27,1.01l-1.14,1.97c-.13.23-.38.37-.64.37"/></g></g></g></svg>