<?xml version="1.0" encoding="UTF-8"?><svg id="historyOfAcknowledgements" xmlns="http://www.w3.org/2000/svg" xmlns:xlink="http://www.w3.org/1999/xlink" viewBox="0 0 16 16"><defs><style>.cls-1{fill:none;}.cls-2{fill:#434BA2;}.cls-3{clip-path:url(#clippath);}</style><clipPath id="clippath"><rect class="cls-1" x="1.69" width="12.61" height="16"/></clipPath></defs><g class="cls-3"><g id="Group_16374"><path id="Path_61482" class="cls-2" d="M4.08,16c-1.32,0-2.38-1.07-2.38-2.38V2.38C1.69,1.07,2.76,0,4.08,0h7.85c1.32,0,2.38,1.07,2.38,2.38v6.68c0,.26-.21.47-.47.47-.26,0-.47-.21-.47-.47V2.38c0-.8-.65-1.45-1.45-1.45h-7.85c-.8,0-1.45.65-1.45,1.45v11.23c0,.8.65,1.45,1.45,1.45h.05c.26-.01.48.19.49.45.01.26-.19.48-.45.49-.01,0-.03,0-.04,0h-.05ZM4.71,7.93c-.26,0-.47-.21-.47-.47,0-.26.21-.47.47-.47h2.74c.26,0,.47.21.47.47s-.21.47-.47.47h-2.74ZM4.71,5.73c-.26,0-.47-.21-.47-.47,0-.26.21-.47.47-.47h6.57c.26,0,.47.21.47.47s-.21.47-.47.47h-6.57ZM4.71,3.53c-.26,0-.47-.21-.47-.47s.21-.47.47-.47h6.57c.26,0,.47.21.47.47,0,.26-.21.47-.47.47h-6.57Z"/><path id="Path_61483" class="cls-2" d="M13.94,12.01c.19-.23.29-.53.27-.82.05-.62-.41-1.16-1.03-1.21-.08,0-.16,0-.24,0h-1.01c.38-.81.39-1.75.02-2.56-.37-.52-.97-.82-1.61-.8-.39,0-.7.31-.7.7,0,0,0,0,0,0v.68c0,.59-.24,1.16-.67,1.58-.28.36-.54.73-.78,1.12-.21-.14-.45-.22-.71-.22h-1.28c-.7,0-1.26.56-1.26,1.26v2.87c0,.7.56,1.26,1.26,1.26h1.27c.32,0,.63-.12.87-.35,1.16.25,2.36.37,3.55.35.86,0,1.42-.42,1.42-1.08,0-.06,0-.13,0-.19.27-.23.42-.57.4-.92,0-.11-.01-.23-.04-.34.23-.24.35-.56.34-.89,0-.15-.02-.3-.07-.44M12.06,13.11c0,.27.21.49.48.49,0,0,.02,0,.03,0,.03,0,.06,0,.09,0l.13.08h0l-.19.1h-.27c-.29,0-.53.24-.53.53,0,.22.14.41.34.49-.07.01-.15.02-.22.02-1.06.02-2.12-.08-3.16-.28v-2.6c.29-.6.66-1.17,1.08-1.7.57-.6.88-1.39.88-2.21v-.26c.14.04.27.12.35.24.31.48-.07,1.52-.19,1.83-.13.28-.1.6.06.85.17.24.45.38.75.37h1.27c.16,0,.2.02.2.13s-.02.13-.07.14h-.2c-.29,0-.53.24-.53.53h0c.03.32.28.57.6.6,0,.1-.02.13-.07.13h-.29c-.29,0-.53.24-.53.53M7.69,11.74v2.87c0,.11-.09.2-.2.2h-1.27c-.11,0-.2-.09-.2-.2v-2.87c0-.11.09-.2.2-.2h1.27c.11,0,.2.09.2.2"/></g></g></svg>