<?xml version="1.0" encoding="UTF-8"?><svg id="historyOfDeletions" xmlns="http://www.w3.org/2000/svg" xmlns:xlink="http://www.w3.org/1999/xlink" viewBox="0 0 16 16"><defs><style>.cls-1{fill:none;}.cls-2{fill:#484660;}.cls-3{fill:#484660;}.cls-4{clip-path:url(#clippath);}</style><clipPath id="clippath"><rect class="cls-1" x="1.69" width="12.62" height="16"/></clipPath></defs><g class="cls-4"><g id="Group_16375"><path id="Path_61484" class="cls-3" d="M4.01,15.56c-1.28,0-2.31-1.04-2.32-2.32V2.32C1.69,1.04,2.73,0,4.01,0h7.63c1.28,0,2.32,1.04,2.32,2.32v5.45c0,.25-.2.46-.45.46-.25,0-.46-.2-.46-.45h0V2.32c0-.78-.63-1.41-1.41-1.41h-7.63c-.78,0-1.41.63-1.41,1.41v10.92c0,.78.63,1.41,1.41,1.41h1.82c.25,0,.45.2.45.46,0,.25-.2.45-.45.45h-1.82ZM4.66,3.28c-.25,0-.46-.2-.46-.45s.2-.46.46-.46h6.39c.25,0,.45.2.45.46s-.2.45-.45.45h-6.39ZM4.66,7.85c-.25-.01-.45-.23-.43-.48.01-.24.2-.42.43-.43h1.24c.25.01.45.23.43.48-.01.24-.2.42-.43.43h-1.24ZM4.66,5.56c-.25,0-.46-.2-.46-.45,0-.25.2-.46.45-.46h6.39c.25,0,.45.2.45.46,0,.25-.2.45-.45.45h-6.39Z"/><path id="Path_61485" class="cls-2" d="M8.57,13.75c-.35,0-.64-.29-.64-.64,0-.15.05-.29.15-.41.01-.02.08-.09.08-.09l.97-.97-.97-.97c-.24-.26-.22-.66.04-.9.25-.23.62-.22.87,0l.96.96.97-.97c.12-.11.27-.17.43-.17.18,0,.35.08.47.21.23.24.23.62,0,.86l-.97.97.97.97c.11.12.17.29.17.45-.01.35-.31.63-.66.61-.15,0-.3-.07-.41-.17l-.97-.97-.97.97c-.12.15-.31.24-.5.24"/><path id="Path_61486" class="cls-2" d="M10,16c-2.38,0-4.31-1.93-4.31-4.31,0-2.38,1.93-4.31,4.31-4.31,2.38,0,4.31,1.93,4.31,4.31h0c0,2.38-1.93,4.31-4.31,4.31M10,8.44c-1.79,0-3.25,1.45-3.25,3.25,0,1.79,1.45,3.25,3.25,3.25,1.79,0,3.25-1.45,3.25-3.25h0c0-1.79-1.46-3.25-3.25-3.25"/></g></g></svg>