<?xml version="1.0" encoding="UTF-8"?><svg id="Layer_1" xmlns="http://www.w3.org/2000/svg" xmlns:xlink="http://www.w3.org/1999/xlink" viewBox="0 0 16 16"><defs><style>.cls-1{fill:none;}.cls-2{fill:#434BA2;}.cls-3{clip-path:url(#clippath);}</style><clipPath id="clippath"><rect class="cls-1" width="16" height="16"/></clipPath></defs><g id="Group_16336"><g id="Group_16072"><g class="cls-3"><g id="Group_15391"><g id="Path_3315"><path class="cls-2" d="M13.36,16H2.64c-1.46-.02-2.64-1.21-2.64-2.67v-5.84c0-.75.32-1.46.88-1.95L6.24.67c1-.9,2.52-.9,3.52,0l5.36,4.86c.56.49.88,1.21.88,1.95v5.84c0,1.46-1.18,2.65-2.64,2.67M8,1.65c-.26,0-.51.09-.72.24L1.92,6.75c-.23.2-.35.51-.32.82v5.84c0,.57.47,1.04,1.04,1.06h10.64c.58-.01,1.04-.48,1.04-1.06v-5.84c-.02-.3-.14-.58-.32-.82L8.64,1.89c-.17-.16-.4-.25-.64-.24"/></g></g></g></g><g id="Line_1"><rect class="cls-2" x="4.5" y="6.75" width="7" height="1.5"/></g></g></svg>