<?xml version="1.0" encoding="UTF-8"?><svg id="Group_16145" xmlns="http://www.w3.org/2000/svg" xmlns:xlink="http://www.w3.org/1999/xlink" viewBox="0 0 16 16"><defs><style>.cls-1{fill:none;}.cls-2{fill:#434BA2;}.cls-3{clip-path:url(#clippath);}</style><clipPath id="clippath"><rect class="cls-1" y=".02" width="16" height="15.96"/></clipPath></defs><path id="Path_61342" class="cls-2" d="M7.95,4.09l-3.84,3.84,3.86,3.87,3.85-3.85-3.87-3.86ZM7.97,10.51l-2.56-2.57,2.54-2.54,2.57,2.56-2.55,2.55Z"/><g id="Group_16146"><g class="cls-3"><g id="Group_16145-2"><path id="Path_61343" class="cls-2" d="M14.94,9.49l-1.54-1.54,1.47-1.47.07-.09.06-.08c1.33-1.65,1.07-4.07-.58-5.4-1.5-1.21-3.66-1.12-5.05.21l-1.41,1.41-1.42-1.42C5.01-.35,2.58-.29,1.12,1.24c-1.41,1.48-1.41,3.82,0,5.3l1.41,1.41-1.42,1.42c-1.48,1.52-1.45,3.95.06,5.43,1.49,1.46,3.88,1.46,5.37,0l1.41-1.41,1.4,1.4c.7.74,1.67,1.17,2.69,1.2h.11c2.12,0,3.84-1.73,3.84-3.85,0-.98-.38-1.93-1.05-2.64M6.53,2.7l-3.82,3.82-.78-.78c-1.04-1.06-1.03-2.77.04-3.82.5-.49,1.17-.77,1.86-.77h.06c.7,0,1.36.28,1.86.77l.78.78ZM3.87,14.75c-1.49,0-2.7-1.2-2.7-2.7,0-.71.27-1.38.76-1.89l.8-.8,3.82,3.82-.8.8c-.5.49-1.18.77-1.89.77M2.9,7.93L7.95,2.89l5.08,5.09-5.04,5.03L2.9,7.93ZM13.23,9.37l.9.9c1.03,1.09.98,2.8-.11,3.83-.52.49-1.22.75-1.93.74-.72-.02-1.41-.33-1.9-.85l-.78-.79,3.83-3.83ZM9.38,2.71l.79-.79c1.05-1.06,2.77-1.06,3.82,0,1.06,1.05,1.06,2.77,0,3.82l-.79.8-3.82-3.83Z"/><path id="Path_61344" class="cls-2" d="M7.43,7.98c0,.32-.26.57-.57.57-.32,0-.57-.26-.57-.57,0-.32.26-.57.57-.57,0,0,0,0,0,0,.32,0,.57.26.57.57h0"/><path id="Path_61345" class="cls-2" d="M8.57,6.84c0,.32-.26.57-.57.57s-.57-.26-.57-.57c0-.32.26-.57.57-.57,0,0,0,0,0,0,.32,0,.57.26.57.57h0"/><path id="Path_61346" class="cls-2" d="M8.57,9.12c0,.32-.25.57-.57.58-.32,0-.57-.25-.58-.57s.25-.57.57-.58c0,0,0,0,0,0,.32,0,.57.26.57.57h0"/><path id="Path_61347" class="cls-2" d="M9.71,7.98c0,.32-.26.57-.57.57-.32,0-.57-.26-.57-.57,0-.32.26-.57.57-.57,0,0,0,0,0,0,.32,0,.57.26.57.57h0"/></g></g></g></svg>