<?xml version="1.0" encoding="UTF-8"?><svg id="Layer_1" xmlns="http://www.w3.org/2000/svg" xmlns:xlink="http://www.w3.org/1999/xlink" viewBox="0 0 16 16"><defs><style>.cls-1{fill:none;}.cls-2{fill:#484660;}.cls-3{fill:#484660;}.cls-4{clip-path:url(#clippath);}</style><clipPath id="clippath"><rect class="cls-1" y="1.45" width="16" height="13.11"/></clipPath></defs><g id="Group_16078"><g class="cls-4"><g id="Group_16077"><path id="Path_61263" class="cls-2" d="M15.72,11.78c-.48-.48-.76-1.14-.75-1.82v-.68c0-1.08-.71-2.04-1.74-2.36v-.57c0-.4-.32-.72-.72-.72-.4,0-.72.32-.72.72v.57c-1.03.32-1.74,1.27-1.74,2.36v.68c0,.68-.27,1.34-.75,1.82-.37.37-.37.97,0,1.34.18.18.42.28.67.28h1.24c.09.72.74,1.24,1.46,1.15.6-.07,1.08-.55,1.15-1.15h1.24c.52,0,.95-.43.95-.95,0-.25-.1-.49-.28-.67M12.51,13.56c-.12,0-.23-.06-.28-.17h.57c-.06.1-.17.17-.28.17M10.06,12.41c.63-.66.98-1.54.97-2.45v-.68c0-.81.66-1.47,1.47-1.47s1.47.66,1.47,1.47v.68c0,.91.35,1.79.97,2.45h-4.89Z"/><path id="Path_61264" class="cls-3" d="M2.04,12.23c-.5,0-.91-.41-.9-.91,0-.15.04-.3.11-.44L5.56,3.05c.12-.22.33-.38.58-.44v-.03h.21c.33,0,.63.18.79.46l2.49,4.49c.26-.27.55-.51.87-.72l-2.38-4.32c-.55-.98-1.79-1.33-2.77-.78-.33.18-.6.45-.78.78L.27,10.32c-.56.98-.21,2.22.76,2.77.31.17.65.27,1,.27h6.49c-.15-.36-.26-.74-.33-1.12H2.04Z"/></g></g></g></svg>