<?xml version="1.0" encoding="UTF-8"?><svg id="Layer_1" xmlns="http://www.w3.org/2000/svg" xmlns:xlink="http://www.w3.org/1999/xlink" viewBox="0 0 16 16"><defs><style>.cls-1{fill:none;}.cls-2{fill:#434BA2;}.cls-3{clip-path:url(#clippath);}</style><clipPath id="clippath"><rect class="cls-1" y=".18" width="16" height="15.64"/></clipPath></defs><g id="Group_16079"><g class="cls-3"><g id="Group_16080"><path id="Path_61265" class="cls-2" d="M14.4,3.77h0s-2.07-.01-2.07-.01v-1.87c0-.94-.76-1.69-1.7-1.7H1.7C.76.18,0,.94,0,1.88v8.93c0,.94.76,1.69,1.7,1.7h2.24v1.6c0,.94.76,1.69,1.7,1.7h8.66c.94,0,1.7-.76,1.7-1.7V5.47c0-.9-.7-1.65-1.6-1.7M5.65,14.84c-.4,0-.72-.32-.72-.72v-1.6h6.19c.68,0,1.22-.55,1.23-1.23v-6.55h1.86s.1,0,.1,0c.39,0,.71.32.71.72v8.65c0,.4-.32.72-.72.72H5.65ZM.99,1.88c0-.39.32-.71.71-.71h8.92c.4,0,.72.32.72.72v1.87h-6.27c-.63.06-1.13.59-1.13,1.23v6.55H1.71c-.4,0-.72-.32-.72-.72V1.88ZM4.93,4.98c0-.13.11-.23.24-.24h.1s6.09,0,6.09,0v6.55c0,.13-.11.24-.24.24h-6.19v-6.55Z"/><path id="Path_61266" class="cls-2" d="M9.95,7.77h-1.27v-1.32c-.01-.26-.23-.47-.49-.47h-.02c-.27.01-.48.23-.47.5v1.28h-1.29c-.27,0-.49.21-.5.48,0,.27.21.49.48.5h1.32v1.32c.02.25.23.45.48.45.13,0,.26-.05.35-.15.09-.09.14-.21.14-.34v-1.28h1.27c.27,0,.49-.22.49-.49s-.22-.49-.49-.49"/></g></g></g></svg>