<svg xmlns="http://www.w3.org/2000/svg" xmlns:xlink="http://www.w3.org/1999/xlink" width="15" height="16" viewBox="0 0 15 16">
  <defs>
    <clipPath id="clip-path">
      <rect id="Rectangle_7" data-name="Rectangle 7" width="15" height="16" transform="translate(0.5)" fill="none"/>
    </clipPath>
  </defs>
  <g id="infrastructure" transform="translate(-0.5)">
    <g id="Group_1" data-name="Group 1" clip-path="url(#clip-path)">
      <g id="Group_16382">
        <path id="Path_61500" d="M3.28,2.87l1.46-.43V7.55h1.1V.9h4.3V7.55h1.1V2.44l1.46.43V7.54h1.1V2.46a.546.546,0,0,0-.4-.53l-2.17-.64V.35A.436.436,0,0,0,11.05,0H5.28L4.84.04a.51.51,0,0,0-.11.31v.94l-2.17.64a.537.537,0,0,0-.39.53V7.55h1.1V2.87Z" fill="#484660"/>
        <path id="Path_61501" d="M15.46,7.66a.582.582,0,0,0-.31-.11H.85a.419.419,0,0,0-.35.19V9.82l.02.07.11.09.92.31a4.928,4.928,0,0,0,.62,1.41l-.42.95a.536.536,0,0,0,.12.61l1.37,1.37a.552.552,0,0,0,.39.16.419.419,0,0,0,.22-.05l.86-.43a4.9,4.9,0,0,0,1.43.56l.37.97a.363.363,0,0,0,.07.09l.06.06H9.31l.07-.02.09-.11.31-.93a4.81,4.81,0,0,0,1.41-.62l.95.42a.585.585,0,0,0,.22.05.552.552,0,0,0,.39-.16l1.37-1.37a.553.553,0,0,0,.12-.61l-.43-.86a4.9,4.9,0,0,0,.56-1.43l.97-.37a.678.678,0,0,0,.09-.06l.06-.06-.04-2.2Zm-4.64,1a2.823,2.823,0,0,1-5.64,0Zm3.78.43-.83.32a.556.556,0,0,0-.34.39,5.607,5.607,0,0,1-.67,1.62.544.544,0,0,0-.04.51l.36.82-.83.84-.81-.36a.593.593,0,0,0-.23-.05.6.6,0,0,0-.29.08,5.342,5.342,0,0,1-1.62.67.556.556,0,0,0-.39.34l-.32.83H7.41l-.32-.83a.538.538,0,0,0-.39-.34,5.784,5.784,0,0,1-1.63-.67.521.521,0,0,0-.29-.09.545.545,0,0,0-.22.05l-.82.36-.83-.83.36-.81a.563.563,0,0,0-.03-.52,5.575,5.575,0,0,1-.68-1.63.556.556,0,0,0-.34-.39l-.84-.32V8.64H4.06a3.928,3.928,0,0,0,7.85,0h2.68v.44Z" fill="#484660"/>
      </g>
    </g>
  </g>
</svg>
