<?xml version="1.0" encoding="UTF-8"?><svg id="javaSystem" xmlns="http://www.w3.org/2000/svg" xmlns:xlink="http://www.w3.org/1999/xlink" viewBox="0 0 16 16"><defs><style>.cls-1{fill:none;}.cls-2{fill:#434BA2;}.cls-3{clip-path:url(#clippath);}</style><clipPath id="clippath"><rect class="cls-1" x="2.15" width="11.71" height="16"/></clipPath></defs><g class="cls-3"><g id="Group_16383"><path id="Path_61502" class="cls-2" d="M6.86,8.02c.33.34.68.67,1.03.98l.21-.15c-.15-.31-.34-.6-.54-.88-.25-.33-.46-.69-.61-1.07-.14-.39-.09-.82.12-1.18.28-.45.64-.84,1.07-1.15.38-.29.72-.62,1.04-.98.42-.45.71-1,.84-1.6.12-.57-.03-1.16-.4-1.61l-.33-.38.11.49c.09.36.1.74.03,1.1-.12.49-.37.94-.74,1.29-.35.34-.72.66-1.11.95-.37.28-.73.59-1.07.91-.28.26-.49.57-.63.92-.11.37-.07.77.1,1.11.23.45.53.86.89,1.22"/><path id="Path_61503" class="cls-2" d="M7.87,6.15c-.03.63.21,1.25.65,1.71.17.17.28.39.31.63-.01.33-.17.65-.43.86l-.31.28.42-.05c.08-.02.16-.06.22-.12.45-.25.81-.63,1.04-1.09.15-.35.12-.74-.08-1.07-.08-.12-.16-.24-.25-.37-.14-.19-.27-.39-.37-.6-.08-.18-.09-.37-.04-.56.1-.26.26-.49.47-.68.48-.43,1.01-.8,1.57-1.13l.4-.25-.11-.24c-.89.23-1.73.62-2.49,1.15-.53.34-.9.89-1.01,1.52"/><path id="Path_61504" class="cls-2" d="M11.2,9.28l.53-.11c.11-.03.23-.05.34-.05h.02c.37.02.68.27.77.63.03.32-.08.63-.3.87-.37.41-.82.74-1.32.98-.06.04-.11.08-.16.14l-.3.33.43-.11c.68-.15,1.33-.44,1.89-.86.34-.25.57-.62.65-1.03.06-.38-.09-.76-.38-1.02-.28-.25-.64-.38-1.01-.37-.07,0-.15,0-.22.02-.27,0-.53.12-.72.32l-.22.29Z"/><path id="Path_61505" class="cls-2" d="M3.47,9.97c.13.11.29.18.46.22.5.12,1.01.19,1.53.21.38.03.77.03,1.15.03h.22c1.2,0,2.4-.12,3.57-.37.11-.02.22-.06.32-.12.19-.12.39-.22.59-.31l-.08-.25c-1.13.18-1.99.28-2.81.34-.61.04-1.21.06-1.82.06-.35,0-.7,0-1.15-.04-.24-.02-.48-.05-.71-.1.03-.06.1-.09.21-.15.34-.15.68-.27,1.04-.36l.24-.07-.05-.13h0l-.06-.14c-.79.02-1.57.2-2.28.54-.15.06-.28.14-.39.25-.05.05-.08.13-.07.2l.04.14.04.04Z"/><path id="Path_61506" class="cls-2" d="M10.71,11.36c-.25-.11-.48-.24-.7-.4-.65.13-1.31.21-1.97.26-.22.01-.43.02-.64.02-.5,0-1.01-.03-1.51-.09-.15-.01-.29-.06-.41-.14,0-.05.05-.1.16-.22l.31-.37-.46.16c-.25.07-.49.19-.7.34-.14.09-.21.25-.19.42.06.16.18.29.34.35.3.14.61.23.93.27.48.08.97.11,1.45.11.3,0,.6-.01.91-.03.83-.06,1.65-.21,2.45-.44l.34-.1-.33-.14Z"/><path id="Path_61507" class="cls-2" d="M5.88,12.26c-.23.05-.45.15-.64.29-.14.1-.2.28-.16.45.08.16.21.29.37.36.34.17.71.29,1.09.34.37.06.74.09,1.12.09.46,0,.91-.04,1.36-.12.49-.09.97-.23,1.43-.43l.28-.13-.28-.12c-.28-.12-.56-.25-.82-.41h-.09s-.05,0-.05,0c-.45.09-.9.15-1.36.19-.16.01-.33.01-.5.01-.49,0-.97-.04-1.45-.11-.09-.01-.19-.04-.27-.08l.11-.11-.13-.22Z"/><path id="Path_61508" class="cls-2" d="M7.26,15.27c1.28.01,2.56-.1,3.82-.34.55-.1,1.09-.27,1.6-.51.2-.08.35-.24.42-.44.04-.25-.19-.38-.35-.47l-.17.2s.09.1.05.16c-.13.13-.3.22-.49.26-.62.16-1.25.26-1.89.31-1,.09-1.98.14-2.91.14-.74,0-1.48-.03-2.17-.09-.56-.04-1.12-.14-1.66-.32l-.14-.03c.02-.05.09-.09.15-.14.38-.19.79-.3,1.21-.32l.44-.03-.38-.22c-.15-.07-.31-.11-.48-.1h-.02c-.38.02-.75.1-1.11.23-.32.1-.62.26-.88.47-.18.12-.22.36-.1.54,0,0,0,0,0,0h0c.19.17.42.27.66.3,1.16.2,2.34.31,3.51.35.29,0,.57.01.86.01"/><path id="Path_61509" class="cls-2" d="M13.56,14.34c-.29.26-.63.44-1.01.53-.7.21-1.42.36-2.14.44-.98.12-1.97.18-2.96.18-.27,0-.54,0-.8-.01-.76-.02-1.53-.09-2.28-.21l-.1.24c.2.11.42.19.64.23.86.16,1.74.24,2.61.24h.56c1.09,0,2.19-.07,3.27-.23.61-.08,1.21-.26,1.77-.52.34-.14.6-.44.68-.8l.06-.42-.3.32Z"/></g></g></svg>