<?xml version="1.0" encoding="UTF-8"?><svg id="Layer_1" xmlns="http://www.w3.org/2000/svg" xmlns:xlink="http://www.w3.org/1999/xlink" viewBox="0 0 16 16"><defs><style>.cls-1{fill:none;}.cls-2{fill:#434BA2;}.cls-3{clip-path:url(#clippath);}</style><clipPath id="clippath"><rect class="cls-1" y=".6" width="16" height="14.81"/></clipPath></defs><g id="knowledgeBaseSearch"><g class="cls-3"><g id="Group_16388"><path id="Path_61518" class="cls-2" d="M10.24,3.4c0-.24-.19-.43-.43-.43h-4.46c-.24,0-.43.19-.43.43,0,.24.19.43.43.43h4.46c.24,0,.43-.19.43-.43"/><path id="Path_61519" class="cls-2" d="M5.35,4.83c-.24.01-.42.21-.41.45.01.22.19.4.41.41h2.16c.24-.01.42-.21.41-.45-.01-.22-.19-.4-.41-.41h-2.16Z"/><path id="Path_61520" class="cls-2" d="M10.7,12.66H1.88c-.56-.02-.99-.5-.97-1.06.02-.52.44-.94.97-.97h4.73c.24,0,.43-.19.43-.43s-.19-.43-.43-.43h-3.13V1.46h7.45c.35,0,.64.29.64.64v4.66c0,.24.19.43.43.43s.43-.19.43-.43V2.1c0-.83-.68-1.51-1.51-1.51H1.88C.84.6,0,1.44,0,2.47v9.18c0,1.04.84,1.88,1.88,1.88h8.82c.24.01.44-.17.45-.41.01-.24-.17-.44-.41-.45-.01,0-.03,0-.04,0M.87,2.47c0-.56.45-1.01,1.01-1.01h.74v8.31c-.6-.07-1.21.03-1.75.3V2.47Z"/><path id="Path_61521" class="cls-2" d="M15.85,14.42l-2.42-2.41c1.27-1.73.9-4.16-.83-5.43-1.73-1.27-4.16-.9-5.43.83-1.27,1.73-.9,4.16.83,5.43,1.37,1,3.23,1,4.6,0l2.42,2.42c.23.22.61.22.83-.02.22-.23.22-.59,0-.81M12.22,11.62c-1.06,1.06-2.78,1.07-3.84,0s-1.07-2.78,0-3.84c1.06-1.06,2.78-1.07,3.84,0,.51.51.8,1.2.8,1.93,0,.72-.29,1.41-.79,1.91"/></g></g></g></svg>