<svg xmlns="http://www.w3.org/2000/svg" xmlns:xlink="http://www.w3.org/1999/xlink" width="16" height="16" viewBox="0 0 16 16">
  <defs>
    <clipPath id="clip-path">
      <rect id="Rectangle_1811" data-name="Rectangle 1811" width="16" height="16" transform="translate(0 0.001)" fill="none"/>
    </clipPath>
  </defs>
  <g id="Group_16113" data-name="Group 16113" transform="translate(0 -0.001)">
    <g id="Group_16112" data-name="Group 16112" clip-path="url(#clip-path)">
      <path id="Path_61308" data-name="Path 61308" d="M8,9.75a3.129,3.129,0,0,1-1.448-.356L1.008,6.538l0,0a1.875,1.875,0,0,1,0-3.32l0,0L6.552.356a3.123,3.123,0,0,1,2.9,0l5.544,2.856.005,0a1.875,1.875,0,0,1,0,3.32l-.005,0L9.448,9.394A3.129,3.129,0,0,1,8,9.75M1.583,5.428,7.126,8.284l.005,0a1.871,1.871,0,0,0,1.738,0l0,0,5.543-2.856a.626.626,0,0,0,0-1.106L8.874,1.466l0,0a1.871,1.871,0,0,0-1.738,0l-.005,0L1.583,4.322a.626.626,0,0,0,0,1.106" fill="#434BA2"/>
      <path id="Path_61309" data-name="Path 61309" d="M8,16a3.127,3.127,0,0,1-1.451-.358l0,0L.33,12.306a.625.625,0,1,1,.59-1.1l6.213,3.333a1.871,1.871,0,0,0,1.734,0L15.08,11.2a.625.625,0,1,1,.59,1.1L9.456,15.64l-.005,0A3.13,3.13,0,0,1,8,16" fill="#434BA2"/>
      <path id="Path_61310" data-name="Path 61310" d="M8,12.875a3.13,3.13,0,0,1-1.451-.358l0,0L.33,9.181a.625.625,0,1,1,.59-1.1l6.213,3.333a1.871,1.871,0,0,0,1.734,0L15.08,8.079a.625.625,0,1,1,.59,1.1L9.456,12.515l-.005,0A3.13,3.13,0,0,1,8,12.875" fill="#434BA2"/>
    </g>
  </g>
</svg>
