<svg xmlns="http://www.w3.org/2000/svg" width="15.99" height="16.01" viewBox="0 0 15.99 16.01">
  <g id="licensing" transform="translate(-0.01)">
    <g id="Group_16124">
      <g id="Group_16125">
        <path id="Path_61320" d="M.17,3.59,3.6.17A.561.561,0,0,1,4,0h6.86a1.709,1.709,0,0,1,1.71,1.71V2.85a.57.57,0,0,1-.57.57.576.576,0,0,1-.57-.57V1.71a.57.57,0,0,0-.57-.57H4.57V2.85A1.709,1.709,0,0,1,2.86,4.56H1.15v9.71a.57.57,0,0,0,.57.57H8.58a.57.57,0,0,1,.57.57.576.576,0,0,1-.57.57H1.72A1.709,1.709,0,0,1,.01,14.27h0V4a.583.583,0,0,1,.17-.41m3.25-.73V1.95L1.95,3.43h.91a.57.57,0,0,0,.57-.57h0" fill="#484660"/>
        <path id="Path_61321" d="M9.15,8a3.425,3.425,0,1,1,5.71,2.55v4.88a.572.572,0,0,1-.58.57.552.552,0,0,1-.39-.16l-1.31-1.31-1.31,1.31a.566.566,0,0,1-.41.17.442.442,0,0,1-.22-.05.58.58,0,0,1-.35-.53V10.55A3.432,3.432,0,0,1,9.15,8Zm2.28,6.05.74-.74a.58.58,0,0,1,.81,0h0l.74.74V11.23a3.31,3.31,0,0,1-2.28,0v2.82Zm1.14-3.77A2.28,2.28,0,1,0,10.29,8h0a2.279,2.279,0,0,0,2.28,2.28" fill="#484660"/>
        <path id="Path_61322" d="M6.29,3.43H9.14A.57.57,0,0,1,9.71,4a.576.576,0,0,1-.57.57H6.29A.57.57,0,0,1,5.72,4a.576.576,0,0,1,.57-.57h0" fill="#484660"/>
        <path id="Path_61323" d="M2.86,6.29H7.43A.57.57,0,0,1,8,6.86a.576.576,0,0,1-.57.57H2.86a.57.57,0,0,1,0-1.14h0" fill="#484660"/>
        <path id="Path_61324" d="M2.86,9.14H7.43A.57.57,0,0,1,8,9.71a.576.576,0,0,1-.57.57H2.86a.57.57,0,1,1,0-1.14h0" fill="#484660"/>
        <path id="Path_61325" d="M2.86,12H8.57a.57.57,0,0,1,.57.57.576.576,0,0,1-.57.57H2.86a.57.57,0,1,1,0-1.14h0" fill="#484660"/>
      </g>
    </g>
  </g>
</svg>
