<?xml version="1.0" encoding="UTF-8"?><svg id="Layer_1" xmlns="http://www.w3.org/2000/svg" viewBox="0 0 16 16"><defs><style>.cls-1{fill:#434BA2;}</style></defs><g id="licensing"><g id="Group_16124"><g id="Group_16125"><path id="Path_61320" class="cls-1" d="M.17,3.59L3.6.17C3.71.06,3.85,0,4,0h6.86C11.81,0,12.57.77,12.57,1.71v1.14c0,.32-.26.57-.57.57s-.57-.26-.57-.57v-1.14c0-.32-.26-.57-.57-.57h-6.29v1.71c0,.95-.77,1.71-1.71,1.71h-1.71v9.71c0,.32.26.57.57.57h6.86c.32,0,.57.26.57.57s-.26.57-.57.57H1.72c-.95,0-1.71-.77-1.71-1.71t0,0V4c0-.15.06-.3.17-.41M3.43,2.86v-.91l-1.48,1.48h.91c.32,0,.57-.26.57-.57h0"/><path id="Path_61321" class="cls-1" d="M9.15,8c0-1.89,1.53-3.43,3.42-3.43,1.89,0,3.43,1.53,3.43,3.42,0,.98-.41,1.91-1.14,2.56v4.88c0,.32-.26.57-.58.57-.15,0-.29-.06-.39-.16l-1.31-1.31-1.31,1.31c-.11.11-.25.17-.41.17-.07,0-.15-.01-.22-.05-.21-.09-.35-.3-.35-.53v-4.88c-.72-.65-1.14-1.57-1.14-2.55ZM11.43,14.05l.74-.74c.22-.22.58-.22.81,0h0l.74.74v-2.82c-.74.27-1.55.27-2.28,0v2.82ZM12.57,10.28c1.26,0,2.28-1.02,2.28-2.28,0-1.26-1.02-2.28-2.28-2.28-1.26,0-2.28,1.02-2.28,2.28,0,0,0,0,0,0,0,1.26,1.02,2.28,2.28,2.28"/><path id="Path_61322" class="cls-1" d="M6.29,3.43h2.85c.32,0,.57.26.57.57s-.26.57-.57.57h-2.85c-.32,0-.57-.26-.57-.57s.26-.57.57-.57h0"/><path id="Path_61323" class="cls-1" d="M2.86,6.29h4.57c.32,0,.57.26.57.57,0,.31-.26.57-.57.57H2.86c-.32,0-.57-.25-.57-.57s.25-.57.57-.57h0"/><path id="Path_61324" class="cls-1" d="M2.86,9.14h4.57c.32,0,.57.26.57.57,0,.31-.26.57-.57.57H2.86c-.32,0-.57-.25-.57-.57s.25-.57.57-.57h0"/><path id="Path_61325" class="cls-1" d="M2.86,12h5.71c.32,0,.57.26.57.57,0,.31-.26.57-.57.57H2.86c-.32,0-.57-.25-.57-.57s.25-.57.57-.57h0"/></g></g></g></svg>