<?xml version="1.0" encoding="UTF-8"?><svg id="Layer_1" xmlns="http://www.w3.org/2000/svg" viewBox="0 0 16 16"><defs><style>.cls-1{fill:#434BA2;fill-rule:evenodd;}</style></defs><g id="Group_16116"><g id="Group_16117"><path id="Path_61311" class="cls-1" d="M10.1,7.2l-2.27-1.31c-.44-.26-1.01-.1-1.27.34-.08.14-.12.3-.12.47v2.62c0,.51.42.93.93.93.16,0,.32-.04.47-.13l2.27-1.31c.44-.26.59-.83.33-1.27-.08-.14-.2-.25-.33-.33h-.01ZM7.54,8.99l1.71-.99-1.71-.99v1.97h0Z"/><path id="Path_61312" class="cls-1" d="M10.77,5.24c1.52,1.52,1.52,3.99,0,5.52h0c-.22.21-.23.57-.02.79.21.22.57.23.79.02h.01c1.96-1.97,1.96-5.14,0-7.1h0c-.22-.21-.58-.2-.79.02s-.21.56,0,.78h0v-.03Z"/><path id="Path_61313" class="cls-1" d="M5.24,10.76c-1.52-1.52-1.52-3.99,0-5.52h0c.23-.21.24-.56.03-.79-.21-.23-.56-.24-.79-.03-.01,0-.02.02-.03.03-1.96,1.96-1.96,5.13,0,7.09h0c.22.22.57.22.79,0s.22-.57,0-.79h0Z"/><path id="Path_61314" class="cls-1" d="M12.88,3.13c2.69,2.69,2.69,7.04,0,9.74h0c-.21.22-.21.58.01.79s.56.21.77,0c3.12-3.12,3.12-8.2,0-11.32-.21-.22-.57-.23-.79-.01-.22.21-.23.57-.01.79h.01s.01.01.01.01Z"/><path id="Path_61315" class="cls-1" d="M3.13,12.87C.44,10.19.44,5.83,3.13,3.13h0c.22-.22.22-.57,0-.79s-.57-.22-.79,0h0c-3.12,3.12-3.12,8.2,0,11.32.22.22.57.22.79,0s.22-.57,0-.79Z"/></g></g></svg>