<svg id="Group_16130" data-name="Group 16130" xmlns="http://www.w3.org/2000/svg" xmlns:xlink="http://www.w3.org/1999/xlink" width="16" height="16" viewBox="0 0 16 16">
  <defs>
    <clipPath id="clip-path">
      <rect id="Rectangle_1815" data-name="Rectangle 1815" width="16" height="16" fill="none"/>
    </clipPath>
  </defs>
  <g id="Group_16129" data-name="Group 16129" clip-path="url(#clip-path)">
    <path id="Path_61334" data-name="Path 61334" d="M6.792,3.41h.225a.641.641,0,0,0,0-1.273H6.792a.641.641,0,0,0,0,1.273" fill="#434BA2"/>
    <path id="Path_61335" data-name="Path 61335" d="M4.877,3.41H5.1a.641.641,0,0,0,0-1.273H4.877a.641.641,0,0,0,0,1.273" fill="#434BA2"/>
    <path id="Path_61336" data-name="Path 61336" d="M2.848,3.41h.225a.641.641,0,0,0,0-1.273H2.848a.641.641,0,0,0,0,1.273" fill="#434BA2"/>
    <path id="Path_61337" data-name="Path 61337" d="M5.882,9.039a.347.347,0,0,0-.489.032L5,9.337V8.96a.346.346,0,0,0-.671,0v.385l-.416-.281a.346.346,0,1,0-.377.554l.546.371-.56.414a.347.347,0,0,0,.2.606.35.35,0,0,0,.2-.076l.4-.3v.342a.336.336,0,1,0,.671.01v-.341l.394.292a.348.348,0,0,0,.2.07l-.01.007a.346.346,0,0,0,.2-.606L5.228,10l.543-.371a.35.35,0,0,0,.143-.1.346.346,0,0,0-.032-.489" transform="translate(-0.684 -0.163)" fill="#434BA2"/>
    <path id="Path_61338" data-name="Path 61338" d="M9.432,10.41l-.557-.416.543-.37a.346.346,0,0,0-.373-.554l-.422.284V8.96a.346.346,0,0,0-.671,0v.374l-.4-.271a.346.346,0,0,0-.373.554l.543.37-.557.416a.332.332,0,1,0,.4.53l.388-.288v.332a.336.336,0,1,0,.671.01v-.35l.408.3a.347.347,0,0,0,.2.068v.007a.345.345,0,0,0,.2-.605" transform="translate(-0.155 -0.163)" fill="#434BA2"/>
    <path id="Path_61339" data-name="Path 61339" d="M13.195,9.039a.347.347,0,0,0-.489.032l-.436.295V8.96a.346.346,0,0,0-.671,0v.363l-.384-.259a.346.346,0,1,0-.378.554l.543.371-.557.414a.351.351,0,0,0-.116.234.31.31,0,0,0,.508.3l.384-.284v.33a.336.336,0,1,0,.671.01v-.362l.422.313a.345.345,0,0,0,.2.07v.007a.347.347,0,0,0,.2-.606L12.54,10l.543-.371a.35.35,0,0,0,.143-.1.346.346,0,0,0-.032-.489" transform="translate(0.349 -0.163)" fill="#434BA2"/>
    <path id="Path_61340" data-name="Path 61340" d="M12.9,0H3.1A3.1,3.1,0,0,0,0,3.1v9.8A3.1,3.1,0,0,0,3.1,16h9.8A3.1,3.1,0,0,0,16,12.9V3.1A3.1,3.1,0,0,0,12.9,0M3.1,1.14h9.8A1.961,1.961,0,0,1,14.86,3.1V4.352H1.14V3.1A1.961,1.961,0,0,1,3.1,1.14m9.8,13.72H3.1A1.961,1.961,0,0,1,1.14,12.9V5.579H14.86V12.9A1.961,1.961,0,0,1,12.9,14.86" fill="#434BA2"/>
  </g>
</svg>
