<?xml version="1.0" encoding="UTF-8"?><svg id="Layer_1" xmlns="http://www.w3.org/2000/svg" xmlns:xlink="http://www.w3.org/1999/xlink" viewBox="0 0 16 16"><defs><style>.cls-1{fill:none;}.cls-2{fill:#484660;}.cls-3{fill:#484660;}.cls-4{clip-path:url(#clippath);}</style><clipPath id="clippath"><rect class="cls-1" y=".95" width="16" height="14.09"/></clipPath></defs><g id="Group_16119"><g class="cls-4"><g id="Group_16118"><path id="Path_61316" class="cls-3" d="M13.5.95H2.5c-.91,0-1.75.51-2.19,1.31H.31C.11,2.63,0,3.04,0,3.45v7.22c0,1.38,1.12,2.5,2.5,2.5h4.94c.35,0,.63-.28.63-.62s-.28-.62-.63-.62H2.5c-.69,0-1.25-.56-1.25-1.25V3.59l5.43,3.38c.81.5,1.83.5,2.64,0l5.43-3.38v3.8c0,.35.28.62.62.62s.62-.28.62-.62v-3.93c0-1.38-1.12-2.5-2.5-2.5M8.66,5.9c-.4.25-.92.25-1.32,0L1.79,2.45c.2-.16.45-.24.71-.25h11c.26,0,.5.09.71.25l-5.55,3.45Z"/><path id="Path_61317" class="cls-2" d="M15.14,11.61v-.09c0-.06,0-.12,0-.19l.62-.47c.26-.2.32-.56.15-.84l-.34-.53c-.16-.25-.48-.35-.75-.24l-.67.26s-.03-.02-.05-.03c-.09-.06-.18-.11-.28-.16-.05-.02-.09-.06-.14-.08l-.13-.74c-.05-.3-.31-.51-.61-.51h-.55c-.3,0-.56.22-.61.51l-.13.73s-.06.04-.09.06c-.13.06-.25.13-.36.22-.02.02-.05.02-.07.04l-.72-.24c-.29-.1-.61.03-.76.3l-.31.58c-.15.28-.06.64.21.81l.61.41v.12c0,.06,0,.13,0,.19l-.6.47c-.24.19-.31.52-.16.79l.29.53c.15.28.48.39.78.28l.68-.27s.04.02.05.03c.09.06.19.12.29.17.05.02.08.06.13.08l.13.74c.05.3.31.51.62.52h.56c.31,0,.57-.22.62-.53l.11-.72s.05-.03.07-.05c.15-.07.28-.16.41-.25.02-.02.05-.03.08-.05l.7.25c.31.11.65-.04.78-.33l.25-.56c.12-.27.04-.59-.21-.76l-.6-.44ZM13.45,12.45c-.08.07-.17.13-.26.17-.04.02-.09.04-.13.06-.13.05-.27.08-.41.08-.15,0-.29-.03-.43-.09-.04-.01-.08-.03-.11-.05-.11-.05-.21-.12-.3-.2-.02-.02-.04-.03-.06-.05-.47-.48-.47-1.25,0-1.73.02-.02.05-.04.07-.06.09-.08.18-.14.28-.19.3-.16.65-.18.97-.05.04.01.07.03.11.05.11.05.21.12.3.2.02.02.04.03.06.04.47.47.48,1.24.01,1.72-.03.03-.07.06-.1.09"/></g></g></g></svg>