<svg xmlns="http://www.w3.org/2000/svg" width="16" height="16" viewBox="0 0 16 16">
  <g id="Group_16265" data-name="Group 16265" transform="translate(-601 -612)">
    <path id="Path_81" data-name="Path 81" d="M243.116,194.505h6.857a.571.571,0,0,0,.4-.975l-6.857-6.857a.572.572,0,0,0-.976.4v6.857A.572.572,0,0,0,243.116,194.505Zm.571-6.049,4.906,4.907h-4.906Z" transform="translate(360.741 431.209)" fill="#434BA2"/>
    <g id="Group_41" data-name="Group 41" transform="translate(360.741 431.209)">
      <g id="Group_39" data-name="Group 39">
        <path id="Path_82" data-name="Path 82" d="M256.091,195.816l-3.261-3.261V181.363a.572.572,0,0,0-.571-.572H248.83a.572.572,0,0,0-.571.572v6.62l-7.025-7.024a.571.571,0,0,0-.975.4V196.22a.571.571,0,0,0,.571.571h14.857a.571.571,0,0,0,.4-.975Zm-6.69-7.6h.572a.572.572,0,0,0,0-1.143H249.4v-1.143h.572a.572.572,0,0,0,0-1.143H249.4v-1.143h.572a.571.571,0,1,0,0-1.142H249.4v-.572h2.286v9.478l-2.286-2.286Zm-8,7.428V182.742l12.906,12.906Z"/>
      </g>
      <g id="Group_40" data-name="Group 40">
        <path id="Path_83" data-name="Path 83" d="M256.091,195.816l-3.261-3.261V181.363a.572.572,0,0,0-.571-.572H248.83a.572.572,0,0,0-.571.572v6.62l-7.025-7.024a.571.571,0,0,0-.975.4V196.22a.571.571,0,0,0,.571.571h14.857a.571.571,0,0,0,.4-.975Zm-6.69-7.6h.572a.572.572,0,0,0,0-1.143H249.4v-1.143h.572a.572.572,0,0,0,0-1.143H249.4v-1.143h.572a.571.571,0,1,0,0-1.142H249.4v-.572h2.286v9.478l-2.286-2.286Zm-8,7.428V182.742l12.906,12.906Z" fill="#434BA2"/>
      </g>
    </g>
  </g>
</svg>
