<?xml version="1.0" encoding="UTF-8"?><svg id="Layer_1" xmlns="http://www.w3.org/2000/svg" viewBox="0 0 16 16"><defs><style>.cls-1{fill:#484660;}.cls-2{fill:#484660;}</style></defs><g id="Group_16266"><g id="Group_56"><path id="Path_95" class="cls-1" d="M11,6.5c.28,0,.5-.22.5-.5,0-.13-.05-.26-.15-.35-.2-.19-.51-.19-.71,0-.19.2-.19.51,0,.71.09.09.22.14.35.14Z"/><path id="Path_96" class="cls-1" d="M11,10c.28,0,.5-.23.5-.5,0-.13-.05-.26-.14-.35-.2-.19-.51-.19-.71,0-.09.09-.14.22-.14.35,0,.13.05.26.15.35.09.09.22.15.35.15Z"/><path id="Path_97" class="cls-1" d="M10.64,12.65c-.19.2-.19.51,0,.71.09.09.22.14.35.14.28,0,.5-.23.5-.5,0-.13-.05-.26-.14-.35-.2-.19-.51-.19-.71,0Z"/><path id="Path_98" class="cls-2" d="M8,0C4.77,0,1.5.86,1.5,2.5v11c0,1.64,3.27,2.5,6.5,2.5s6.5-.86,6.5-2.5V2.5c0-1.64-3.27-2.5-6.5-2.5ZM13.5,9.5c0,.51-1.94,1.5-5.5,1.5s-5.5-.99-5.5-1.5v-2.1c3.52,1.47,7.48,1.47,11,0v2.1ZM13.5,6c0,.51-1.94,1.5-5.5,1.5s-5.5-.99-5.5-1.5v-2.1c3.52,1.47,7.48,1.47,11,0v2.1ZM8,1c3.56,0,5.5.99,5.5,1.5s-1.94,1.5-5.5,1.5-5.5-.99-5.5-1.5,1.94-1.5,5.5-1.5ZM8,15c-3.56,0-5.5-.99-5.5-1.5v-2.6c3.52,1.47,7.48,1.47,11,0v2.6c0,.51-1.94,1.5-5.5,1.5Z"/></g></g></svg>