<?xml version="1.0" encoding="UTF-8"?><svg id="Layer_1" xmlns="http://www.w3.org/2000/svg" viewBox="0 0 16 16"><defs><style>.cls-1{fill:none;}.cls-2{fill:#484660;}.cls-3{fill:#484660;}</style></defs><g id="Group_16268"><path id="Path_256" class="cls-1" d="M14.86,1.9H1.14v9.31h13.73s0,.2,0-9.31Z"/><rect id="Rectangle_6" class="cls-1" x="6.47" y="11.79" width="3.06" height="2.31"/><path id="Path_257" class="cls-2" d="M3.18,15.24c-.37,0-.67-.3-.67-.67,0-.37.3-.67.67-.67h2.25v-2.11c0-.11.09-.2.19-.2h.9c.11,0,.19.09.19.2v2.11h2.57v-2.11c0-.11.09-.2.19-.2h.9c.11,0,.19.09.19.2v2.11h2.25c.37,0,.67.3.67.67,0,.37-.3.67-.67.67H3.18Z"/><path id="Path_258" class="cls-2" d="M9.48,11.79v2.31h-2.95v-2.31h-.9v2.31h-2.44c-.26.01-.46.23-.45.49.01.24.2.44.45.45h9.63c.26-.01.46-.23.45-.49-.01-.24-.2-.44-.45-.45h-2.44v-2.31h-.91Z"/><path id="Path_259" class="cls-3" d="M1.11,11.99c-.61,0-1.1-.49-1.11-1.1V1.87C0,1.26.5.76,1.11.77h13.78c.61,0,1.11.49,1.11,1.1v9.02c0,.61-.5,1.1-1.11,1.1H1.11ZM14.7,10.69V2.05H1.3v8.63h13.39Z"/><path id="Path_260" class="cls-3" d="M9.49,12.15h5.39c.51,0,.92-.43.92-.94V1.9c0-.51-.4-.93-.92-.94H1.11c-.51,0-.92.43-.91.94v9.31c0,.51.4.93.91.94h8.38ZM1.11,11.21V1.9h13.77c0,9.52,0,9.31,0,9.31H1.11Z"/></g></svg>