<?xml version="1.0" encoding="UTF-8"?><svg id="Layer_1" xmlns="http://www.w3.org/2000/svg" viewBox="0 0 16 16"><defs><style>.cls-1{fill:#484660;}.cls-2{fill:#484660;}</style></defs><g id="myDashboard"><g id="Group_14"><g id="Group_12"><g id="Group_13"><path id="Path_118" class="cls-1" d="M8.58,7.43c.32,0,.57-.26.57-.57v-2.28c.01-.32-.23-.58-.55-.6-.32-.01-.58.23-.6.55,0,.02,0,.03,0,.05v2.29c0,.32.26.57.57.57h0"/><path id="Path_119" class="cls-1" d="M10.86,7.43c.32,0,.57-.26.57-.57v-3.43c-.01-.32-.28-.56-.6-.55-.3.01-.54.25-.55.55v3.43c0,.32.26.57.57.57h0"/><path id="Path_120" class="cls-1" d="M13.15,9.15H2.86c-.32.01-.56.28-.55.6.01.3.25.54.55.55h10.29c.32-.01.56-.28.55-.6-.01-.3-.25-.54-.55-.55"/><path id="Path_121" class="cls-2" d="M14.29,0H1.72C.77,0,0,.77,0,1.72h0v9.14c0,.95.77,1.71,1.71,1.71h4v2.29h-1.71c-.31.03-.55.31-.52.62.03.27.24.49.52.52h8c.32.01.58-.23.6-.55.01-.32-.23-.58-.55-.6-.02,0-.03,0-.05,0h-1.71v-2.28h4c.95,0,1.71-.77,1.71-1.71V1.72c0-.95-.77-1.71-1.71-1.71M9.15,14.86h-2.29v-2.29h2.29v2.29ZM14.86,10.86c0,.32-.26.57-.57.57H1.72c-.32,0-.57-.26-.57-.57h0V1.72c0-.32.26-.57.57-.57h12.57c.32,0,.57.26.57.57h0v9.15Z"/><path id="Path_122" class="cls-1" d="M3.43,8h2.29c.63,0,1.14-.51,1.14-1.14h0v-3.43c0-.63-.51-1.14-1.14-1.14h-2.29c-.63,0-1.14.51-1.14,1.14h0v3.43c0,.63.51,1.14,1.14,1.14h0M3.43,3.43h2.29v3.43h-2.29v-3.43Z"/><path id="Path_123" class="cls-1" d="M13.15,4.57c-.32,0-.57.26-.57.57h0v1.71c-.01.32.23.58.55.6.32.01.58-.23.6-.55,0-.02,0-.03,0-.05v-1.71c0-.32-.26-.57-.57-.57"/></g></g></g></g></svg>