<?xml version="1.0" encoding="UTF-8"?><svg id="netscaler" xmlns="http://www.w3.org/2000/svg" xmlns:xlink="http://www.w3.org/1999/xlink" viewBox="0 0 16 16"><defs><style>.cls-1{fill:none;}.cls-2{fill:#484660;}.cls-3{fill:#484660;}.cls-4{clip-path:url(#clippath);}</style><clipPath id="clippath"><rect class="cls-1" y=".04" width="16" height="15.92"/></clipPath></defs><g class="cls-4"><g id="Group_16419"><circle id="Ellipse_5" class="cls-2" cx="12.51" cy="3.53" r="3.49"/><path id="Path_61597" class="cls-2" d="M3.49,8.99c1.93,0,3.49,1.56,3.49,3.49s-1.56,3.49-3.49,3.49S0,14.4,0,12.47c0-1.93,1.56-3.49,3.49-3.49h0"/><path id="Path_61598" class="cls-3" d="M13.23,9.44h-.06c-.06,0-.11-.02-.17-.02-1.65-.22-3.19-.93-4.41-2.05-1.17-1.06-1.91-2.51-2.07-4.08,0-1.8-1.46-3.26-3.26-3.26C1.46.04,0,1.5,0,3.3c0,1.61,1.17,2.98,2.76,3.22h.06c.06,0,.11.02.17.02,1.65.2,3.19.92,4.4,2.05,1.17,1.06,1.91,2.51,2.07,4.07,0,1.8,1.46,3.26,3.26,3.26,1.8,0,3.26-1.46,3.26-3.26,0-1.6-1.17-2.97-2.75-3.22h0Z"/></g></g></svg>