<?xml version="1.0" encoding="UTF-8"?><svg id="Group_177" xmlns="http://www.w3.org/2000/svg" viewBox="0 0 16 16"><defs><style>.cls-1{fill:none;}.cls-2{fill:#484660;}.cls-3{fill:#484660;}</style></defs><rect class="cls-1" x="2.96" y="13.03" width=".47" height=".48"/><rect class="cls-1" x="5.63" y="2.49" width="4.67" height="2.82"/><rect class="cls-1" x="7.74" y="6.16" width=".46" height=".48"/><rect class="cls-1" x=".85" y="9.36" width="4.67" height="2.82"/><rect class="cls-1" x="10.47" y="9.36" width="4.68" height="2.82"/><rect class="cls-1" x="12.58" y="13.03" width=".46" height=".48"/><path class="cls-3" d="M5.21,6.16h1.68v.48h-.66c-.24,0-.43.19-.43.43s.19.43.43.43h3.5c.24,0,.43-.19.43-.43s-.19-.43-.43-.43h-.66v-.48h1.68c.24,0,.43-.19.43-.43v-3.67c0-.24-.19-.43-.43-.43h-5.53c-.24,0-.43.19-.43.43v3.67c0,.24.19.43.43.43ZM8.21,6.16v.48h-.46v-.48h.46ZM10.31,5.3h-4.67v-2.82h4.67v2.82Z"/><path class="cls-3" d="M5.95,8.51H.43c-.23,0-.43.19-.43.43v3.67c0,.24.19.43.43.43h1.68v.48h-.66c-.24,0-.43.19-.43.43s.19.43.43.43h3.49c.24,0,.43-.19.43-.43s-.19-.43-.43-.43h-.66v-.48h1.68c.23,0,.42-.19.43-.43v-3.67c0-.23-.19-.42-.43-.43ZM3.42,13.03v.48h-.47v-.48h.47ZM.85,12.18v-2.82h4.67v2.82H.85Z"/><path class="cls-3" d="M15.57,8.51h-5.52c-.23,0-.43.19-.43.43v3.67c0,.23.19.42.43.43h1.68v.48h-.66c-.24,0-.43.19-.43.43s.19.43.43.43h3.49c.24,0,.43-.19.43-.43s-.19-.43-.43-.43h-.66v-.48h1.68c.23,0,.42-.19.42-.43v-3.67c0-.23-.19-.42-.43-.43ZM13.04,13.03v.48h-.46v-.48h.46ZM10.47,12.18v-2.82h4.68v2.82h-4.68Z"/><path class="cls-2" d="M12.13,4.58h.53c.39,0,.7.32.71.71v2.39c0,.24.19.43.43.43.23,0,.42-.19.43-.43v-2.39c0-.86-.7-1.56-1.56-1.56h-.53c-.24,0-.43.19-.43.43s.19.43.43.43Z"/><path class="cls-2" d="M2.15,8.1c.24,0,.43-.19.43-.43v-2.39c0-.39.32-.7.71-.71h.53c.24,0,.43-.19.43-.43s-.19-.43-.43-.43h-.53c-.86,0-1.56.7-1.56,1.56v2.39c0,.24.19.43.43.43Z"/><path class="cls-2" d="M8.9,10.68h-1.86c-.24,0-.43.19-.43.43s.19.43.43.43h1.86c.24,0,.43-.19.43-.43s-.19-.43-.43-.43Z"/></svg>