<?xml version="1.0" encoding="UTF-8"?><svg id="Layer_1" xmlns="http://www.w3.org/2000/svg" viewBox="0 0 16 16"><defs><style>.cls-1{fill:#434BA2;}</style></defs><g id="Group_178"><path id="Path_145" class="cls-1" d="M13.64,6.3s-.1-.14-.15-.2c-.4-.53-.87-1-1.38-1.42-1.51-1.4-3.84-1.4-5.35,0-.51.42-.98.9-1.38,1.42-.05.06-.12.16-.14.2-.15.22-.15.5,0,.72.02.03.1.14.14.2.41.53.87,1,1.38,1.42,1.51,1.4,3.84,1.4,5.35,0,.51-.42.97-.9,1.38-1.42.05-.06.12-.17.15-.2.15-.22.15-.5,0-.72ZM9.44,8.44c-1.18-.14-2.24-.79-2.9-1.78.81-1.6,2.76-2.24,4.36-1.43.62.31,1.12.81,1.43,1.43-.66.99-1.71,1.64-2.89,1.78h0Z"/><circle id="Ellipse_7" class="cls-1" cx="9.47" cy="6.66" r="1.19"/><path id="Path_146" class="cls-1" d="M16,6.56c0,1.14-.3,2.26-.86,3.25-.17.3-.55.4-.85.23-.3-.17-.4-.55-.23-.85,1.45-2.55.56-5.79-1.99-7.24-2.55-1.45-5.79-.56-7.24,1.99s-.56,5.79,1.99,7.24c1.62.92,3.6.93,5.22.02.3-.17.68-.06.85.24s.06.68-.24.85h0c-2.36,1.32-5.28,1.06-7.37-.65L1.07,15.82c-.24.24-.64.24-.88,0-.24-.24-.24-.64,0-.88l4.21-4.18c-2.32-2.79-1.93-6.92.85-9.24,2.79-2.32,6.92-1.93,9.24.85.98,1.18,1.51,2.66,1.51,4.19h0Z"/></g></svg>