<?xml version="1.0" encoding="UTF-8"?><svg id="Layer_1" xmlns="http://www.w3.org/2000/svg" viewBox="0 0 16 16"><defs><style>.cls-1{fill:#434BA2;}</style></defs><g id="Group_16274"><g id="Group_179"><path id="Path_147" class="cls-1" d="M6.08,8.42c-2.33,0-4.21-1.88-4.21-4.21C1.87,1.88,3.76,0,6.08,0s4.21,1.88,4.21,4.21h0c0,2.32-1.89,4.21-4.21,4.21ZM6.08,1.25c-1.64,0-2.96,1.33-2.96,2.96s1.33,2.96,2.96,2.96,2.96-1.33,2.96-2.96c0-1.63-1.33-2.96-2.96-2.96h0ZM12.72,15.97h-4.68c-1.81.03-3.3-1.42-3.33-3.22-.03-1.81,1.42-3.3,3.22-3.33.04,0,.08,0,.11,0h4.69c1.79,0,3.25,1.45,3.25,3.25,0,1.82-1.46,3.29-3.28,3.31h0ZM8.06,10.67c-1.13,0-2.03.92-2.03,2.04,0,.53.21,1.04.58,1.41.38.39.9.6,1.44.6h4.68c1.12,0,2.03-.91,2.03-2.04,0,0,0,0,0-.01h0c0-1.11-.9-2-2-2.01h-4.69ZM.62,15.97C.28,15.97,0,15.69,0,15.34v-.66c0-2.26,1.33-4.31,3.4-5.22.32-.13.68.02.81.34.13.31-.01.66-.31.8-1.61.71-2.65,2.31-2.65,4.08v.66c0,.34-.28.63-.62.63h0Z"/><path id="Path_148" class="cls-1" d="M8.01,11.84l.08.37.32-.2c.06-.04.13-.02.17.04.03.04.03.09,0,.13l-.2.32.37.08c.07.01.11.08.09.15-.01.05-.05.08-.09.09l-.37.08.2.32c.04.06.02.13-.04.17-.04.03-.09.03-.13,0l-.32-.2-.08.37c-.01.07-.08.11-.15.09-.05-.01-.08-.05-.09-.09l-.08-.37-.32.2c-.06.04-.13.02-.17-.04-.03-.04-.03-.09,0-.13l.2-.32-.37-.08c-.07-.01-.11-.08-.09-.15.01-.05.05-.08.09-.09l.37-.08-.2-.32c-.04-.06-.02-.13.04-.17.04-.02.09-.02.13,0l.32.2.08-.37c.01-.07.08-.11.15-.09.05.01.08.05.09.09Z"/><path id="Path_149" class="cls-1" d="M10.7,11.84l.08.37.32-.2c.06-.04.13-.02.17.04.03.04.03.09,0,.13l-.2.32.37.08c.07.01.11.08.09.15-.01.05-.05.08-.09.09l-.37.08.2.32c.04.06.02.13-.04.17-.04.03-.09.03-.13,0l-.32-.2-.08.37c-.01.07-.08.11-.15.09-.05-.01-.08-.05-.09-.09l-.08-.37-.32.2c-.06.04-.13.02-.17-.04-.02-.04-.02-.09,0-.13l.2-.32-.37-.08c-.07-.01-.11-.08-.09-.15.01-.05.05-.08.09-.09l.37-.08-.2-.32c-.04-.06-.02-.13.04-.17.04-.02.09-.02.13,0l.32.2.08-.37c.01-.07.08-.11.15-.09.05.01.08.05.09.09Z"/><path id="Path_150" class="cls-1" d="M13.39,11.84l.08.37.32-.2c.06-.04.13-.02.17.04.02.04.02.09,0,.13l-.2.32.37.08c.07.01.11.08.09.15-.01.05-.05.08-.09.09l-.37.08.2.32c.04.06.02.13-.04.17-.04.03-.09.03-.13,0l-.32-.2-.08.37c-.01.07-.08.11-.15.09-.05-.01-.08-.05-.09-.09l-.08-.37-.32.2c-.06.04-.13.02-.17-.04-.03-.04-.03-.09,0-.13l.2-.32-.37-.08c-.07-.01-.11-.08-.09-.15.01-.05.05-.08.09-.09l.37-.08-.2-.32c-.04-.06-.02-.13.04-.17.04-.02.09-.02.13,0l.32.2.08-.37c.01-.07.08-.11.15-.09.05.01.08.05.09.09Z"/></g></g></svg>