<?xml version="1.0" encoding="UTF-8"?><svg id="Layer_1" xmlns="http://www.w3.org/2000/svg" xmlns:xlink="http://www.w3.org/1999/xlink" viewBox="0 0 16 16"><defs><style>.cls-1{fill:none;}.cls-2{fill:#484660;}.cls-3{fill:#484660;}.cls-4{clip-path:url(#clippath);}</style><clipPath id="clippath"><rect class="cls-1" y=".8" width="16" height="14.39"/></clipPath></defs><g id="publicClouds"><g class="cls-4"><g id="Group_16357"><path id="Path_61487" class="cls-2" d="M7.98,6.53c-2.39,0-4.33,1.94-4.33,4.33,0,2.39,1.94,4.33,4.34,4.33,2.39,0,4.33-1.94,4.33-4.33,0-2.39-1.94-4.33-4.34-4.33M9.29,10.86c0,.26-.01.51-.03.75h-2.56c-.02-.24-.03-.49-.03-.75s.01-.51.03-.75h2.56c.02.24.03.49.03.75M9.93,9.35c-.09-.62-.28-1.22-.57-1.78.82.34,1.48.98,1.85,1.78h-1.28ZM6.8,9.35c.25-1.34.79-2.06,1.18-2.06s.93.72,1.18,2.06h-2.36ZM6.6,7.57c-.29.56-.48,1.16-.57,1.78h-1.29c.38-.8,1.04-1.44,1.85-1.78M4.49,10.11h1.44c-.02.24-.03.49-.03.75s.01.51.03.75h-1.44c-.11-.49-.11-1.01,0-1.5M6.02,12.37c.09.62.28,1.22.57,1.78-.82-.34-1.48-.98-1.85-1.78h1.28ZM9.15,12.37c-.25,1.34-.79,2.06-1.18,2.06s-.93-.72-1.18-2.06h2.35ZM9.35,14.15c.29-.56.48-1.16.57-1.78h1.28c-.38.8-1.04,1.44-1.85,1.78M11.46,11.61h-1.44c.02-.24.03-.49.03-.75s-.01-.51-.03-.75h1.44c.11.49.11,1.01,0,1.5"/><path id="Path_61488" class="cls-3" d="M15.38,4.99c-.12-.18-.25-.35-.39-.51-.62-.67-1.5-1.05-2.41-1.04-.2,0-.4.02-.6.05-.48-.96-1.26-1.73-2.23-2.2-.68-.32-1.43-.49-2.18-.49-.17,0-.33,0-.49.02-.92.08-1.8.43-2.53.99-.84.66-1.43,1.59-1.68,2.62-.24.06-.48.13-.72.22-.31.12-.6.27-.86.46C.45,5.72-.03,6.68,0,7.7c0,.75.24,1.47.67,2.08.16.23.36.44.57.62.24.2.5.36.79.47.3.12.62.21.95.24h.28v-.1c0-.09,0-.19,0-.28,0-.16,0-.31.02-.47v-.11s-.22,0-.22,0c-.23-.03-.45-.09-.66-.18-.19-.08-.38-.19-.54-.32-.16-.13-.3-.28-.42-.45-.32-.44-.49-.96-.5-1.5,0-.53.17-1.04.5-1.45.11-.14.25-.26.39-.37.2-.14.42-.26.65-.35.28-.11.56-.18.86-.23l.32-.06.06-.33c.16-.93.65-1.78,1.4-2.36.59-.45,1.29-.73,2.04-.8.14-.01.27-.02.41-.02.61,0,1.22.14,1.77.4.72.34,1.31.9,1.69,1.59h0c-.09.04-.18.08-.26.12-.22.1-.42.22-.62.35-.22.14-.43.31-.63.48l-.07.07.63.72.07-.06c.25-.21.52-.39.8-.56.1-.06.19-.11.3-.16.43-.2.91-.3,1.38-.3.63,0,1.24.27,1.67.73.11.12.21.24.29.38.32.55.49,1.17.47,1.81.01.6-.16,1.18-.49,1.68-.23.29-.51.53-.83.7-.3.16-.61.29-.93.38l-.08.02v.08c.03.18.04.36.04.54v.35s.12-.03.12-.03c.46-.12.9-.29,1.32-.52.44-.24.82-.57,1.12-.96.45-.65.69-1.43.68-2.23.02-.82-.19-1.63-.62-2.33"/></g></g></g></svg>