<?xml version="1.0" encoding="UTF-8"?><svg id="Layer_1" xmlns="http://www.w3.org/2000/svg" viewBox="0 0 16 16"><defs><style>.cls-1{fill:#484660;}.cls-2{fill:#484660;}</style></defs><g id="Group_16276"><g id="Group_181"><path id="Path_192" class="cls-2" d="M13.85,5.85C13.85,2.62,11.23,0,8,0,4.77,0,2.15,2.62,2.15,5.85c0,2.21,1.25,4.24,3.23,5.23v2.35c.03,1.45,1.23,2.6,2.67,2.57,1.41-.03,2.54-1.16,2.57-2.57h0v-2.35c1.97-.99,3.22-3.01,3.23-5.22ZM8,15.05c-.75,0-1.41-.49-1.62-1.2h3.24c-.21.72-.87,1.21-1.62,1.2ZM9.68,12.9h-3.35v-1.45c1.09.33,2.26.33,3.35,0v1.45ZM8,10.75c-2.71,0-4.9-2.2-4.9-4.9,0-2.71,2.2-4.9,4.9-4.9,2.71,0,4.9,2.19,4.9,4.9h0c0,2.7-2.2,4.9-4.9,4.9h0Z"/><path id="Path_193" class="cls-1" d="M11.56,4.44c-.18-.18-.48-.18-.67,0h0l-1.81,1.82-1.82-1.82c-.18-.18-.48-.18-.67,0h0l-2.15,2.15c-.19.18-.2.48-.03.67.18.19.48.2.67.03,0,0,.02-.02.03-.03l1.82-1.81,1.81,1.81c.18.18.48.19.67,0,0,0,0,0,0,0h0l2.15-2.15c.18-.19.18-.48,0-.67Z"/></g></g></svg>