<?xml version="1.0" encoding="UTF-8"?><svg id="Layer_1" xmlns="http://www.w3.org/2000/svg" viewBox="0 0 16 16"><defs><style>.cls-1{fill:#ee243a;}.cls-1,.cls-2{fill-rule:evenodd;}.cls-3{fill:#484660;}.cls-2{fill:#2b2d42;}.cls-4{fill:#484660;}</style></defs><g id="Group_16277"><g id="Group_168"><g id="Group_5"><path id="Path_2" class="cls-1" d="M9.25,6.48c1.64.54,2.75,2.07,2.75,3.8,0,.32-.26.57-.57.57s-.57-.26-.57-.57c0-1.58-1.28-2.86-2.86-2.86s-2.86,1.28-2.86,2.86c-.01.32-.28.56-.6.55-.3-.01-.54-.25-.55-.55,0-1.73,1.11-3.26,2.75-3.8-1.06-.69-1.35-2.11-.66-3.16s2.11-1.35,3.16-.66,1.35,2.11.66,3.16c-.17.26-.4.49-.66.66h0ZM8,3.43c-.63,0-1.14.51-1.14,1.14s.51,1.14,1.14,1.14,1.14-.51,1.14-1.14h0c0-.63-.51-1.14-1.14-1.14Z"/></g><g id="Group_6"><path id="Path_3" class="cls-3" d="M9.25,6.48c1.64.54,2.75,2.07,2.75,3.8,0,.32-.26.57-.57.57s-.57-.26-.57-.57c0-1.58-1.28-2.86-2.86-2.86s-2.86,1.28-2.86,2.86c-.01.32-.28.56-.6.55-.3-.01-.54-.25-.55-.55,0-1.73,1.11-3.26,2.75-3.8-1.06-.69-1.35-2.11-.66-3.16s2.11-1.35,3.16-.66,1.35,2.11.66,3.16c-.17.26-.4.49-.66.66h0ZM8,3.43c-.63,0-1.14.51-1.14,1.14s.51,1.14,1.14,1.14,1.14-.51,1.14-1.14h0c0-.63-.51-1.14-1.14-1.14Z"/></g></g><g id="Group_182"><g id="Group_83"><g id="Group_81"><path id="Path_194" class="cls-2" d="M6.28,13.14H1.72C.77,13.14,0,12.37,0,11.43V1.71C0,.77.77,0,1.72,0h12.56c.95,0,1.71.77,1.71,1.71h0v9.71c0,.95-.77,1.71-1.71,1.71h-4.57v1.72h2c.32.01.56.28.55.6-.01.3-.25.54-.55.55h-7.42c-.32.01-.58-.23-.6-.55-.01-.32.23-.58.55-.6.02,0,.03,0,.05,0h2v-1.72ZM1.72,12h12.56c.32,0,.57-.26.57-.57h0V1.71c0-.32-.26-.57-.57-.57H1.72c-.32,0-.57.26-.57.57v9.71c0,.32.26.57.57.57h0,0ZM8.57,14.85v-1.71h-1.14v1.72h1.14Z"/></g><g id="Group_82"><path id="Path_195" class="cls-4" d="M6.28,13.14H1.72C.77,13.14,0,12.37,0,11.43V1.71C0,.77.77,0,1.72,0h12.56c.95,0,1.71.77,1.71,1.71h0v9.71c0,.95-.77,1.71-1.71,1.71h-4.57v1.72h2c.32.01.56.28.55.6-.01.3-.25.54-.55.55h-7.42c-.32.01-.58-.23-.6-.55-.01-.32.23-.58.55-.6.02,0,.03,0,.05,0h2v-1.72ZM1.72,12h12.56c.32,0,.57-.26.57-.57h0V1.71c0-.32-.26-.57-.57-.57H1.72c-.32,0-.57.26-.57.57v9.71c0,.32.26.57.57.57h0,0ZM8.57,14.85v-1.71h-1.14v1.72h1.14Z"/></g></g></g></g></svg>