<?xml version="1.0" encoding="UTF-8"?><svg id="Layer_1" xmlns="http://www.w3.org/2000/svg" viewBox="0 0 16 16"><defs><style>.cls-1{fill:#434BA2;}</style></defs><g id="Group_16279"><g id="Group_183"><path id="Path_196" class="cls-1" d="M5.77,8.04h-3c-.28,0-.5.22-.5.5s.22.5.5.5h3c.28,0,.5-.22.5-.5s-.22-.5-.5-.5Z"/><path id="Path_197" class="cls-1" d="M5.77,10.71h-3c-.28,0-.5.22-.5.5s.22.5.5.5h3c.28,0,.5-.22.5-.5s-.22-.5-.5-.5Z"/><path id="Path_198" class="cls-1" d="M5.77,5.36h-3c-.28,0-.5.22-.5.5s.22.5.5.5h3c.28,0,.5-.22.5-.5s-.22-.5-.5-.5Z"/><path id="Path_199" class="cls-1" d="M5.77,2.68h-3c-.28,0-.5.22-.5.5s.22.5.5.5h3c.28,0,.5-.22.5-.5s-.22-.5-.5-.5Z"/><g id="Group_87"><g id="Group_85"><path id="Path_200" d="M8.27,8c0-.29-.24-.53-.53-.53s-.53.24-.53.53c0,2.36,1.91,4.27,4.26,4.27,2.36,0,4.27-1.91,4.27-4.26,0-2.15-1.6-3.97-3.73-4.24V1.6c0-.88-.72-1.6-1.6-1.6H1.87C.98,0,.27.72.27,1.6H.27v12.8c0,.88.72,1.6,1.6,1.6h8.53c.88,0,1.6-.72,1.6-1.6h0v-1.07c0-.29-.24-.53-.53-.53s-.53.24-.53.53v1.07c0,.29-.24.53-.53.53H1.87c-.29,0-.53-.24-.53-.53V1.6c0-.29.24-.53.53-.53h8.53c.29,0,.53.24.53.53v2.17c-.62.08-1.22.29-1.75.63l.13-.54c.06-.29-.12-.57-.41-.64-.28-.06-.55.11-.63.38l-.53,2.13c-.07.29.1.57.39.65.04.01.09.02.13.02h2.13c.29,0,.53-.24.53-.53s-.24-.53-.53-.53h-.7c1.47-.98,3.46-.58,4.44.89.98,1.47.58,3.46-.89,4.44-1.47.98-3.46.58-4.44-.89-.35-.52-.53-1.14-.53-1.77h0Z"/><path id="Path_201" d="M12.23,9.56v-1h1c.28,0,.5-.22.5-.5s-.22-.5-.5-.5h-1.5c-.28,0-.5.22-.5.5v1.5c0,.28.22.5.5.5s.5-.22.5-.5Z"/></g><g id="Group_86"><path id="Path_202" class="cls-1" d="M8.27,8c0-.29-.24-.53-.53-.53s-.53.24-.53.53c0,2.36,1.91,4.27,4.26,4.27,2.36,0,4.27-1.91,4.27-4.26,0-2.15-1.6-3.97-3.73-4.24V1.6c0-.88-.72-1.6-1.6-1.6H1.87C.98,0,.27.72.27,1.6H.27v12.8c0,.88.72,1.6,1.6,1.6h8.53c.88,0,1.6-.72,1.6-1.6h0v-1.07c0-.29-.24-.53-.53-.53s-.53.24-.53.53v1.07c0,.29-.24.53-.53.53H1.87c-.29,0-.53-.24-.53-.53V1.6c0-.29.24-.53.53-.53h8.53c.29,0,.53.24.53.53v2.17c-.62.08-1.22.29-1.75.63l.13-.54c.06-.29-.12-.57-.41-.64-.28-.06-.55.11-.63.38l-.53,2.13c-.07.29.1.57.39.65.04.01.09.02.13.02h2.13c.29,0,.53-.24.53-.53s-.24-.53-.53-.53h-.7c1.47-.98,3.46-.58,4.44.89.98,1.47.58,3.46-.89,4.44-1.47.98-3.46.58-4.44-.89-.35-.52-.53-1.14-.53-1.77h0Z"/><path id="Path_203" class="cls-1" d="M12.23,9.56v-1h1c.28,0,.5-.22.5-.5s-.22-.5-.5-.5h-1.5c-.28,0-.5.22-.5.5v1.5c0,.28.22.5.5.5s.5-.22.5-.5Z"/></g></g></g></g></svg>