<?xml version="1.0" encoding="UTF-8"?><svg id="Layer_1" xmlns="http://www.w3.org/2000/svg" viewBox="0 0 16 16"><defs><style>.cls-1{fill:#434BA2;}</style></defs><g id="Group_16290"><g id="Group_186"><g id="Group_128"><g id="Group_125"><g id="Group_124"><path id="Path_262" d="M15.67,13.37h-.72V2.86c0-.49-.39-.89-.88-.89h-1.62c-.49,0-.89.4-.89.89v10.51h-1.84v-5.75c0-.49-.4-.89-.89-.89h-1.62c-.49,0-.89.4-.89.89v5.75h-1.84v-2.98c0-.49-.4-.89-.89-.89h-1.62c-.49,0-.89.4-.89.89v2.98H.33c-.18,0-.33.15-.33.33s.15.33.33.33h15.34c.18,0,.33-.15.33-.33s-.15-.33-.33-.33h0ZM3.82,13.37H1.75v-2.98c0-.13.1-.23.23-.23h1.62c.13,0,.23.1.23.23v2.98ZM9.05,13.37h-2.07v-5.75c0-.13.1-.23.23-.23h1.62c.13,0,.23.1.23.23v5.75ZM14.28,13.37h-2.07V2.86c0-.13.1-.23.23-.23h1.62c.13,0,.23.1.23.23v10.51h0Z"/></g></g><g id="Group_127"><g id="Group_126"><path id="Path_263" class="cls-1" d="M15.67,13.37h-.72V2.86c0-.49-.39-.89-.88-.89h-1.62c-.49,0-.89.4-.89.89v10.51h-1.84v-5.75c0-.49-.4-.89-.89-.89h-1.62c-.49,0-.89.4-.89.89v5.75h-1.84v-2.98c0-.49-.4-.89-.89-.89h-1.62c-.49,0-.89.4-.89.89v2.98H.33c-.18,0-.33.15-.33.33s.15.33.33.33h15.34c.18,0,.33-.15.33-.33s-.15-.33-.33-.33h0ZM3.82,13.37H1.75v-2.98c0-.13.1-.23.23-.23h1.62c.13,0,.23.1.23.23v2.98ZM9.05,13.37h-2.07v-5.75c0-.13.1-.23.23-.23h1.62c.13,0,.23.1.23.23v5.75ZM14.28,13.37h-2.07V2.86c0-.13.1-.23.23-.23h1.62c.13,0,.23.1.23.23v10.51h0Z"/></g></g></g><g id="Group_130"><g id="Group_129"><path id="Path_264" class="cls-1" d="M4.41,4.88l-.22.8h-.73l.96-3.13h.93l.97,3.13h-.76l-.24-.8h-.9ZM5.21,4.35l-.2-.66c-.06-.19-.11-.42-.16-.6h0c-.05.19-.09.42-.14.6l-.19.66h.7Z"/><path id="Path_265" class="cls-1" d="M6.73,2.59c.32-.05.64-.07.96-.07.45-.04.9.08,1.28.34.36.28.56.72.53,1.18.03.48-.16.95-.52,1.27-.42.29-.93.44-1.44.4-.27,0-.53-.01-.8-.05v-3.07ZM7.44,5.15c.08.01.16.02.25.01.53.05,1.01-.34,1.06-.87,0-.08,0-.15,0-.23.05-.49-.3-.94-.8-.99-.06,0-.13,0-.19,0-.11,0-.22,0-.32.03v2.05Z"/></g></g></g></g></svg>