<?xml version="1.0" encoding="UTF-8"?><svg id="Layer_1" xmlns="http://www.w3.org/2000/svg" viewBox="0 0 16 16"><defs><style>.cls-1{fill:#434BA2;}</style></defs><g id="Group_16291"><g id="Group_222"><path id="Path_255" class="cls-1" d="M2.54,9.36c-.06-.21.04-.43.24-.53h0c3.93-1.49,7.3-4.17,9.62-7.68h-1.44c-.23-.04-.39-.26-.35-.49.03-.18.17-.32.35-.35h2.17c.21.02.37.21.36.42v2.56c.03.2-.1.38-.3.42-.2.03-.38-.1-.42-.3,0-.04,0-.08,0-.12v-1.35c-1.16,1.65-2.53,3.13-4.08,4.42-1.7,1.41-3.63,2.52-5.7,3.28-.18.06-.38-.05-.44-.23,0-.01,0-.03-.01-.05h0Z"/><path id="Path_265" class="cls-1" d="M.38,15.69h15.24c.19.02.36-.11.38-.3.02-.19-.11-.36-.3-.38-.03,0-.05,0-.08,0h-1.88v-7.45c-.01-.2-.18-.35-.37-.34h-2.26c-.2,0-.36.14-.37.34v7.45h-1.22v-5.8c-.01-.2-.18-.35-.37-.34h-2.26c-.2-.01-.36.14-.37.34h0v5.8h-1.22v-4.16c-.01-.2-.18-.35-.37-.34h-2.26c-.2,0-.36.14-.37.34v4.16H.38c-.19-.02-.36.11-.38.3-.02.19.11.36.3.38.03,0,.05,0,.08,0h0ZM11.47,7.9h1.51v7.11h-1.51v-7.11ZM7.24,9.55h1.51v5.47h-1.51v-5.47ZM3.01,11.19h1.51v3.82h-1.51v-3.82Z"/></g></g></svg>