<?xml version="1.0" encoding="UTF-8"?><svg id="reportBooklet" xmlns="http://www.w3.org/2000/svg" xmlns:xlink="http://www.w3.org/1999/xlink" viewBox="0 0 16 16"><defs><style>.cls-1{fill:none;}.cls-2{fill:#484660;}.cls-3{fill:#484660;}.cls-4{clip-path:url(#clippath);}</style><clipPath id="clippath"><rect class="cls-1" x="1.26" width="13.48" height="16"/></clipPath></defs><g class="cls-4"><g id="Group_16381"><path id="Path_61573" class="cls-3" d="M13.36,0H3.68c-.76,0-1.37.62-1.38,1.38v1.05h-.37c-.37.01-.66.33-.65.7.01.35.3.63.65.65h.37v1.19h-.37c-.37,0-.67.3-.67.67s.3.67.67.67h.37v1.19h-.37c-.37,0-.67.3-.67.67,0,.37.3.67.67.67h.37v1.08h-.37c-.37,0-.67.3-.67.67s.3.67.67.67h.37v1.31h-.37c-.37,0-.67.3-.67.67,0,.37.3.67.67.67h.37v.69c0,.76.62,1.37,1.38,1.38h9.68c.76,0,1.37-.62,1.38-1.38V1.38c0-.76-.62-1.37-1.38-1.38M10.92,1.22l2.6,2.6h-1.94c-.37,0-.66-.3-.66-.66v-1.94ZM14.03,14.62c0,.37-.3.66-.66.66H3.68c-.37,0-.66-.3-.66-.66v-.69h.28c.37,0,.66-.31.67-.67,0-.37-.3-.67-.67-.68h-.29v-1.31h.29c.37,0,.66-.31.67-.67,0-.37-.3-.67-.67-.67h-.29v-1.08h.29c.37,0,.66-.31.67-.67,0-.37-.3-.68-.67-.68,0,0,0,0,0,0h-.29v-1.19h.29c.37,0,.66-.31.67-.67,0-.37-.3-.67-.67-.68h-.29v-1.19h.29c.37,0,.66-.3.67-.67,0-.37-.3-.67-.67-.67h-.29v-1.05c0-.37.3-.66.66-.66h6.52v2.45c0,.76.62,1.37,1.38,1.37h2.44v10.08ZM14.03,3.31l-2.6-2.6h1.93c.37,0,.66.3.66.66v1.94Z"/><path id="Path_61574" class="cls-2" d="M11.57,9.69h-2.53v-2.53c0-.25-.2-.45-.45-.45,0,0,0,0,0,0-1.89,0-3.43,1.54-3.42,3.43s1.54,3.43,3.43,3.42c1.89,0,3.42-1.53,3.42-3.42,0-.25-.2-.45-.45-.45,0,0,0,0,0,0"/><path id="Path_61575" class="cls-2" d="M11.83,6.9c-.52-.52-1.23-.82-1.97-.82-.2,0-.37.16-.37.36,0,0,0,0,0,0v2.42c0,.2.16.37.36.37,0,0,0,0,0,0h2.42c.2,0,.37-.16.37-.37h0c0-.74-.29-1.45-.82-1.97"/></g></g></svg>