<?xml version="1.0" encoding="UTF-8"?><svg id="Layer_1" xmlns="http://www.w3.org/2000/svg" viewBox="0 0 16 16"><defs><style>.cls-1{fill:#434BA2;}</style></defs><path class="cls-1" d="M7.7,3.85v4.95l-3.79,1.63c-.3.13-.44.48-.31.78.13.3.48.44.78.31,0,0,0,0,0,0l4.15-1.78c.22-.09.36-.31.36-.55V3.85c0-.33-.27-.59-.59-.59-.33,0-.59.27-.59.59Z"/><path class="cls-1" d="M15.6,3.82s0,0,0,0c-.31-.11-.65.06-.75.37,0,0,0,0,0,0l-.18.52C13.39,2.01,10.68.3,7.7.29,3.44.3,0,3.75,0,8.01c0,4.26,3.46,7.7,7.71,7.7,2.99,0,5.7-1.73,6.97-4.44.12-.3-.02-.65-.32-.77-.28-.12-.61,0-.75.27-1.53,3.26-5.41,4.67-8.67,3.15C1.67,12.39.26,8.51,1.79,5.24,3.31,1.98,7.2.57,10.46,2.1c1.26.59,2.3,1.57,2.97,2.8l-.54-.4c-.26-.19-.63-.14-.83.12-.19.26-.14.63.12.83l2.12,1.57c.26.2.63.14.83-.12.04-.05.06-.1.08-.16l.74-2.16c.11-.31-.06-.65-.37-.75Z"/></svg>