<?xml version="1.0" encoding="UTF-8"?><svg id="Layer_1" xmlns="http://www.w3.org/2000/svg" viewBox="0 0 16 16"><defs><style>.cls-1{fill:none;}.cls-2{fill:#484660;}.cls-3{fill:#484660;}</style></defs><path class="cls-1" d="M8.47,12.19c.08-.01.16-.02.24-.03l.35-.08.34-.11.33-.13.32-.16.13-.08.17-.11.11-.08c-.56-1.37-2.12-2.03-3.49-1.48-.67.27-1.21.81-1.48,1.48l.11.08h.02c.06.03.31.18.31.18.06.04.32.16.32.16.06.03.33.14.33.14.07.02.34.11.34.11.07.02.35.08.35.08.08.01.16.02.24.03.12.01.36.04.48.04s.36-.02.48-.04Z"/><path class="cls-1" d="M7.99,5.83c-.83,0-1.5.68-1.5,1.5s.68,1.5,1.5,1.5,1.5-.68,1.5-1.5c0-.4-.16-.78-.44-1.06-.28-.28-.66-.44-1.06-.44Z"/><path class="cls-1" d="M11.16,10.77c.67-.76,1.04-1.74,1.03-2.75,0-2.33-1.88-4.21-4.21-4.21h.01c-2.32-.01-4.21,1.88-4.21,4.2,0,1.01.37,1.99,1.03,2.76.36-.7.94-1.25,1.65-1.59-.55-.45-.87-1.13-.87-1.84-.08-1.32.93-2.46,2.25-2.54,1.32-.08,2.46.93,2.54,2.25v.29c0,.71-.32,1.39-.87,1.84.71.33,1.29.89,1.65,1.59Z"/><path class="cls-1" d="M15.07,6.88h-.94c-.21,0-.39-.14-.44-.34-.14-.54-.35-1.05-.63-1.52-.11-.18-.08-.41.07-.55l.66-.66-1.6-1.6-.66.66c-.09.09-.2.13-.32.13-.08,0-.16-.02-.23-.06-.48-.28-.99-.49-1.52-.63-.2-.05-.34-.23-.34-.44v-.94h-2.26v.94c0,.21-.14.39-.34.44-.54.14-1.05.35-1.52.63-.18.11-.41.08-.55-.07l-.66-.66-1.6,1.6.66.66c.15.15.18.37.07.55-.28.48-.49.99-.63,1.52-.05.2-.23.34-.44.34h-.94v2.26h.94c.21,0,.39.14.44.34.14.53.35,1.05.63,1.52.11.18.08.41-.07.55l-.66.66,1.6,1.6.66-.66c.15-.15.37-.17.55-.07.48.28.99.49,1.52.63.2.05.34.23.34.44v.94h2.26v-.94c0-.21.14-.39.34-.44.53-.14,1.05-.35,1.52-.63.07-.04.15-.06.23-.06.12,0,.24.05.32.13l.66.66,1.6-1.6-.66-.66c-.15-.15-.18-.38-.07-.55.28-.48.49-.99.63-1.52.05-.2.23-.34.44-.34h.94v-2.26ZM11.28,11.89c-.11.1-.23.19-.35.28-.74.52-1.6.84-2.5.92-.14.01-.29.02-.44.02-2.83,0-5.12-2.28-5.13-5.1,0-2.83,2.28-5.12,5.1-5.13,2.82-.01,5.12,2.28,5.13,5.1,0,1.51-.66,2.94-1.81,3.91Z"/><path class="cls-3" d="M15.54,5.95h-1.05c-.12-.39-.27-.76-.46-1.11l.74-.74c.18-.17.18-.46,0-.64l-2.24-2.24c-.17-.18-.46-.18-.64,0l-.74.74c-.36-.19-.73-.34-1.11-.46V.45c0-.25-.21-.45-.46-.45h-3.17c-.26,0-.46.21-.46.46v1.04c-.39.12-.76.27-1.11.46l-.74-.74c-.17-.18-.46-.18-.64,0L1.23,3.46c-.18.17-.18.46,0,.64l.74.74c-.19.36-.34.73-.46,1.11H.46c-.26,0-.46.21-.46.46v3.17c0,.26.21.46.46.46h1.06c.12.39.28.76.46,1.11l-.74.74c-.18.18-.18.46,0,.64l2.24,2.24c.18.17.46.17.64,0l.74-.74c.36.19.73.34,1.11.46v1.05c0,.26.2.46.45.46h3.17c.26,0,.46-.21.46-.46v-1.05c.39-.12.76-.27,1.11-.46l.74.74c.17.18.46.18.64,0l2.24-2.24c.18-.17.18-.46,0-.64l-.74-.74c.19-.36.34-.73.46-1.11h1.05c.26,0,.46-.21.46-.46v-3.17c0-.25-.21-.46-.46-.46ZM13.69,9.48c-.14.53-.35,1.04-.63,1.52-.11.17-.08.4.07.55l.66.66-1.6,1.6-.66-.66c-.08-.08-.2-.13-.32-.13-.08,0-.16.02-.23.06-.47.28-.99.49-1.52.63-.2.05-.34.23-.34.44v.94h-2.26v-.94c0-.21-.14-.39-.34-.44-.53-.14-1.04-.35-1.52-.63-.18-.1-.4-.08-.55.07l-.66.66-1.6-1.6.66-.66c.15-.14.18-.37.07-.55-.28-.47-.49-.99-.63-1.52-.05-.2-.23-.34-.44-.34h-.94v-2.26h.94c.21,0,.39-.14.44-.34.14-.53.35-1.04.63-1.52.11-.18.08-.4-.07-.55l-.66-.66,1.6-1.6.66.66c.14.15.37.18.55.07.47-.28.98-.49,1.52-.63.2-.05.34-.23.34-.44v-.94h2.26v.94c0,.21.14.39.34.44.53.14,1.04.35,1.52.63.07.04.15.06.23.06.12,0,.23-.04.32-.13l.66-.66,1.6,1.6-.66.66c-.15.14-.18.37-.07.55.28.47.49.98.63,1.52.05.2.23.34.44.34h.94v2.26h-.94c-.21,0-.39.14-.44.34Z"/><path class="cls-2" d="M7.96,2.88c-2.82.01-5.1,2.3-5.1,5.13.01,2.82,2.3,5.1,5.13,5.1.15,0,.3-.01.44-.02.9-.08,1.76-.4,2.5-.92.12-.09.24-.18.35-.28,1.15-.97,1.81-2.4,1.81-3.91,0-2.82-2.31-5.11-5.13-5.1ZM9.49,7.33c0,.82-.67,1.5-1.5,1.5s-1.5-.67-1.5-1.5.67-1.5,1.5-1.5c.4,0,.78.16,1.06.44.28.28.44.66.44,1.06ZM7.52,12.19c-.08-.01-.16-.02-.24-.03,0,0-.28-.06-.35-.08,0,0-.27-.09-.34-.11,0,0-.27-.11-.33-.14,0,0-.26-.12-.32-.16,0,0-.25-.15-.31-.19h-.02s-.11-.07-.11-.07c.27-.67.81-1.21,1.48-1.48,1.37-.55,2.93.11,3.49,1.48l-.11.08-.17.11-.13.08-.32.16-.33.13-.34.11-.35.08c-.08.01-.16.02-.24.03-.12.02-.36.04-.48.04s-.36-.03-.48-.04ZM10.38,7.34v-.29c-.08-1.32-1.22-2.33-2.54-2.25-1.32.08-2.33,1.22-2.25,2.54,0,.71.32,1.39.87,1.84-.71.34-1.29.89-1.65,1.59-.66-.77-1.03-1.75-1.03-2.76,0-2.32,1.89-4.21,4.21-4.21h-.01c2.33.01,4.21,1.89,4.21,4.22.01,1.01-.36,1.99-1.03,2.75-.36-.7-.94-1.26-1.65-1.59.55-.45.87-1.13.87-1.84Z"/></svg>