<?xml version="1.0" encoding="UTF-8"?><svg id="Layer_1" xmlns="http://www.w3.org/2000/svg" xmlns:xlink="http://www.w3.org/1999/xlink" viewBox="0 0 16 16"><defs><style>.cls-1{fill:none;}.cls-2{fill:#434BA2;}.cls-3{clip-path:url(#clippath);}</style><clipPath id="clippath"><rect class="cls-1" y=".02" width="16" height="15.96"/></clipPath></defs><g id="Group_16366"><g class="cls-3"><g id="Group_16366-2"><path id="Path_61462" class="cls-2" d="M15.64,7.94c-.91-.77-3.27-.82-3.83-.82s-2.95.05-3.85.84c-.21.08-.35.29-.34.51v5.98c0,1.45,3.49,1.53,4.19,1.53s4.19-.07,4.19-1.53v-6.03c-.01-.22-.15-.41-.36-.48M14.96,14.35c-.98.46-2.07.66-3.15.57-1.06.04-2.12-.12-3.12-.46v-1.82c1.01.3,2.07.45,3.12.44,1.06.01,2.12-.13,3.14-.44v1.72ZM11.81,9.11c-1.02.04-2.05-.11-3.01-.46.96-.36,1.99-.52,3.01-.47,1.02-.04,2.04.11,3,.46-.96.35-1.98.51-3,.47M14.95,11.44c-.98.46-2.06.65-3.14.56-1.07.08-2.14-.11-3.12-.54v-1.72c1.01.3,2.07.45,3.12.44,1.06.01,2.11-.13,3.13-.44v1.71Z"/><path id="Path_61463" class="cls-2" d="M9.64,10.38c-.29,0-.53.24-.53.53s.24.53.53.53.53-.24.53-.53h0c0-.29-.24-.53-.53-.53"/><path id="Path_61464" class="cls-2" d="M9.64,13.25c-.29,0-.53.24-.53.53s.24.53.53.53.53-.24.53-.53h0c0-.29-.24-.53-.53-.53"/><path id="Path_61465" class="cls-2" d="M6.56,13.62H1.9c-.43,0-.79-.34-.8-.77V3.58c.25.11.52.17.8.17h8.78v2.13c.01.29.26.52.56.51.28-.01.5-.23.51-.51v-2.66c0-.29-.24-.53-.53-.53h-.8V.55c0-.29-.24-.53-.53-.53H1.82C.79.05-.02.9,0,1.93c0,.12.02.23.04.34v10.57c.02,1.01.85,1.82,1.86,1.81h4.65c.29,0,.52-.23.52-.52s-.23-.52-.52-.52M1.9,1.09h7.45v1.6H1.9c-.44,0-.8-.36-.8-.8,0-.44.36-.8.8-.8"/></g></g></g></svg>