<?xml version="1.0" encoding="UTF-8"?><svg id="Layer_1" xmlns="http://www.w3.org/2000/svg" viewBox="0 0 16 16"><defs><style>.cls-1{fill-rule:evenodd;}.cls-1,.cls-2{fill:#484660;}</style></defs><g id="Group_16285"><g id="SAP"><g id="Group_153"><path id="Path_97" class="cls-2" d="M5.86,7.14l.49,1.58c-.16.06-.33.08-.5.08-.17,0-.34-.03-.5-.09l.5-1.57h0Z"/><path id="Path_98" class="cls-2" d="M10.42,7.25c0,.49-.37.64-.83.64h-.34v-1.26h.34c.46,0,.83.15.83.63"/><path id="Path_99" class="cls-2" d="M0,4.04v7.92h8.08l7.92-7.92H0ZM9.75,8.98h-.51v1.39h-2.4l-.17-.61c-.54.17-1.12.17-1.66,0l-.24.61h-1.33l.06-.31-.06.05c-.39.29-.87.44-1.36.43h-.15c-.6,0-1.2-.15-1.72-.45l.49-.96c.38.26.84.39,1.3.37.18.02.37-.04.51-.16.06-.07.1-.15.1-.25,0-.25-.35-.37-.79-.5-.38-.11-.74-.27-1.07-.49-.36-.24-.57-.66-.54-1.1,0-.34.14-.67.38-.92.43-.4,1-.6,1.58-.57.62,0,1.23.15,1.78.42l-.55.95c-.35-.19-.75-.3-1.15-.31-.47-.02-.71.14-.71.33,0,.22.45.42.87.56.64.2,1.46.48,1.58,1.26l1.17-3.1h1.36l1.38,3.72v-3.71s1.57,0,1.57,0c1.5,0,2.21.51,2.21,1.68,0,1.05-.73,1.68-1.96,1.68"/></g><g id="Group_154"><path id="Path_97-2" class="cls-1" d="M5.86,7.14l.49,1.58c-.16.06-.33.08-.5.08-.17,0-.34-.03-.5-.09l.5-1.57h0Z"/><path id="Path_98-2" class="cls-1" d="M10.42,7.25c0,.49-.37.64-.83.64h-.34v-1.26h.34c.46,0,.83.15.83.63"/><path id="Path_99-2" class="cls-1" d="M0,4.04v7.92h8.08l7.92-7.92H0ZM9.75,8.98h-.51v1.39h-2.4l-.17-.61c-.54.17-1.12.17-1.66,0l-.24.61h-1.33l.06-.31-.06.05c-.39.29-.87.44-1.36.43h-.15c-.6,0-1.2-.15-1.72-.45l.49-.96c.38.26.84.39,1.3.37.18.02.37-.04.51-.16.06-.07.1-.15.1-.25,0-.25-.35-.37-.79-.5-.38-.11-.74-.27-1.07-.49-.36-.24-.57-.66-.54-1.1,0-.34.14-.67.38-.92.43-.4,1-.6,1.58-.57.62,0,1.23.15,1.78.42l-.55.95c-.35-.19-.75-.3-1.15-.31-.47-.02-.71.14-.71.33,0,.22.45.42.87.56.64.2,1.46.48,1.58,1.26l1.17-3.1h1.36l1.38,3.72v-3.71s1.57,0,1.57,0c1.5,0,2.21.51,2.21,1.68,0,1.05-.73,1.68-1.96,1.68"/></g></g></g></svg>