<?xml version="1.0" encoding="UTF-8"?><svg id="Layer_1" xmlns="http://www.w3.org/2000/svg" viewBox="0 0 16 16"><defs><style>.cls-1{fill:none;}.cls-2{fill:#434BA2;}</style></defs><g id="Group_16283"><path class="cls-1" d="M1.74,2.2c-.49,0-.89.41-.89.9v.73h12.95v-.73c0-.49-.4-.89-.89-.9H1.74Z"/><path class="cls-1" d="M10.9,6.67c-2.34,0-4.23,1.9-4.23,4.23s1.9,4.23,4.23,4.23c2.34,0,4.23-1.9,4.23-4.23,0-2.34-1.9-4.23-4.23-4.23ZM12.92,12.94c-.08.08-.19.13-.31.13h0c-.11,0-.23-.05-.31-.13l-1.67-1.67c-.08-.08-.13-.19-.13-.31v-3.33c0-.24.19-.43.43-.43.24,0,.43.19.43.43v3.2l1.54,1.5c.17.17.17.44,0,.61Z"/><path class="cls-2" d="M10.9,5.8c-2.82,0-5.1,2.28-5.1,5.1,0,2.82,2.28,5.1,5.1,5.1,2.82,0,5.1-2.28,5.1-5.1,0-2.82-2.28-5.1-5.1-5.1ZM10.9,15.13c-2.34,0-4.23-1.89-4.23-4.23s1.89-4.23,4.23-4.23c2.34,0,4.23,1.9,4.23,4.23,0,2.34-1.89,4.23-4.23,4.23Z"/><path class="cls-2" d="M11.38,10.82v-3.2c0-.24-.19-.43-.43-.43-.24,0-.43.19-.43.43v3.33c0,.11.05.22.13.31l1.67,1.67c.08.08.19.13.31.13h0c.11,0,.22-.04.31-.12.17-.17.17-.44,0-.61l-1.54-1.5Z"/><path class="cls-2" d="M3.24,7.37h1.29c.22-.01.4-.19.41-.41.01-.24-.17-.44-.41-.45h-1.29c-.22.01-.4.19-.41.41-.01.24.17.44.41.45Z"/><path class="cls-2" d="M5.26,12.33H1.74c-.24,0-.46-.1-.63-.26-.17-.17-.26-.4-.26-.64v-6.73h12.95v1.4s0,.03,0,.04c.01.24.21.42.45.41s.42-.21.41-.45v-3c0-.97-.77-1.76-1.74-1.77H1.74C.77,1.34,0,2.13,0,3.1v8.33c0,.47.18.92.51,1.25.32.33.77.52,1.23.52h3.52c.22,0,.4-.19.41-.41.01-.24-.17-.44-.41-.45ZM13.8,3.1v.73H.85v-.73c0-.49.4-.89.89-.9h11.17c.49,0,.89.41.89.9Z"/><path class="cls-2" d="M3.24,10.2h1.29c.24,0,.43-.19.43-.43,0-.24-.19-.43-.43-.43h-1.29c-.24,0-.43.19-.43.43,0,.24.19.43.43.43Z"/><path class="cls-2" d="M2.73.87h1.97c.22-.01.4-.19.41-.41.01-.24-.17-.44-.41-.45h-1.97c-.22.01-.4.19-.41.41-.01.24.17.44.41.45Z"/><path class="cls-2" d="M9.96.87h1.97c.22-.01.4-.19.41-.41.01-.24-.17-.44-.41-.45h-1.97c-.22.01-.4.19-.41.41-.01.24.17.44.41.45Z"/></g></svg>