<?xml version="1.0" encoding="UTF-8"?><svg id="Layer_1" xmlns="http://www.w3.org/2000/svg" viewBox="0 0 16 16"><defs><style>.cls-1{fill:#484660;}.cls-2{fill:#484660;}</style></defs><g id="Group_16282"><g id="Group_196"><g id="Diagram"><path id="Path_339" class="cls-2" d="M7.98,0C3.57.02,0,3.6,0,8.01c0,4.41,3.59,7.98,8,7.98.9,0,1.79-.15,2.64-.45.26-.08.41-.37.32-.63-.08-.24-.32-.39-.57-.34-.03,0-.06.02-.08.03-2.37.83-5.01.33-6.9-1.32l4.77-4.78h6.79c0,.15-.02.29-.04.43-.04.28.16.53.44.57s.53-.16.57-.44C16.52,4.69,13.45.67,9.07.08h0c-.36-.05-.73-.07-1.09-.07h0ZM14.97,7.5h-6.49V1.03c3.47.24,6.24,3,6.49,6.47h0ZM7.48,1.03v6.76l-4.78,4.78C.18,9.65.51,5.23,3.43,2.71c1.13-.98,2.55-1.57,4.05-1.68h0Z"/><path id="Path_340" class="cls-1" d="M14.68,12.53c.58-.94.29-2.17-.65-2.75s-2.17-.29-2.75.65c-.4.65-.4,1.46,0,2.11-.81.56-1.3,1.48-1.3,2.46v.5c0,.28.22.5.5.5h4.99c.28,0,.5-.22.5-.5v-.5c0-.99-.49-1.91-1.3-2.46h0ZM12.97,10.5c.55,0,1,.45,1,1s-.45,1-1,1-1-.45-1-1,.45-1,1-1ZM10.97,14.99c0-.73.4-1.4,1.04-1.75.59.34,1.31.34,1.9,0,.65.34,1.06,1.02,1.05,1.75h-3.99Z"/></g></g></g></svg>