<?xml version="1.0" encoding="UTF-8"?><svg id="Layer_1" xmlns="http://www.w3.org/2000/svg" viewBox="0 0 16 16"><defs><style>.cls-1{fill:none;}.cls-2{fill:#484660;}.cls-3{fill:#484660;}</style></defs><path class="cls-1" d="M8,4.62c-1.79,0-3.25,1.45-3.25,3.25,0,1.79,1.45,3.25,3.25,3.25,1.79,0,3.25-1.45,3.25-3.25,0-1.79-1.46-3.25-3.25-3.25Z"/><path class="cls-1" d="M15.18,8.53v-1.07c0-.2-.16-.36-.37-.36h-1.08c-.19,0-.36-.14-.4-.33-.12-.61-.35-1.2-.68-1.73-.1-.16-.07-.37.06-.5l.73-.73c.07-.07.11-.16.11-.26,0-.1-.04-.19-.11-.26l-.76-.76c-.07-.07-.16-.11-.26-.11-.1,0-.19.04-.26.11l-.7.7c-.08.08-.18.12-.29.12-.08,0-.16-.02-.22-.07-.54-.35-1.14-.6-1.76-.75-.19-.04-.32-.21-.32-.4v-.97c0-.2-.16-.36-.36-.36h-1.07c-.2,0-.36.16-.36.36v.97c0,.19-.13.36-.32.4-.63.14-1.22.4-1.76.75-.16.1-.37.08-.51-.05l-.7-.7c-.14-.14-.37-.14-.52,0l-.76.76c-.07.07-.11.16-.11.26,0,.1.04.19.11.26l.73.73c.13.13.16.34.06.5-.32.53-.55,1.12-.68,1.73-.04.19-.21.33-.4.33h-1.06c-.2,0-.36.16-.37.36v1.07c0,.2.16.36.37.36h1.14c.19,0,.35.12.4.31.15.58.39,1.13.72,1.63.11.16.08.38-.05.51l-.84.84c-.14.14-.14.37,0,.51,0,0,0,0,0,0l.76.76c.14.14.37.14.52,0l.87-.87c.07-.08.17-.12.28-.12,0,0,0,0,0,0h0s0,0,0,0c.07,0,.15.02.21.06.5.3,1.04.52,1.61.65.19.04.32.21.32.4v1.25c0,.2.16.36.36.36h1.07c.2,0,.36-.16.36-.36v-1.24c0-.19.13-.36.32-.4.57-.13,1.11-.35,1.61-.65.06-.04.14-.06.21-.06.11,0,.21.04.29.12l.87.87c.07.07.16.11.26.11.1,0,.19-.04.26-.11l.76-.76c.14-.14.14-.37,0-.51h0s-.84-.84-.84-.84c-.14-.14-.16-.35-.05-.51.33-.5.57-1.05.72-1.63.05-.18.21-.31.39-.31h1.14c.2,0,.36-.16.37-.36ZM12.07,7.86c0,2.25-1.82,4.07-4.07,4.07-2.25,0-4.07-1.82-4.07-4.07,0-2.25,1.82-4.07,4.07-4.07s4.07,1.82,4.07,4.07h0Z"/><path class="cls-2" d="M8,3.79c-2.25,0-4.07,1.82-4.07,4.07,0,2.25,1.82,4.07,4.07,4.07,2.25,0,4.07-1.82,4.07-4.07h0c0-2.25-1.82-4.07-4.07-4.07ZM11.25,7.86c0,1.79-1.45,3.25-3.25,3.25-1.79,0-3.25-1.45-3.25-3.25,0-1.79,1.45-3.25,3.25-3.25,1.79,0,3.25,1.45,3.25,3.25Z"/><path class="cls-3" d="M14.82,6.29h-.75c-.12-.48-.31-.95-.54-1.39l.51-.51s0,0,0,0c.46-.46.46-1.21,0-1.67l-.76-.76c-.46-.46-1.21-.46-1.67,0l-.47.47c-.45-.26-.93-.46-1.43-.6v-.65c0-.65-.53-1.18-1.18-1.18h-1.07c-.65,0-1.18.53-1.18,1.18v.65c-.5.14-.98.34-1.43.6l-.47-.47c-.46-.46-1.21-.46-1.67,0l-.76.76h0c-.46.46-.46,1.21,0,1.67l.51.51c-.24.44-.42.9-.54,1.39h-.75c-.65,0-1.18.53-1.18,1.18v1.07c0,.65.53,1.18,1.18,1.18h.83c.14.45.33.88.56,1.29l-.61.61h0c-.46.46-.46,1.21,0,1.67l.76.76h0c.46.46,1.21.46,1.67,0l.65-.65c.4.21.82.38,1.25.51v.93c0,.65.53,1.18,1.18,1.18h1.07c.65,0,1.18-.53,1.18-1.18v-.93c.43-.12.85-.29,1.25-.51l.65.65h0c.46.46,1.21.46,1.67,0l.76-.76s0,0,0,0c.46-.46.46-1.21,0-1.67l-.61-.61c.24-.41.43-.84.57-1.29h.83c.65,0,1.18-.53,1.18-1.18v-1.07c0-.65-.53-1.18-1.18-1.18ZM13.28,9.2c-.15.58-.39,1.13-.72,1.63-.11.16-.08.38.05.51l.84.84h0c.14.14.14.37,0,.52l-.76.76c-.07.07-.16.11-.26.11-.1,0-.19-.04-.26-.11l-.87-.87c-.08-.08-.18-.12-.29-.12-.07,0-.15.02-.21.06-.5.3-1.04.52-1.61.65-.19.04-.32.21-.32.4v1.24c0,.2-.16.36-.36.36h-1.07c-.2,0-.36-.16-.36-.36v-1.25c0-.19-.13-.36-.32-.4-.57-.13-1.11-.35-1.61-.65-.06-.04-.13-.06-.21-.06-.11,0-.21.05-.28.12l-.87.87c-.14.14-.37.14-.52,0l-.76-.76s0,0,0,0c-.14-.14-.14-.37,0-.51l.84-.84c.14-.14.16-.35.05-.51-.33-.5-.57-1.05-.72-1.63-.05-.18-.21-.31-.4-.31h-1.14c-.2,0-.36-.16-.37-.36v-1.07c0-.2.16-.36.37-.36h1.06c.19,0,.36-.14.4-.33.12-.61.35-1.2.68-1.73.1-.16.07-.37-.06-.5l-.73-.73c-.07-.07-.11-.16-.11-.26,0-.1.04-.19.11-.26l.76-.76c.14-.14.37-.14.52,0l.7.7c.14.14.35.16.51.05.54-.35,1.14-.61,1.76-.75.19-.04.32-.21.32-.4v-.97c0-.2.16-.36.36-.36h1.07c.2,0,.36.16.36.36v.97c0,.19.13.36.32.4.63.14,1.22.4,1.76.75.07.04.14.07.22.07.11,0,.21-.04.29-.12l.7-.7c.07-.07.16-.11.26-.11.1,0,.19.04.26.11l.76.76c.07.07.11.16.11.26,0,.1-.04.19-.11.26l-.73.73c-.13.13-.16.34-.06.5.32.53.55,1.12.68,1.73.04.19.21.33.4.33h1.08c.2,0,.36.16.37.36v1.07c0,.2-.16.36-.37.36h-1.14c-.19,0-.35.13-.39.31Z"/><polygon class="cls-3" points="4.96 12.47 4.97 12.47 4.97 12.47 4.96 12.47"/></svg>