<?xml version="1.0" encoding="UTF-8"?><svg id="Layer_1" xmlns="http://www.w3.org/2000/svg" viewBox="0 0 16 16"><defs><style>.cls-1{fill:#434BA2;}</style></defs><g id="Group_16281"><g id="Group_195"><path id="Path_334" class="cls-1" d="M15.25,12.5v-1h-1.05c-.06-.45-.23-.88-.5-1.25l.75-.75-.7-.7-.75.75c-.37-.27-.8-.44-1.25-.5v-1.05h-1v1.05c-.44.09-.87.26-1.25.5l-.75-.75-.7.7.75.75c-.27.37-.44.8-.5,1.25h-1.05v1h1.05c.09.44.26.87.5,1.25l-.75.75.7.7.75-.75c.37.27.8.44,1.25.5v1.05h1v-1.05c.44-.09.87-.26,1.25-.5l.75.75.7-.7-.75-.75c.26-.36.43-.77.5-1.2h1.05v-.05ZM11.25,14c-1.1,0-2-.9-2-2s.9-2,2-2,2,.9,2,2c0,1.1-.9,2-2,2Z"/><path id="Path_335" class="cls-1" d="M3.25,2h1v1h-1v-1Z"/><path id="Path_336" class="cls-1" d="M3.25,6h1v1h-1v-1Z"/><path id="Path_337" class="cls-1" d="M3.25,10h1v1h-1v-1Z"/><path id="Path_338" class="cls-1" d="M6.25,13v-1H1.95l-.2-.2v-2.6l.2-.2h4.3v-1H1.95l-.2-.2v-2.6l.2-.2h10.6l.2.2v1.8h1v-2.2l-.3-.3.3-.3V.8l-.8-.8H1.55l-.8.8v3.4l.3.3-.3.3v3.4l.3.3-.3.3v3.4l.8.8h4.7ZM1.75,1.2l.2-.2h10.6l.2.2v2.6l-.2.2H1.95l-.2-.2V1.2Z"/></g></g></svg>