<?xml version="1.0" encoding="UTF-8"?><svg id="Layer_1" xmlns="http://www.w3.org/2000/svg" viewBox="0 0 16 16"><defs><style>.cls-1{fill:#434BA2;}</style></defs><g id="Group_16307"><g id="Group_16294"><g id="Group_198"><g id="_07-Maintenance"><path id="Path_349" class="cls-1" d="M13.57,16c-.11,0-.23-.05-.31-.13l-5.24-5.24-1.79.03c-.11,0-.23-.05-.31-.13l-2-2c-.08-.08-.13-.19-.13-.31v-1.67c0-.12.05-.23.13-.31l.33-.33c.17-.17.44-.17.61,0h0s1.9,1.9,1.9,1.9l.65-.03.4-.44-.03-.65-1.87-1.83c-.17-.17-.17-.44,0-.61h0s.33-.34.33-.34c.08-.08.19-.13.31-.13h1.67c.11,0,.22.05.3.13l2,2c.08.08.13.19.13.31v1.86l5.21,5.17c.17.17.17.44,0,.61l-2,2c-.08.08-.18.13-.3.13ZM8.24,9.8c.11,0,.22.05.3.13l5.03,5.03,1.39-1.39-5.03-5.03c-.08-.08-.13-.19-.13-.31v-1.86l-1.78-1.73-1.08.02,1.6,1.6c.08.08.13.19.13.31v1c0,.11-.05.23-.13.31l-.67.67c-.08.08-.19.13-.31.13h-1c-.11,0-.23-.05-.31-.13l-1.6-1.59v1.15l1.78,1.73,1.8-.03Z"/><path id="Path_350" class="cls-1" d="M13.57,15.9c-.09,0-.17-.04-.24-.1l-5.23-5.24h-1.86c-.09,0-.17-.04-.24-.1l-2-2c-.06-.06-.1-.15-.1-.24v-1.67c0-.09.04-.17.1-.24l.33-.33c.13-.13.34-.13.47,0l1.9,1.9h.72l.47-.47v-.72l-1.9-1.9c-.13-.13-.13-.34,0-.47l.33-.33c.06-.06.15-.1.24-.1h1.67c.09,0,.17.04.24.1l2,2c.06.06.1.15.1.24v1.86l5.24,5.24c.13.13.13.34,0,.47l-2,2c-.06.06-.15.1-.24.1ZM6.38,9.9h1.86c.09,0,.17.04.24.1l5.1,5.1,1.53-1.54-5.1-5.1c-.06-.06-.1-.15-.1-.24v-1.86l-1.8-1.8h-1.39l1.76,1.76c.06.06.1.15.1.24v1c0,.09-.04.17-.1.24l-.67.67c-.06.06-.15.1-.24.1h-1c-.09,0-.17-.04-.24-.1l-1.76-1.76v1.39l1.8,1.81Z"/><path id="Path_351" class="cls-1" d="M14.34,14.9s-.05-.01-.07-.03l-6-6s-.04-.1,0-.14l.47-.47s.1-.04.14,0l6,6s.03.04.03.07c0,.03-.01.05-.03.07l-.47.47s-.04.03-.07.03Z"/><rect id="Rectangle_11" class="cls-1" x="11.24" y="7.32" width=".67" height="8.49" transform="translate(-4.79 11.57) rotate(-45)"/><path id="Path_352" class="cls-1" d="M6.02,14c-.24,0-.43-.19-.43-.43h0v-1.07c-.52-.13-1.02-.34-1.48-.61l-.75.75c-.17.16-.43.16-.6,0l-1.4-1.4c-.16-.17-.16-.43,0-.6l.76-.75c-.27-.46-.48-.96-.61-1.48H.43c-.24,0-.43-.19-.43-.43v-1.97c0-.24.19-.43.43-.43h1.07c.13-.52.34-1.02.61-1.48l-.75-.75c-.16-.17-.16-.43,0-.6l1.4-1.39c.17-.16.43-.16.6,0l.75.75c.46-.27.96-.48,1.48-.61V.43C5.59.19,5.78,0,6.02,0h1.97c.24,0,.43.19.43.43h0v1.07c.52.13,1.02.34,1.48.61l.75-.75c.08-.08.19-.12.3-.12.11,0,.22.04.3.12l1.4,1.4c.17.17.17.43,0,.6l-.75.75c.27.46.48.96.61,1.48h1.07c.24,0,.43.19.43.43h0v1.97c0,.24-.19.43-.43.43h-1.07c-.05.19-.11.38-.18.56,0,.02-.03.04-.05.06-.01,0-.03,0-.04,0-.01,0-.02,0-.03,0l-.62-.23s-.04-.03-.06-.05c0-.02,0-.05,0-.08.09-.25.17-.51.21-.77.04-.2.22-.35.42-.35h.98v-1.12h-.98c-.21,0-.38-.15-.42-.35-.12-.65-.37-1.26-.75-1.81-.12-.17-.09-.4.05-.54l.69-.69-.79-.79-.69.69c-.14.14-.37.17-.54.05-.54-.37-1.16-.63-1.81-.75-.2-.04-.35-.21-.35-.42v-.98h-1.12v.98c0,.21-.15.38-.35.42-.65.12-1.26.37-1.81.75-.17.12-.4.1-.54-.05l-.69-.69-.79.79.69.69c.15.14.17.37.05.54-.37.54-.63,1.16-.75,1.81-.04.2-.21.35-.42.35h-.98v1.12h.98c.2,0,.38.15.42.35.12.65.37,1.26.75,1.81.12.17.09.4-.05.54l-.69.69.79.79.69-.69c.14-.14.37-.17.54-.05.54.37,1.16.63,1.81.75.2.04.35.21.35.42v.98h1.12v-.99c0-.2.15-.38.35-.42.26-.05.52-.12.77-.21.01,0,.02,0,.03,0,.04,0,.08.03.09.07l.23.62s.01.05,0,.08c-.01.02-.03.04-.05.05-.18.07-.37.13-.56.17v1.07c0,.24-.19.43-.43.43h-1.98Z"/><path id="Path_353" class="cls-1" d="M7.99,13.9h-1.97c-.18,0-.33-.15-.33-.33h0v-1.15c-.56-.13-1.1-.36-1.6-.66l-.81.81c-.13.12-.33.12-.46,0l-1.4-1.39c-.13-.13-.13-.34,0-.46h0s.81-.81.81-.81c-.3-.5-.53-1.04-.66-1.6H.43c-.18,0-.33-.15-.33-.33v-1.97c0-.18.15-.33.33-.33h1.14c.13-.56.36-1.1.66-1.6l-.81-.81c-.13-.13-.13-.34,0-.46h0s1.4-1.4,1.4-1.4c.06-.06.14-.1.23-.1h0c.09,0,.17.04.23.1l.81.81c.5-.3,1.04-.53,1.6-.66V.42c0-.18.15-.33.33-.33h1.97c.18,0,.33.15.33.33h0v1.15c.56.13,1.1.36,1.6.66l.81-.81c.13-.12.33-.12.46,0l1.39,1.4c.13.13.13.34,0,.46h0s-.81.81-.81.81c.3.5.53,1.04.66,1.6h1.15c.18,0,.33.15.33.33h0v1.97c0,.18-.15.33-.33.33h-1.15c-.05.21-.11.42-.19.63l-.62-.23c.09-.26.17-.52.22-.79.03-.15.17-.27.32-.27h1.08v-1.31h-1.08c-.16,0-.29-.11-.32-.27-.12-.66-.38-1.29-.76-1.85-.09-.13-.07-.31.04-.42l.76-.76-.93-.93-.76.76c-.11.11-.29.13-.42.04-.56-.38-1.18-.64-1.85-.76-.16-.03-.27-.16-.27-.32V.75h-1.31v1.08c0,.16-.11.29-.27.32-.66.12-1.29.38-1.85.76-.13.09-.31.07-.42-.04l-.76-.76-.93.93.76.76c.11.11.13.29.04.42-.38.56-.64,1.18-.76,1.85-.03.15-.16.27-.32.27H.77v1.32h1.08c.16,0,.29.11.32.27.12.66.38,1.29.76,1.85.09.13.07.31-.04.42l-.76.76.93.93.76-.76c.11-.11.29-.13.42-.04.56.38,1.18.64,1.85.76.15.03.27.17.27.32v1.08h1.31v-1.09c0-.16.11-.29.27-.32.27-.05.53-.12.79-.22l.23.62c-.2.08-.41.14-.63.19v1.15c0,.18-.15.33-.33.33,0,0,0,0,0,0Z"/></g></g></g></g></svg>