<?xml version="1.0" encoding="UTF-8"?><svg id="Layer_1" xmlns="http://www.w3.org/2000/svg" viewBox="0 0 16 16"><defs><style>.cls-1{fill:none;}.cls-2{fill:#484660;}.cls-3{fill:#484660;}</style></defs><path class="cls-1" d="M9.8,8.23v-1.86l-1.78-1.73-1.08.02,1.6,1.6c.08.08.13.19.13.31v1c0,.11-.05.23-.13.31l-.67.67c-.08.08-.19.13-.31.13h-1c-.11,0-.23-.05-.31-.13l-1.6-1.59v1.15l1.78,1.73,1.8-.03c.11,0,.22.05.3.13l5.03,5.03.39-.39-5.69-5.69s-.04-.1,0-.14l.47-.47s.1-.04.14,0l5.69,5.69.38-.38-5.03-5.03c-.08-.08-.13-.19-.13-.31Z"/><path class="cls-2" d="M15.87,13.25l-5.21-5.17v-1.86c0-.12-.05-.23-.13-.31l-2-2c-.08-.08-.19-.13-.3-.13h-1.67c-.11,0-.23.05-.31.13l-.33.33h0c-.17.17-.17.45,0,.61l1.87,1.83.03.65-.4.44-.65.03-1.9-1.9h0c-.17-.17-.44-.17-.61,0l-.33.33c-.08.08-.13.19-.13.31v1.67c0,.11.05.22.13.31l2,2c.08.08.19.13.31.13l1.79-.03,5.24,5.24c.08.08.19.13.31.13.11,0,.22-.05.3-.13l2-2c.17-.17.17-.44,0-.61ZM14.57,13.95l-5.69-5.69s-.1-.04-.14,0l-.47.47s-.04.1,0,.14l5.69,5.69-.39.39-5.03-5.03c-.08-.08-.19-.13-.3-.13l-1.8.03-1.78-1.73v-1.15l1.6,1.59c.08.08.19.13.31.13h1c.11,0,.23-.05.31-.13l.67-.67c.08-.08.13-.19.13-.31v-1c0-.12-.05-.23-.13-.31l-1.6-1.6,1.08-.02,1.78,1.73v1.86c0,.11.05.22.13.31l5.03,5.03-.38.38Z"/><path class="cls-3" d="M8.73,11.52s-.02,0-.03,0c-.25.09-.51.16-.77.21-.2.04-.35.21-.35.42v.99h-1.12v-.98c0-.2-.14-.38-.35-.42-.65-.12-1.26-.37-1.81-.75-.17-.12-.4-.09-.54.05l-.69.69-.79-.79.69-.69c.15-.14.17-.37.05-.54-.37-.54-.63-1.16-.75-1.81-.04-.2-.22-.35-.42-.35h-.98v-1.12h.98c.21,0,.38-.15.42-.35.12-.65.37-1.26.75-1.81.12-.17.09-.4-.05-.54l-.69-.69.79-.79.69.69c.15.15.37.17.54.05.54-.37,1.16-.63,1.81-.75.2-.04.35-.21.35-.42v-.98h1.12v.98c0,.21.15.38.35.42.65.12,1.26.37,1.81.75.17.12.4.09.54-.05l.69-.69.79.79-.69.69c-.14.15-.17.37-.05.54.37.54.63,1.16.75,1.81.04.2.22.35.42.35h.98v1.12h-.98c-.21,0-.38.15-.42.35-.05.26-.12.52-.21.77,0,.02,0,.05,0,.08.01.02.03.04.06.05l.62.23s.02,0,.03,0c.01,0,.03,0,.04,0,.02-.01.04-.03.05-.06.07-.18.13-.37.18-.56h1.07c.24,0,.43-.19.43-.43v-1.97c0-.24-.19-.43-.43-.43h-1.07c-.13-.52-.34-1.02-.61-1.48l.75-.75c.17-.17.17-.43,0-.6l-1.4-1.4c-.08-.08-.19-.12-.3-.12-.11,0-.22.04-.3.12l-.75.75c-.46-.27-.96-.48-1.48-.61V.43c0-.24-.19-.43-.43-.43h-1.97c-.24,0-.43.19-.43.43v1.07c-.52.13-1.02.34-1.48.61l-.75-.75c-.17-.16-.43-.16-.6,0l-1.4,1.39c-.16.17-.16.43,0,.6l.75.75c-.27.46-.48.96-.61,1.48H.43C.19,5.58,0,5.78,0,6.01v1.97c0,.24.19.43.43.43h1.07c.13.52.34,1.02.61,1.48l-.76.75c-.16.17-.16.43,0,.6l1.4,1.4c.17.16.43.16.6,0l.75-.75c.46.27.96.48,1.48.61v1.07h0c0,.24.19.43.43.43h1.98c.24,0,.43-.19.43-.43v-1.07c.19-.05.38-.11.56-.17.02,0,.04-.03.05-.05.01-.02.01-.05,0-.08l-.23-.62s-.05-.06-.09-.07Z"/></svg>