<?xml version="1.0" encoding="UTF-8"?><svg id="Layer_1" xmlns="http://www.w3.org/2000/svg" viewBox="0 0 16 16"><defs><style>.cls-1{fill:#484660;}.cls-2{fill:#484660;}</style></defs><g id="Group_16306"><g id="Group_16296"><g id="Group_232"><g id="Group_201"><path id="Path_400" class="cls-1" d="M6.31,13.14c-.33,0-.59-.28-.59-.61,0-.08.02-.16.05-.23l1.22-2.75h-1.74c-.23,0-.45-.14-.54-.36-.1-.22-.06-.47.1-.64l2.65-2.95c.11-.13.28-.2.45-.2h1.67c.33,0,.6.27.6.6,0,.16-.07.32-.18.43l-.79.77h1.52c.33,0,.6.27.6.6,0,.15-.06.29-.16.4l-4.41,4.76c-.12.12-.27.18-.44.19h0ZM6.46,12.6h0ZM6.21,12.44h0ZM5.61,8.79h2.54l-1.32,2.98,3.56-3.83h-3.02l1.85-1.8h-1.23l-2.38,2.65ZM5.38,9.04h0ZM7.92,6.14h0ZM9.59,6.14h0ZM9.49,5.88h0Z"/></g><path id="Path_401" class="cls-2" d="M12.75,4.54L8.35.15c-.2-.2-.51-.2-.71,0L3.25,4.54c-2.62,2.63-2.62,6.88,0,9.5,2.63,2.62,6.88,2.62,9.5,0h0c2.62-2.62,2.62-6.87,0-9.49ZM12.03,13.32c-2.23,2.23-5.85,2.23-8.08,0-2.23-2.23-2.23-5.85,0-8.08h0L7.99,1.21l4.04,4.03c2.23,2.23,2.23,5.84,0,8.07h0Z"/></g></g></g></svg>