<?xml version="1.0" encoding="UTF-8"?><svg id="Layer_1" xmlns="http://www.w3.org/2000/svg" viewBox="0 0 16 16"><defs><style>.cls-1{fill:#484660;}.cls-2{fill:#484660;}</style></defs><g id="Group_16308"><g id="Group_16297"><path id="Path_412" class="cls-2" d="M11.18,2.76c-.25.02-.47-.17-.48-.42-.02-.25.17-.47.42-.48.25-.02.47.17.48.42,0,.01,0,.02,0,.03,0,.24-.18.44-.42.45Z"/><path id="Path_413" class="cls-2" d="M12.55,2.76c-.25.02-.47-.17-.48-.42-.02-.25.17-.47.42-.48.25-.02.47.17.48.42,0,.01,0,.02,0,.03,0,.24-.18.44-.42.45Z"/><path id="Path_414" class="cls-2" d="M13.92,2.76c-.25.02-.47-.17-.48-.42-.02-.25.17-.47.42-.48.25-.02.47.17.48.42,0,.01,0,.02,0,.03,0,.24-.18.44-.42.45Z"/><path id="Path_415" class="cls-2" d="M15.61.39L.39.37c-.1,0-.2.04-.28.11C.04.56,0,.66,0,.76v3.11s.01,11.36.01,11.36c0,.1.04.2.11.27.07.07.17.12.28.11h13.29c.22,0,.39-.17.39-.39,0-.22-.17-.39-.39-.39H.79V4.24l14.43.02v9.5c0,.22.17.39.39.39.22,0,.39-.17.39-.39h0V.78c0-.22-.18-.39-.39-.39h0ZM.78,1.15l14.43.02v2.29H.78V1.15Z"/><path id="Path_416" class="cls-1" d="M15.54,13.06l-3.52-3.47c.28-1.01,0-2.09-.72-2.84-.56-.54-1.32-.84-2.1-.83-.42,0-.83.08-1.22.23-.2.06-.3.27-.24.47.02.06.05.11.09.15l1.48,1.46-.18.68-.63.21-1.55-1.53c-.08-.07-.18-.11-.29-.1h-.01c-.11.01-.21.07-.27.17l-.11.18s-.04.1-.05.11c-.37,1.48.35,3.01,1.71,3.68.36.16.76.24,1.15.24.29,0,.58-.04.86-.12l3.47,3.42c.48.47,1.24.47,1.72,0l.4-.4c.47-.47.48-1.23.01-1.7,0,0,0,0-.01-.01h0ZM13.94,14.64l-3.64-3.58c-.07-.07-.16-.11-.26-.11-.04,0-.09.01-.13.02-.26.1-.54.15-.82.15-.29,0-.59-.06-.85-.18-.9-.44-1.44-1.39-1.36-2.39l1.17,1.15c.1.1.24.14.38.13h.07l1-.25c.16-.05.27-.17.31-.33l.27-1c.03-.16-.01-.33-.13-.44l-1.13-1.12c.13-.02.26-.03.38-.03,1.17-.05,2.16.87,2.2,2.04.01.3-.04.59-.15.87-.05.13-.01.28.09.38l3.68,3.62c.18.17.18.46,0,.64,0,0,0,0,0,0l-.4.4c-.19.18-.49.18-.67,0h0Z"/></g></g></svg>