<?xml version="1.0" encoding="UTF-8"?><svg id="specificConfiguration" xmlns="http://www.w3.org/2000/svg" xmlns:xlink="http://www.w3.org/1999/xlink" viewBox="0 0 16 16"><defs><style>.cls-1{fill:none;}.cls-2{fill:#434BA2;}.cls-3{clip-path:url(#clippath);}</style><clipPath id="clippath"><rect class="cls-1" x=".12" width="15.75" height="16"/></clipPath></defs><g class="cls-3"><g id="Group_16362"><path id="Path_61495" class="cls-2" d="M8.45,10.37l-.32-.07c-.05-.17-.12-.33-.2-.54l.16-.22c.27-.35.25-.84-.05-1.17-.1-.1-.2-.2-.3-.3-.17-.15-.38-.23-.61-.23-.2,0-.39.06-.55.18l-.28.17c-.15-.08-.32-.15-.52-.25l-.04-.27c-.06-.44-.42-.77-.86-.79h-.19c-.08,0-.16,0-.24,0-.43.02-.79.35-.85.78l-.08.32c-.17.05-.33.12-.54.2l-.22-.16c-.16-.13-.35-.19-.55-.2-.23,0-.45.09-.62.24-.1.1-.2.2-.3.31-.29.32-.31.81-.05,1.15l.14.19.09-.02-.06.11c-.08.14-.14.3-.18.45l-.06.05v.02l-.27.04c-.44.06-.78.42-.8.86,0,.14,0,.28,0,.43.02.43.35.79.78.85l.32.07c.05.17.12.33.2.54l-.16.22c-.27.35-.25.84.05,1.17.1.1.2.2.3.3.32.29.81.31,1.15.05l.28-.17c.15.08.32.15.52.25l.04.27c.06.44.42.77.86.79h.19c.08,0,.16,0,.24,0,.43-.02.79-.35.85-.78l.03-.19.05-.12c.17-.05.33-.12.54-.2l.22.16c.16.12.35.19.55.19.23,0,.45-.09.62-.24.1-.1.2-.2.3-.3.29-.32.31-.81.05-1.15l-.17-.28c.08-.14.14-.29.18-.45l.06-.05v-.02s.27-.04.27-.04c.44-.06.77-.42.79-.86,0-.14,0-.28,0-.43-.02-.43-.35-.79-.78-.85M7.32,12.32c-.04.12-.09.25-.15.36-.16.31-.12.69.09.97l.16.28c-.09.1-.19.19-.31.25l-.22-.16c-.28-.21-.65-.24-.96-.09-.12.06-.24.11-.36.15-.33.11-.57.4-.62.74l-.09.31c-.06,0-.13,0-.19,0l-.21-.05-.04-.27c-.05-.34-.29-.63-.62-.74-.12-.04-.24-.09-.36-.15-.31-.16-.69-.12-.97.09l-.28.16c-.1-.09-.19-.19-.25-.31l.17-.22c.21-.28.24-.65.09-.96-.06-.12-.11-.24-.15-.36-.11-.33-.4-.57-.74-.62l-.32-.09c-.01-.13,0-.27.05-.4l.27-.04c.34-.05.63-.29.74-.62.04-.12.09-.25.15-.36.16-.31.12-.69-.09-.97l-.16-.28c.09-.1.19-.19.31-.25l.22.17c.16.12.35.18.55.18.14,0,.28-.03.41-.1.12-.06.24-.11.36-.15.33-.11.57-.39.62-.74l.09-.32h.19l.2.05.04.27c.05.34.29.63.62.74.12.04.24.09.36.15.31.16.69.13.97-.09l.28-.17c.1.09.19.19.25.31l-.17.22c-.21.28-.24.65-.08.96.06.12.11.24.15.36.11.33.4.57.74.62l.32.09c.01.13,0,.27-.05.4l-.27.04c-.34.05-.63.29-.74.62"/><path id="Path_61496" class="cls-2" d="M15.24,7.22l-.28-.14c-.09-.04-.15-.14-.15-.24,0-.14,0-.29,0-.43,0-.1.05-.2.15-.24l.28-.13c.5-.24.75-.8.59-1.33l-.08-.24c-.15-.45-.57-.75-1.05-.76-.07,0-.14,0-.21.02l-.36.06c-.09,0-.17-.04-.22-.11-.08-.12-.16-.24-.25-.35-.07-.08-.07-.19-.02-.28l.15-.27c.27-.48.14-1.09-.3-1.43l-.21-.15c-.19-.13-.41-.2-.63-.2-.31,0-.6.13-.81.35l-.22.23c-.05.05-.12.08-.19.08-.03,0-.06,0-.09-.01-.14-.05-.27-.1-.41-.13-.1-.03-.18-.11-.19-.22l-.04-.3c-.07-.55-.53-.96-1.09-.98h-.26c-.55,0-1.01.42-1.08.97l-.04.31c-.01.1-.08.19-.18.22-.14.04-.27.08-.41.13-.03.01-.06.02-.09.02-.07,0-.14-.03-.19-.08l-.21-.22c-.38-.4-1-.47-1.45-.15l-.21.15c-.44.33-.57.94-.3,1.42l.15.28c.05.09.04.2-.02.28-.09.11-.18.23-.25.35-.06.08-.15.12-.25.11h-.02l-.3-.06c-.07-.01-.14-.02-.21-.02-.47,0-.9.3-1.05.75l-.08.25c-.16.53.09,1.09.59,1.33l.29.14s.06.04.08.06c.16.17.42.19.6.03.09-.08.14-.18.14-.3,0-.11-.03-.22-.11-.31-.1-.11-.22-.2-.36-.27l-.28-.13c-.11-.05-.17-.18-.14-.31l.07-.22c.04-.1.14-.17.24-.17h.09s.27.06.27.06c.07.01.13.02.2.02.37,0,.72-.19.93-.5.06-.1.13-.19.21-.28.28-.35.32-.84.11-1.23l-.15-.27c-.06-.11-.03-.25.07-.33l.19-.13s.09-.04.14-.04c.08,0,.15.04.2.1l.2.21c.31.33.78.43,1.2.28.11-.04.22-.08.33-.11.43-.12.75-.49.81-.94l.04-.31c.02-.13.13-.23.26-.23h.23c.13,0,.23.1.25.23l.04.32c.06.44.38.81.81.93.11.03.22.07.33.11.42.16.89.05,1.2-.28l.22-.23c.05-.05.12-.08.19-.08.05,0,.1.02.15.05l.18.13c.1.08.13.23.06.34l-.15.27c-.21.39-.17.87.11,1.22.07.09.14.18.2.28.21.31.56.5.93.5.07,0,.14,0,.21-.02l.35-.06c.11,0,.21.07.24.17l.07.21c.03.13-.04.27-.17.32l-.26.12c-.4.19-.65.61-.63,1.05,0,.12,0,.23,0,.35-.02.45.23.87.64,1.06l.28.13c.12.05.17.18.14.31l-.07.22c-.04.11-.16.18-.28.17l-.33-.06c-.07-.01-.13-.02-.2-.02-.37,0-.72.19-.93.5-.06.1-.13.19-.21.28-.28.35-.32.84-.1,1.23l.15.27c.06.11.03.25-.07.33l-.18.14c-.11.07-.25.05-.34-.04l-.22-.23c-.31-.33-.78-.43-1.2-.27-.11.04-.22.07-.33.11-.43.12-.75.49-.81.94l-.04.31c-.01.11-.09.2-.2.22-.23.05-.38.28-.32.51.05.19.22.33.42.33h.1c.46-.11.8-.49.86-.95l.04-.31c.01-.1.08-.19.18-.22.14-.04.27-.08.41-.13.03-.01.06-.02.09-.02.07,0,.14.03.19.08l.21.22c.21.22.51.35.82.35.23,0,.45-.07.64-.2l.21-.15c.44-.33.57-.94.31-1.42l-.15-.28c-.05-.09-.04-.2.02-.28.09-.11.18-.23.25-.35.06-.08.15-.12.24-.11h.02l.3.06c.07.01.14.02.21.02.48,0,.9-.3,1.05-.75l.08-.25c.16-.53-.09-1.09-.59-1.33"/><path id="Path_61497" class="cls-2" d="M4.67,9.64c-1,0-1.81.8-1.81,1.8s.8,1.81,1.8,1.81c1,0,1.81-.8,1.81-1.8,0,0,0,0,0,0,0-.99-.81-1.8-1.8-1.8M4.67,12.39c-.52,0-.95-.42-.95-.95s.42-.95.95-.95.95.42.95.95c0,.52-.42.95-.95.95"/><path id="Path_61498" class="cls-2" d="M9.49,8.95c-.09,0-.17,0-.3-.02-.24,0-.43.19-.43.42,0,.22.17.41.39.43.11.01.23.02.35.02,1.76,0,3.18-1.42,3.18-3.18s-1.42-3.18-3.18-3.18c-1.76,0-3.18,1.42-3.18,3.18h0c0,.12,0,.23.02.35.03.23.23.4.47.38h0c.11-.01.22-.07.29-.16.07-.09.1-.2.09-.32,0-.08-.01-.17-.01-.25,0-1.28,1.04-2.33,2.32-2.33s2.33,1.04,2.33,2.32c0,1.28-1.04,2.33-2.32,2.33h0"/></g></g></svg>