<?xml version="1.0" encoding="UTF-8"?><svg id="Layer_1" xmlns="http://www.w3.org/2000/svg" xmlns:xlink="http://www.w3.org/1999/xlink" viewBox="0 0 16 16"><defs><style>.cls-1{fill:none;}.cls-2{fill-rule:evenodd;}.cls-2,.cls-3{fill:#434BA2;}.cls-4{clip-path:url(#clippath);}</style><clipPath id="clippath"><rect class="cls-1" y=".39" width="16" height="15.21"/></clipPath></defs><g id="status"><g class="cls-4"><g id="Group_16420"><path id="Path_61599" class="cls-3" d="M2.29,12.75c-.32.01-.56.28-.55.6.01.3.25.54.55.55h3.43c.32-.01.56-.28.55-.6-.01-.3-.25-.54-.55-.55h-3.43Z"/><path id="Path_61600" class="cls-2" d="M2.29,11.04C1.02,11.04,0,12.06,0,13.32s1.02,2.29,2.29,2.29h11.43c1.26,0,2.29-1.02,2.29-2.29s-1.02-2.29-2.29-2.29H2.29ZM1.14,13.32c0-.63.51-1.14,1.14-1.14h11.43c.63,0,1.14.51,1.14,1.14s-.51,1.14-1.14,1.14H2.29c-.63,0-1.14-.51-1.14-1.14"/><path id="Path_61601" class="cls-3" d="M13.71,7.43c.32.01.56.28.55.6-.01.3-.25.54-.55.55h-3.43c-.32-.01-.56-.28-.55-.6.01-.3.25-.54.55-.55h3.43Z"/><path id="Path_61602" class="cls-2" d="M13.71,5.71c1.26,0,2.29,1.02,2.29,2.28,0,1.26-1.02,2.29-2.28,2.29H2.29C1.02,10.29,0,9.26,0,8c0-1.26,1.02-2.29,2.29-2.29h11.43ZM14.86,8c0-.63-.51-1.14-1.14-1.14H2.29c-.63,0-1.14.51-1.14,1.14,0,.63.51,1.14,1.14,1.14h11.43c.63,0,1.14-.51,1.14-1.14"/><path id="Path_61603" class="cls-3" d="M13.71,2.11c.32.01.56.28.55.6-.01.3-.25.54-.55.55h-3.43c-.32-.01-.56-.28-.55-.6.01-.3.25-.54.55-.55h3.43Z"/><path id="Path_61604" class="cls-2" d="M13.71.39c1.26,0,2.29,1.02,2.29,2.29,0,1.26-1.02,2.29-2.29,2.29H2.29C1.02,4.96,0,3.94,0,2.68,0,1.42,1.02.39,2.29.39h11.43ZM14.86,2.68c0-.63-.51-1.14-1.14-1.14H2.29c-.63,0-1.14.51-1.14,1.14,0,.63.51,1.14,1.14,1.14h11.43c.63,0,1.14-.51,1.14-1.14"/></g></g></g></svg>