<?xml version="1.0" encoding="UTF-8"?><svg id="Layer_1" xmlns="http://www.w3.org/2000/svg" xmlns:xlink="http://www.w3.org/1999/xlink" viewBox="0 0 16 16"><defs><style>.cls-1{fill:none;}.cls-2{fill:#484660;}.cls-3{fill:#484660;}.cls-4{clip-path:url(#clippath);}</style><clipPath id="clippath"><rect class="cls-1" y="1.06" width="16" height="13.88"/></clipPath></defs><g id="Group_16311"><g id="Group_16300"><g class="cls-4"><g id="Group_16301"><path id="Path_61432" class="cls-3" d="M7.36,13.66H1.22c-.08,0-.14-.06-.14-.14v-1.04c.08-.67.49-1.25,1.08-1.57,1.57-.92,3.38-1.37,5.2-1.3.3.01.55-.22.56-.52.01-.3-.22-.55-.52-.56-.02,0-.03,0-.05,0-2.04-.07-4.05.45-5.81,1.49-.9.51-1.48,1.43-1.55,2.46v1.04c0,.67.55,1.22,1.22,1.22h6.14c.3.01.55-.22.56-.52.01-.3-.22-.55-.52-.56-.02,0-.03,0-.05,0h0Z"/><path id="Path_61433" class="cls-2" d="M13.24,9.86l-1.63,1.65-.64-.65c-.22-.2-.56-.19-.76.03-.19.2-.19.52,0,.73l1.01,1.01c.21.21.55.21.76,0l2.03-2.02h-.01c.21-.2.21-.54,0-.75-.21-.21-.55-.21-.76,0"/><path id="Path_61434" class="cls-2" d="M12.11,14.94c-2.15,0-3.89-1.74-3.89-3.89,0-2.15,1.74-3.89,3.89-3.89,2.15,0,3.89,1.74,3.89,3.89,0,2.15-1.74,3.89-3.89,3.89M12.11,8.26c-1.54,0-2.8,1.25-2.8,2.79,0,1.54,1.25,2.8,2.79,2.8,1.54,0,2.8-1.25,2.8-2.79,0,0,0,0,0,0h0c0-1.54-1.25-2.79-2.79-2.8"/><path id="Path_61435" class="cls-3" d="M7.83,7.8c1.86,0,3.37-1.51,3.37-3.37s-1.51-3.37-3.37-3.37-3.37,1.51-3.37,3.37c0,0,0,0,0,0,0,1.86,1.51,3.37,3.37,3.37M7.82,2.06h.01c1.31,0,2.37,1.07,2.36,2.38,0,1.31-1.07,2.37-2.38,2.36-1.31,0-2.37-1.07-2.36-2.38,0-1.3,1.06-2.36,2.36-2.36"/></g></g></g></g></svg>