<?xml version="1.0" encoding="UTF-8"?><svg id="Layer_1" xmlns="http://www.w3.org/2000/svg" viewBox="0 0 16 16"><defs><style>.cls-1{fill:#484660;}.cls-2{fill:#484660;}</style></defs><g id="Group_16312"><path id="Path_485" class="cls-2" d="M4.17,16H0v-4.17h4.17v4.17ZM.7,15.3h2.78v-2.78H.7v2.78Z"/><path id="Path_486" class="cls-2" d="M8,16c-1.15,0-2.09-.93-2.09-2.09s.93-2.09,2.09-2.09,2.09.93,2.09,2.09c0,1.15-.94,2.09-2.09,2.09ZM8,12.52c-.77,0-1.39.62-1.39,1.39s.62,1.39,1.39,1.39c.77,0,1.39-.62,1.39-1.39,0-.77-.62-1.39-1.39-1.39Z"/><path id="Path_487" class="cls-2" d="M16,16h-4.17v-4.17h4.17v4.17ZM12.52,15.3h2.78v-2.78h-2.78v2.78Z"/><path id="Path_488" class="cls-2" d="M7.65,7.65h.7v4.52h-.7v-4.52Z"/><path id="Path_489" class="cls-2" d="M14.26,12.17h-.7v-1.74H2.44v1.74h-.7v-2.43h12.52v2.43Z"/><g id="Group_245"><path id="Path_490" class="cls-1" d="M12,8h-8V0h8v8ZM4.7,7.3h6.61V.69h-6.61v6.61Z"/><path id="Path_491" class="cls-1" d="M9.39,2.78h-2.78V.35h.7v1.74h1.39V.35h.7v2.43Z"/><path id="Path_492" class="cls-1" d="M6.61,3.48h2.78v.7h-2.78v-.7Z"/><path id="Path_493" class="cls-1" d="M6.61,4.87h2.78v.7h-2.78v-.7Z"/></g></g></svg>