<?xml version="1.0" encoding="UTF-8"?><svg id="templates" xmlns="http://www.w3.org/2000/svg" xmlns:xlink="http://www.w3.org/1999/xlink" viewBox="0 0 16 16"><defs><style>.cls-1{fill:none;}.cls-2{fill:#434BA2;}.cls-3{clip-path:url(#clippath);}</style><clipPath id="clippath"><rect class="cls-1" width="16" height="16"/></clipPath></defs><g class="cls-3"><g id="Group_16359"><path id="Path_61489" class="cls-2" d="M3.27,16c-1.81,0-3.27-1.47-3.27-3.27V3.27C0,1.47,1.47,0,3.27,0h9.45c1.81,0,3.27,1.47,3.27,3.27v9.45c0,1.81-1.47,3.27-3.27,3.27H3.27ZM6.58,14.85h6.14c1.17,0,2.12-.95,2.13-2.13v-6.17H6.58v8.3ZM1.15,12.73c0,1.17.95,2.13,2.13,2.13h2.16V6.55H1.15v6.17ZM3.27,1.15c-1.17,0-2.13.95-2.13,2.13v2.13h13.7v-2.13c0-1.17-.95-2.12-2.13-2.13H3.27Z"/></g></g></svg>