<?xml version="1.0" encoding="UTF-8"?><svg id="Layer_1" xmlns="http://www.w3.org/2000/svg" viewBox="0 0 16 16"><defs><style>.cls-1{fill:#434BA2;}</style></defs><g id="Group_16314"><path id="Path_557" class="cls-1" d="M15.12,10.94c-1.16-1.15-3.03-1.15-4.19,0-1.15,1.17-1.14,3.05.03,4.2.55.54,1.29.85,2.06.86h.04c1.64-.03,2.95-1.38,2.92-3.03-.01-.76-.32-1.49-.85-2.03h0ZM11.59,14.46c-.78-.8-.77-2.08.03-2.86.36-.35.85-.56,1.35-.58h.08c1.12.03,2,.97,1.96,2.08-.02.51-.22.99-.58,1.36-.79.79-2.06.79-2.85,0h0Z"/><path id="Path_558" class="cls-1" d="M5.06.88C3.9-.27,2.03-.27.87.88c-1.15,1.17-1.14,3.05.03,4.2.54.53,1.27.84,2.03.86h.07c1.64-.03,2.95-1.38,2.92-3.03-.01-.76-.32-1.49-.85-2.03h0ZM2.96.96c.53,0,1.04.21,1.42.58.59.57.76,1.44.44,2.19-.4,1.03-1.56,1.53-2.59,1.13-.26-.1-.5-.26-.7-.46-.79-.79-.79-2.06,0-2.85.38-.38.89-.59,1.42-.59h0Z"/><path id="Path_559" class="cls-1" d="M15.75,1.84C15.28.74,14.21.03,13.02,0c-.79.01-1.54.33-2.1.88-1.03,1.03-1.16,2.65-.31,3.83l-5.92,5.92c-.37-.27-.8-.45-1.26-.52v-3.54c0-.26-.22-.47-.48-.47-.26,0-.46.21-.47.47v3.53C.94,10.36-.15,11.77,0,13.33c.07.68.37,1.32.85,1.8.54.56,1.28.87,2.05.86,1.47.01,2.72-1.04,2.97-2.48h3.53c.26,0,.47-.21.47-.47s-.21-.47-.47-.47h-3.53c-.07-.45-.25-.89-.52-1.26l5.93-5.93c1.18.85,2.81.72,3.83-.31.86-.84,1.11-2.13.63-3.23ZM4.39,14.46c-.79.79-2.06.79-2.85,0-.78-.8-.77-2.08.03-2.86.36-.35.85-.56,1.35-.58h.08c1.12.03,2,.97,1.96,2.09-.02.51-.22.99-.58,1.35h0ZM11.6,4.4c-.78-.79-.78-2.07.01-2.85.78-.78,2.05-.78,2.83,0,.59.57.76,1.44.44,2.19-.4,1.03-1.56,1.53-2.59,1.13-.26-.1-.5-.26-.7-.46h0Z"/></g></svg>