<?xml version="1.0" encoding="UTF-8"?><svg id="Layer_1" xmlns="http://www.w3.org/2000/svg" viewBox="0 0 16 16"><defs><style>.cls-1{fill:#484660;}.cls-2{fill:#484660;}</style></defs><g id="Group_16326"><path id="Path_565" class="cls-1" d="M.31,7.96c-.41.41-.41,1.07,0,1.47,0,0,0,0,0,0l.7.7c.41.41,1.07.41,1.47,0,0,0,0,0,0,0l3.43-3.43,2.04,2.04c.41.41,1.07.41,1.48,0l3.43-3.43.65.65c.41.41,1.07.41,1.47,0,.15-.15.26-.35.29-.57l.7-4.17c.09-.57-.29-1.11-.86-1.2-.11-.02-.23-.02-.34,0l-4.17.7c-.57.09-.95.63-.86,1.2.04.21.14.41.29.57l.65.65-2,2-2.04-2.04c-.41-.41-1.07-.41-1.47,0L.32,7.96h-.01ZM.8,8.45L5.66,3.58c.14-.14.36-.14.49,0l2.29,2.29c.14.14.36.14.49,0l2.49-2.49c.14-.14.14-.36,0-.49l-.9-.9c-.14-.14-.14-.36,0-.49.05-.05.12-.08.19-.1l4.17-.7c.19-.03.37.1.4.28,0,.04,0,.08,0,.12l-.7,4.17c-.03.19-.21.32-.4.29-.07-.01-.14-.05-.19-.1l-.9-.9c-.14-.14-.36-.14-.49,0l-3.68,3.68c-.14.14-.36.14-.49,0l-2.29-2.29c-.14-.14-.36-.14-.49,0l-3.68,3.68c-.13.14-.35.14-.49,0,0,0,0,0,0,0l-.7-.7c-.14-.13-.14-.35,0-.49,0,0,0,0,0,0h.01Z"/><path id="Path_566" class="cls-2" d="M3.48,14.95v-2.78c0-.58-.47-1.04-1.04-1.04h-1.39c-.58,0-1.04.47-1.04,1.04h0v2.78c0,.58.47,1.04,1.04,1.04h1.39c.58,0,1.04-.47,1.04-1.04ZM2.78,12.17v2.78c0,.19-.16.35-.35.35h-1.39c-.19,0-.35-.15-.35-.35h0v-2.78c0-.19.16-.35.35-.35h1.39c.19,0,.35.15.35.34,0,0,0,0,0,0h0Z"/><path id="Path_567" class="cls-2" d="M7.65,10.08c0-.57-.46-1.04-1.04-1.04h-1.39c-.58,0-1.04.47-1.04,1.04h0v4.87c0,.58.47,1.04,1.04,1.04h1.39c.57,0,1.04-.46,1.04-1.04h0s0-4.87,0-4.87ZM6.95,10.08v4.87c0,.19-.16.35-.35.35h-1.39c-.19,0-.35-.16-.35-.35v-4.87c0-.19.16-.35.35-.35h1.39c.09,0,.18.04.25.1.06.07.1.16.1.25h0Z"/><path id="Path_568" class="cls-2" d="M11.82,10.78c0-.58-.47-1.04-1.04-1.04h-1.39c-.58,0-1.04.47-1.04,1.04h0v4.17c0,.58.47,1.04,1.04,1.04h1.39c.58,0,1.04-.47,1.04-1.04v-4.17ZM11.12,10.78v4.17c0,.19-.16.35-.35.35h-1.39c-.19,0-.35-.16-.35-.35v-4.17c0-.19.16-.35.35-.35h1.39c.19,0,.35.15.35.34,0,0,0,0,0,0h0Z"/><path id="Path_569" class="cls-2" d="M15.99,8c0-.57-.46-1.04-1.04-1.04h-1.4c-.58,0-1.04.47-1.04,1.04v6.95c0,.58.47,1.04,1.04,1.04h1.39c.57,0,1.04-.46,1.04-1.04h0v-6.96ZM15.29,8v6.95c0,.19-.16.35-.35.35h-1.39c-.19,0-.35-.16-.35-.35v-6.95c0-.19.16-.35.35-.35h1.39c.19,0,.35.16.35.35Z"/></g></svg>