<?xml version="1.0" encoding="UTF-8"?><svg id="Layer_1" xmlns="http://www.w3.org/2000/svg" viewBox="0 0 16 16"><defs><style>.cls-1{fill:#434BA2;}</style></defs><g id="uploadMIB"><path id="Path_816" class="cls-1" d="M15.27,8.73c-.4,0-.73.32-.73.72h0v3.07c0,1.12-.91,2.02-2.03,2.03H3.48c-1.12,0-2.02-.91-2.03-2.03v-3.06c.01-.4-.3-.74-.7-.75-.4-.01-.74.3-.75.7,0,.02,0,.04,0,.05v3.06c0,1.92,1.56,3.48,3.48,3.48h9.04c1.92,0,3.48-1.56,3.48-3.48v-3.06c0-.4-.33-.73-.73-.73Z"/><path id="Path_817" class="cls-1" d="M4.15,5.61l3.12-3.12v9.15c0,.4.33.73.73.72.4,0,.72-.33.72-.72V2.48l3.12,3.12c.29.28.75.27,1.03-.02.27-.28.27-.73,0-1.01L8.51.21c-.28-.28-.74-.28-1.03,0L3.12,4.58c-.28.28-.28.74,0,1.03.28.28.74.28,1.03,0h0Z"/></g></svg>