<?xml version="1.0" encoding="UTF-8"?><svg id="Layer_1" xmlns="http://www.w3.org/2000/svg" xmlns:xlink="http://www.w3.org/1999/xlink" viewBox="0 0 16 16"><defs><style>.cls-1{fill:none;}.cls-2{fill:#484660;}.cls-3{fill:#484660;}.cls-4{clip-path:url(#clippath);}</style><clipPath id="clippath"><rect class="cls-1" y=".07" width="16" height="15.87"/></clipPath></defs><g id="userSchedules"><g class="cls-4"><g id="Group_16429"><path id="Path_61631" class="cls-3" d="M14.67,1.19h-1.13v-.56c.01-.31-.23-.58-.54-.59s-.58.23-.59.54c0,.02,0,.03,0,.05v.56h-2.26v-.56c.01-.31-.23-.58-.54-.59s-.58.23-.59.54c0,.02,0,.03,0,.05v.56h-2.26v-.56c0-.31-.25-.56-.56-.56-.31,0-.56.25-.56.56v.56h-2.26v-.56c0-.31-.25-.56-.56-.56-.31,0-.56.25-.56.56v.56h-1.13c-.62,0-1.13.51-1.13,1.13v12.41c0,.62.51,1.13,1.13,1.13h5.28c.31-.01.55-.28.54-.59-.01-.29-.25-.53-.54-.54H1.13V5.71h13.54v.76c-.01.31.23.57.54.59.31.01.57-.23.59-.54h0s0-.03,0-.05V2.32c0-.62-.5-1.13-1.13-1.13M1.13,4.58v-2.26h1.13c-.01.31.23.57.54.59.31.01.57-.23.59-.54h0v-.05h2.26c-.01.31.23.57.54.59.31.01.57-.23.59-.54v-.05h2.26c-.01.31.23.58.54.59.31.01.58-.23.59-.54,0-.02,0-.03,0-.05h2.26c-.01.31.23.58.54.59.31.01.58-.23.59-.54,0-.02,0-.03,0-.05h1.13v2.26H1.13Z"/><path id="Path_61632" class="cls-2" d="M12.26,7.26c-1.22,0-2.21.99-2.2,2.21s.99,2.21,2.21,2.2,2.21-.99,2.2-2.21c0-1.22-.99-2.2-2.2-2.2h0"/><path id="Path_61633" class="cls-2" d="M12.62,12.05h-1.31c-1.81-.06-3.32,1.36-3.38,3.17.01.41.35.72.76.71h6.55c.41.01.75-.3.76-.71,0,0,0,0,0,0h0c-.06-1.81-1.57-3.23-3.38-3.17M15.67,15.53s0,0,0,0h0Z"/></g></g></g></svg>