<?xml version="1.0" encoding="UTF-8"?><svg id="Layer_1" xmlns="http://www.w3.org/2000/svg" xmlns:xlink="http://www.w3.org/1999/xlink" viewBox="0 0 16 16"><defs><style>.cls-1{fill:none;}.cls-2{fill-rule:evenodd;}.cls-2,.cls-3{fill:#434BA2;}.cls-4{clip-path:url(#clippath);}</style><clipPath id="clippath"><rect class="cls-1" y="1.51" width="16" height="12.98"/></clipPath></defs><g id="users"><g class="cls-4"><g id="Group_16049"><path id="Path_61206" class="cls-2" d="M10.41,1.51c1.82,0,3.3,1.48,3.3,3.3s-1.48,3.3-3.3,3.3-3.3-1.48-3.3-3.3,1.48-3.3,3.3-3.3h0M10.41,2.48c-1.28,0-2.32,1.04-2.32,2.32s1.04,2.32,2.32,2.32,2.32-1.04,2.32-2.32h0c0-1.28-1.04-2.32-2.32-2.31"/><path id="Path_61207" class="cls-2" d="M16,13.42c-.02.61-.53,1.09-1.14,1.07H5.07c-.61.02-1.12-.46-1.14-1.07.09-2.71,2.35-4.83,5.06-4.74h1.96c2.7-.09,4.97,2.04,5.06,4.74M15.53,13.86s-.01,0-.01.01h.01ZM5.06,13.32c0,.08.07.15.15.15h0s9.5,0,9.5,0c.08,0,.15-.06.16-.15-.07-2.11-1.84-3.77-3.95-3.7h-1.9c-2.11-.06-3.88,1.59-3.95,3.7"/><path id="Path_61208" class="cls-3" d="M6.49,3.01v-.9c-.26-.08-.54-.13-.81-.13h0c-1.59-.02-2.9,1.25-2.93,2.84-.02,1.59,1.25,2.9,2.84,2.93.31,0,.61-.04.9-.13v-.9c-1.03.45-2.22-.02-2.67-1.04-.45-1.03.02-2.22,1.04-2.67.26-.11.53-.17.82-.17h0c.28,0,.56.06.81.17"/><path id="Path_61209" class="cls-3" d="M4.42,8.25c-2.37-.07-4.34,1.78-4.42,4.15.02.53.47.95,1,.94h2.23c-.02-.18-.03-.35-.03-.53,0-.12.01-.24.02-.36H1.12c-.07,0-.13-.05-.13-.13,0,0,0,0,0,0h0c.06-1.85,1.61-3.29,3.45-3.24h.77c.28-.31.59-.59.93-.82h-1.73Z"/></g></g></g></svg>