<?xml version="1.0" encoding="UTF-8"?><svg id="Layer_1" xmlns="http://www.w3.org/2000/svg" viewBox="0 0 16 16"><defs><style>.cls-1{fill-rule:evenodd;}.cls-1,.cls-2{fill:#434BA2;}</style></defs><g id="Group_16323"><path id="Path_580" class="cls-2" d="M1.25,2.65v9.55c0,1.47,1.19,2.65,2.66,2.66h3.24c.29,0,.53-.24.53-.53s-.24-.53-.53-.53h-3.24c-.88,0-1.59-.71-1.59-1.59V2.65c0-.88.71-1.59,1.59-1.59h6.76c.88,0,1.59.71,1.59,1.59v4.16c0,.29.24.53.53.53s.53-.24.53-.53V2.66c0-1.47-1.19-2.65-2.66-2.66H3.9C2.43,0,1.25,1.19,1.25,2.65Z"/><path id="Path_581" class="cls-2" d="M4.47,3.72h5.63c.29-.01.52-.26.51-.56-.01-.28-.23-.5-.51-.51h-5.63c-.29.01-.52.26-.51.56.01.28.23.5.51.51Z"/><path id="Path_582" class="cls-2" d="M10.63,6.02c0-.29-.24-.53-.53-.53h-5.63c-.29,0-.53.24-.53.53s.24.53.53.53h5.63c.29,0,.53-.24.53-.53Z"/><path id="Path_583" class="cls-2" d="M4.47,8.32c-.29,0-.53.24-.53.53s.24.53.53.53h2.56c.29,0,.53-.24.53-.53s-.24-.53-.53-.53h-2.56Z"/><path id="Path_584" class="cls-2" d="M11.5,7.72c-1.02,0-1.84.82-1.84,1.84,0,1.02.82,1.84,1.84,1.84s1.84-.82,1.84-1.84h0c0-1.02-.82-1.84-1.84-1.84ZM11.5,10.33c-.43,0-.77-.35-.77-.77,0-.43.35-.77.77-.77.43,0,.77.35.77.77,0,.43-.35.77-.77.77h0Z"/><path id="Path_585" class="cls-1" d="M8.78,16c.29,0,.53-.24.53-.53h0c0-1.21.98-2.19,2.19-2.19s2.19.98,2.19,2.19h0c0,.29.24.53.53.53s.53-.24.53-.53c0-1.8-1.45-3.26-3.25-3.26-1.8,0-3.26,1.45-3.26,3.25h0c0,.3.24.54.53.54h0Z"/></g></svg>