<svg xmlns="http://www.w3.org/2000/svg" width="15.999" height="16" viewBox="0 0 15.999 16">
  <g id="Group_16324" data-name="Group 16324" transform="translate(-193 -900)">
    <g id="Group_15784" data-name="Group 15784" transform="translate(-29.942 547.192)">
      <g id="Group_15716" data-name="Group 15716">
        <g id="Group_15783" data-name="Group 15783">
          <path id="Path_60773" data-name="Path 60773" d="M230.942,352.808a4.063,4.063,0,1,1-4.063,4.066h0a4.061,4.061,0,0,1,4.058-4.066Zm0,1.2a2.857,2.857,0,1,0,2.857,2.858h0a2.856,2.856,0,0,0-2.857-2.852" fill="#484660" fill-rule="evenodd"/>
          <path id="Path_60774" data-name="Path 60774" d="M238.941,367.389a1.469,1.469,0,0,1-1.514,1.418H224.455a1.471,1.471,0,0,1-1.513-1.418,6.5,6.5,0,0,1,6.7-6.282h2.6a6.5,6.5,0,0,1,6.7,6.282m-.63.59a.019.019,0,0,0-.018.017Zm-13.869-.718a.2.2,0,0,0,.206.194h12.581a.206.206,0,0,0,.21-.194,5.083,5.083,0,0,0-5.238-4.906h-2.517a5.084,5.084,0,0,0-5.235,4.906" fill="#484660" fill-rule="evenodd"/>
        </g>
      </g>
    </g>
  </g>
</svg>
