<?xml version="1.0" encoding="UTF-8"?><svg id="Layer_1" xmlns="http://www.w3.org/2000/svg" xmlns:xlink="http://www.w3.org/1999/xlink" viewBox="0 0 16 16"><defs><style>.cls-1{fill:none;}.cls-2{fill:#484660;}.cls-3{fill:#484660;}.cls-4{clip-path:url(#clippath);}</style><clipPath id="clippath"><rect class="cls-1" y=".59" width="16" height="14.82"/></clipPath></defs><g id="userView"><g class="cls-4"><g id="Group_16425"><path id="Path_61626" class="cls-3" d="M7.41,8.12c2.08,0,3.76-1.69,3.76-3.77,0-2.08-1.69-3.76-3.77-3.76-2.08,0-3.76,1.69-3.76,3.76h0c0,2.08,1.69,3.76,3.77,3.76M7.4,1.7h.01c1.46,0,2.64,1.19,2.64,2.65,0,1.46-1.19,2.64-2.65,2.64-1.46,0-2.64-1.19-2.64-2.65,0-1.46,1.18-2.64,2.64-2.64"/><path id="Path_61627" class="cls-3" d="M1.58,14.16c-.1,0-.19-.07-.19-.18,0,0,0,0,0,0,.08-2.6,2.26-4.64,4.86-4.55h1.35c.61-.51,1.33-.87,2.11-1.06-.36-.07-.73-.1-1.1-.09h-2.4c-3.32-.1-6.09,2.49-6.21,5.81.03.75.66,1.34,1.41,1.31h8.93c-1.05-.09-2.05-.53-2.82-1.25H1.58Z"/><path id="Path_61628" class="cls-2" d="M15.9,11.52h0l-.16-.22c-.45-.59-.97-1.13-1.55-1.61-.61-.51-1.33-.88-2.11-1.07-.28-.07-.56-.1-.85-.1-1.06.04-2.07.42-2.88,1.1l-.08.07c-.58.48-1.11,1.02-1.57,1.61l-.07.09c-.04.05-.08.11-.09.13-.13.18-.13.43,0,.61.02.03.11.15.16.22l.08.1c.44.56.93,1.06,1.48,1.51h0c1.67,1.56,4.25,1.56,5.91,0,.58-.48,1.1-1.02,1.56-1.61.05-.07.14-.18.16-.22.13-.18.13-.43,0-.61M11.26,13.07c-.69,0-1.25-.56-1.25-1.25,0-.69.56-1.25,1.25-1.25.69,0,1.25.56,1.25,1.25h0c0,.69-.56,1.25-1.25,1.25"/></g></g></g></svg>