<?xml version="1.0" encoding="UTF-8"?><svg id="Layer_1" xmlns="http://www.w3.org/2000/svg" xmlns:xlink="http://www.w3.org/1999/xlink" viewBox="0 0 16 16"><defs><style>.cls-1{fill:#484660;fill-rule:evenodd;}.cls-2{fill:url(#linear-gradient-3);}.cls-3{fill:url(#linear-gradient-2);}.cls-4{fill:url(#linear-gradient);}.cls-5{fill:#484660;}</style><linearGradient id="linear-gradient" x1="-108.82" y1="-33.3" x2="-108.82" y2="-34.3" gradientTransform="translate(488.42 -15.37) scale(4.45 -.65)" gradientUnits="userSpaceOnUse"><stop offset="0" stop-color="#00efd1"/><stop offset="1" stop-color="#00acea"/></linearGradient><linearGradient id="linear-gradient-2" x1="-108.82" y1="-33.3" x2="-108.82" y2="-34.3" gradientTransform="translate(488.42 -13.31) scale(4.45 -.65)" gradientUnits="userSpaceOnUse"><stop offset="0" stop-color="#00efd1"/><stop offset="1" stop-color="#00acea"/></linearGradient><linearGradient id="linear-gradient-3" x1="-108.56" y1="-33.51" x2="-108.56" y2="-34.51" gradientTransform="translate(483.24 -11.36) scale(4.41 -.65)" gradientUnits="userSpaceOnUse"><stop offset="0" stop-color="#00efd1"/><stop offset="1" stop-color="#00acea"/></linearGradient></defs><g id="Group_16321"><path id="Path_593" class="cls-1" d="M11.8,5.97c-1.69,0-3,1.77-3.05,1.84-.09.11-.09.27,0,.38.05.07,1.36,1.84,3.05,1.84s3-1.77,3.05-1.84c.08-.11.08-.27,0-.38-.05-.07-1.37-1.84-3.05-1.84ZM11.8,9.39c-.94-.13-1.79-.63-2.37-1.38.75-1.31,2.41-1.77,3.72-1.02.43.24.78.6,1.02,1.02-.58.75-1.43,1.25-2.37,1.38h0Z"/><path id="Path_594" class="cls-1" d="M11.8,6.99c-.56,0-1.02.46-1.02,1.02s.46,1.02,1.02,1.02,1.02-.45,1.02-1.02c0-.56-.45-1.02-1.02-1.02h0ZM11.8,8.51c-.28,0-.5-.22-.5-.5s.22-.5.5-.5.5.22.5.5-.22.5-.5.5Z"/><path id="Path_595" class="cls-5" d="M15,1.9h-4.68c-.45,0-.89.09-1.3.27-.66.28-1.41.28-2.08,0-.41-.18-.85-.27-1.3-.27H1c-.55,0-1,.44-1,.99v9.74c0,.55.45.99,1,.99h4.65c.36,0,.71.07,1.04.21.83.35,1.76.35,2.59,0,.33-.14.68-.21,1.04-.21h4.68c.55,0,.99-.44,1-.99V2.9c0-.55-.45-.99-1-.99ZM5.65,12.97H1c-.18,0-.34-.15-.34-.33V2.9c0-.19.16-.33.34-.34h4.65c.35,0,.7.08,1.03.22.31.13.63.22.96.26v10.38c-.24-.03-.48-.09-.7-.19-.41-.18-.85-.27-1.29-.26h0ZM15.35,12.63c0,.18-.16.33-.34.33h-4.68c-.45,0-.89.09-1.31.26-.23.1-.47.16-.72.19V3.04c.34-.03.67-.12.98-.26.33-.14.68-.22,1.04-.22h4.68c.19,0,.34.15.34.34v9.74Z"/><path id="Path_596" class="cls-5" d="M2.19,5.04h1.48c.18,0,.32-.16.31-.34,0-.17-.14-.3-.31-.31h-1.48c-.18,0-.33.13-.34.31,0,.18.13.33.31.34.01,0,.02,0,.04,0Z"/><g id="Group_333"><g id="Group_331"><path id="Path_597" class="cls-4" d="M5.95,6.41h-3.76c-.18,0-.33.13-.34.31,0,.18.13.33.31.34.01,0,.02,0,.04,0h3.76c.18,0,.33-.13.34-.31,0-.18-.13-.33-.31-.34-.01,0-.02,0-.04,0Z"/><path id="Path_598" class="cls-3" d="M5.95,8.46h-3.76c-.18,0-.33.13-.34.31,0,.18.13.33.31.34.01,0,.02,0,.04,0h3.76c.18,0,.33-.13.34-.31,0-.18-.13-.33-.31-.34-.01,0-.02,0-.04,0Z"/><path id="Path_599" class="cls-2" d="M5.95,10.52h-3.76c-.18,0-.33.15-.33.33s.15.33.33.33h3.76c.18,0,.33-.15.33-.33s-.15-.33-.33-.33h0Z"/></g><g id="Group_332"><path id="Path_600" class="cls-5" d="M5.95,6.41h-3.76c-.18,0-.33.13-.34.31,0,.18.13.33.31.34.01,0,.02,0,.04,0h3.76c.18,0,.33-.13.34-.31,0-.18-.13-.33-.31-.34-.01,0-.02,0-.04,0Z"/><path id="Path_601" class="cls-5" d="M5.95,8.46h-3.76c-.18,0-.33.13-.34.31,0,.18.13.33.31.34.01,0,.02,0,.04,0h3.76c.18,0,.33-.13.34-.31,0-.18-.13-.33-.31-.34-.01,0-.02,0-.04,0Z"/><path id="Path_602" class="cls-5" d="M5.95,10.52h-3.76c-.18,0-.33.15-.33.33s.15.33.33.33h3.76c.18,0,.33-.15.33-.33s-.15-.33-.33-.33h0Z"/></g><g id="Group_331-2"><path id="Path_597-2" class="cls-5" d="M5.95,6.41h-3.76c-.18,0-.33.13-.34.31,0,.18.13.33.31.34.01,0,.02,0,.04,0h3.76c.18,0,.33-.13.34-.31,0-.18-.13-.33-.31-.34-.01,0-.02,0-.04,0Z"/><path id="Path_598-2" class="cls-5" d="M5.95,8.46h-3.76c-.18,0-.33.13-.34.31,0,.18.13.33.31.34.01,0,.02,0,.04,0h3.76c.18,0,.33-.13.34-.31,0-.18-.13-.33-.31-.34-.01,0-.02,0-.04,0Z"/><path id="Path_599-2" class="cls-5" d="M5.95,10.52h-3.76c-.18,0-.33.15-.33.33s.15.33.33.33h3.76c.18,0,.33-.15.33-.33s-.15-.33-.33-.33h0Z"/></g><g id="Group_332-2"><path id="Path_600-2" class="cls-5" d="M5.95,6.41h-3.76c-.18,0-.33.13-.34.31,0,.18.13.33.31.34.01,0,.02,0,.04,0h3.76c.18,0,.33-.13.34-.31,0-.18-.13-.33-.31-.34-.01,0-.02,0-.04,0Z"/><path id="Path_601-2" class="cls-5" d="M5.95,8.46h-3.76c-.18,0-.33.13-.34.31,0,.18.13.33.31.34.01,0,.02,0,.04,0h3.76c.18,0,.33-.13.34-.31,0-.18-.13-.33-.31-.34-.01,0-.02,0-.04,0Z"/><path id="Path_602-2" class="cls-5" d="M5.95,10.52h-3.76c-.18,0-.33.15-.33.33s.15.33.33.33h3.76c.18,0,.33-.15.33-.33s-.15-.33-.33-.33h0Z"/></g></g></g></svg>