<?xml version="1.0" encoding="UTF-8"?><svg id="viewFavorites" xmlns="http://www.w3.org/2000/svg" xmlns:xlink="http://www.w3.org/1999/xlink" viewBox="0 0 16 16"><defs><style>.cls-1{fill:none;}.cls-2{fill:#434BA2;}.cls-3{clip-path:url(#clippath);}</style><clipPath id="clippath"><rect class="cls-1" x=".34" width="15.31" height="16"/></clipPath></defs><g class="cls-3"><g id="Group_16373"><path id="Path_61545" class="cls-2" d="M11.6,2.06l.41-.53c.21-.28.6-.34.87-.13.28.21.34.6.13.87,0,0,0,.01-.01.02l-.41.53c-.21.28-.6.34-.87.13s-.34-.6-.13-.87c0,0,0-.01.01-.02"/><path id="Path_61546" class="cls-2" d="M15.24,9.88l-.62-.22c-.33-.11-.68.06-.8.38s.06.68.38.8l.62.22c.33.11.68-.06.8-.38s-.06-.68-.38-.8"/><path id="Path_61547" class="cls-2" d="M3.47,2.82c.12.16.3.25.5.24.14,0,.27-.04.38-.13.27-.21.33-.6.12-.87,0,0,0,0,0,0l-.41-.53c-.22-.27-.62-.3-.88-.08-.25.21-.3.58-.11.84l.4.53Z"/><path id="Path_61548" class="cls-2" d="M1.39,9.5l-.62.22c-.33.11-.5.47-.38.8s.47.5.8.38l.62-.22c.33-.11.5-.47.38-.8s-.47-.5-.8-.38h0"/><path id="Path_61549" class="cls-2" d="M8,14.09c-.35,0-.62.28-.62.62v.66c0,.35.28.63.62.63.35,0,.63-.28.63-.62h0v-.66c0-.35-.28-.62-.62-.62"/><path id="Path_61550" class="cls-2" d="M4.31,14.75c-.93,0-1.67-.77-1.66-1.69,0-.17.03-.34.08-.5l.94-2.91c.06-.17,0-.37-.15-.48l-2.45-1.79c-.74-.54-.9-1.58-.36-2.32.31-.43.81-.68,1.34-.68h3.03c.18,0,.35-.13.4-.31l.94-2.91c.28-.88,1.22-1.36,2.1-1.07.51.16.91.56,1.07,1.07l.94,2.92c.06.18.22.3.4.3h3.05c.92,0,1.66.74,1.66,1.66,0,.53-.25,1.03-.68,1.35l-1.66,1.22c-.28.2-.67.14-.87-.14s-.14-.67.14-.87h0l1.66-1.22c.19-.13.23-.39.1-.58-.08-.11-.21-.18-.34-.17h-3.05c-.73,0-1.37-.48-1.58-1.17l-.94-2.92c-.07-.22-.3-.35-.52-.28-.13.04-.24.15-.28.28l-.93,2.92c-.22.69-.86,1.17-1.58,1.17h-3.03c-.23,0-.42.18-.42.41,0,.14.06.27.17.34l2.45,1.79c.58.43.82,1.18.6,1.86l-.94,2.91c-.06.18,0,.37.15.48.07.05.16.08.25.08.09,0,.17-.03.24-.09l2.45-1.81c.58-.43,1.38-.43,1.96,0l2.45,1.78c.07.05.16.08.24.09.09,0,.18-.03.25-.08.15-.11.21-.3.15-.47l-.66-1.97c-.11-.33.07-.68.39-.79.06-.02.13-.03.2-.03.27,0,.51.17.59.43l.66,1.97h0c.29.88-.18,1.82-1.05,2.11-.51.17-1.07.08-1.51-.24l-2.45-1.78c-.15-.11-.35-.11-.49,0l-2.45,1.8c-.28.21-.63.33-.98.33"/><path id="Path_61551" class="cls-2" d="M8.39,8.89c-.44,0-.8-.36-.8-.8s.36-.8.8-.8.8.36.8.8-.36.8-.8.8h0"/><path id="Path_61552" class="cls-2" d="M11.53,7.89s-.07-.1-.11-.15c-.31-.4-.66-.76-1.05-1.09-.41-.35-.9-.59-1.42-.72-.19-.04-.38-.07-.57-.07h0c-.74.03-1.44.31-2,.79-.39.32-.75.69-1.06,1.09l-.04.06s-.05.07-.06.09c-.09.12-.09.29,0,.41.02.02.07.1.11.15.02.02.04.04.06.07.3.37.63.72,1,1.02.56.49,1.26.76,2,.79.74-.03,1.44-.3,2-.79.39-.32.75-.69,1.06-1.09.03-.05.09-.12.11-.15.09-.12.09-.29,0-.41M10.71,8.18c-.54.8-1.39,1.32-2.35,1.43-.67-.04-1.31-.34-1.77-.83-.21-.19-.4-.39-.58-.61h0l-.06-.08.06-.07c.53-.8,1.39-1.32,2.35-1.44h.05c.17,0,.35.03.51.08.72.27,1.34.74,1.8,1.35l.06.08-.07.08Z"/></g></g></svg>