<?xml version="1.0" encoding="UTF-8"?><svg id="viewTestDetails" xmlns="http://www.w3.org/2000/svg" xmlns:xlink="http://www.w3.org/1999/xlink" viewBox="0 0 16 16"><defs><style>.cls-1{fill:none;}.cls-2{fill:#434BA2;}.cls-3{clip-path:url(#clippath);}</style><clipPath id="clippath"><rect class="cls-1" x="1.2" width="13.6" height="16"/></clipPath></defs><g class="cls-3"><g id="Group_16385"><path id="Path_61579" class="cls-2" d="M3.88,5.32h1.92c.26,0,.48-.21.48-.48s-.21-.48-.48-.48h-1.92c-.26,0-.48.21-.48.48s.21.48.48.48"/><path id="Path_61580" class="cls-2" d="M5.79,7.72h-1.92c-.26.01-.47.24-.46.5.01.25.21.45.46.46h1.92c.26-.01.47-.24.46-.5-.01-.25-.21-.45-.46-.46"/><path id="Path_61581" class="cls-2" d="M5.79,11.08h-1.92c-.26,0-.48.21-.48.48s.21.48.48.48h1.92c.26,0,.48-.21.48-.48s-.21-.48-.48-.48"/><path id="Path_61582" class="cls-2" d="M8.81,9.02c.19.19.49.19.68,0l1.44-1.44c.19-.19.19-.49,0-.68-.19-.19-.49-.19-.68,0l-1.1,1.1-.62-.62c-.19-.19-.49-.19-.68,0s-.19.49,0,.68l.96.96Z"/><path id="Path_61583" class="cls-2" d="M7.85,12.85c.19.19.49.19.68,0l.62-.62.62.62c.19.19.49.19.68,0,.19-.19.19-.49,0-.68h0l-.62-.62.62-.62c.19-.19.19-.49,0-.68s-.49-.19-.68,0l-.62.62-.62-.62c-.19-.19-.49-.19-.68,0-.19.19-.19.49,0,.68h0l.62.62-.62.62c-.19.19-.19.49,0,.68"/><path id="Path_61584" class="cls-2" d="M12.18,5.78v7.92c0,.72-.58,1.3-1.3,1.3H3.5c-.72,0-1.3-.58-1.3-1.3h0V3.14c0-.72.58-1.3,1.3-1.3h3.15c.25-.26.52-.5.8-.73.11-.1.23-.19.35-.28H3.5c-1.27,0-2.3,1.03-2.3,2.3v10.68c.06,1.23,1.07,2.19,2.3,2.19h7.38c1.27,0,2.3-1.03,2.31-2.3V5.08l-.12.1c-.27.24-.57.44-.89.61"/><path id="Path_61585" class="cls-2" d="M10.29,2.01c-.62,0-1.13.5-1.13,1.13,0,.62.5,1.13,1.13,1.13.62,0,1.13-.5,1.13-1.13,0,0,0,0,0,0,0-.62-.5-1.13-1.13-1.13h0"/><path id="Path_61586" class="cls-2" d="M14.7,2.86h0s-.1-.14-.15-.21c-.43-.56-.93-1.08-1.48-1.53-.58-.49-1.26-.84-2-1.02-.27-.06-.54-.09-.81-.09-.88.03-1.74.32-2.46.83-.12.09-.24.18-.36.28-.28.23-.55.47-.8.73-.25.25-.48.52-.7.8l-.06.09c-.04.05-.07.1-.09.13-.12.17-.12.41,0,.58.02.03.1.14.15.21.02.03.05.06.08.1.42.53.89,1.01,1.41,1.44.78.68,1.78,1.08,2.82,1.11.67-.02,1.33-.2,1.93-.51.32-.17.62-.37.89-.61l.12-.1c.51-.43.96-.91,1.37-1.43.05-.06.13-.17.15-.21.12-.17.12-.41,0-.58M13.56,3.25c-.11.17-.24.33-.38.49-.29.33-.63.62-1.01.85-.58.37-1.24.6-1.93.67-.95-.06-1.84-.48-2.5-1.16-.29-.27-.56-.55-.82-.86l-.08-.11.09-.11c.75-1.12,1.96-1.86,3.3-2.02h.06c.25,0,.49.05.72.12.77.29,1.47.74,2.05,1.33.18.18.34.37.49.57l.08.11-.09.1Z"/></g></g></svg>