<?xml version="1.0" encoding="UTF-8"?><svg id="viewBackgroundReports" xmlns="http://www.w3.org/2000/svg" xmlns:xlink="http://www.w3.org/1999/xlink" viewBox="0 0 16 16"><defs><style>.cls-1{fill:none;}.cls-2{fill:#434BA2;}.cls-3{clip-path:url(#clippath);}</style><clipPath id="clippath"><rect class="cls-1" width="16" height="16"/></clipPath></defs><g class="cls-3"><g id="Group_16377"><path id="Path_61561" class="cls-2" d="M6.62,10.39H2.57c-.26.01-.46.23-.45.49.01.24.2.44.45.45h4.05c.26-.01.46-.23.45-.49-.01-.24-.2-.44-.45-.45"/><path id="Path_61562" class="cls-2" d="M6.62,12.6H2.57c-.26.01-.46.23-.45.49.01.24.2.44.45.45h4.05c.26-.01.46-.23.45-.49-.01-.24-.2-.44-.45-.45"/><path id="Path_61563" class="cls-2" d="M12.19,5.69v-1.12c0-.47-.19-.92-.54-1.25L8.64.47c-.32-.3-.74-.47-1.18-.47H1.72C.77,0,0,.77,0,1.72v12.56c0,.95.77,1.72,1.72,1.72h8.75c.95,0,1.72-.77,1.72-1.72v-.97h-.94v.97c0,.43-.35.78-.78.78H1.72c-.43,0-.78-.35-.78-.78V1.72c0-.43.35-.78.78-.78h5.59v2.66c0,.6.49,1.09,1.09,1.09h2.84v1h.94ZM8.41,3.75c-.09,0-.16-.07-.16-.16h0V1.39l2.49,2.36h-2.33Z"/><path id="Path_61564" class="cls-2" d="M2.59,8.6c-.28,0-.5-.22-.5-.5v-1.48c-.04-.27.15-.53.43-.56.27-.04.53.15.56.43,0,.04,0,.09,0,.13v1.49c0,.27-.22.5-.49.5"/><path id="Path_61565" class="cls-2" d="M4.58,8.6c-.28,0-.5-.22-.5-.5v-1.98c.04-.27.29-.47.56-.43.22.03.4.21.43.43v1.99c0,.27-.22.49-.49.49"/><path id="Path_61566" class="cls-2" d="M6.57,8.6c-.28,0-.5-.22-.5-.5v-2.97c-.04-.27.15-.53.43-.56s.53.15.56.43c0,.04,0,.09,0,.13v2.98c0,.27-.22.49-.49.49"/><path id="Path_61567" class="cls-2" d="M11.62,10.5c-.6,0-1.09-.49-1.09-1.09,0-.6.49-1.09,1.09-1.09.6,0,1.09.49,1.09,1.09,0,.6-.48,1.1-1.09,1.1,0,0,0,0,0,0"/><path id="Path_61568" class="cls-2" d="M15.91,9.13s-.1-.14-.15-.2c-.42-.55-.91-1.05-1.44-1.48-.56-.47-1.23-.81-1.94-.99-.26-.06-.52-.09-.79-.09-1.01.04-1.97.42-2.73,1.08-.54.44-1.02.94-1.45,1.49l-.06.08s-.07.1-.09.12c-.12.17-.12.39,0,.56.02.03.1.14.15.2.02.03.05.06.08.1.4.51.86.98,1.37,1.39,1.54,1.44,3.93,1.44,5.47,0,.53-.44,1.02-.94,1.44-1.48.05-.06.12-.17.15-.2.12-.17.12-.4,0-.56M14.8,9.52c-.73,1.09-1.9,1.8-3.21,1.95-.92-.06-1.79-.46-2.42-1.13-.28-.26-.55-.54-.79-.83l-.08-.11.09-.1c.73-1.09,1.9-1.81,3.21-1.96h.06c.24,0,.47.04.7.11.98.37,1.83,1.01,2.46,1.85l.08.11-.09.11Z"/></g></g></svg>