<?xml version="1.0" encoding="UTF-8"?><svg id="viewStatus" xmlns="http://www.w3.org/2000/svg" xmlns:xlink="http://www.w3.org/1999/xlink" viewBox="0 0 16 16"><defs><style>.cls-1{fill:none;}.cls-2{fill:#434BA2;}.cls-3{clip-path:url(#clippath);}</style><clipPath id="clippath"><rect class="cls-1" y="1.59" width="16" height="12.82"/></clipPath></defs><g class="cls-3"><g id="Group_16422"><path id="Path_61613" class="cls-2" d="M4.82,12H1.93c-.27.01-.47.24-.46.5.01.25.21.45.46.46h2.89c.27-.01.47-.24.46-.5-.01-.25-.21-.45-.46-.46"/><path id="Path_61614" class="cls-2" d="M12.23,11.8c.38.37.38.98.01,1.36-.18.18-.43.29-.69.29H1.93c-.53,0-.96-.43-.96-.96,0-.53.43-.96.96-.96h7.67c-.58-.24-1.13-.57-1.62-.96H1.93c-1.06-.02-1.94.83-1.95,1.9-.02,1.06.83,1.94,1.9,1.95h9.74c1.06-.03,1.9-.92,1.87-1.98,0-.33-.1-.65-.27-.93-.32.13-.64.23-.98.3"/><path id="Path_61615" class="cls-2" d="M1.93,7.52c-.27.01-.47.24-.46.5.01.25.21.45.46.46h2.89c.27-.01.47-.24.46-.5-.01-.25-.21-.45-.46-.46H1.93Z"/><path id="Path_61616" class="cls-2" d="M1.93,9.93h5.34c-.31-.3-.6-.63-.88-.96H1.92c-.53-.02-.95-.46-.93-.99.02-.51.42-.92.93-.93h4.46c.27-.34.57-.66.88-.96H1.92c-1.05,0-1.91.85-1.92,1.9v.05c.01,1.05.87,1.9,1.93,1.9"/><path id="Path_61617" class="cls-2" d="M1.93,3.03c-.27.01-.47.24-.46.5.01.25.21.45.46.46h2.89c.27-.01.47-.24.46-.5-.01-.25-.21-.45-.46-.46H1.93Z"/><path id="Path_61618" class="cls-2" d="M1.93,5.44h6.06c.49-.4,1.04-.72,1.62-.96H1.92c-.53-.02-.95-.46-.93-.99.02-.51.42-.92.93-.93h9.63c.53,0,.96.43.96.96,0,.26-.1.51-.29.69.34.07.66.17.98.3.17-.29.27-.62.27-.96v-.05c-.01-1.05-.87-1.9-1.93-1.9H1.93C.86,1.61.02,2.5.04,3.56c.02,1.03.85,1.86,1.88,1.88"/><path id="Path_61619" class="cls-2" d="M11.51,6.73c-.7-.05-1.31.47-1.37,1.17-.05.7.47,1.31,1.17,1.37.7.05,1.31-.47,1.37-1.17h0c.05-.7-.47-1.31-1.17-1.37,0,0,0,0,0,0"/><path id="Path_61620" class="cls-2" d="M15.88,7.62s-.1-.15-.15-.21c-.43-.56-.93-1.07-1.48-1.53-.4-.33-.85-.6-1.33-.81-.26-.11-.54-.2-.82-.25-.24-.05-.48-.07-.72-.07-.51,0-1.02.1-1.49.3-.49.2-.94.48-1.35.81l-.02.02c-.21.17-.4.34-.57.51-.26.25-.51.52-.74.8-.07.08-.12.15-.17.21s-.13.18-.16.21c-.16.23-.16.54,0,.77.02.03.11.15.16.21s.1.13.17.21c.23.28.48.55.74.81.17.17.37.34.57.51l.02.02c.41.33.87.6,1.35.81.47.2.98.3,1.49.3.24,0,.48-.02.72-.07.28-.06.56-.14.82-.25.48-.21.93-.48,1.33-.81.55-.45,1.05-.96,1.48-1.53.05-.06.13-.18.15-.21.16-.23.16-.54,0-.77M11.38,9.9c-.42,0-.82-.11-1.19-.3-.42-.21-.8-.48-1.14-.8-.27-.25-.53-.52-.77-.81.24-.29.49-.56.77-.81.34-.32.73-.59,1.15-.8.37-.19.78-.29,1.19-.3,1.26.15,2.4.85,3.1,1.91-.7,1.06-1.84,1.76-3.1,1.91"/></g></g></svg>