<?xml version="1.0" encoding="UTF-8"?><svg id="Layer_1" xmlns="http://www.w3.org/2000/svg" viewBox="0 0 16 16"><defs><style>.cls-1{fill:#434BA2;}</style></defs><g id="Group_16318"><g id="Group_345"><path id="Path_651" class="cls-1" d="M4.56,4.56s-.03,0-.05,0h-.1s-.07.08-.08.13l.08,3.8,3.18,1.84s.05.02.08.02l.07-.02s.07-.08.08-.13l-.07-3.8-3.18-1.83ZM4.9,8.15v-2.74l2.35,1.33v2.74l-2.35-1.33Z"/><path id="Path_652" class="cls-1" d="M11.59,4.56s-.03,0-.04,0h-.11l-3.23,1.96v3.67s.03.09.07.13c.02.01.05.02.08.02l.07-.02,3.23-1.97v-3.67s-.03-.09-.07-.13ZM11.12,8.1l-2.35,1.37-.02-2.69,2.35-1.37.02,2.69Z"/><path id="Path_653" class="cls-1" d="M11.34,4.32s-.03-.1-.07-.13l-3.18-1.84s-.04,0-.05,0h-.1l-3.18,1.84c-.07.04-.1.13-.06.2.01.02.03.04.06.06l3.18,1.84s.05.02.08.02l.07-.02,3.18-1.84s.07-.08.08-.13ZM10.36,4.32l-2.35,1.36-2.35-1.36,2.35-1.36,2.35,1.36Z"/></g><path id="Path_607" class="cls-1" d="M14.28,0H1.72C.77,0,0,.77,0,1.71v9.72c0,.95.77,1.71,1.71,1.71h4.57v1.72h-2c-.32.01-.56.28-.55.6.01.3.25.54.55.55h7.43c.32-.01.56-.28.55-.6-.01-.3-.25-.54-.55-.55h-2v-1.72h4.57c.95,0,1.71-.77,1.71-1.71V1.71c0-.95-.77-1.71-1.71-1.71ZM9.12,15.61h-2.2v-2.47h2.2v2.47ZM15.35,11.28c0,.64-.52,1.16-1.16,1.16H1.77c-.64,0-1.16-.52-1.16-1.16h0V1.86c0-.64.52-1.16,1.16-1.16h12.43c.64,0,1.16.52,1.16,1.16h0v9.42Z"/></g></svg>