<?xml version="1.0" encoding="UTF-8"?><svg id="Layer_1" xmlns="http://www.w3.org/2000/svg" viewBox="0 0 16 16"><defs><style>.cls-1{fill:#484660;}.cls-2{fill:#484660;}</style></defs><g id="Group_16316"><path id="Path_655" class="cls-2" d="M.38,5.29h.01s.03,0,.04-.01c.19-.02.33-.18.34-.38V1.51c0-.25.21-.46.46-.46h2.77c.1,0,.2-.05.27-.12.07-.07.11-.17.1-.27,0-.2-.17-.36-.37-.36H1.23C.55.29,0,.84,0,1.52v3.39c0,.21.17.38.38.38Z"/><path id="Path_656" class="cls-2" d="M11.97,1.04h2.79c.25,0,.46.21.46.46v3.39c0,.21.17.38.38.38h0c.21,0,.38-.17.38-.38V1.5c0-.68-.55-1.23-1.23-1.23-.01,0-.03,0-.04,0h-2.71c-.1,0-.2.03-.27.1-.15.14-.16.38-.02.54.07.07.16.12.26.12h0Z"/><path id="Path_657" class="cls-2" d="M4.05,14.98s-.03-.01-.05-.01H1.24c-.25,0-.46-.21-.46-.46v-3.39c0-.21-.17-.38-.38-.38H.4c-.21,0-.38.17-.38.38v3.39c0,.68.55,1.23,1.23,1.23h2.77c.21,0,.38-.16.38-.37,0-.2-.15-.37-.35-.38h0Z"/><path id="Path_658" class="cls-2" d="M15.61,10.73h0c-.21,0-.38.17-.38.38v3.39c0,.25-.21.46-.46.46h-2.77c-.21,0-.37.18-.36.39,0,0,0,0,0,0,0,.2.17.35.36.36h2.77c.68,0,1.23-.55,1.23-1.23v-3.39c0-.2-.18-.36-.39-.36Z"/><path id="Path_659" class="cls-1" d="M3.31,5.72s-.02,0-.03,0c-.01,0-.02,0-.03,0-.02.01-.03.03-.03.05l.03,4.99,4.28,2.47s.02,0,.03,0c.01,0,.02,0,.03,0,.02-.01.03-.03.03-.05l-.03-4.99-4.28-2.47ZM7.12,12.45l-3.42-1.94v-3.99l3.42,1.94v3.99Z"/><path id="Path_660" class="cls-1" d="M12.79,5.78s-.01-.04-.03-.05c0,0-.02,0-.03,0-.01,0-.02,0-.03,0l-4.28,2.52v4.93s.01.04.03.05c0,0,.02,0,.03,0,.01,0,.02,0,.03,0l4.28-2.52v-4.93ZM8.91,12.44l-.03-3.93,3.43-1.99.03,3.93-3.43,1.99Z"/><path id="Path_661" class="cls-1" d="M12.36,5.28s-.01-.04-.03-.05l-4.28-2.47s-.04-.01-.06,0l-4.28,2.47s-.04.06-.02.09c0,.01.01.02.02.02l4.28,2.47s.04.01.06,0l4.28-2.47s.03-.03.03-.05ZM8.02,7.26l-3.42-1.98,3.42-1.98,3.42,1.98-3.42,1.98Z"/></g></svg>