<?xml version="1.0" encoding="UTF-8"?><svg id="Layer_1" xmlns="http://www.w3.org/2000/svg" viewBox="0 0 16 16"><defs><style>.cls-1{fill:#434BA2;}</style></defs><g id="Group_16319"><g id="Group_344"><path id="Path_647" class="cls-1" d="M5.89,9.62H.55c-.28,0-.5.22-.5.5v5.38c0,.28.22.5.5.5h5.34c.28,0,.5-.22.5-.5v-5.38c0-.28-.22-.5-.5-.5ZM5.39,15H1.05v-4.38h4.34v4.38Z"/><path id="Path_648" class="cls-1" d="M13.74,9.62h-5.34c-.28,0-.5.22-.5.5v5.38c0,.28.22.5.5.5h5.34c.28,0,.5-.22.5-.5v-5.38c0-.28-.22-.5-.5-.5ZM13.24,15h-4.34v-4.38h4.34v4.38Z"/><path id="Path_649" class="cls-1" d="M5.89,2.15H.55c-.28,0-.5.22-.5.5v5.38c0,.28.22.5.5.5h5.34c.28,0,.5-.22.5-.5V2.65c0-.28-.22-.5-.5-.5ZM5.39,7.52H1.05V3.15h4.34v4.38Z"/><path id="Path_650" class="cls-1" d="M15.81,3.95L12.03.15c-.19-.2-.51-.2-.71,0h0s-3.78,3.8-3.78,3.8c-.19.2-.19.51,0,.71l3.78,3.8c.19.2.51.2.71,0h0s3.78-3.8,3.78-3.8c.19-.2.19-.51,0-.71ZM11.68,7.39l-3.07-3.09,3.07-3.09,3.07,3.09-3.07,3.09Z"/></g></g></svg>