<?xml version="1.0" encoding="UTF-8"?><svg id="Layer_1" xmlns="http://www.w3.org/2000/svg" viewBox="0 0 16 16"><defs><style>.cls-1{fill:#434BA2;}</style></defs><g id="Group_16327"><path id="Path_608" class="cls-1" d="M15.64,5.28v-.02c-.06-.07-.11-.13-.17-.19L10.91.45c-.06-.06-.12-.11-.19-.16,0,0-.02-.01-.03-.02-.25-.17-.55-.27-.85-.27H2.45C1.15,0,.09,1.07.1,2.38v11.25c0,1.3,1.05,2.37,2.35,2.38h11.1c1.3,0,2.36-1.07,2.35-2.38v-7.5c0-.3-.09-.6-.27-.85h0ZM10.92,1.88l3.13,3.17h-2.63c-.28,0-.5-.22-.5-.5V1.88ZM14.91,13.63c0,.75-.6,1.37-1.35,1.38H2.45c-.75,0-1.36-.62-1.35-1.38V2.38c0-.75.6-1.37,1.35-1.38h7.39s.05,0,.08,0v3.54c0,.83.67,1.5,1.5,1.5h3.48s0,.05,0,.08v7.5Z"/><path id="Path_609" class="cls-1" d="M6.81,7.72c-.2-.2-.51-.2-.71,0l-1.76,1.75c-.19.19-.2.5-.01.7l1.76,1.86c.18.21.5.22.71.04.21-.18.22-.5.04-.71,0,0-.01-.01-.02-.02l-1.42-1.51,1.41-1.4c.2-.2.2-.51,0-.71h0Z"/><path id="Path_610" class="cls-1" d="M9.91,7.73c-.18-.21-.5-.22-.71-.04-.21.18-.22.5-.04.71,0,0,.01.01.02.02l1.42,1.51-1.41,1.4c-.2.19-.2.51-.01.71.19.2.51.2.71.01,0,0,0,0,.01-.01l1.76-1.75c.19-.19.2-.5.01-.7l-1.76-1.86h0Z"/></g></svg>