<svg xmlns="http://www.w3.org/2000/svg" width="10.307" height="9.823" viewBox="0 0 10.307 9.823">
  <g id="favourite" transform="translate(0 -11.989)">
    <g id="Bookmark_00000002371508813099837470000005156419187743538101_" transform="translate(0.202 12.191)">
      <path id="Path_2671" data-name="Path 2671" d="M17.447,28.006l2.457-2.42-3.41-.514-1.542-3.084L13.41,25.073,10,25.587l2.457,2.42-.565,3.4,3.06-1.589,3.06,1.589Z" transform="translate(-10 -21.989)" fill="#fdcb50"/>
      <g id="Bookmark_00000007402357642485415310000008909949776684852145_" transform="translate(0 3.173)">
        <path id="Path_2672" data-name="Path 2672" d="M18.012,185.245l-3.06-1.589-3.06,1.589.565-3.4L10,179.424,12.817,179q0,.075,0,.15a4.32,4.32,0,0,0,4.9,4.277Z" transform="translate(-10 -179)" fill="#fd8f01"/>
      </g>
    </g>
    <g id="Bookmark_00000061456267634286893900000012935319083935557293_" transform="translate(0 11.989)">
      <g id="Group_2204" data-name="Group 2204" transform="translate(0 0)">
        <path id="Path_2673" data-name="Path 2673" d="M8.214,21.812a.2.2,0,0,1-.093-.023l-2.967-1.54-2.967,1.54a.2.2,0,0,1-.292-.212l.548-3.3L.06,15.933a.2.2,0,0,1,.112-.344l3.306-.5,1.5-2.99a.2.2,0,0,1,.362,0l1.5,2.99,3.306.5a.2.2,0,0,1,.112.344L7.865,18.279l.548,3.3a.2.2,0,0,1-.2.235Zm-3.06-1.993a.2.2,0,0,1,.093.023l2.7,1.4-.5-3a.2.2,0,0,1,.058-.177l2.169-2.136-3.01-.453a.2.2,0,0,1-.151-.109L5.153,12.643,3.792,15.366a.2.2,0,0,1-.151.109l-3.01.453L2.8,18.064a.2.2,0,0,1,.058.177l-.5,3,2.7-1.4A.2.2,0,0,1,5.153,19.819Z" transform="translate(0 -11.989)" fill="#1c2e72"/>
      </g>
    </g>
  </g>
</svg>
