<svg xmlns="http://www.w3.org/2000/svg" width="45.387" height="43.264" viewBox="0 0 45.387 43.264">
  <g id="fav-classic" transform="translate(-2950.482 430.928)">
    <path id="Path_502" data-name="Path 502" d="M8782.652,59.336a.9.9,0,0,1-.422-.1L8769.18,52.45l-13.07,6.784a.891.891,0,0,1-1.288-.937l2.415-14.522-10.488-10.33a.89.89,0,0,1,.49-1.515l14.565-2.2,6.585-13.167a.89.89,0,0,1,1.59,0l6.577,13.167,14.557,2.193a.891.891,0,0,1,.491,1.515l-10.5,10.329,2.415,14.523a.892.892,0,0,1-.735,1.024.965.965,0,0,1-.142.011Zm-13.473-8.778a.889.889,0,0,1,.411.1l11.9,6.176-2.2-13.223a.893.893,0,0,1,.252-.78l9.55-9.413-13.255-1.986a.889.889,0,0,1-.663-.482l-5.992-12-6,12a.892.892,0,0,1-.664.482l-13.255,1.986,9.55,9.4a.891.891,0,0,1,.252.781l-2.2,13.223,11.9-6.176a.886.886,0,0,1,.417-.091" transform="translate(-5796 -447)" fill="#2665c9"/>
  </g>
</svg>
