<svg id="Pin" xmlns="http://www.w3.org/2000/svg" xmlns:xlink="http://www.w3.org/1999/xlink" width="11" height="10.989" viewBox="0 0 11 10.989">
  <defs>
    <clipPath id="clip-path">
      <rect id="Rectangle_1488" data-name="Rectangle 1488" width="11" height="10.989" fill="none"/>
    </clipPath>
  </defs>
  <g id="Group_15466" data-name="Group 15466" clip-path="url(#clip-path)">
    <path id="Path_3185" data-name="Path 3185" d="M2.938,8.552C2.189,9.3,1.5,10,.812,10.69c-.21.212-.42.4-.75.239-.152-.322,0-.538.224-.755.7-.683,1.386-1.378,2.113-2.1-.12-.127-.217-.233-.319-.336-.5-.5-1.016-.993-1.5-1.51A.756.756,0,0,1,.854,4.894c.74-.314,1.484-.624,2.24-.895a1.634,1.634,0,0,0,.96-.848c.315-.632.629-1.265.947-1.9a5.08,5.08,0,0,1,.305-.55A1.433,1.433,0,0,1,7.5.362a2.321,2.321,0,0,1,.219.187c.924.921,1.858,1.832,2.765,2.769a1.464,1.464,0,0,1-.388,2.475c-.708.381-1.431.737-2.156,1.085a1.7,1.7,0,0,0-.915.972c-.268.717-.559,1.425-.844,2.135-.34.848-.879.966-1.525.322-.568-.566-1.121-1.146-1.716-1.756M5.4,9.9c.3-.732.65-1.477.909-2.252a2.339,2.339,0,0,1,1.319-1.43c.71-.337,1.416-.685,2.11-1.055.616-.328.7-.811.222-1.3Q8.6,2.46,7.207,1.08C6.649.528,6.16.621,5.8,1.328c-.374.735-.74,1.474-1.105,2.213a1.981,1.981,0,0,1-1,.989c-.351.152-.709.286-1.062.433C2.116,5.179,1.6,5.4,1.1,5.61L5.4,9.9" transform="translate(-0.001 0)" fill="#fff"/>
  </g>
</svg>
