<svg xmlns="http://www.w3.org/2000/svg" width="12.001" height="12.003" viewBox="0 0 12.001 12.003">
  <g id="world" transform="translate(-0.004)">
    <g id="Group_15788" data-name="Group 15788" transform="translate(0.004)">
      <path id="Path_3330" data-name="Path 3330" d="M19.716,4.62l-.18.057-.956.085-.27.431-.2-.062-.761-.686-.11-.357-.148-.381-.478-.429-.564-.11-.013.258.553.539.271.319-.3.159-.248-.073-.371-.155.013-.3-.487-.2-.162.7-.491.111.049.392.639.123.11-.627.528.078.245.144h.394l.269.539.714.724-.052.282-.576-.073-.995.5-.716.859-.093.381h-.257l-.479-.221-.465.221.116.491.2-.233L14.8,8.1l-.025.441.295.086.295.331.481-.135.549.087.638.172.319.037.54.613,1.043.613-.674,1.288-.712.331-.27.736-1.03.688-.11.4A5.994,5.994,0,0,0,19.716,4.62Z" transform="translate(-8.731 -1.958)" fill="#313131"/>
      <path id="Path_3331" data-name="Path 3331" d="M6.694,13.792l-.437-.81.4-.836-.4-.12-.45-.452-1-.224-.331-.693v.411H4.332L3.472,9.9V8.944l-.63-1.025-1,.178H1.166L.827,7.875l.433-.343-.432.1A5.993,5.993,0,0,0,6,16.657a6.283,6.283,0,0,0,.753-.052l-.063-.727s.275-1.08.275-1.116S6.694,13.792,6.694,13.792Z" transform="translate(-0.004 -4.654)" fill="#313131"/>
      <path id="Path_3332" data-name="Path 3332" d="M4.453,1.935l1.066-.149.491-.269.553.159.883-.049.3-.476.441.073,1.072-.1L9.558.8,9.974.52l.589.089.215-.032A5.982,5.982,0,0,0,3.6,2.182h0ZM8.477.6,9.09.259l.394.227L8.914.92,8.37.975,8.125.816ZM6.662.646l.271.113L7.287.646,7.48.98,6.662,1.2,6.269.965S6.653.718,6.662.646Z" transform="translate(-2.224 0)" fill="#313131"/>
    </g>
  </g>
</svg>
