<svg xmlns="http://www.w3.org/2000/svg" width="12" height="12.001" viewBox="0 0 12 12.001">
  <g id="Group_15797" data-name="Group 15797" transform="translate(-70 -629.999)">
    <path id="Path_3344" data-name="Path 3344" d="M72.733,635.223l.459-1.121-.619-.532,1.152-.957.466.472,1.075-.365.2-.761H76.73v.654l1.018.472.686-.365.923.851-.47.532.378,1.121.925.285-.219,1.11-.614.291-.47.854.47.588-.923.857-.484-.268-1.333.527v.646h-1.35v-.738l-1.075-.435-.466.527-1.152-1.117.619-.492-.459-.949-.8-.291v-1.4Z" fill="#313131"/>
    <path id="management-service" d="M17.936,14.945a.383.383,0,0,0,.382-.331,4.353,4.353,0,0,0,0-1.208.383.383,0,0,0-.382-.332h-.422a3.555,3.555,0,0,0-.352-.847l.3-.3a.383.383,0,0,0,.035-.5,4.328,4.328,0,0,0-.854-.854.383.383,0,0,0-.505.035l-.3.3a3.544,3.544,0,0,0-.847-.351v-.423a.383.383,0,0,0-.33-.382,4.371,4.371,0,0,0-1.208,0,.383.383,0,0,0-.332.382v.423a3.548,3.548,0,0,0-.847.351l-.3-.3a.383.383,0,0,0-.5-.035,4.328,4.328,0,0,0-.854.854.383.383,0,0,0,.035.505l.3.3a3.555,3.555,0,0,0-.352.847h-.422a.383.383,0,0,0-.382.33,4.353,4.353,0,0,0,0,1.208.383.383,0,0,0,.382.332H10.6a3.555,3.555,0,0,0,.352.847l-.3.3a.383.383,0,0,0-.035.5,4.328,4.328,0,0,0,.854.854.383.383,0,0,0,.505-.035l.3-.3a3.554,3.554,0,0,0,.847.351v.423a.383.383,0,0,0,.331.382,4.353,4.353,0,0,0,1.208,0,.383.383,0,0,0,.332-.382v-.423a3.544,3.544,0,0,0,.847-.351l.3.3a.383.383,0,0,0,.5.035A4.322,4.322,0,0,0,17.5,16.6a.383.383,0,0,0-.035-.505l-.3-.3a3.554,3.554,0,0,0,.351-.847Zm-.763-.236a3.172,3.172,0,0,1-.418,1.009.194.194,0,0,0,.026.241l.405.405a3.932,3.932,0,0,1-.776.775l-.4-.4a.194.194,0,0,0-.241-.027,3.167,3.167,0,0,1-1.009.418.194.194,0,0,0-.151.189v.573a3.976,3.976,0,0,1-1.1,0v-.573a.194.194,0,0,0-.151-.189,3.172,3.172,0,0,1-1.009-.418.194.194,0,0,0-.241.026l-.405.405a3.932,3.932,0,0,1-.774-.776l.4-.4a.194.194,0,0,0,.027-.241,3.167,3.167,0,0,1-.418-1.009.194.194,0,0,0-.189-.151h-.574a3.967,3.967,0,0,1,0-1.1h.572a.194.194,0,0,0,.189-.151,3.17,3.17,0,0,1,.418-1.009.194.194,0,0,0-.027-.241l-.4-.405a3.932,3.932,0,0,1,.776-.774l.4.405a.194.194,0,0,0,.241.026,3.172,3.172,0,0,1,1.009-.418.194.194,0,0,0,.151-.189v-.574a3.976,3.976,0,0,1,1.1,0V10.7a.194.194,0,0,0,.151.189,3.172,3.172,0,0,1,1.009.418.194.194,0,0,0,.241-.026l.405-.405a3.932,3.932,0,0,1,.775.776l-.4.4a.194.194,0,0,0-.027.241,3.167,3.167,0,0,1,.418,1.009.194.194,0,0,0,.189.151h.573a3.967,3.967,0,0,1,0,1.1h-.573a.194.194,0,0,0-.189.152Zm-3.117-2.987a2.287,2.287,0,1,0,2.287,2.287,2.287,2.287,0,0,0-2.287-2.287Zm0,4.186a1.9,1.9,0,1,1,1.9-1.9,1.9,1.9,0,0,1-1.9,1.9Zm-4.132-5.7a5.589,5.589,0,0,0-.53.673.194.194,0,0,1-.322-.216,5.989,5.989,0,0,1,.568-.719.194.194,0,0,1,.285.262Zm.662-.859a.194.194,0,0,1,.048-.269,6,6,0,0,1,7.024.129l-.065-.181a.194.194,0,1,1,.364-.131l.312.866a.194.194,0,0,1-.182.259.181.181,0,0,1-.034,0l-.906-.162a.194.194,0,1,1,.068-.381l.2.036A5.616,5.616,0,0,0,10.854,9.4.194.194,0,0,1,10.585,9.35ZM8.608,15.365a.194.194,0,0,1-.141.234.185.185,0,0,1-.047.006.194.194,0,0,1-.188-.147,6.013,6.013,0,0,1-.138-.755.194.194,0,1,1,.384-.045,5.605,5.605,0,0,0,.129.707Zm-.551-1.528a5.987,5.987,0,0,1,.065-.72.194.194,0,1,1,.383.058,5.606,5.606,0,0,0-.061.673.194.194,0,0,1-.194.188H8.244A.194.194,0,0,1,8.057,13.837Zm.886-2.145a5.627,5.627,0,0,0-.254.672.194.194,0,1,1-.37-.113,6.021,6.021,0,0,1,.271-.719.194.194,0,0,1,.353.159Zm10.561.963a.194.194,0,1,1,.376-.094,6.021,6.021,0,0,1,.138.755.194.194,0,0,1-.169.215h-.023a.194.194,0,0,1-.192-.171,5.57,5.57,0,0,0-.129-.706Zm.551,1.527a5.987,5.987,0,0,1-.065.72.194.194,0,0,1-.191.165l-.029,0a.194.194,0,0,1-.162-.22,5.606,5.606,0,0,0,.062-.672.194.194,0,0,1,.387.011ZM19.04,17.353a5.989,5.989,0,0,1-.567.719.194.194,0,1,1-.285-.262,5.589,5.589,0,0,0,.53-.673.194.194,0,1,1,.322.216Zm.753-1.586a6.021,6.021,0,0,1-.271.719.194.194,0,1,1-.353-.159,5.628,5.628,0,0,0,.254-.672.194.194,0,1,1,.37.113Zm-2.267,2.9a.194.194,0,0,1-.048.269,6,6,0,0,1-7.024-.129l.065.18a.194.194,0,0,1-.363.131l-.314-.866A.194.194,0,0,1,10.058,18l.906.162a.194.194,0,1,1-.068.381l-.2-.036a5.616,5.616,0,0,0,6.561.113.194.194,0,0,1,.27.049Z" transform="translate(61.943 621.99)" fill="#313131"/>
    <circle id="Ellipse_195" data-name="Ellipse 195" cx="2" cy="2" r="2" transform="translate(74 634)" fill="#d3e0f4"/>
  </g>
</svg>
