<svg id="Unpin-white" xmlns="http://www.w3.org/2000/svg" width="10" height="10" viewBox="0 0 10 10">
  <g id="Group_15461" data-name="Group 15461" transform="translate(0 0)">
    <path id="Path_3183" data-name="Path 3183" d="M344.527,4.815c.3-.552.722-.649,1.135-.248.9.873,1.779,1.765,2.615,2.6a.73.73,0,0,1-.455.958c-.66.314-1.306.657-2.054,1.037l.49.444,1.724-.85c.092-.045.188-.083.275-.137a1.227,1.227,0,0,0,.308-2.024q-1.222-1.3-2.525-2.532a1.208,1.208,0,0,0-1.943.291c-.38.654-.689,1.348-1.043,2.051l.475.392c.352-.7.662-1.346,1-1.977" transform="translate(-338.992 -3.648)" fill="#fff"/>
    <path id="Path_3184" data-name="Path 3184" d="M9.9,9.443.557.1A.326.326,0,0,0,.248.009a.186.186,0,0,0-.169.1v0A.326.326,0,0,0,.1.557L.153.615C.207.678.271.736.33.795q.588.589,1.182,1.178L2.882,3.344a.189.189,0,0,1-.094.267l-.558.227c-.266.108-.535.207-.8.326-.664.3-.756.72-.24,1.219.453.437.932.847,1.445,1.3a.189.189,0,0,1,.059.182L.593,8.838a.326.326,0,0,0,.446.476L3.09,7.392a.189.189,0,0,1,.232.035c.443.472.881.937,1.315,1.407a.685.685,0,0,0,1,.138.191.191,0,0,0,.068-.083l.7-1.656a.189.189,0,0,1,.308-.06c.735.737,1.43,1.439,2.127,2.127l.6.6a.326.326,0,0,0,.384.057.189.189,0,0,0,.052-.033l0,0L9.9,9.91,9.9,9.9a.326.326,0,0,0,0-.461m-4-2.688-.53,1.359a.189.189,0,0,1-.31.065L1.855,4.959a.189.189,0,0,1,.063-.308l1.32-.537a.189.189,0,0,1,.2.041l2.416,2.4a.189.189,0,0,1,.043.2" transform="translate(0 0)" fill="#fff"/>
  </g>
</svg>
