<svg id="Unpin" xmlns="http://www.w3.org/2000/svg" width="10" height="10" viewBox="0 0 10 10">
  <g id="Group_15461" data-name="Group 15461">
    <path id="Path_3183" data-name="Path 3183" d="M344.523,4.811c.294-.551.72-.647,1.131-.247.9.87,1.773,1.759,2.607,2.589a.727.727,0,0,1-.454.955c-.658.313-1.3.655-2.047,1.033l.488.443,1.718-.847c.091-.045.187-.083.274-.136a1.223,1.223,0,0,0,.307-2.018q-1.218-1.3-2.517-2.524a1.2,1.2,0,0,0-1.937.29c-.378.651-.687,1.343-1.04,2.044l.473.39c.351-.7.659-1.342,1-1.971" transform="translate(-338.972 -3.648)" fill="#7e7e7e"/>
    <path id="Path_3184" data-name="Path 3184" d="M9.9,9.443.557.1A.326.326,0,0,0,.248.009a.186.186,0,0,0-.169.1v0A.326.326,0,0,0,.1.557L.153.615C.207.678.271.736.33.795q.588.589,1.182,1.178L2.882,3.344a.189.189,0,0,1-.094.267l-.558.227c-.266.108-.535.207-.8.326-.664.3-.756.72-.24,1.219.453.437.932.847,1.445,1.3a.189.189,0,0,1,.059.182L.593,8.838a.326.326,0,0,0,.446.476L3.09,7.392a.189.189,0,0,1,.232.035c.443.472.881.937,1.315,1.407a.685.685,0,0,0,1,.138.191.191,0,0,0,.068-.083l.7-1.656a.189.189,0,0,1,.308-.06c.735.737,1.43,1.439,2.127,2.127l.6.6a.326.326,0,0,0,.384.057.189.189,0,0,0,.052-.033l0,0L9.9,9.91,9.9,9.9a.326.326,0,0,0,0-.461m-4-2.688-.53,1.359a.189.189,0,0,1-.31.065L1.855,4.959a.189.189,0,0,1,.063-.308l1.32-.537a.189.189,0,0,1,.2.041l2.416,2.4a.189.189,0,0,1,.043.2" transform="translate(0 0)" fill="#7e7e7e"/>
  </g>
</svg>
