<svg xmlns="http://www.w3.org/2000/svg" width="5.001" height="5" viewBox="0 0 5.001 5">
  <g id="view-link" transform="translate(0 -0.036)">
    <path id="XMLID_106_" d="M2.692,104.037l-.765.765h0a.812.812,0,0,1-1.148-1.148h0l.765-.765a.271.271,0,0,0-.383-.383l-.765.765h0a1.353,1.353,0,0,0,1.913,1.913h0l.765-.765a.271.271,0,0,0-.383-.383Z" transform="translate(0 -100.545)" fill="#fff"/>
    <path id="XMLID_107_" d="M105.578,1.388a1.353,1.353,0,0,0-2.309-.957h0L102.5,1.2a.271.271,0,1,0,.383.383l.765-.765h0A.812.812,0,0,1,104.8,1.962h0l-.765.765a.271.271,0,1,0,.383.383l.765-.765h0A1.344,1.344,0,0,0,105.578,1.388Z" transform="translate(-100.577)" fill="#fff"/>
    <path id="XMLID_108_" d="M81.293,83.205a.271.271,0,0,0,.383,0l1.53-1.53a.271.271,0,0,0-.383-.383l-1.53,1.53A.271.271,0,0,0,81.293,83.205Z" transform="translate(-79.749 -79.713)" fill="#fff"/>
  </g>
</svg>
