<svg id="warning" xmlns="http://www.w3.org/2000/svg" width="19" height="18.999" viewBox="0 0 19 18.999">
  <path id="Path_3186" data-name="Path 3186" d="M10.434,17.256a.445.445,0,0,1-.184-.039,5.279,5.279,0,1,1,6.716-7.454.453.453,0,0,1-.785.451,4.374,4.374,0,1,0-5.564,6.177.452.452,0,0,1-.184.866Z" transform="translate(-2.889 -2.889)" fill="#cb6641"/>
  <path id="Path_3187" data-name="Path 3187" d="M22.563,24.735h-9.2a1.325,1.325,0,0,1-1.148-1.988l4.6-7.966a1.313,1.313,0,0,1,1.148-.663h0a1.311,1.311,0,0,1,1.147.663l4.6,7.966a1.325,1.325,0,0,1-1.147,1.988Zm-4.6-9.712a.414.414,0,0,0-.365.211L13,23.2a.421.421,0,0,0,.365.631h9.2a.42.42,0,0,0,.364-.631l-4.6-7.966a.413.413,0,0,0-.364-.21Z" transform="translate(-4.89 -5.736)" fill="#cb6641"/>
  <path id="Path_3188" data-name="Path 3188" d="M21.709,22.627a.453.453,0,0,1-.452-.452V19.537a.452.452,0,1,1,.9,0v2.637A.453.453,0,0,1,21.709,22.627Z" transform="translate(-8.636 -7.754)" fill="#cb6641"/>
  <path id="Path_3189" data-name="Path 3189" d="M3.953,16.951a1.049,1.049,0,0,1-.745-.309l-.85-.851a1.052,1.052,0,0,1,0-1.49l.665-.665A7.634,7.634,0,0,1,2,11.159H1.056A1.057,1.057,0,0,1,0,10.1V8.9A1.057,1.057,0,0,1,1.056,7.842H2A7.633,7.633,0,0,1,3.024,5.365L2.358,4.7a1.052,1.052,0,0,1,0-1.49l.85-.85a1.078,1.078,0,0,1,1.49,0l.666.665A7.623,7.623,0,0,1,7.841,2V1.056A1.057,1.057,0,0,1,8.9,0H10.1a1.057,1.057,0,0,1,1.056,1.056V2a7.624,7.624,0,0,1,2.477,1.025l.666-.665a1.079,1.079,0,0,1,1.49,0l.85.851a1.052,1.052,0,0,1,0,1.49l-.665.665A7.634,7.634,0,0,1,17,7.842h.942A1.057,1.057,0,0,1,19,8.9V10.1a1.057,1.057,0,0,1-1.056,1.056H16.749a.452.452,0,0,1,0-.9h1.194a.153.153,0,0,0,.151-.151V8.9a.153.153,0,0,0-.151-.151H16.629a.453.453,0,0,1-.446-.376,6.756,6.756,0,0,0-1.16-2.8.452.452,0,0,1,.049-.582L16,4.059a.147.147,0,0,0,0-.21L15.151,3a.13.13,0,0,0-.211,0l-.929.929a.453.453,0,0,1-.582.049,6.759,6.759,0,0,0-2.8-1.159.452.452,0,0,1-.376-.446V1.056A.153.153,0,0,0,10.1.905H8.9a.153.153,0,0,0-.151.151V2.371a.452.452,0,0,1-.376.446,6.759,6.759,0,0,0-2.8,1.159.453.453,0,0,1-.582-.049L4.059,3a.129.129,0,0,0-.211,0L3,3.849a.148.148,0,0,0,0,.21l.929.929a.452.452,0,0,1,.049.582,6.756,6.756,0,0,0-1.16,2.8.453.453,0,0,1-.446.376H1.056A.153.153,0,0,0,.9,8.9V10.1a.153.153,0,0,0,.151.151H2.37a.453.453,0,0,1,.446.376,6.756,6.756,0,0,0,1.16,2.8.452.452,0,0,1-.049.582L3,14.941a.147.147,0,0,0,0,.21l.85.851a.13.13,0,0,0,.211,0l.929-.929a.452.452,0,0,1,.58-.05,7.639,7.639,0,0,0,.973.58.452.452,0,1,1-.4.809,8.554,8.554,0,0,1-.772-.437l-.666.666a1.047,1.047,0,0,1-.745.309Z" transform="translate(0 -0.001)" fill="#cb6641"/>
  <circle id="Ellipse_173" data-name="Ellipse 173" cx="0.452" cy="0.452" r="0.452" transform="translate(12.624 15.796)" fill="#cb6641"/>
</svg>
