<svg xmlns="http://www.w3.org/2000/svg" xmlns:xlink="http://www.w3.org/1999/xlink" width="17.185" height="18" viewBox="0 0 17.185 18">
  <defs>
    <linearGradient id="linear-gradient" y1="0.866" x2="1" y2="0.226" gradientUnits="objectBoundingBox">
      <stop offset="0" stop-color="#63669f"/>
      <stop offset="1" stop-color="#888ed9"/>
    </linearGradient>
  </defs>
  <path id="Subtraction_4" data-name="Subtraction 4" d="M13.971,18H3.213A3.252,3.252,0,0,1,0,14.727,5.628,5.628,0,0,1,5.56,9.063h6.064a5.628,5.628,0,0,1,5.56,5.664A3.253,3.253,0,0,1,13.971,18ZM8.592,8.5a4.283,4.283,0,0,1-4.306-4.25,4.306,4.306,0,0,1,8.611,0A4.292,4.292,0,0,1,8.592,8.5Z" transform="translate(0)" fill="url(#linear-gradient)"/>
</svg>
