<?xml version="1.0" encoding="UTF-8"?>
<svg id="Layer_1" data-name="Layer 1" xmlns="http://www.w3.org/2000/svg" viewBox="0 0 15.51 17.59">
  <defs>
    <style>
      .cls-1 {
        fill: #8a8bb5;
        stroke-width: 0px;
      }
    </style>
  </defs>
  <g id="alarms">
    <g id="Group_14755" data-name="Group 14755">
      <path id="Path_2475" data-name="Path 2475" class="cls-1" d="M13.1,9v-1.65c0-2.35-1.54-4.42-3.79-5.11v-.75C9.27.64,8.55-.03,7.7,0c-.81.03-1.47.68-1.49,1.49v.75c-2.25.69-3.79,2.76-3.79,5.11v1.65c0,2.1-.81,4.13-2.27,5.64-.2.21-.19.53.01.73.1.09.22.14.36.14h4.7c.29,1.4,1.65,2.3,3.05,2.01,1.01-.21,1.81-1,2.01-2.01h4.7c.29,0,.52-.23.52-.52,0-.13-.05-.26-.14-.36-1.46-1.52-2.27-3.54-2.27-5.64h.01ZM7.24,1.5c0-.29.23-.52.52-.52s.52.23.52.52v.54c-.17-.02-.34-.03-.52-.03s-.35,0-.52.03v-.54ZM7.76,16.56c-.66,0-1.24-.42-1.46-1.03h2.92c-.22.62-.8,1.03-1.46,1.03h0ZM1.63,14.49c1.18-1.58,1.82-3.51,1.81-5.48v-1.65c-.04-2.38,1.86-4.34,4.24-4.37,2.38-.04,4.34,1.86,4.37,4.24,0,.04,0,.09,0,.13v1.65c0,1.98.63,3.9,1.81,5.48H1.63Z"/>
      <path id="Path_2476" data-name="Path 2476" class="cls-1" d="M14.47,7.35c0,.29.23.52.52.52.29,0,.52-.23.52-.52h0c0-2.06-.81-4.03-2.27-5.49-.2-.21-.52-.21-.73-.02s-.21.52-.02.73c0,0,0,.01.02.02,1.27,1.26,1.97,2.97,1.97,4.75h0Z"/>
      <path id="Path_2477" data-name="Path 2477" class="cls-1" d="M.52,7.87c.29,0,.52-.23.52-.52,0-1.78.7-3.5,1.97-4.75.21-.2.21-.53.01-.73s-.53-.21-.73-.01c0,0,0,0-.01.01C.81,3.32,0,5.3,0,7.36c0,.29.23.52.52.52Z"/>
    </g>
  </g>
</svg>