<svg xmlns="http://www.w3.org/2000/svg" width="15.509" height="17.644" viewBox="0 0 15.509 17.644">
  <g id="alarms" transform="translate(-3123 -2738.648)">
    <g id="Group_14755" data-name="Group 14755" transform="translate(3123 2738.648)">
      <path id="Path_2475" data-name="Path 2475" d="M44.094,9.058V7.409A5.351,5.351,0,0,0,40.3,2.3V1.55a1.551,1.551,0,0,0-3.1,0V2.3a5.351,5.351,0,0,0-3.791,5.111V9.058A8.116,8.116,0,0,1,31.142,14.7a.517.517,0,0,0,.373.875h4.7a2.585,2.585,0,0,0,5.065,0h4.7a.517.517,0,0,0,.373-.875,8.117,8.117,0,0,1-2.269-5.643ZM38.236,1.55a.517.517,0,0,1,1.034,0v.542q-.255-.025-.517-.025c-.174,0-.347.009-.517.025Zm.517,15.06a1.553,1.553,0,0,1-1.461-1.034h2.924a1.553,1.553,0,0,1-1.461,1.034Zm-6.123-2.068a9.139,9.139,0,0,0,1.815-5.484V7.409a4.308,4.308,0,0,1,8.615,0V9.058a9.139,9.139,0,0,0,1.815,5.484Z" transform="translate(-30.998 0)" fill="#ADADAD"/>
      <path id="Path_2476" data-name="Path 2476" d="M391.612,57.141a.517.517,0,0,0,1.034,0,7.7,7.7,0,0,0-2.271-5.483.517.517,0,1,0-.731.731,6.676,6.676,0,0,1,1.969,4.754Z" transform="translate(-377.138 -49.732)" fill="#ADADAD"/>
      <path id="Path_2477" data-name="Path 2477" d="M31.517,57.658a.517.517,0,0,0,.517-.517A6.676,6.676,0,0,1,34,52.387a.517.517,0,1,0-.731-.731A7.7,7.7,0,0,0,31,57.141a.517.517,0,0,0,.517.517Z" transform="translate(-30.999 -49.731)" fill="#ADADAD"/>
    </g>
  </g>
</svg>
