<svg xmlns="http://www.w3.org/2000/svg" width="17.873" height="17.793" viewBox="0 0 17.873 17.793">
  <g id="audits" transform="translate(-3278 -2876.469)">
    <g id="Group_15537" data-name="Group 15537" transform="translate(3278 2876.469)">
      <g id="Group_15394" data-name="Group 15394" transform="translate(0 0)">
        <path id="Path_3353" data-name="Path 3353" d="M9,19.879H.635V4.635H2.858a.318.318,0,0,0,0-.635H.318A.319.319,0,0,0,0,4.318V20.2a.319.319,0,0,0,.318.318H9a.318.318,0,1,0,0-.635" transform="translate(0 -2.73)" fill="#ADADAD"/>
        <path id="Path_3354" data-name="Path 3354" d="M34.318,4.635h2.223v6.279a.318.318,0,1,0,.635,0v-6.6A.319.319,0,0,0,36.858,4H34.318a.318.318,0,1,0,0,.635" transform="translate(-23.202 -2.73)" fill="#ADADAD"/>
        <path id="Path_3355" data-name="Path 3355" d="M28.351,46.344v2.223H22.613a.318.318,0,1,0,0,.635h6.056a.319.319,0,0,0,.318-.318V46.344a.318.318,0,0,0-.635,0" transform="translate(-15.214 -31.409)" fill="#ADADAD"/>
        <path id="Path_3356" data-name="Path 3356" d="M12.318,3.176h5.717a.319.319,0,0,0,.318-.318V1.588a.319.319,0,0,0-.318-.318h-1.3a1.588,1.588,0,0,0-3.112,0h-1.3A.319.319,0,0,0,12,1.588v1.27a.319.319,0,0,0,.318.318m.318-1.27h1.27a.319.319,0,0,0,.318-.318.953.953,0,0,1,1.906,0,.319.319,0,0,0,.318.318h1.27v.635H12.635Z" transform="translate(-8.189 0)" fill="#ADADAD"/>
        <path id="Path_3357" data-name="Path 3357" d="M7.906,34.318A.319.319,0,0,0,7.588,34H6.318A.319.319,0,0,0,6,34.318v1.27a.319.319,0,0,0,.318.318h1.27a.319.319,0,0,0,.318-.318Zm-.635.953H6.635v-.635H7.27Z" transform="translate(-4.094 -23.202)" fill="#ADADAD"/>
        <path id="Path_3358" data-name="Path 3358" d="M7.588,44H6.318A.319.319,0,0,0,6,44.318v1.27a.319.319,0,0,0,.318.318h1.27a.319.319,0,0,0,.318-.318v-1.27A.319.319,0,0,0,7.588,44M7.27,45.27H6.635v-.635H7.27Z" transform="translate(-4.094 -30.026)" fill="#ADADAD"/>
        <path id="Path_3359" data-name="Path 3359" d="M6.563,14.749a.318.318,0,1,0-.489.407l.53.635a.319.319,0,0,0,.489,0l1.058-1.27a.318.318,0,0,0-.489-.407l-.816.978-.286-.343Z" transform="translate(-4.096 -9.553)" fill="#ADADAD"/>
        <path id="Path_3360" data-name="Path 3360" d="M8.1,24.072a.318.318,0,0,0-.448.041l-.816.978-.286-.343a.318.318,0,0,0-.489.407l.53.635a.319.319,0,0,0,.489,0l1.058-1.27a.318.318,0,0,0-.041-.448Z" transform="translate(-4.089 -16.377)" fill="#ADADAD"/>
        <path id="Path_3361" data-name="Path 3361" d="M22.3,14.318A.319.319,0,0,0,21.987,14H15.318a.318.318,0,1,0,0,.635h6.669a.319.319,0,0,0,.318-.318" transform="translate(-10.236 -9.554)" fill="#ADADAD"/>
        <path id="Path_3362" data-name="Path 3362" d="M15.318,18.635h3.176a.318.318,0,0,0,0-.635H15.318a.318.318,0,1,0,0,.635" transform="translate(-10.236 -12.283)" fill="#ADADAD"/>
        <path id="Path_3363" data-name="Path 3363" d="M21.472,24.318A.319.319,0,0,0,21.155,24H15.318a.318.318,0,0,0,0,.635h5.837a.319.319,0,0,0,.318-.318" transform="translate(-10.236 -16.378)" fill="#ADADAD"/>
        <path id="Path_3364" data-name="Path 3364" d="M15.318,28.635h3.176a.318.318,0,0,0,0-.635H15.318a.318.318,0,0,0,0,.635" transform="translate(-10.236 -19.107)" fill="#ADADAD"/>
        <path id="Path_3365" data-name="Path 3365" d="M15.318,34.635h3.5a.318.318,0,1,0,0-.635h-3.5a.318.318,0,0,0,0,.635" transform="translate(-10.236 -23.202)" fill="#ADADAD"/>
        <path id="Path_3366" data-name="Path 3366" d="M15.318,38.635h3.176a.318.318,0,0,0,0-.635H15.318a.318.318,0,1,0,0,.635" transform="translate(-10.236 -25.931)" fill="#ADADAD"/>
        <path id="Path_3367" data-name="Path 3367" d="M19.256,44.318A.319.319,0,0,0,18.938,44H15.318a.318.318,0,1,0,0,.635h3.621a.319.319,0,0,0,.318-.318" transform="translate(-10.236 -30.026)" fill="#ADADAD"/>
        <path id="Path_3368" data-name="Path 3368" d="M15.318,48a.318.318,0,0,0,0,.635h3.176a.318.318,0,0,0,0-.635Z" transform="translate(-10.236 -32.756)" fill="#ADADAD"/>
        <path id="Path_3370" data-name="Path 3370" d="M37.365,26.458a3.39,3.39,0,1,0-.307,5.071l2.229,2.216a.4.4,0,0,0,.561-.561l-2.216-2.229a3.376,3.376,0,0,0-.267-4.5m-.574,4.231a2.589,2.589,0,0,1-3.661.009l-.009-.009a2.535,2.535,0,0,1-.761-1.828,2.6,2.6,0,1,1,5.2,0,2.549,2.549,0,0,1-.774,1.828" transform="translate(-22.054 -17.38)" fill="#ADADAD"/>
      </g>
    </g>
  </g>
</svg>
