<svg xmlns="http://www.w3.org/2000/svg" width="17.55" height="17.553" viewBox="0 0 17.55 17.553">
  <g id="Background_reports" transform="translate(-2945 -2750.58)">
    <g id="background_reports-2" data-name="background_reports" transform="translate(-45)">
      <g id="Group_15531" data-name="Group 15531" transform="translate(2990 2750.58)">
        <g id="Group_15550" data-name="Group 15550">
          <path id="Path_4062" data-name="Path 4062" d="M17.452,3.3l-.019-.015h0L14.247.1a.345.345,0,0,0-.242-.1H6.733A.928.928,0,0,0,5.81.922V2.634a6.151,6.151,0,0,0,0,12.283v1.713a.928.928,0,0,0,.922.922h9.895a.928.928,0,0,0,.922-.922V3.541a.345.345,0,0,0-.1-.241M11.616,9.117a5.462,5.462,0,0,1-5.453,5.135c-.095,0-.191,0-.285-.007a5.483,5.483,0,0,1-3.346-1.369L6.289,9.117ZM6.489,16.629V14.917a6.159,6.159,0,0,0,5.818-6.141.341.341,0,0,0-.341-.341H6.492V.922A.241.241,0,0,1,6.733.681h6.933V2.959a.928.928,0,0,0,.922.922h2.277V16.629a.241.241,0,0,1-.241.241H6.73a.241.241,0,0,1-.241-.241M14.346,2.956v-1.8L16.385,3.2h-1.8a.241.241,0,0,1-.241-.241M5.81,3.311V8.638L2.05,12.4A5.431,5.431,0,0,1,.673,8.776,5.486,5.486,0,0,1,5.81,3.311" transform="translate(0)" fill="#ADADAD"/>
          <path id="Path_4063" data-name="Path 4063" d="M107.4,27.2a6.174,6.174,0,0,0-6.159-6.159.341.341,0,0,0-.341.341V27.2a.341.341,0,0,0,.341.341h5.818a.341.341,0,0,0,.341-.341m-.693-.338-5.125,0V21.739a5.473,5.473,0,0,1,5.125,5.125" transform="translate(-93.924 -19.588)" fill="#ADADAD"/>
          <rect id="Rectangle_1471" data-name="Rectangle 1471" width="2.427" height="0.681" transform="translate(13.957 4.945)" fill="#ADADAD"/>
          <rect id="Rectangle_1472" data-name="Rectangle 1472" width="2.427" height="0.681" transform="translate(13.957 6.69)" fill="#ADADAD"/>
          <rect id="Rectangle_1473" data-name="Rectangle 1473" width="2.427" height="0.681" transform="translate(13.957 8.435)" fill="#ADADAD"/>
        </g>
      </g>
    </g>
  </g>
</svg>
