<?xml version="1.0" encoding="UTF-8"?>
<svg id="Layer_1" data-name="Layer 1" xmlns="http://www.w3.org/2000/svg" viewBox="0 0 17.85 17.91">
  <defs>
    <style>
      .cls-1 {
        fill: #8a8bb5;
        stroke-width: 0px;
      }
    </style>
  </defs>
  <g id="changes">
    <g id="Group_504" data-name="Group 504">
      <g id="Group_15539" data-name="Group 15539">
        <path id="Path_4119" data-name="Path 4119" class="cls-1" d="M15.38,8.2c-.25,0-.45-.21-.45-.46,0-.12.05-.23.13-.32l.1-.1h-.45c-.68-.03-1.3-.42-1.62-1.02l-.19-.29-.2.3c-.32.6-.93.98-1.6,1.01h-.71c-.25,0-.45-.2-.45-.45s.2-.45.45-.45h.7c.36-.03.68-.24.84-.57l.43-.68-.42-.66c-.16-.34-.49-.56-.86-.59h-.69c-.25,0-.45-.2-.45-.45,0-.25.2-.45.45-.45h.7c.68.03,1.3.42,1.62,1.02l.19.29.2-.3c.32-.6.93-.98,1.61-1.01h.45l-.1-.1c-.17-.18-.16-.47.03-.64.17-.16.44-.16.61,0h0l.88.88c.18.17.18.46,0,.63,0,0,0,0,0,0l-.88.88c-.18.17-.47.16-.64-.03-.16-.17-.16-.44,0-.61l.1-.1h-.45c-.36.03-.68.24-.84.57l-.43.68.42.66c.16.33.49.56.86.59h.44l-.1-.1c-.18-.17-.19-.45-.03-.63,0,0,0,0,0,0,.17-.18.45-.2.64-.03h0s.02.02.02.03l.88.88c.18.17.18.46,0,.63,0,0,0,0,0,0l-.88.88c-.08.09-.2.13-.32.13M7.3,8.1c-.12,0-.24-.05-.32-.14-.09-.08-.13-.2-.13-.32V.45C6.85.2,7.05,0,7.3,0c0,0,0,0,0,0h1.48c.25,0,.45.2.45.45,0,0,0,0,0,0v7.19c0,.25-.2.45-.45.45,0,0,0,0,0,0h-1.48ZM8.32.91h-.57v6.28h.57V.91ZM4.56,8.1c-.25,0-.45-.21-.45-.46V2.5c0-.25.2-.45.45-.45,0,0,0,0,0,0h1.47c.25,0,.45.2.45.45,0,0,0,0,0,0v5.14c0,.25-.2.45-.45.45,0,0,0,0,0,0h-1.47ZM5.58,7.19V2.95h-.57v4.23h.57,0ZM1.83,8.1c-.25,0-.45-.2-.45-.45,0,0,0,0,0,0h0v-3.28c0-.25.2-.45.45-.45,0,0,0,0,0,0h1.47c.25,0,.45.2.45.45,0,0,0,0,0,0h0v3.27c0,.25-.2.46-.45.46h-1.48M2.85,7.19v-2.37h-.57v2.36h.57Z"/>
        <path id="Path_4120" data-name="Path 4120" class="cls-1" d="M9.79,17.88h-1.7c-.19,0-.36-.12-.43-.29l-.49-1.28c-.85-.12-1.66-.44-2.37-.93l-1.08.57c-.06.03-.12.04-.19.04-.12,0-.24-.05-.32-.14l-1.2-1.2c-.13-.13-.17-.33-.1-.5l.56-1.26c-.51-.69-.86-1.48-1.02-2.32l-1.16-.36C.11,10.14,0,9.98,0,9.79v-.85c0-.25.2-.45.45-.45,0,0,0,0,0,0h3.57c.25,0,.45.2.45.45,0,0,0,0,0,0h0c0,2.46,2,4.46,4.46,4.46,2.46,0,4.46-2,4.46-4.46,0-.25.2-.45.45-.45,0,0,0,0,0,0h3.69l.02.05h0c.19.04.31.21.3.4v.85c0,.19-.12.36-.29.43l-1.28.49c-.12.85-.44,1.66-.93,2.36l.57,1.08c.08.17.04.37-.09.51l-1.2,1.2c-.08.09-.2.14-.32.14-.06,0-.12-.02-.18-.04l-1.25-.54c-.69.51-1.48.86-2.32,1.02l-.36,1.17c-.06.18-.23.3-.42.3M4.94,14.47c.09,0,.18.02.25.07.74.5,1.57.84,2.44,1.01.15.03.28.14.34.28l.43,1.13h1.08l.44-1.14c.06-.15.19-.25.34-.28.87-.17,1.7-.51,2.44-1.01.07-.05.16-.08.25-.08.07,0,.13.02.19.04l1.1.5.76-.76-.49-1.1c-.06-.14-.05-.31.04-.44.5-.74.84-1.57,1.02-2.44.03-.15.14-.28.28-.34l1.13-.43v-.08h-2.68c-.24,2.67-2.4,4.75-5.07,4.9h-.29c-2.78-.01-5.1-2.14-5.35-4.91H.91v.08l1.13.44c.14.06.25.19.28.34.17.88.52,1.71,1.02,2.45.09.13.1.3.04.44l-.5,1.11.76.76,1.11-.5c.06-.02.12-.04.19-.04"/>
      </g>
    </g>
  </g>
</svg>