<?xml version="1.0" encoding="UTF-8"?>
<svg id="Layer_1" data-name="Layer 1" xmlns="http://www.w3.org/2000/svg" viewBox="0 0 17.86 17.87">
  <defs>
    <style>
      .cls-1 {
        fill: #8a8bb5;
        stroke-width: 0px;
      }
    </style>
  </defs>
  <g id="services">
    <g id="settings">
      <g id="Group_15515" data-name="Group 15515">
        <g id="Group_15514" data-name="Group 15514">
          <path id="Path_4101" data-name="Path 4101" class="cls-1" d="M16.6,7.03h-1.44c-.12-.39-.28-.77-.47-1.13l1.01-1.01c.45-.45.45-1.18,0-1.63l-1.09-1.09c-.46-.43-1.17-.43-1.63,0l-1.01,1.01c-.36-.19-.74-.35-1.13-.47v-1.43c0-.64-.51-1.15-1.15-1.15t0,0h-1.53c-.63,0-1.15.52-1.15,1.15v1.44c-.39.12-.77.28-1.13.47l-1.02-1.01c-.45-.45-1.18-.45-1.63,0l-1.09,1.09c-.45.45-.45,1.18,0,1.63l1.01,1.01c-.19.36-.35.75-.47,1.14h-1.43c-.64,0-1.15.51-1.15,1.15h0v1.53c0,.63.52,1.15,1.15,1.15h1.44c.12.39.28.77.47,1.13l-1.01,1.01c-.45.45-.45,1.18,0,1.63l1.09,1.09c.45.45,1.18.45,1.63,0l1.01-1.01c.36.19.74.35,1.13.47v1.43c0,.63.52,1.15,1.15,1.15h1.53c.63,0,1.15-.52,1.15-1.15v-1.44c.39-.12.77-.28,1.13-.47l1.01,1.01c.46.43,1.17.43,1.63,0l1.08-1.09c.45-.45.45-1.18,0-1.63l-1.01-1.01c.19-.36.35-.74.47-1.13h1.43c.63,0,1.15-.52,1.15-1.15v-1.53c0-.63-.52-1.15-1.15-1.15h.02ZM16.99,9.71c0,.21-.17.38-.38.38h-1.72c-.18,0-.33.12-.37.29-.13.52-.34,1.02-.61,1.48-.09.15-.06.34.06.47l1.22,1.22c.15.15.15.39,0,.54,0,0,0,0,0,0l-1.09,1.09c-.15.14-.39.14-.54,0l-1.22-1.22c-.13-.12-.32-.15-.47-.06-.46.27-.96.48-1.48.61-.17.04-.29.19-.29.37v1.73c0,.21-.17.38-.38.38h-1.53c-.21,0-.38-.17-.38-.38v-1.73c0-.18-.12-.33-.29-.37-.52-.13-1.02-.34-1.48-.61-.06-.03-.13-.05-.2-.05-.1,0-.2.04-.27.11l-1.22,1.22c-.15.15-.39.15-.54,0,0,0,0,0,0,0l-1.09-1.09c-.15-.15-.15-.39,0-.54,0,0,0,0,0,0l1.22-1.22c.12-.13.15-.32.06-.47-.27-.46-.48-.96-.61-1.48-.04-.17-.19-.29-.37-.29h-1.72c-.21,0-.38-.17-.38-.38h0v-1.53c0-.21.17-.38.38-.38h1.72c.18,0,.33-.12.37-.29.13-.52.34-1.02.61-1.49.09-.15.06-.34-.06-.47l-1.22-1.22c-.15-.15-.15-.39,0-.54,0,0,0,0,0,0l1.08-1.08c.15-.15.39-.15.54,0,0,0,0,0,0,0l1.22,1.22c.13.12.32.15.47.06.46-.27.96-.48,1.48-.61.17-.04.29-.19.29-.37v-1.72c0-.21.17-.38.38-.38h1.53c.21,0,.38.17.38.38h0v1.73c0,.18.12.33.29.37.52.13,1.02.34,1.48.61.15.09.34.06.46-.06l1.22-1.22c.15-.14.39-.14.54,0l1.09,1.09c.15.15.15.39,0,.54,0,0,0,0,0,0l-1.22,1.22c-.12.13-.15.32-.06.47.27.46.48.96.61,1.48.04.17.19.29.37.29h1.72c.21,0,.38.17.38.38v1.53h.02Z"/>
          <path id="Path_4101_-_Outline" data-name="Path 4101 - Outline" class="cls-1" d="M8.17,0h1.53c.7,0,1.27.57,1.27,1.27v1.34c.34.11.67.25.98.41l.95-.95c.24-.23.56-.36.9-.36h0c.34,0,.66.13.9.36l1.09,1.09c.5.49.5,1.3,0,1.79,0,0,0,0,0,0l-.95.95c.16.32.3.65.41.99h1.34c.7,0,1.27.57,1.27,1.27v1.54c0,.7-.57,1.27-1.27,1.27h-1.34c-.11.34-.25.67-.41.98l.95.95c.5.49.5,1.3,0,1.79,0,0,0,0,0,0l-1.09,1.09c-.5.48-1.3.48-1.8,0l-.95-.95c-.32.16-.64.3-.98.41v1.34c0,.7-.57,1.27-1.27,1.27h-1.53c-.7,0-1.27-.57-1.28-1.27v-1.34c-.34-.11-.67-.25-.99-.41l-.95.95c-.5.49-1.3.49-1.8,0l-1.09-1.09c-.5-.49-.5-1.3,0-1.79,0,0,0,0,0,0l.95-.95c-.16-.32-.3-.64-.41-.98h-1.34C.56,10.97,0,10.41,0,9.71H0v-1.53c0-.7.57-1.27,1.27-1.27h1.34c.11-.34.25-.67.41-.99l-.95-.95c-.49-.5-.49-1.3,0-1.8l1.08-1.09c.49-.5,1.29-.5,1.79,0,0,0,0,0,0,0l.95.95c.32-.16.65-.3.99-.41v-1.34c0-.7.58-1.28,1.28-1.28ZM12.01,3.33l-.08-.04c-.36-.19-.73-.34-1.11-.46l-.09-.03v-1.53c0-.56-.45-1.02-1.02-1.02,0,0,0,0,0,0h-1.53c-.56,0-1.02.46-1.03,1.02v1.53l-.09.02c-.38.12-.76.27-1.11.46l-.08.04-1.08-1.08c-.4-.4-1.05-.4-1.45,0l-1.08,1.09c-.4.4-.4,1.05,0,1.45l1.08,1.08-.04.08c-.19.35-.34.73-.46,1.11l-.03.09h-1.52c-.56,0-1.02.46-1.02,1.02,0,0,0,0,0,.01v1.53c0,.56.45,1.02,1.02,1.02,0,0,0,0,0,0h1.53l.03.09c.12.38.27.76.46,1.11l.04.08-1.08,1.08c-.4.4-.4,1.05,0,1.45l1.09,1.08c.4.4,1.05.4,1.45,0l1.08-1.08.08.04c.36.19.73.34,1.11.46l.09.03v1.53c0,.56.46,1.02,1.02,1.02h1.53c.56,0,1.02-.45,1.02-1.02,0,0,0,0,0,0v-1.52l.09-.03c.38-.12.76-.27,1.11-.46l.08-.04,1.08,1.08c.4.39,1.05.39,1.45,0l1.08-1.08c.4-.4.4-1.05,0-1.45l-1.08-1.08.04-.08c.19-.36.34-.73.46-1.11l.03-.09h1.53c.56,0,1.02-.46,1.02-1.02v-1.53c0-.56-.46-1.02-1.02-1.03h-1.52l-.03-.09c-.12-.38-.27-.76-.46-1.11l-.04-.08,1.08-1.08c.4-.4.4-1.05,0-1.45l-1.08-1.09c-.4-.39-1.05-.39-1.45,0l-1.08,1.08h-.02ZM8.17.77h1.53c.28,0,.51.23.51.51v1.73c0,.12.08.22.19.25.53.14,1.04.35,1.52.63.04.02.08.04.13.04.07,0,.13-.03.18-.08l1.22-1.22c.2-.19.52-.19.72,0l1.08,1.08c.2.2.2.52,0,.72,0,0,0,0,0,0l-1.22,1.22c-.08.08-.1.21-.04.31.28.47.49.99.63,1.52.03.11.13.19.25.19h1.72c.28,0,.51.23.51.51v1.53c0,.28-.23.51-.51.51h-1.72c-.12,0-.22.08-.25.19-.14.53-.35,1.04-.63,1.52-.06.1-.04.23.04.31l1.22,1.22c.2.2.2.52,0,.72,0,0,0,0,0,0l-1.09,1.08c-.2.19-.52.19-.72,0l-1.22-1.22c-.05-.04-.11-.07-.18-.08-.05,0-.09.01-.13.04-.47.28-.99.49-1.52.63-.11.03-.19.13-.19.25v1.72c0,.28-.23.51-.51.51h-1.53c-.28,0-.51-.23-.51-.51v-1.72c0-.12-.08-.22-.19-.25-.53-.14-1.04-.35-1.52-.63-.1-.06-.23-.04-.31.04l-1.22,1.22c-.2.2-.52.2-.72,0,0,0,0,0,0,0l-1.09-1.08c-.2-.2-.2-.52,0-.72,0,0,0,0,0,0h0l1.22-1.22c.08-.08.1-.21.04-.31-.28-.47-.49-.99-.63-1.52-.03-.11-.13-.19-.25-.19h-1.72c-.28,0-.51-.23-.51-.51v-1.53c0-.28.23-.51.51-.51h1.72c.12,0,.22-.08.25-.19.14-.53.35-1.04.63-1.52.06-.1.04-.23-.04-.31l-1.22-1.22c-.2-.2-.2-.52,0-.72,0,0,0,0,0,0l1.09-1.09c.2-.2.52-.2.72,0,0,0,0,0,0,0l1.22,1.22c.08.08.21.1.31.04.47-.28.99-.49,1.52-.63.11-.03.19-.13.19-.25v-1.72c0-.28.23-.51.51-.51h.01ZM12.06,4.17c-.09,0-.18-.02-.26-.07-.45-.27-.94-.47-1.45-.6-.22-.06-.38-.26-.38-.49v-1.73c0-.14-.12-.26-.26-.26h-1.53c-.14,0-.26.12-.26.26v1.73c0,.23-.16.43-.38.49-.51.13-1,.33-1.45.6-.2.12-.46.09-.62-.08l-1.22-1.22c-.1-.1-.27-.1-.37,0l-1.08,1.09c-.1.1-.1.27,0,.37l1.22,1.22c.16.16.2.42.08.62-.27.45-.47.94-.6,1.45-.06.22-.26.38-.49.38h-1.73c-.14,0-.26.12-.26.26v1.53c0,.14.12.26.26.26h1.72c.23,0,.43.16.49.38.13.51.33,1,.6,1.45.12.2.09.46-.08.62l-1.22,1.22c-.1.1-.1.27,0,.37l1.09,1.09c.1.1.27.1.37,0l1.22-1.22c.16-.16.42-.2.62-.08.45.27.94.47,1.45.6.22.06.38.26.38.49v1.73c0,.14.12.26.26.26h1.53c.14,0,.26-.12.26-.26v-1.72c0-.23.16-.43.38-.49.51-.13,1-.33,1.45-.6.08-.05.17-.07.26-.07.14,0,.26.05.36.15l1.22,1.22c.1.1.27.1.37,0l1.09-1.09c.1-.1.1-.27,0-.37l-1.22-1.22c-.16-.16-.2-.42-.08-.62.27-.45.47-.94.6-1.45.06-.22.26-.38.49-.38h1.73c.14,0,.26-.12.26-.26v-1.53c0-.14-.12-.26-.26-.26h-1.72c-.23,0-.43-.16-.49-.38-.13-.51-.33-1-.6-1.45-.12-.2-.09-.46.08-.62l1.22-1.22c.1-.1.1-.27,0-.37l-1.09-1.09c-.1-.1-.27-.1-.37,0l-1.22,1.22c-.09.1-.22.15-.36.15h-.01Z"/>
        </g>
      </g>
      <g id="Group_15517" data-name="Group 15517">
        <g id="Group_15516" data-name="Group 15516">
          <path id="Path_4102" data-name="Path 4102" class="cls-1" d="M8.94,5.49c-1.91,0-3.45,1.54-3.45,3.45s1.54,3.45,3.45,3.45,3.45-1.54,3.45-3.45h0c0-1.9-1.55-3.45-3.45-3.45ZM8.94,11.62c-1.48,0-2.68-1.2-2.68-2.68s1.2-2.68,2.68-2.68,2.68,1.2,2.68,2.68h0c0,1.48-1.2,2.68-2.68,2.68h0Z"/>
          <path id="Path_4102_-_Outline" data-name="Path 4102 - Outline" class="cls-1" d="M8.94,5.36c1.97,0,3.57,1.6,3.57,3.57s-1.6,3.57-3.57,3.57-3.57-1.6-3.57-3.57h0c0-1.97,1.6-3.57,3.57-3.57ZM8.94,12.26c1.83,0,3.32-1.49,3.32-3.32,0-1.83-1.49-3.32-3.32-3.32s-3.32,1.49-3.32,3.32h0c0,1.83,1.49,3.32,3.32,3.32ZM8.94,6.13c1.55,0,2.81,1.26,2.81,2.81s-1.26,2.81-2.81,2.81-2.81-1.26-2.81-2.81h0c0-1.55,1.26-2.81,2.81-2.81h0ZM8.94,11.5c1.41,0,2.56-1.15,2.56-2.56s-1.15-2.56-2.56-2.56-2.56,1.15-2.56,2.56h0c0,1.41,1.15,2.56,2.56,2.56h0Z"/>
        </g>
      </g>
    </g>
  </g>
</svg>