<svg id="Group_559" data-name="Group 559" xmlns="http://www.w3.org/2000/svg" width="22.206" height="22.206" viewBox="0 0 22.206 22.206">
  <path id="Path_11" data-name="Path 11" d="M36.036,24.142h-.095a.691.691,0,0,1-.64-.444.684.684,0,0,1,.148-.748l.067-.067a2.175,2.175,0,0,0,0-3.07L34.4,18.7a2.172,2.172,0,0,0-3.069,0l-.067.067a.708.708,0,0,1-1.2-.5v-.1A2.172,2.172,0,0,0,27.893,16H26.312a2.172,2.172,0,0,0-2.17,2.17v.1a.708.708,0,0,1-1.195.494l-.064-.067a2.172,2.172,0,0,0-3.069,0L18.693,19.81a2.175,2.175,0,0,0,0,3.07l.067.067a.692.692,0,0,1,.137.766.684.684,0,0,1-.632.429H18.17A2.172,2.172,0,0,0,16,26.312v1.581a2.172,2.172,0,0,0,2.17,2.17h.095a.691.691,0,0,1,.64.444.684.684,0,0,1-.148.748l-.067.067a2.175,2.175,0,0,0,0,3.07l1.118,1.117a2.172,2.172,0,0,0,3.07,0l.067-.067a.693.693,0,0,1,.766-.137.682.682,0,0,1,.429.631v.1a2.172,2.172,0,0,0,2.171,2.174h1.584a2.172,2.172,0,0,0,2.17-2.17v-.1a.708.708,0,0,1,1.195-.494l.067.067a2.172,2.172,0,0,0,3.069,0L35.513,34.4a2.175,2.175,0,0,0,0-3.07l-.067-.067a.692.692,0,0,1-.137-.766.684.684,0,0,1,.632-.429h.095a2.172,2.172,0,0,0,2.17-2.17V26.312A2.172,2.172,0,0,0,36.036,24.142Zm.69,3.751a.691.691,0,0,1-.69.69h-.095A2.188,2.188,0,0,0,34.4,32.3l.067.067a.691.691,0,0,1,0,.976l-1.118,1.117a.69.69,0,0,1-.976,0l-.067-.067a2.189,2.189,0,0,0-3.722,1.542v.1a.691.691,0,0,1-.69.69H26.312a.691.691,0,0,1-.69-.69v-.1A2.184,2.184,0,0,0,21.9,34.4l-.067.067a.691.691,0,0,1-.976,0L19.74,33.349a.691.691,0,0,1,0-.976l.067-.067a2.188,2.188,0,0,0-1.543-3.722H18.17a.691.691,0,0,1-.69-.69V26.312a.691.691,0,0,1,.69-.69h.095A2.188,2.188,0,0,0,19.807,21.9l-.067-.067a.691.691,0,0,1,0-.976l1.118-1.118a.69.69,0,0,1,.976,0l.067.067a2.189,2.189,0,0,0,3.722-1.541v-.1a.691.691,0,0,1,.69-.69h1.581a.691.691,0,0,1,.69.69v.1a2.188,2.188,0,0,0,3.722,1.541l.067-.067a.69.69,0,0,1,.976,0l1.118,1.118a.691.691,0,0,1,0,.976L34.4,21.9a2.188,2.188,0,0,0,1.543,3.722h.095a.691.691,0,0,1,.69.69Z" transform="translate(-16 -16)" fill="#d6d6d6"/>
  <path id="Path_12" data-name="Path 12" d="M149.191,144a5.191,5.191,0,1,0,5.191,5.191A5.191,5.191,0,0,0,149.191,144Zm0,8.9a3.708,3.708,0,1,1,3.708-3.708A3.708,3.708,0,0,1,149.191,152.9Z" transform="translate(-138.088 -138.088)" fill="#d6d6d6"/>
</svg>
