<svg xmlns="http://www.w3.org/2000/svg" width="24" height="24" viewBox="0 0 24 24">
  <g id="dashboards" transform="translate(0.129 0)">
    <g id="Rectangle_1018" data-name="Rectangle 1018" transform="translate(-0.129 0)" fill="none" stroke="#adadad" stroke-width="1.2">
      <rect width="10.882" height="8.471" rx="2" stroke="none"/>
      <rect x="0.6" y="0.6" width="9.682" height="7.271" rx="1.4" fill="none"/>
    </g>
    <g id="Rectangle_1019" data-name="Rectangle 1019" transform="translate(12.577 0)" fill="none" stroke="#adadad" stroke-width="1.2">
      <rect width="11.294" height="11.706" rx="2" stroke="none"/>
      <rect x="0.6" y="0.6" width="10.094" height="10.506" rx="1.4" fill="none"/>
    </g>
    <g id="Rectangle_1020" data-name="Rectangle 1020" transform="translate(12.577 14.117)" fill="none" stroke="#adadad" stroke-width="1.2">
      <rect width="11.294" height="9.882" rx="2" stroke="none"/>
      <rect x="0.6" y="0.6" width="10.094" height="8.682" rx="1.4" fill="none"/>
    </g>
    <g id="Rectangle_1021" data-name="Rectangle 1021" transform="translate(-0.129 10.882)" fill="none">
      <path d="M2,0H8.882a2,2,0,0,1,2,2v9.118a2,2,0,0,1-2,2H2a2,2,0,0,1-2-2V2A2,2,0,0,1,2,0Z" stroke="none"/>
      <path d="M 2.000001907348633 1.200003623962402 C 1.558881759643555 1.200003623962402 1.20000171661377 1.558883666992188 1.20000171661377 2.000003814697266 L 1.20000171661377 11.11764335632324 C 1.20000171661377 11.55876350402832 1.558881759643555 11.91764354705811 2.000001907348633 11.91764354705811 L 8.882322311401367 11.91764354705811 C 9.323442459106445 11.91764354705811 9.68232250213623 11.55876350402832 9.68232250213623 11.11764335632324 L 9.68232250213623 2.000003814697266 C 9.68232250213623 1.558883666992188 9.323442459106445 1.200003623962402 8.882322311401367 1.200003623962402 L 2.000001907348633 1.200003623962402 M 2.000001907348633 3.814697265625e-06 L 8.882322311401367 3.814697265625e-06 C 9.986891746520996 3.814697265625e-06 10.88232231140137 0.8954334259033203 10.88232231140137 2.000003814697266 L 10.88232231140137 11.11764335632324 C 10.88232231140137 12.22221374511719 9.986891746520996 13.11764335632324 8.882322311401367 13.11764335632324 L 2.000001907348633 13.11764335632324 C 0.8954324722290039 13.11764335632324 1.9073486328125e-06 12.22221374511719 1.9073486328125e-06 11.11764335632324 L 1.9073486328125e-06 2.000003814697266 C 1.9073486328125e-06 0.8954334259033203 0.8954324722290039 3.814697265625e-06 2.000001907348633 3.814697265625e-06 Z" stroke="none" fill="#adadad"/>
    </g>
  </g>
</svg>
