<svg id="theme-brush" xmlns="http://www.w3.org/2000/svg" width="11.593" height="11.721" viewBox="0 0 11.593 11.721">
  <g id="_644629784">
    <path id="_644629544" d="M5.2,7.452a1.012,1.012,0,0,1-.721-.3L1.145,3.82a1.016,1.016,0,0,1,0-1.435L2.413,1.117a.183.183,0,0,1,.259,0L7.185,5.631a.183.183,0,0,1,0,.259L5.921,7.154a1.013,1.013,0,0,1-.721.3Z" transform="translate(1.044 2.374)" fill="#ADADAD" fill-rule="evenodd"/>
    <path id="_644629832" d="M2.029,6.072A1.453,1.453,0,0,1,.574,4.567a1.277,1.277,0,0,1,.434-.933L3.321,1.622l1.7,1.7L3.011,5.637a1.278,1.278,0,0,1-.982.435Z" transform="translate(-0.573 5.649)" fill="#ADADAD" fill-rule="evenodd"/>
    <path id="_644629712" d="M1.163,3.877A10.835,10.835,0,0,1,2,3.178l.159-.125a11.719,11.719,0,0,0,5.72,3.516,9.155,9.155,0,0,1-1.311.976c-.339.222-.685.45-1.018.714L1.163,3.877ZM2.441,2.824A2.484,2.484,0,0,0,3.622.757.183.183,0,0,1,3.933.616L8.645,5.273a.183.183,0,0,1,.036.211,3.629,3.629,0,0,1-.513.778A11.2,11.2,0,0,1,2.441,2.824Z" transform="translate(2.893 -0.563)" fill="#ADADAD" fill-rule="evenodd"/>
  </g>
</svg>
