<svg xmlns="http://www.w3.org/2000/svg" width="17.813" height="15.386" viewBox="0 0 17.813 15.386">
  <g id="graphs" transform="translate(-3121.9 -2778.764)">
    <g id="Group_14746" data-name="Group 14746" transform="translate(3122 2778.863)">
      <g id="Group_14745" data-name="Group 14745" transform="translate(0 0)">
        <g id="Group_14744" data-name="Group 14744">
          <path id="Union_8" data-name="Union 8" d="M-3122-2777.929v-.934h17.813v.934Z" transform="translate(3121.9 2793.215)" fill="#ADADAD"/>
          <path id="Union_11" data-name="Union 11" d="M-3111.529-2766.136v-12.34a.418.418,0,0,1,.439-.386h3.357a.419.419,0,0,1,.441.385v12.34a.418.418,0,0,1-.439.385h-3.382A.418.418,0,0,1-3111.529-2766.136Zm.874-.4h2.49v-11.54h-2.49Zm-11.345.4v-5.226a.409.409,0,0,1,.427-.384h3.239a.41.41,0,0,1,.427.384v5.226a.408.408,0,0,1-.407.384h-3.278A.41.41,0,0,1-3122-2766.136Zm.849-.4h2.4v-4.435h-2.4Z" transform="translate(3123.765 2778.764)" fill="#ADADAD"/>
          <path id="Path_2468" data-name="Path 2468" d="M248.336,201.27H251.7a.316.316,0,0,0,.336-.29V192.29a.316.316,0,0,0-.338-.29h-3.363a.316.316,0,0,0-.336.29v8.69a.316.316,0,0,0,.338.291Zm.336-8.691h2.69v8.112h-2.69Z" transform="translate(-240.97 -188.359)" fill="#ADADAD"/>
          <path id="Path_2468_-_Outline" data-name="Path 2468 - Outline" d="M248.313,201.371a.418.418,0,0,1-.414-.384v-8.706a.418.418,0,0,1,.439-.382h3.357a.418.418,0,0,1,.441.382v8.707a.418.418,0,0,1-.414.382h-3.408Zm-.215-.4a.217.217,0,0,0,.231.2h3.377a.217.217,0,0,0,.23-.194v-8.682a.218.218,0,0,0-.231-.194h-3.377a.217.217,0,0,0-.23.194Zm3.365-.184h-2.89v-8.312h2.89Zm-2.69-.2h2.49v-7.912h-2.49Z" transform="translate(-240.97 -188.359)" fill="#ADADAD"/>
        </g>
      </g>
    </g>
  </g>
</svg>
