<?xml version="1.0" encoding="UTF-8"?>
<svg id="Layer_1" data-name="Layer 1" xmlns="http://www.w3.org/2000/svg" viewBox="0 0 16.82 16.8">
  <defs>
    <style>
      .cls-1 {
        fill: #8a8bb5;
        stroke-width: 0px;
      }
    </style>
  </defs>
  <g id="inventory">
    <g id="Group_503" data-name="Group 503">
      <g id="Group_15540" data-name="Group 15540">
        <path id="Path_4117" data-name="Path 4117" class="cls-1" d="M9.63,16.8c-.4,0-.79-.15-1.09-.43l-.14-.13-.07.06c-.31.31-.72.48-1.16.49H1.64c-.9,0-1.64-.74-1.64-1.64v-5.53c0-.9.74-1.64,1.64-1.64h2.26l-.11-.28c-.06-.17-.09-.36-.09-.54V1.64c0-.9.73-1.63,1.63-1.64h6.15c.9,0,1.64.74,1.64,1.64v5.53c0,.18-.03.37-.09.54l-.11.28h2.26c.9,0,1.64.74,1.64,1.64v5.53c0,.91-.73,1.64-1.64,1.64h-5.55ZM9.63,8.81c-.45,0-.82.37-.82.82v5.54c0,.45.37.82.82.82h5.53c.45,0,.82-.37.82-.82v-5.53c0-.45-.37-.82-.82-.82h-.82v1.44c0,.56-.45,1.02-1.02,1.02,0,0,0,0,0,0h-1.84c-.56,0-1.02-.46-1.02-1.02v-1.44h-.83ZM1.64,8.81c-.45,0-.82.37-.82.82v5.54c0,.45.37.82.82.82h5.53c.45,0,.82-.37.82-.82v-5.54c0-.45-.37-.82-.82-.82h-.82v1.44c0,.56-.46,1.02-1.02,1.02h-1.84c-.56,0-1.02-.46-1.02-1.02v-1.43h-.83ZM13.53,10.45v-1.64h-2.26v1.64h2.26ZM5.53,8.81h-2.26v1.64h2.26v-1.64ZM5.33.81c-.45,0-.82.37-.82.82v5.54c0,.45.37.82.82.82h6.15c.45,0,.82-.37.82-.82V1.64c0-.45-.37-.82-.82-.82h-1.44v2.06c0,.56-.46,1.02-1.02,1.02h-1.23c-.56,0-1.02-.46-1.02-1.02V.81s-1.44,0-1.44,0ZM9.22.81h-1.65v2.26h1.65V.81Z"/>
        <path id="Path_4118" data-name="Path 4118" class="cls-1" d="M9.63,16.71c-.38,0-.75-.14-1.03-.4l-.2-.18-.13.12c-.29.29-.69.46-1.1.47H1.64c-.86,0-1.55-.69-1.55-1.55v-5.53c0-.85.7-1.54,1.55-1.55h2.39l-.15-.4c-.06-.16-.09-.34-.09-.51V1.64c0-.85.69-1.55,1.54-1.55h6.15c.86,0,1.55.69,1.55,1.55v5.53c0,.17-.03.35-.09.51l-.15.4h2.39c.85,0,1.55.7,1.55,1.55v5.53c0,.86-.69,1.55-1.55,1.55h-5.55ZM9.63,8.72c-.5,0-.91.41-.91.91v5.54c0,.5.41.91.91.91h5.53c.5,0,.91-.41.91-.91v-5.53c0-.5-.41-.91-.91-.91h-.91v1.53c0,.52-.42.93-.94.93h-1.84c-.51,0-.93-.42-.94-.93v-1.53h-.91.01ZM1.64,8.72c-.5,0-.91.41-.91.91v5.54c0,.5.41.91.91.91h5.53c.5,0,.91-.41.91-.91v-5.53c0-.5-.41-.91-.91-.91h-.91v1.52c0,.51-.41.93-.93.93,0,0,0,0,0,0h-1.84c-.51,0-.93-.42-.93-.93v-1.52h-.92ZM11.18,10.54h2.44v-1.82h-2.44v1.82ZM3.19,10.54h2.44v-1.82h-2.44v1.82ZM5.33.72c-.5,0-.91.41-.91.91v5.54c0,.5.41.91.91.91h6.15c.5,0,.91-.41.91-.91V1.64c0-.5-.41-.91-.91-.91h-1.53v2.14c0,.51-.42.93-.93.93h-1.23c-.51,0-.93-.42-.93-.93V.73h-1.53ZM7.49,3.17h1.82V.73h-1.82v2.44Z"/>
      </g>
    </g>
  </g>
</svg>