<?xml version="1.0" encoding="UTF-8"?>
<svg id="Layer_1" data-name="Layer 1" xmlns="http://www.w3.org/2000/svg" viewBox="0 0 24.2 24.13">
  <defs>
    <style>
      .cls-1 {
        fill: #8a8bb5;
        stroke: #8a8bb5;
        stroke-width: .2px;
      }
    </style>
  </defs>
  <g id="misc">
    <g id="Group_14757" data-name="Group 14757">
      <path id="Path_2478" data-name="Path 2478" class="cls-1" d="M23.81,4.86L15.11.14c-.14-.07-.31-.05-.42.06l-2.67,2.67L9.35.2c-.11-.11-.28-.14-.42-.06l-2.79,1.52c-.17.1-.22.32-.12.49.06.1.17.17.29.17.06,0,.12-.01.17-.04l2.56-1.39,2.39,2.39.6-.32.6.32,2.39-2.39,8.05,4.36-2.38,2.4-1.74-.94,2.4,1.3,2.56-2.59c.14-.14.13-.37-.01-.51-.02-.02-.04-.04-.07-.05h-.02Z"/>
      <path id="Path_2479" data-name="Path 2479" class="cls-1" d="M1.04,5.25l4.25-2.3c.17-.09.24-.3.15-.48,0,0,0,0,0,0h0c-.09-.17-.3-.24-.48-.14,0,0,0,0,0,0L.29,4.87c-.17.09-.24.31-.14.48.02.03.04.06.06.08l2.65,2.67.56-.44-2.37-2.4Z"/>
    </g>
    <path id="Path_2480" data-name="Path 2480" class="cls-1" d="M24,10.56l-2.46-2.48L12.08,2.93,3.44,7.62l-.56.44h-.09S.31,10.56.31,10.56c-.14.14-.13.37.01.51.02.02.04.04.07.05l2.71,1.47v6.38s0,.02,0,.04v.09s0,.01,0,.01v.02s.01.01.01.01v.02s.02.02.02.02h0s.01.03.01.03h0s.02.03.02.03h0s.02.02.02.02h.02s0,.02,0,.02l.03.02,8.7,4.71.04.02h.04s.21.01.21.01h.03s0-.01,0-.01l.04-.02,8.71-4.71.03-.02h.01s.02-.02.02-.02l.02-.02h0s.02-.02.02-.02h0s.01-.02.01-.02h0s0-.03,0-.03v-.02s.01-.01.01-.01v-.02s.01-.01.01-.01v-.02s0-6.48,0-6.48l2.73-1.47c.17-.1.23-.32.14-.49-.01-.03-.03-.05-.05-.08ZM3.62,12.07l-2.48-1.35,2.37-2.4,8.06,4.36-2.39,2.4-5.56-3.02h0ZM11.81,23.09l-8-4.33v-5.79l5.27,2.86c.14.07.31.05.42-.06l2.31-2.32v9.64ZM12.17,12.2l-7.97-4.31,7.96-4.31,7.96,4.31-6.64,3.6-1.31.71ZM20.71,12.07l-1.76.96c-.19.06-.29.27-.23.45.06.19.27.29.45.23.04-.01.08-.03.11-.06l1.24-.67v5.79l-8,4.33v-9.63l2.31,2.32c.07.07.16.11.25.11.06,0,.12-.02.17-.04l2.79-1.52c.19-.06.29-.27.23-.45-.06-.19-.27-.29-.45-.23-.04.01-.08.03-.11.06l-2.56,1.39-2.39-2.4,8.06-4.36,2.37,2.4-2.48,1.34Z"/>
  </g>
</svg>