<svg xmlns="http://www.w3.org/2000/svg" width="24.241" height="24.132" viewBox="0 0 24.241 24.132">
  <g id="misc" transform="translate(0.119 0.11)">
    <g id="Group_14757" data-name="Group 14757" transform="translate(0 0)">
      <path id="Path_2478" data-name="Path 2478" d="M294.192,249.854l-8.7-4.714a.359.359,0,0,0-.418.061l-2.67,2.67-2.67-2.67a.351.351,0,0,0-.418-.061l-2.791,1.518a.359.359,0,0,0,.169.665.348.348,0,0,0,.169-.043l2.561-1.388,2.387,2.387.6-.322.6.323,2.388-2.388,8.05,4.36-2.377,2.4-1.741-.94,2.4,1.3,2.563-2.585a.359.359,0,0,0-.083-.559Z" transform="translate(-270.486 -245.097)" fill="#ADADAD" stroke="#ADADAD" stroke-width="0.2"/>
      <path id="Path_2479" data-name="Path 2479" d="M272.354,249.889l4.246-2.3a.352.352,0,0,0,.144-.479h0a.352.352,0,0,0-.479-.143L271.6,249.5a.353.353,0,0,0-.083.559l2.648,2.671.563-.442Z" transform="translate(-271.421 -244.735)" fill="#ADADAD" stroke="#ADADAD" stroke-width="0.2"/>
    </g>
    <path id="Path_2480" data-name="Path 2480" d="M295.3,255.087l-2.46-2.482-9.466-5.143-8.64,4.691-.562.442-.092-.007-2.476,2.5a.36.36,0,0,0,.013.508.322.322,0,0,0,.069.05l2.707,1.47V263.5a.167.167,0,0,0,0,.035v.068l.008.022v.01l.01.019v.012l.009.016.008.016.008.012.012.016.007.01.016.016.008.01.017.013.017.014.009.006.031.019,8.7,4.713.039.017h.008l.03.011h.206l.03-.011h.008l.039-.017,8.706-4.715.031-.019.01-.006.017-.013.017-.016.008-.008.016-.017.007-.008.012-.017.008-.012.008-.014.01-.016v-.011l.01-.02v-.01l.008-.023v-6.482l2.732-1.468a.36.36,0,0,0,.135-.49A.4.4,0,0,0,295.3,255.087ZM274.918,256.6l-2.476-1.35,2.373-2.4,8.057,4.363-2.391,2.4-5.56-3.016Zm8.186,11.019-8-4.332V257.5l5.269,2.86a.358.358,0,0,0,.417-.06l2.312-2.318Zm.359-10.89-7.969-4.312,7.963-4.312,7.962,4.312-6.642,3.6Zm8.541-.134-1.759.958a.359.359,0,1,0,.336.622l1.24-.673v5.787l-8,4.331v-9.633l2.312,2.315a.35.35,0,0,0,.25.105.378.378,0,0,0,.169-.043l2.788-1.515a.359.359,0,1,0-.336-.622l-2.56,1.386-2.391-2.4,8.057-4.361,2.373,2.4Z" transform="translate(-271.404 -244.629)" fill="#ADADAD" stroke="#ADADAD" stroke-width="0.2"/>
  </g>
</svg>
