<svg xmlns="http://www.w3.org/2000/svg" width="22.091" height="18.984" viewBox="0 0 22.091 18.984">
  <g id="monitor_1_" data-name="monitor (1)" transform="translate(0 -36)">
    <g id="Group_2213" data-name="Group 2213" transform="translate(0 36)">
      <path id="Path_2676" data-name="Path 2676" d="M19.5,36H2.589A2.592,2.592,0,0,0,0,38.589V48.944a2.592,2.592,0,0,0,2.589,2.589h7.594v1.726H5.7v1.726H16.4V53.259H11.908V51.533H19.5a2.592,2.592,0,0,0,2.589-2.589V38.589A2.592,2.592,0,0,0,19.5,36Zm.863,12.944a.864.864,0,0,1-.863.863H2.589a.864.864,0,0,1-.863-.863V38.589a.864.864,0,0,1,.863-.863H19.5a.864.864,0,0,1,.863.863Z" transform="translate(0 -36)" fill="#d6d6d6"/>
    </g>
  </g>
</svg>
