<svg xmlns="http://www.w3.org/2000/svg" width="17.644" height="16.831" viewBox="0 0 17.644 16.831">
  <g id="reporter_favorites" transform="translate(-2945.865 -2673.784)">
    <g id="favorites" transform="translate(-45)">
      <g id="star_1_" data-name="star (1)" transform="translate(2990.865 2661.99)">
        <g id="Group_15494" data-name="Group 15494" transform="translate(0 11.794)">
          <path id="Path_4044" data-name="Path 4044" d="M17.619,18.185a.517.517,0,0,0-.417-.352l-5.47-.795L9.286,12.082a.517.517,0,0,0-.927,0L5.912,17.039l-5.47.795a.517.517,0,0,0-.286.882l3.958,3.858L3.18,28.021a.517.517,0,0,0,.75.545l4.892-2.572,4.892,2.572a.517.517,0,0,0,.75-.545l-.934-5.448,3.958-3.858A.517.517,0,0,0,17.619,18.185Zm-5.005,3.837a.517.517,0,0,0-.149.458l.8,4.683L9.063,24.952a.517.517,0,0,0-.481,0L4.376,27.163l.8-4.683a.517.517,0,0,0-.149-.458l-3.4-3.317,4.7-.683a.517.517,0,0,0,.389-.283l2.1-4.261,2.1,4.261a.517.517,0,0,0,.389.283l4.7.683Z" transform="translate(0 -11.794)" fill="#ADADAD"/>
        </g>
      </g>
    </g>
  </g>
</svg>
