<?xml version="1.0" encoding="UTF-8"?>
<svg id="Layer_2" xmlns="http://www.w3.org/2000/svg" viewBox="0 0 17.5 17.51">
  <defs>
    <style>
      .cls-1 {
        fill: #ADADAD;
      }

      .cls-1, .cls-2 {
        fill-rule: evenodd;
      }

      .cls-2 {
        fill: #ADADAD;
      }
    </style>
  </defs>
  <g id="Layer_1-2" data-name="Layer_1">
    <g id="reporter_schedules">
      <g id="schedules">
        <g id="Icon-2">
          <g id="Group_15495-2">
            <path id="Path_4045-2" class="cls-1" d="M11.42,13.59l1.07,1.07c.15.15.39.15.54,0l2.15-2.15c.16-.14.17-.38.03-.54-.14-.16-.38-.17-.54-.03,0,0-.02.02-.03.03l-1.88,1.88-.81-.81c-.14-.16-.38-.17-.54-.03-.16.14-.17.38-.03.54,0,0,.02.02.03.03Z"/>
          </g>
          <g id="Group_15496-2">
            <path id="Path_4046-2" class="cls-2" d="M4.57,6.93c0-.46-.37-.84-.84-.84h-.61c-.46,0-.84.37-.84.84v.61c0,.46.37.84.84.84h.61c.46,0,.84-.37.84-.84v-.61Z"/>
          </g>
          <g id="Group_15497-2">
            <path id="Path_4047-2" class="cls-2" d="M4.57,9.97c0-.46-.37-.84-.84-.84h-.61c-.46,0-.84.37-.84.84v.61c0,.46.37.84.84.84h.61c.46,0,.84-.37.84-.84v-.61Z"/>
          </g>
          <g id="Group_15498-2">
            <path id="Path_4048-2" class="cls-2" d="M4.57,13.02c0-.46-.37-.84-.84-.84h-.61c-.46,0-.84.37-.84.84v.61c0,.46.37.84.84.84h.61c.46,0,.84-.37.84-.84v-.61Z"/>
          </g>
          <g id="Group_15499-2">
            <path id="Path_4049-2" class="cls-2" d="M7.61,6.93c0-.46-.37-.84-.84-.84h-.61c-.46,0-.84.37-.84.84v.61c0,.46.37.84.84.84h.61c.46,0,.84-.37.84-.84v-.61Z"/>
          </g>
          <g id="Group_15500-2">
            <path id="Path_4050-2" class="cls-2" d="M7.61,9.97c0-.46-.37-.84-.84-.84h-.61c-.46,0-.84.37-.84.84v.61c0,.46.37.84.84.84h.61c.46,0,.84-.37.84-.84v-.61Z"/>
          </g>
          <g id="Group_15501-2">
            <path id="Path_4051-2" class="cls-2" d="M7.61,13.02c0-.46-.37-.84-.84-.84h-.61c-.46,0-.84.37-.84.84v.61c0,.46.37.84.84.84h.61c.46,0,.84-.37.84-.84v-.61Z"/>
          </g>
          <g id="Group_15502-2">
            <path id="Path_4052-2" class="cls-2" d="M10.66,6.93c0-.46-.37-.84-.84-.84h-.61c-.46,0-.84.37-.84.84v.61c0,.46.37.84.84.84h.61c.46,0,.84-.37.84-.84v-.61Z"/>
          </g>
          <g id="Group_15503-2">
            <path id="Path_4053-2" class="cls-2" d="M13.7,6.93c0-.46-.37-.84-.84-.84h-.61c-.46,0-.84.37-.84.84v.61c0,.46.37.84.84.84h.61c.46,0,.84-.37.84-.84v-.61Z"/>
          </g>
          <g id="Group_15504-2">
            <path id="Path_4054-2" class="cls-2" d="M10.09,15.98H1.9c-1.05,0-1.9-.85-1.9-1.9h0V3.42c0-1.05.85-1.9,1.9-1.9h1.14v-.38C3.04.51,3.55,0,4.18,0c.63,0,1.14.51,1.14,1.14h0v.38h5.32v-.38c0-.63.51-1.14,1.14-1.14.63,0,1.14.51,1.14,1.14v.38h1.14c1.05,0,1.9.85,1.9,1.9h0v6.67c1.78,1.47,2.04,4.11.56,5.89-1.47,1.78-4.11,2.04-5.89.56-.21-.17-.39-.36-.56-.56h0ZM13.32,9.89c1.89,0,3.43,1.53,3.43,3.43s-1.53,3.43-3.43,3.43c-1.89,0-3.43-1.53-3.43-3.43,0-1.89,1.53-3.42,3.42-3.43h0ZM15.22,9.59v-4.26H.76v8.75c0,.63.51,1.14,1.14,1.14h7.69c-1.05-2.06-.23-4.58,1.83-5.63,1.2-.61,2.61-.61,3.81,0h0ZM12.94,2.29v.38c0,.63-.51,1.14-1.14,1.14-.63,0-1.14-.51-1.14-1.14v-.38h-5.33v.38c0,.63-.51,1.14-1.14,1.14-.63,0-1.14-.51-1.14-1.14h0v-.38h-1.14c-.63,0-1.14.51-1.14,1.14h0v1.14h14.46v-1.14c0-.63-.51-1.14-1.14-1.14h-1.14ZM12.17,1.14v1.52c-.01.21-.19.37-.4.36-.19-.01-.35-.17-.36-.36v-1.52c.01-.21.19-.37.4-.36.19.01.35.17.36.36ZM4.56,1.14v1.52c.01.21-.15.39-.36.4-.21.01-.39-.15-.4-.36,0-.01,0-.03,0-.04v-1.52c-.01-.21.15-.39.36-.4.21-.01.39.15.4.36,0,.01,0,.03,0,.04Z"/>
          </g>
        </g>
      </g>
    </g>
  </g>
</svg>