<?xml version="1.0" encoding="UTF-8"?>
<svg id="Layer_2" xmlns="http://www.w3.org/2000/svg" viewBox="0 0 20.43 20.44">
  <defs>
    <style>
      .cls-1 {
        fill: #ADADAD;
      }

      .cls-2 {
        fill: #ADADAD;
      }
    </style>
  </defs>
  <g id="Layer_1-2" data-name="Layer_1">
    <g id="Group_15552">
      <g id="Group_15554">
        <path id="Exclusion_1" class="cls-2" d="M11.89,20.44h-3.35c-.19,0-.35-.16-.35-.35h0v-1.51c-.86-.21-1.69-.55-2.44-1.01l-1.07,1.07c-.07.06-.16.1-.25.1-.09,0-.18-.04-.25-.1l-2.37-2.37c-.14-.14-.14-.36,0-.5h0s1.07-1.07,1.07-1.07c-.46-.76-.8-1.58-1.01-2.44H.35c-.19,0-.35-.16-.35-.35v-3.35c0-.19.16-.35.35-.35h1.51c.21-.86.55-1.69,1.01-2.44l-1.07-1.07c-.14-.14-.14-.36,0-.5l2.37-2.37c.07-.06.16-.1.25-.1.09,0,.18.04.25.1l1.07,1.07c.76-.46,1.58-.8,2.44-1.01V.35c0-.19.16-.35.35-.35h3.35c.19,0,.35.16.35.35h0v1.51c.86.21,1.69.55,2.45,1.01l1.07-1.07c.07-.07.16-.1.25-.1.09,0,.18.04.25.1l2.37,2.37c.14.14.14.36,0,.5l-1.07,1.07c.46.76.8,1.58,1.01,2.45h1.51c.19,0,.35.16.35.35v3.35c0,.19-.16.35-.35.35h-1.51c-.21.86-.55,1.68-1.01,2.44l1.07,1.07c.14.14.14.36,0,.5h0s-2.37,2.37-2.37,2.37c-.07.06-.16.1-.25.1-.09,0-.18-.03-.25-.1l-1.07-1.07c-.76.46-1.58.8-2.44,1.01v1.51c0,.19-.16.35-.35.35h0ZM5.73,16.71c.07,0,.13.02.19.06.82.54,1.74.92,2.7,1.12.16.03.28.18.28.34v1.43h2.62v-1.43c0-.17.12-.31.28-.34.96-.2,1.88-.58,2.7-1.12.06-.04.12-.06.19-.06.09,0,.18.04.25.1l1.01,1.01,1.86-1.86-1.01-1.01c-.12-.12-.14-.3-.05-.44.54-.82.92-1.74,1.12-2.7.03-.16.18-.28.34-.28h1.43v-2.63h-1.43c-.17,0-.31-.12-.34-.28-.2-.96-.58-1.88-1.12-2.7-.09-.14-.07-.32.04-.44l1.01-1.01-1.86-1.86-1.01,1.01c-.07.06-.15.1-.25.1-.07,0-.13-.02-.19-.06-.82-.54-1.74-.92-2.7-1.12-.16-.03-.28-.18-.28-.34V.79h-2.62v1.43c0,.17-.12.31-.28.34-.96.2-1.88.58-2.7,1.12-.06.04-.12.06-.19.06-.09,0-.18-.04-.25-.1l-1.01-1.01-1.86,1.86,1.01,1.01c.12.12.13.3.04.44-.54.82-.92,1.74-1.12,2.7-.03.16-.18.28-.34.28H.78v2.63h1.43c.17,0,.31.12.34.28.2.96.58,1.88,1.12,2.7.09.14.07.32-.04.44l-1.01,1.01,1.86,1.86,1.01-1.01c.06-.07.15-.11.25-.11h0Z"/>
        <path id="Path_4125" class="cls-1" d="M10.22,5.16c-2.8,0-5.06,2.27-5.06,5.07,0,2.8,2.27,5.06,5.07,5.06s5.06-2.27,5.06-5.07c0-1.34-.53-2.63-1.48-3.58-.95-.95-2.24-1.48-3.58-1.48M10.22,5.89c2.39,0,4.34,1.94,4.34,4.33,0,1.91-1.25,3.6-3.08,4.15v-1.42c1.48-.75,2.07-2.57,1.31-4.05-.32-.62-.85-1.12-1.49-1.4-.14-.06-.3,0-.36.15-.01.03-.02.07-.02.11v2.09l-.66.5-.66-.5v-2.12c0-.15-.12-.27-.27-.27-.03,0-.07,0-.1.02-1.16.44-1.93,1.56-1.92,2.8h0c0,1.13.63,2.17,1.64,2.68v1.42c-2.29-.7-3.58-3.12-2.89-5.41.55-1.83,2.24-3.07,4.15-3.08h0ZM9.08,8.22v1.79c0,.08.04.16.11.21l.91.69c.1.07.23.07.32,0l.91-.69c.07-.05.11-.13.1-.21v-1.74c1.11.74,1.41,2.24.67,3.35-.26.38-.62.69-1.04.87-.1.04-.16.14-.16.25v1.69c-.23.04-.47.06-.7.06-.23,0-.47-.02-.7-.06v-1.69c0-.11-.07-.21-.17-.25-1.22-.54-1.77-1.96-1.24-3.18.2-.46.54-.84.96-1.1"/>
      </g>
    </g>
  </g>
</svg>