<svg xmlns="http://www.w3.org/2000/svg" width="18" height="14.854" viewBox="0 0 18 14.854">
  <g id="Group_16199" data-name="Group 16199" transform="translate(0 0)">
    <g id="Group_16197" data-name="Group 16197">
      <path id="Path_60869" data-name="Path 60869" d="M1.747,9.488.938,8.679a3.2,3.2,0,0,1,0-4.528L4.118.939a3.206,3.206,0,0,1,4.53,0l.916.916L8.819,2.6,7.9,1.682a2.15,2.15,0,0,0-3.037,0L1.685,4.9a2.147,2.147,0,0,0,0,3.038l.809.809Z" transform="translate(0 -0.001)" fill="#d6d6d6"/>
      <path id="Path_60870" data-name="Path 60870" d="M38.54,107.783a1.684,1.684,0,0,1-1.191-2.874l5.429-5.418.745.747-5.428,5.418a.629.629,0,0,0,.891.89l4.129-4.129.746.746-4.129,4.129a1.679,1.679,0,0,1-1.191.492" transform="translate(-35.56 -95.993)" fill="#d6d6d6"/>
      <path id="Path_60871" data-name="Path 60871" d="M230.59,14.926a1.684,1.684,0,0,1-1.191-2.874l2.643-2.643.746.746L230.145,12.8a.63.63,0,1,0,.89.89l6.14-6.14a2.147,2.147,0,0,0,0-3.036l-2.754-2.754a2.147,2.147,0,0,0-3.036,0l-.828.826-.745-.747.828-.826a3.2,3.2,0,0,1,4.528,0l2.754,2.754a3.2,3.2,0,0,1,0,4.528l-6.14,6.14a1.679,1.679,0,0,1-1.191.492" transform="translate(-220.859 -0.071)" fill="#d6d6d6"/>
      <path id="Path_60872" data-name="Path 60872" d="M144.931,230.436a1.683,1.683,0,0,1-1.191-2.874l3.856-3.856.746.746-3.856,3.856a.63.63,0,0,0,.89.89l4.1-4.095.746.746-4.095,4.095a1.679,1.679,0,0,1-1.191.493" transform="translate(-138.211 -215.841)" fill="#d6d6d6"/>
      <path id="Path_60873" data-name="Path 60873" d="M91.747,188.83a1.683,1.683,0,0,1-1.191-2.874l3.918-3.918.746.746L91.3,186.7a.629.629,0,0,0,.89.89l4.1-4.1.746.746-4.1,4.1a1.679,1.679,0,0,1-1.191.492" transform="translate(-86.897 -175.638)" fill="#d6d6d6"/>
      <path id="Path_60874" data-name="Path 60874" d="M198.392,38.039a1.673,1.673,0,0,1-1.191-.493l-2.558-2.578.749-.743,2.556,2.576a.629.629,0,0,0,.889-.892L195.9,32.975l.746-.746,2.935,2.935a1.684,1.684,0,0,1-1.191,2.875" transform="translate(-187.8 -31.096)" fill="#d6d6d6"/>
    </g>
  </g>
</svg>
