<svg id="Group_16200" data-name="Group 16200" xmlns="http://www.w3.org/2000/svg" xmlns:xlink="http://www.w3.org/1999/xlink" width="18.001" height="14.859" viewBox="0 0 18.001 14.859">
  <defs>
    <linearGradient id="linear-gradient" x1="0.346" y1="1.565" x2="1.346" y2="0.273" gradientUnits="objectBoundingBox">
      <stop offset="0" stop-color="#63669f"/>
      <stop offset="1" stop-color="#888ed9"/>
    </linearGradient>
    <clipPath id="clip-path">
      <rect id="Rectangle_1966" data-name="Rectangle 1966" width="18.001" height="14.859" fill="url(#linear-gradient)"/>
    </clipPath>
  </defs>
  <g id="Group_16198" data-name="Group 16198" clip-path="url(#clip-path)">
    <path id="Path_60875" data-name="Path 60875" d="M6.9,2.412,9.423,4.983a1.157,1.157,0,0,0,1.635-1.638L8.648.938a3.2,3.2,0,0,0-4.531,0L.936,4.153A3.206,3.206,0,0,0,.787,8.521Z" transform="translate(0 0)" fill="url(#linear-gradient)"/>
    <path id="Path_60876" data-name="Path 60876" d="M39.9,3.814,37.149,1.06A3.2,3.2,0,0,0,32.812.885l1.833,1.833a2.212,2.212,0,1,1-3.128,3.128l0,0L29.73,4.028l-6.057,6.057a1.678,1.678,0,0,0,1.208,1.268l5.184-5.184.746.746-4.929,4.929a1.68,1.68,0,0,0,1.23,1.254l5.124-5.124.746.746-4.87,4.87a1.683,1.683,0,0,0,1.214,1.27l5.05-5.05.746.746-3.831,3.831a1.684,1.684,0,0,0,2.472.1L39.9,8.343a3.2,3.2,0,0,0,0-4.529Z" transform="translate(-22.841 -0.118)" fill="url(#linear-gradient)"/>
  </g>
</svg>
