<svg xmlns="http://www.w3.org/2000/svg" width="45.395" height="45.397" viewBox="0 0 45.395 45.397">
  <g id="modern" transform="translate(-5727.907 430.928)">
    <path id="Path_692" data-name="Path 692" d="M11559.44,47.931a3.674,3.674,0,1,1-3.674,3.674,3.674,3.674,0,0,1,3.674-3.674" transform="translate(-5796 -447)" fill="#2665c9"/>
    <path id="Path_693" data-name="Path 693" d="M11557.486,37.656a1.516,1.516,0,0,0-1.513,1.512v8.477a1.512,1.512,0,0,0,3.021.131c0-.044,0-.087,0-.131V39.168a1.515,1.515,0,0,0-1.509-1.512" transform="translate(-5796 -447)" fill="#2665c9"/>
    <path id="Path_694" data-name="Path 694" d="M11549.963,47.072a1.516,1.516,0,0,0-1.513,1.512v8.477a1.512,1.512,0,0,0,3.021.131c0-.044,0-.087,0-.131V48.584a1.512,1.512,0,0,0-1.509-1.512" transform="translate(-5796 -447)" fill="#2665c9"/>
    <path id="Path_695" data-name="Path 695" d="M11560.9,36.612l-5.992,5.992a1.51,1.51,0,0,0,2.131,2.139l5.992-5.992a1.51,1.51,0,0,0-2.131-2.139" transform="translate(-5796 -447)" fill="#2665c9"/>
    <path id="Path_696" data-name="Path 696" d="M11557.906,39.732l-5.992,5.992a1.51,1.51,0,0,0,2.131,2.139l5.992-5.992a1.51,1.51,0,0,0-2.131-2.139" transform="translate(-5796 -447)" fill="#2665c9"/>
    <path id="Path_697" data-name="Path 697" d="M11567,37.655h-8.477a1.512,1.512,0,0,0,0,3.021H11567a1.512,1.512,0,0,0,0-3.021" transform="translate(-5796 -447)" fill="#2665c9"/>
    <path id="Path_698" data-name="Path 698" d="M11552.952,52.822h-8.477a1.512,1.512,0,0,0,0,3.021h8.477a1.512,1.512,0,0,0,0-3.021" transform="translate(-5796 -447)" fill="#2665c9"/>
    <path id="Path_699" data-name="Path 699" d="M11552.541,48.751a1.512,1.512,0,0,0-2.139,2.139l5.991,5.992a1.51,1.51,0,0,0,2.131-2.139Z" transform="translate(-5796 -447)" fill="#2665c9"/>
    <path id="Path_700" data-name="Path 700" d="M11560.828,36.586a1.512,1.512,0,0,0-2.139,2.139l5.991,5.992a1.51,1.51,0,0,0,2.131-2.139Z" transform="translate(-5796 -447)" fill="#2665c9"/>
    <path id="Path_701" data-name="Path 701" d="M11556.045,16.072a23.959,23.959,0,0,1-32.138,32.143,23.958,23.958,0,1,0,32.138-32.143" transform="translate(-5796 -447)" fill="#2665c9"/>
  </g>
</svg>
