<?xml version="1.0" encoding="UTF-8"?><svg id="ABAPSystem" xmlns="http://www.w3.org/2000/svg" viewBox="0 0 16 16"><defs><style>.cls-1{fill:#8A8BB5;}</style></defs><path id="Path_60834" class="cls-1" d="M14.12,1.48H1.88c-1.04,0-1.87.84-1.88,1.88v6.79c0,1.04.84,1.87,1.88,1.88h5.5v1.25h-3.25v1.25h7.75v-1.25h-3.25v-1.25h5.5c1.04,0,1.87-.84,1.88-1.88V3.36c0-1.04-.84-1.87-1.88-1.88M14.75,10.14c0,.34-.28.62-.62.62H1.88c-.34,0-.62-.28-.62-.62V3.36c0-.34.28-.62.62-.62h12.25c.34,0,.62.28.62.62v6.79Z"/><path id="Path_60835" class="cls-1" d="M3.67,4.88l-1.14,3.52h.73l.22-.68h1.12l.22.68h.73l-1.14-3.53h-.72ZM3.67,7.08l.36-1.11.36,1.11h-.71Z"/><path id="Path_60836" class="cls-1" d="M7.67,6.59c.25-.16.39-.44.37-.74,0-.17-.04-.34-.13-.49-.09-.15-.22-.27-.38-.35-.18-.09-.37-.13-.57-.13h-1.25v3.52h1.32c.19,0,.38-.04.55-.13.16-.08.3-.21.39-.36.19-.34.18-.76-.05-1.09-.07-.1-.15-.18-.26-.24M6.93,6.29h-.52v-.75h.54c.1,0,.2.03.28.1.08.07.12.18.11.28,0,.1-.03.2-.1.27-.09.07-.2.1-.31.1M6.42,6.94h.58c.11,0,.22.04.3.11.08.08.13.2.12.32,0,.11-.03.21-.11.29-.09.08-.21.12-.33.11h-.57s0-.83,0-.83Z"/><path id="Path_60837" class="cls-1" d="M13.57,5.44c-.09-.17-.23-.31-.4-.4-.2-.1-.41-.15-.63-.15h-1.14v3.52h.7v-1.36h.5c.21,0,.42-.05.6-.15.17-.09.3-.24.39-.41.05-.1.08-.21.1-.32l.02.02v-.22c0-.19-.04-.37-.13-.54M12.09,5.54h.59c.1.01.19.07.26.15.06.09.09.19.07.3,0,.12-.03.23-.11.32-.1.08-.22.12-.35.11h-.46v-.88Z"/><path id="Path_60838" class="cls-1" d="M9.35,4.88l-1.15,3.52h.73l.21-.68h1.12l.22.68h.73l-1.14-3.53h-.72ZM9.34,7.08l.36-1.11.35,1.11h-.71Z"/></svg>