<?xml version="1.0" encoding="UTF-8"?><svg id="addModify" xmlns="http://www.w3.org/2000/svg" viewBox="0 0 16 16"><defs><style>.cls-1{fill:#8A8BB5;}</style></defs><path id="Path_60768" class="cls-1" d="M12,6.9l-.07-5.68c-.01-.67-.55-1.21-1.23-1.22H1.23C.55,0,0,.55,0,1.23v9.47c.01.67.55,1.21,1.23,1.22l5.79.07,4.99-5.09ZM1.24,10.8c-.06,0-.11-.05-.12-.11V1.23c0-.06.05-.11.11-.11h9.46c.06,0,.11.05.12.11l.03,5.3-4.24,4.27H1.24Z"/><path id="Path_60769" class="cls-1" d="M8.07,5.17h-1.34v-1.39c-.03-.43-.41-.76-.84-.73-.41.03-.73.37-.73.78v1.33h-1.33c-.43-.02-.8.32-.81.75-.02.43.32.8.75.81h1.39v1.39c.02.41.37.74.78.74h.01c.21,0,.41-.09.55-.24.14-.15.22-.35.22-.55v-1.33h1.33c.43,0,.78-.35.78-.78s-.35-.78-.78-.78"/><path id="Path_60770" class="cls-1" d="M15.5,7.4l-.35-.34c-.65-.62-1.68-.6-2.3.05l-5.18,5.38c-.07.07-.12.16-.14.26l-.64,2.52c-.05.2,0,.42.16.57.11.1.26.16.41.16h0l.14-.02,2.53-.76c.1-.03.18-.08.25-.15l5.18-5.39c.62-.64.6-1.67-.05-2.29,0,0,0,0,0,0ZM7.79,15.15l.35-1.37,1.01.96-1.36.41ZM9.86,13.98l-1.01-.96,3.84-3.99,1.01.96-3.84,3.99ZM14.7,8.91l-.32.34-1.02-.94.32-.34c.17-.18.46-.19.64-.02l.36.33c.18.17.2.45.03.63h0"/></svg>