<?xml version="1.0" encoding="UTF-8"?><svg id="Layer_1" xmlns="http://www.w3.org/2000/svg" viewBox="0 0 16 16"><defs><style>.cls-1{fill:#8A8BB5;}</style></defs><g id="adminInfraComponents"><g id="Group_15734"><g id="Group_15786"><path id="Path_60797" class="cls-1" d="M8,6.86c-.08,0-.16-.02-.24-.05L1.48,3.95c-.29-.13-.42-.47-.29-.76.06-.13.16-.23.29-.29L7.76.05c.15-.07.32-.07.47,0l6.28,2.86c.29.13.42.47.29.76-.06.13-.16.23-.29.29l-6.28,2.85c-.07.03-.15.05-.24.05M3.1,3.42l4.9,2.23,4.9-2.23L8,1.2,3.1,3.42Z"/><path id="Path_60798" class="cls-1" d="M6.86,16c-.08,0-.16-.02-.24-.05L.34,13.09C.13,13,0,12.8,0,12.57v-6.86c0-.32.26-.57.57-.57.08,0,.16.02.24.05l6.29,2.86c.2.09.33.3.33.52v6.86c0,.32-.26.57-.57.57h0M1.14,12.2l5.14,2.34v-5.6L1.14,6.6v5.6Z"/><path id="Path_60799" class="cls-1" d="M9.14,16c-.32,0-.57-.26-.57-.57v-6.86c0-.22.13-.43.33-.52l6.28-2.86c.29-.13.63,0,.76.28.03.07.05.16.05.24v6.86c0,.22-.13.43-.33.52l-6.28,2.86c-.07.03-.15.05-.24.05M9.72,8.94v5.6l5.14-2.34v-5.6l-5.14,2.34Z"/></g></g></g></svg>