<?xml version="1.0" encoding="UTF-8"?><svg id="Layer_1" xmlns="http://www.w3.org/2000/svg" viewBox="0 0 16 16"><defs><style>.cls-1{fill:#8A8BB5;}</style></defs><g id="adminAuditsReporter"><path id="Path_60824" class="cls-1" d="M14.55,4.05L10.75.37c-.23-.23-.55-.35-.87-.35L2.71,0c-.87,0-1.57.7-1.58,1.56v12.87c.02.87.72,1.56,1.59,1.57h10.6c.86,0,1.54-.71,1.53-1.57V4.8c0-.28-.11-.55-.31-.75h0ZM10.74,2.1l1.96,1.9h-1.63c-.18,0-.32-.13-.34-.3v-1.6ZM13.32,14.75H2.73c-.18,0-.33-.14-.34-.32V1.56c0-.17.15-.31.33-.31l6.77.02v2.43c.01.87.72,1.56,1.59,1.55h2.53v9.18c0,.17-.12.31-.28.32,0,0,0,0,0,0Z"/><path id="Path_60825" class="cls-1" d="M5.54,4.33c-.38,0-.68.31-.68.68v7.38c-.01.38.28.7.66.71.38.01.7-.28.71-.66,0-.02,0-.03,0-.05v-7.38c0-.38-.31-.68-.68-.68h0Z"/><path id="Path_60826" class="cls-1" d="M8.01,6c-.38,0-.68.31-.68.68v5.6c-.01.38.28.7.66.71s.7-.28.71-.66c0-.02,0-.03,0-.05v-5.6c0-.38-.31-.68-.68-.68h0Z"/><path id="Path_60827" class="cls-1" d="M10.49,7.71c-.38,0-.68.31-.68.68v3.83c.01.38.33.67.71.66.36-.01.64-.3.66-.66v-3.83c0-.38-.31-.68-.68-.68Z"/></g></svg>