<?xml version="1.0" encoding="UTF-8"?><svg id="Layer_1" xmlns="http://www.w3.org/2000/svg" viewBox="0 0 16 16"><defs><style>.cls-1{fill:#adadad;}</style></defs><g id="advancedSearch"><path id="Path_60848" class="cls-1" d="M.51,8.49h3.34c.27-.01.48-.24.46-.51-.01-.25-.21-.45-.46-.46H.51c-.27-.01-.5.2-.51.46-.01.27.2.5.46.51.01,0,.03,0,.04,0Z"/><g id="Group_15821"><path id="Path_60849" class="cls-1" d="M15.55,10.8l-2.41-2.27c.72-1.57.36-3.43-.9-4.61-1.71-1.62-4.39-1.62-6.1,0-1.62,1.54-1.69,4.1-.15,5.72.05.05.1.1.15.15,1.3,1.23,3.22,1.56,4.86.84l2.39,2.25c.6.57,1.55.57,2.16,0,.57-.54.6-1.45.06-2.02-.02-.02-.04-.04-.06-.06h0ZM6.84,9.12c-1.26-1.19-1.31-3.17-.12-4.43.04-.04.08-.08.12-.12,1.32-1.26,3.4-1.26,4.73,0,1.26,1.19,1.31,3.17.12,4.43-.04.04-.08.08-.12.12-1.32,1.26-3.4,1.26-4.73,0ZM14.87,12.21c-.22.21-.56.21-.78,0l-2.22-2.1c.29-.22.55-.47.77-.76l2.23,2.1c.21.2.22.52.02.73,0,0-.02.02-.02.02h0Z"/><path id="Path_60850" class="cls-1" d="M.51,3.67h3.89c.27-.01.48-.24.46-.51-.01-.25-.21-.45-.46-.46H.51c-.27,0-.49.22-.49.49s.22.49.49.49Z"/><path id="Path_60851" class="cls-1" d="M.51,13.3h7.88c.27.01.5-.2.51-.46.01-.27-.2-.5-.46-.51-.01,0-.03,0-.04,0H.51c-.27.01-.48.24-.46.51.01.25.21.45.46.46Z"/></g></g></svg>