<?xml version="1.0" encoding="UTF-8"?><svg id="Layer_1" xmlns="http://www.w3.org/2000/svg" xmlns:xlink="http://www.w3.org/1999/xlink" viewBox="0 0 16 16"><defs><style>.cls-1{fill:none;}.cls-2{fill:#8A8BB5;}.cls-3{clip-path:url(#clippath);}</style><clipPath id="clippath"><rect class="cls-1" y="0" width="16" height="15.99"/></clipPath></defs><g id="alertSettings"><g class="cls-3"><g id="Group_16352"><path id="Path_61459" class="cls-2" d="M8,4.53c1.24,0,2.39.67,3.01,1.74.09.16.27.26.45.26.23,0,.44-.16.5-.38.04-.13.02-.27-.05-.39-1.24-2.16-3.99-2.91-6.16-1.67-2.16,1.24-2.91,3.99-1.67,6.16.48.83,1.21,1.49,2.09,1.88.07.03.14.04.21.04.29,0,.52-.24.52-.52,0-.2-.12-.39-.31-.47-1.75-.78-2.54-2.83-1.77-4.58.56-1.25,1.8-2.06,3.17-2.06"/><path id="Path_61460" class="cls-2" d="M14.98,6.48h-.66c-.16-.66-.42-1.3-.78-1.88l.46-.47c.4-.39.4-1.04,0-1.43,0,0,0,0,0,0l-.7-.71c-.4-.38-1.03-.38-1.43,0l-.47.47c-.58-.36-1.22-.62-1.88-.78v-.66c0-.56-.46-1.02-1.02-1.02h-1c-.56,0-1.01.46-1.02,1.02v.66c-.66.16-1.3.42-1.88.78l-.47-.47c-.4-.38-1.03-.38-1.43,0l-.7.7c-.39.4-.39,1.04,0,1.43l.47.47c-.36.58-.62,1.22-.78,1.88h-.66C.45,6.48,0,6.93,0,7.5c0,0,0,0,0,0v1c0,.56.46,1.01,1.02,1.01h.66c.16.66.42,1.3.78,1.88l-.47.47c-.39.4-.39,1.04,0,1.43l.7.7c.4.4,1.04.4,1.43,0l.47-.47c.18.11.37.21.56.31.26.12.57,0,.69-.26.11-.25.01-.55-.23-.67-.27-.14-.54-.29-.79-.47-.09-.06-.19-.1-.3-.1-.14,0-.27.05-.36.15l-.52.56-.22.21-.7-.67.77-.77c.18-.18.2-.46.06-.67-.48-.67-.8-1.44-.93-2.26-.04-.25-.26-.43-.51-.43l-1.07.02-.02-.98h1.08c.25,0,.47-.18.51-.43.14-.81.46-1.58.94-2.24.15-.21.12-.49-.06-.67l-.77-.74.63-.66.04-.04.77.77c.1.1.23.15.37.15.11,0,.21-.04.3-.1.67-.48,1.44-.8,2.25-.93.25-.04.43-.26.43-.51l-.02-1.06.98-.02v1.08c0,.25.18.47.43.51.81.14,1.58.46,2.26.93.21.14.49.12.67-.06l.69-.72.05-.05.7.67-.77.77c-.18.18-.2.46-.06.67.48.67.8,1.44.93,2.26.04.25.26.43.51.43l1.07-.02.02.98h-1.03c-.28.01-.51.25-.49.54,0,0,0,0,0,0,.02.28.26.5.54.49h.99c.56,0,1.02-.45,1.02-1.01v-1c0-.56-.46-1.02-1.02-1.02"/><path id="Path_61461" class="cls-2" d="M12.03,7.55c-.34-.59-1.1-.8-1.69-.45-.19.11-.35.27-.45.45l-3.8,6.59c-.34.59-.14,1.35.45,1.69,0,0,0,0,0,0,.19.11.4.16.62.16h7.61c.68,0,1.24-.56,1.24-1.24,0-.22-.06-.43-.17-.62l-3.8-6.59ZM14.96,14.75c-.01.11-.1.19-.21.2h-7.6s-.07,0-.1-.03c-.1-.05-.13-.18-.08-.27,0,0,0,0,0,0l3.8-6.59c.04-.06.1-.1.18-.1.04,0,.07.01.1.03.03.02.06.04.07.07l3.8,6.59s.03.06.03.1"/><path id="Path_61462" class="cls-2" d="M11.09,13.33c-.29,0-.53.24-.53.53,0,.29.24.53.53.53.29,0,.53-.24.53-.53h0c0-.29-.24-.53-.53-.53"/><path id="Path_61463" class="cls-2" d="M11.62,10.34c-.25-.29-.68-.33-.97-.09-.19.16-.28.41-.24.65.1.6.25,1.45.32,1.83.03.2.22.33.42.3.15-.03.27-.15.3-.3l.32-1.83c.04-.2-.02-.41-.15-.56"/></g></g></g></svg>