<svg xmlns="http://www.w3.org/2000/svg" width="16" height="16" viewBox="0 0 16 16">
  <g id="allComponents" transform="translate(-251.106 -129.69)">
    <g id="_02" data-name="02">
      <path id="Path_135" data-name="Path 135" d="M259.106,136.548a.571.571,0,0,1-.236-.052l-6.286-2.857a.571.571,0,0,1,0-1.04l6.286-2.857a.564.564,0,0,1,.472,0l6.286,2.857a.571.571,0,0,1,0,1.04l-6.286,2.857A.571.571,0,0,1,259.106,136.548Zm-4.9-3.429,4.9,2.229,4.9-2.229-4.9-2.229Z" fill="#8A8BB5"/>
      <path id="Path_136" data-name="Path 136" d="M257.963,145.69a.573.573,0,0,1-.236-.051l-6.286-2.857a.572.572,0,0,1-.335-.52V135.4a.571.571,0,0,1,.808-.52l6.285,2.857a.569.569,0,0,1,.335.52v6.857a.569.569,0,0,1-.262.48A.563.563,0,0,1,257.963,145.69Zm-5.714-3.8,5.143,2.337v-5.6l-5.143-2.338Z" fill="#8A8BB5"/>
      <path id="Path_137" data-name="Path 137" d="M260.249,145.69a.571.571,0,0,1-.572-.571v-6.857a.57.57,0,0,1,.335-.52l6.286-2.857a.571.571,0,0,1,.808.52v6.857a.572.572,0,0,1-.335.52l-6.286,2.857A.573.573,0,0,1,260.249,145.69Zm.571-7.06v5.6l5.143-2.337v-5.6Z" fill="#8A8BB5"/>
    </g>
  </g>
</svg>
