<?xml version="1.0" encoding="UTF-8"?><svg id="Layer_1" xmlns="http://www.w3.org/2000/svg" viewBox="0 0 16 16"><defs><style>.cls-1{fill:#8A8BB5;}</style></defs><g id="assetManagement"><g id="Group_88"><path id="Path_142" class="cls-1" d="M8.52,7.44c-.3-.09-.6-.23-.86-.4-.04-.05-.05-.12-.03-.18.02-.11.09-.2.2-.24.19-.07.4-.04.56.08.2.16.5.13.66-.07.16-.2.13-.5-.07-.66,0,0-.02-.01-.03-.02-.15-.11-.32-.19-.5-.24v-.06c0-.26-.21-.47-.47-.47-.26,0-.47.21-.47.47v.09c-.42.15-.72.51-.8.95-.09.41.05.83.37,1.09.35.24.73.42,1.13.54.19.05.31.24.27.43-.04.25-.25.43-.5.43-.24.03-.48-.03-.67-.17-.22-.14-.51-.08-.65.14s-.08.51.14.65h0c.21.15.46.25.72.3v.07c0,.26.21.47.47.47.26,0,.47-.21.47-.47v-.12c.5-.18.86-.61.95-1.13.12-.64-.26-1.27-.88-1.47h0Z"/><g id="Group_87"><g id="Group_85"><path id="Path_143" class="cls-1" d="M15.53,6.03h-1.04c-.13-.42-.31-.83-.52-1.21l.99-.99c.09-.09.14-.21.14-.33,0-.12-.05-.24-.14-.33l-2.12-2.13c-.18-.18-.48-.18-.66,0l-1.04,1.04c-.37-.19-.76-.35-1.17-.47V.47c0-.26-.21-.47-.47-.47h-3c-.26,0-.47.21-.47.47h0v1.14c-.4.12-.79.28-1.17.47l-1.05-1.04c-.18-.18-.48-.18-.66,0L1.04,3.16c-.18.18-.18.48,0,.66,0,0,0,0,0,0l.99.99c-.21.39-.39.79-.52,1.21H.47c-.26,0-.47.21-.47.47H0v3.01c0,.26.21.47.47.47h1.04c.13.42.31.83.52,1.21l-.99.99c-.18.18-.18.48,0,.66h0s2.12,2.13,2.12,2.13c.18.18.48.18.66,0l1.05-1.04c.37.19.76.35,1.17.47v1.14c0,.26.21.47.47.47h3c.26,0,.47-.21.47-.47h0v-1.14c.4-.12.79-.28,1.17-.47l1.04,1.04c.18.18.48.18.66,0l2.12-2.12c.18-.18.18-.48,0-.66,0,0,0,0,0,0l-.99-.99c.21-.39.39-.79.52-1.21h1.04c.26,0,.47-.21.47-.47h0v-3.01c0-.26-.21-.47-.47-.47,0,0,0,0,0,0h0ZM15.06,9.03h-.92c-.21,0-.4.15-.45.35-.15.57-.38,1.12-.7,1.62-.12.19-.09.43.07.58l.92.91-1.46,1.46-.96-.96c-.15-.15-.38-.18-.57-.07-.5.29-1.03.5-1.59.64-.21.05-.36.24-.36.46v1.03h-2.06v-1.03c0-.22-.15-.41-.36-.46-.56-.13-1.09-.35-1.59-.64-.18-.11-.42-.08-.57.07l-.96.96-1.46-1.46.92-.91c.16-.16.18-.4.07-.58-.32-.5-.55-1.05-.7-1.62-.05-.21-.24-.35-.45-.35h-.93v-2.07h.93c.21,0,.4-.15.45-.35.15-.57.38-1.12.7-1.62.12-.19.09-.43-.07-.58l-.92-.91,1.46-1.46.96.96c.15.15.38.18.57.07.5-.29,1.03-.5,1.59-.64.21-.05.36-.24.36-.46V.94h2.06v1.03c0,.22.15.41.36.46.56.13,1.09.35,1.59.64.18.11.42.08.57-.07l.96-.96,1.46,1.46-.92.91c-.16.15-.18.4-.07.58.32.5.55,1.05.7,1.62.05.21.24.35.45.35h.92v2.07Z"/><path id="Path_144" class="cls-1" d="M8.03,3.45c-2.54-.02-4.62,2.03-4.64,4.57-.02,2.54,2.03,4.62,4.57,4.64,2.54.02,4.62-2.03,4.64-4.57,0-.01,0-.02,0-.04,0-2.53-2.04-4.59-4.57-4.61ZM8.03,11.72c-2.03.02-3.69-1.61-3.7-3.63-.02-2.03,1.61-3.69,3.63-3.7s3.69,1.61,3.7,3.63c0,.01,0,.02,0,.04,0,2.01-1.62,3.65-3.63,3.67Z"/></g><g id="Group_86"><path id="Path_145" class="cls-1" d="M15.53,6.03h-1.04c-.13-.42-.31-.83-.52-1.21l.99-.99c.09-.09.14-.21.14-.33,0-.12-.05-.24-.14-.33l-2.12-2.13c-.18-.18-.48-.18-.66,0l-1.04,1.04c-.37-.19-.76-.35-1.17-.47V.47c0-.26-.21-.47-.47-.47h-3c-.26,0-.47.21-.47.47h0v1.14c-.4.12-.79.28-1.17.47l-1.05-1.04c-.18-.18-.48-.18-.66,0L1.04,3.16c-.18.18-.18.48,0,.66,0,0,0,0,0,0l.99.99c-.21.39-.39.79-.52,1.21H.47c-.26,0-.47.21-.47.47H0v3.01c0,.26.21.47.47.47h1.04c.13.42.31.83.52,1.21l-.99.99c-.18.18-.18.48,0,.66h0s2.12,2.13,2.12,2.13c.18.18.48.18.66,0l1.05-1.04c.37.19.76.35,1.17.47v1.14c0,.26.21.47.47.47h3c.26,0,.47-.21.47-.47h0v-1.14c.4-.12.79-.28,1.17-.47l1.04,1.04c.18.18.48.18.66,0l2.12-2.12c.18-.18.18-.48,0-.66,0,0,0,0,0,0l-.99-.99c.21-.39.39-.79.52-1.21h1.04c.26,0,.47-.21.47-.47h0v-3.01c0-.26-.21-.47-.47-.47,0,0,0,0,0,0h0ZM15.06,9.03h-.92c-.21,0-.4.15-.45.35-.15.57-.38,1.12-.7,1.62-.12.19-.09.43.07.58l.92.91-1.46,1.46-.96-.96c-.15-.15-.38-.18-.57-.07-.5.29-1.03.5-1.59.64-.21.05-.36.24-.36.46v1.03h-2.06v-1.03c0-.22-.15-.41-.36-.46-.56-.13-1.09-.35-1.59-.64-.18-.11-.42-.08-.57.07l-.96.96-1.46-1.46.92-.91c.16-.16.18-.4.07-.58-.32-.5-.55-1.05-.7-1.62-.05-.21-.24-.35-.45-.35h-.93v-2.07h.93c.21,0,.4-.15.45-.35.15-.57.38-1.12.7-1.62.12-.19.09-.43-.07-.58l-.92-.91,1.46-1.46.96.96c.15.15.38.18.57.07.5-.29,1.03-.5,1.59-.64.21-.05.36-.24.36-.46V.94h2.06v1.03c0,.22.15.41.36.46.56.13,1.09.35,1.59.64.18.11.42.08.57-.07l.96-.96,1.46,1.46-.92.91c-.16.15-.18.4-.07.58.32.5.55,1.05.7,1.62.05.21.24.35.45.35h.92v2.07Z"/><path id="Path_146" class="cls-1" d="M8.03,3.45c-2.54-.02-4.62,2.03-4.64,4.57-.02,2.54,2.03,4.62,4.57,4.64,2.54.02,4.62-2.03,4.64-4.57,0-.01,0-.02,0-.04,0-2.53-2.04-4.59-4.57-4.61ZM8.03,11.72c-2.03.02-3.69-1.61-3.7-3.63-.02-2.03,1.61-3.69,3.63-3.7s3.69,1.61,3.7,3.63c0,.01,0,.02,0,.04,0,2.01-1.62,3.65-3.63,3.67Z"/></g></g></g></g></svg>