<svg xmlns="http://www.w3.org/2000/svg" xmlns:xlink="http://www.w3.org/1999/xlink" width="16" height="16" viewBox="0 0 16 16">
  <defs>
    <clipPath id="clip-path">
      <rect id="Rectangle_1841" data-name="Rectangle 1841" width="16" height="16" fill="none"/>
    </clipPath>
  </defs>
  <g id="associateDissociate" clip-path="url(#clip-path)">
    <path id="Path_61441" data-name="Path 61441" d="M8,16A8,8,0,1,0,0,8a8,8,0,0,0,8,8M8,1.067A6.933,6.933,0,1,1,1.067,8,6.933,6.933,0,0,1,8,1.067" fill="#8A8BB5"/>
    <path id="Path_61442" data-name="Path 61442" d="M10.9,10.667A2.126,2.126,0,0,1,9.269,9.9l-.682.458a2.179,2.179,0,1,1-.663-.839L8.8,8.928a1.994,1.994,0,0,1,.09-1.1L7.7,6.634a2.1,2.1,0,0,1-1.075.3A2.149,2.149,0,1,1,8.462,5.88L9.507,6.931A2.129,2.129,0,1,1,10.9,10.668Zm-4.267-.534a1.067,1.067,0,1,0,.753.311,1.067,1.067,0,0,0-.753-.311Zm0-6.4a1.07,1.07,0,1,0,.748.313,1.07,1.07,0,0,0-.748-.313ZM10.9,7.467a1.067,1.067,0,1,0,1.066,1.068h0A1.067,1.067,0,0,0,10.9,7.467" fill="#8A8BB5"/>
  </g>
</svg>
