<?xml version="1.0" encoding="UTF-8"?><svg id="Layer_1" xmlns="http://www.w3.org/2000/svg" viewBox="0 0 15.98 16"><defs><style>.cls-1{fill:#adadad;}</style></defs><path class="cls-1" d="M13.04,11.44h-2.03c-.34,0-.61.27-.61.61s.27.61.61.61h2.03c.34,0,.61-.27.61-.61s-.27-.61-.61-.61Z"/><path class="cls-1" d="M4.57,6.3c-.09-.05-.19-.07-.3-.07-.25,0-.47.14-.59.36-.08.16-.09.33-.04.5.05.17.17.3.33.38l2.77,1.39c.09.04.19.07.29.07.18,0,.36-.08.49-.23l3.23-3.7c.12-.13.18-.3.17-.48-.01-.18-.09-.34-.22-.45-.12-.11-.28-.17-.44-.17s-.31.06-.42.16h0s-2.96,3.39-2.96,3.39l-2.32-1.16Z"/><path class="cls-1" d="M15.05,9.5c-.75-.89-1.85-1.4-3.02-1.4-2.18,0-3.95,1.77-3.95,3.95,0,.4.06.8.18,1.19l.03.11-.12.02c-.28.04-.55.05-.82.05-3.33,0-6.04-2.71-6.06-6.04,0-1.61.62-3.12,1.76-4.26,1.14-1.15,2.67-1.78,4.29-1.78,2.91,0,5.42,2.08,5.95,4.94.05.31.33.55.65.55.04,0,.08,0,.13-.01.18-.03.33-.13.43-.28.1-.15.14-.32.1-.5-.64-3.5-3.68-6.03-7.24-6.03-.44,0-.89.04-1.33.12C2.05.86-.61,4.71.12,8.7c.64,3.49,3.68,6.02,7.22,6.03.56,0,1.09-.06,1.57-.17h.06s.04.03.04.03c.75.89,1.85,1.4,3.02,1.4h0c.93,0,1.84-.33,2.55-.93,1.67-1.4,1.88-3.9.47-5.57ZM12.03,14.68c-1.45,0-2.63-1.18-2.63-2.63s1.18-2.63,2.63-2.63,2.63,1.18,2.63,2.63-1.18,2.63-2.63,2.63Z"/></svg>