<?xml version="1.0" encoding="UTF-8"?><svg id="Layer_1" xmlns="http://www.w3.org/2000/svg" viewBox="0 0 16 16"><defs><style>.cls-1{fill:#8A8BB5;}</style></defs><g id="availabilityUnavailability"><g id="Group_86"><g id="pin-number"><path class="cls-1" d="M13.05,11.44h-2.03c-.34,0-.61.27-.61.61s.27.61.61.61h2.03c.34,0,.61-.27.61-.61s-.27-.61-.61-.61Z"/><path class="cls-1" d="M7.05,8.93c-.1,0-.2-.03-.29-.07l-2.77-1.39c-.16-.08-.27-.22-.33-.38-.05-.17-.04-.35.04-.5.11-.22.34-.36.59-.36.1,0,.2.02.3.07l2.32,1.16,2.96-3.39h0c.12-.11.27-.16.42-.16s.32.06.44.17c.13.12.21.28.22.45,0,.18-.05.35-.17.48l-3.23,3.7c-.13.15-.31.23-.49.23Z"/><path class="cls-1" d="M12.04,16c-1.17,0-2.27-.51-3.02-1.4l-.04-.05h-.06c-.48.13-1,.18-1.57.18-3.55,0-6.58-2.55-7.22-6.03C-.6,4.71,2.06.86,6.04.12c.44-.08.89-.12,1.33-.12,3.56,0,6.6,2.54,7.24,6.03.03.17,0,.35-.1.5-.1.15-.26.25-.43.28-.04,0-.09.01-.13.01-.32,0-.6-.24-.65-.55-.54-2.87-3.04-4.94-5.95-4.94-1.62,0-3.14.63-4.29,1.78-1.14,1.14-1.76,2.66-1.76,4.26.01,3.33,2.73,6.04,6.06,6.04.28,0,.55,0,.82-.05l.12-.02-.03-.11c-.12-.38-.18-.78-.18-1.19,0-2.18,1.77-3.95,3.95-3.95,1.17,0,2.27.51,3.02,1.4,1.4,1.67,1.19,4.17-.47,5.57-.71.6-1.62.93-2.55.93h0ZM12.04,9.42c-1.45,0-2.63,1.18-2.63,2.63s1.18,2.63,2.63,2.63,2.63-1.18,2.63-2.63-1.18-2.63-2.63-2.63Z"/></g></g></g></svg>