<?xml version="1.0" encoding="UTF-8"?><svg id="AVDInfrastructure" xmlns="http://www.w3.org/2000/svg" viewBox="0 0 16 16"><defs><style>.cls-1{fill:#8A8BB5;}</style></defs><path id="Path_60852" class="cls-1" d="M9.48,12.75h-2.96c-.35,0-.64.29-.64.64v2c.01.34.29.61.62.61h2.99c.34,0,.62-.29.62-.63v-1.98c0-.35-.29-.64-.64-.64h0M9.34,15.22l-2.68-.02v-1.66h2.68v1.68Z"/><path id="Path_60853" class="cls-1" d="M4.29,12.76H1.33c-.35,0-.64.28-.64.64v1.99c.01.34.29.61.62.61h2.97c.35,0,.63-.28.64-.63v-1.98c0-.35-.29-.64-.64-.64M4.15,13.54v1.68l-2.67-.02v-1.66h2.67Z"/><path id="Path_60854" class="cls-1" d="M14.66,12.76h-2.96c-.35,0-.64.28-.64.64v1.99c.01.34.29.61.63.61h2.98c.35,0,.63-.28.64-.63v-1.98c0-.35-.29-.64-.64-.64h0M14.53,13.54v1.68l-2.68-.02v-1.66h2.68Z"/><path id="Path_60855" class="cls-1" d="M12.55,10.68h-4.27v-.74h-.85v.74H3.16c-.51,0-.92.41-.92.92v.67h.85v-.67s.03-.07.07-.07h4.27v.74h.85v-.74h4.26s.07.03.07.07c0,0,0,0,0,0v.67h.85v-.67c0-.51-.41-.92-.92-.92"/><path id="Path_60856" class="cls-1" d="M12.54,5.58v-1.79l-.94-.27c-.07-.23-.16-.45-.27-.66l.47-.85-1.26-1.27-.85.47c-.21-.11-.43-.2-.66-.27L8.75,0h-1.79l-.27.93c-.23.07-.45.16-.66.27l-.86-.47-1.27,1.27.47.85c-.11.21-.2.43-.27.66l-.94.27v1.79l.94.27c.07.23.16.45.27.66l-.47.85,1.27,1.27.85-.47c.21.11.43.2.66.27l.27.94h1.79l.27-.93c.23-.07.45-.16.66-.27l.85.47,1.26-1.27-.47-.85c.11-.21.2-.43.27-.66l.94-.27ZM10.99,5.09l-.07.3c-.08.34-.21.67-.4.96l-.17.26.41.75-.23.23-.75-.41-.26.17c-.3.19-.62.32-.96.4l-.3.07-.24.82h-.33l-.24-.82-.3-.07c-.34-.08-.67-.21-.96-.4l-.26-.17-.75.41-.23-.23.41-.75-.17-.26c-.19-.3-.32-.62-.4-.96l-.07-.3-.82-.24v-.33l.82-.24.07-.3c.08-.34.21-.67.4-.96l.16-.26-.41-.75.23-.23.75.41.27-.17c.3-.19.62-.32.96-.4l.3-.07.24-.82h.33l.24.82.3.07c.34.08.67.21.96.4l.26.16.75-.41.23.23-.41.75.16.26c.19.3.32.62.4.96l.07.3.82.24v.32l-.81.24Z"/><path id="Path_60857" class="cls-1" d="M8.78,4.05l.87-.89-.56-.53-1.42,1.45,1.41,1.46.58-.56-.88-.92Z"/><path id="Path_60858" class="cls-1" d="M6,4.4l.88.92-.86.9.56.52,1.41-1.45-1.41-1.45-.58.57Z"/></svg>