<?xml version="1.0" encoding="UTF-8"?><svg id="Layer_1" xmlns="http://www.w3.org/2000/svg" viewBox="0 0 16 16"><defs><style>.cls-1{fill:#8A8BB5;}</style></defs><g id="AWS"><g id="Group_15846"><path id="Path_60862" class="cls-1" d="M4.53,6.67c0,.16.02.32.05.48.05.11.11.24.16.37.02.04.03.09.03.13,0,.07-.05.13-.11.16l-.35.21s-.09.04-.13.05c-.06,0-.12-.04-.16-.08-.07-.07-.13-.15-.19-.24-.06-.1-.12-.21-.16-.32-.39.47-.97.75-1.58.75-.39.02-.77-.12-1.07-.37-.27-.27-.42-.63-.4-1.01-.02-.42.16-.82.48-1.09.37-.29.84-.45,1.31-.43.19,0,.38.02.56.05.19.03.4.08.61.11v-.4c.03-.3-.05-.61-.24-.85-.25-.19-.57-.27-.88-.24-.2,0-.39.03-.58.08-.2.05-.39.11-.58.19-.07.02-.13.05-.19.08-.02.02-.05.03-.08.03-.09,0-.11-.05-.11-.16v-.28c0-.08,0-.16.03-.19.04-.05.09-.08.15-.11.21-.12.43-.2.67-.24.27-.08.55-.11.83-.11.5-.05,1,.1,1.39.43.32.36.49.83.45,1.31l.08,1.68ZM2.36,7.47c.19,0,.39-.03.57-.1.2-.06.38-.18.51-.35.09-.1.15-.22.19-.35.03-.15.05-.3.05-.45v-.22c-.16-.04-.32-.07-.48-.08-.16,0-.35-.03-.51-.03-.28-.01-.56.06-.8.21-.19.15-.29.38-.27.61-.05.36.2.7.56.75.06,0,.12,0,.19,0M6.65,8.05c-.08,0-.15-.01-.22-.05-.05-.03-.08-.11-.11-.21l-1.23-4.1c-.02-.07-.04-.14-.05-.21,0-.07.05-.13.12-.13,0,0,0,0,0,0h.55c.08,0,.15.02.21.05.05.03.08.11.11.21l.88,3.52.83-3.52c.03-.11.06-.19.11-.21.07-.04.14-.05.21-.05h.43c.07,0,.15.02.21.05.05.03.08.11.11.21l.83,3.55.94-3.57c.02-.08.05-.15.11-.21.07-.04.14-.06.22-.05h.51c.07,0,.13.05.13.12,0,0,0,0,0,.01v.08s-.02.09-.03.13l-1.34,4.13c-.02.08-.05.15-.11.21-.07.04-.14.05-.21.05h-.46c-.08,0-.15-.02-.21-.06-.05-.03-.08-.11-.11-.21l-.83-3.44-.83,3.41c-.03.11-.05.19-.11.21-.07.04-.14.06-.21.05h-.45v.02ZM13.52,8.18c-.28,0-.56-.03-.83-.11-.22-.04-.42-.11-.62-.21-.07-.04-.12-.09-.16-.16-.02-.05-.03-.11-.03-.16v-.26c0-.11.05-.16.13-.16.04,0,.07,0,.11.03.05.03.08.03.13.05.19.08.38.14.58.19.21.05.43.06.64.05.27.02.54-.04.78-.19.18-.1.28-.3.27-.51,0-.14-.04-.27-.13-.37-.15-.13-.34-.22-.54-.27l-.77-.24c-.33-.09-.63-.27-.86-.53-.17-.22-.27-.49-.27-.77,0-.2.04-.4.13-.58.09-.17.22-.32.37-.43.16-.13.36-.22.56-.26.22-.06.44-.08.67-.08.12,0,.23,0,.35.03.13.03.24.03.35.05.11.03.2.05.3.08.08.01.15.05.2.11.07.03.12.07.17.13.03.05.05.12.05.18v.25c0,.11-.05.16-.13.16-.07-.01-.14-.03-.21-.05-.32-.14-.67-.21-1.01-.21-.25-.01-.5.04-.72.16-.16.11-.25.29-.24.48,0,.14.05.28.16.37.17.15.37.25.58.29l.75.24c.32.09.61.26.83.51.16.22.24.48.24.75,0,.21-.04.42-.13.61-.1.19-.23.35-.4.48-.17.14-.37.24-.58.29-.24.06-.48.09-.72.08"/><path id="Path_60863" class="cls-1" d="M14.51,10.8c-1.91,1.31-4.18,2.01-6.5,2-2.93,0-5.75-1.07-7.94-3.02-.16-.16-.03-.35.19-.24,2.42,1.38,5.16,2.11,7.94,2.11,2.08,0,4.13-.43,6.04-1.23.32-.16.56.16.27.37"/><path id="Path_60864" class="cls-1" d="M15.26,9.97c-.21-.29-1.49-.13-2.05-.08-.16.03-.19-.13-.05-.24.85-.53,1.9-.63,2.83-.27.12.99-.25,1.99-.99,2.66-.13.13-.29.05-.21-.11.21-.51.69-1.68.48-1.97"/></g></g></svg>