<?xml version="1.0" encoding="UTF-8"?><svg id="Layer_1" xmlns="http://www.w3.org/2000/svg" viewBox="0 0 16 16"><defs><style>.cls-1{fill:#8A8BB5;}</style></defs><g id="BI"><g id="Group_15853"><g id="Group_15854"><path id="Path_60867" class="cls-1" d="M3.89,13.76c-.28.01-.52-.21-.53-.49,0-.02,0-.03,0-.05v-4.38c0-.29.24-.53.53-.53.28-.01.52.21.53.49,0,.02,0,.03,0,.05v4.38c0,.29-.24.53-.53.53"/><path id="Path_60868" class="cls-1" d="M6.79,14.93c-.26,0-.48-.2-.49-.47,0-.02,0-.05,0-.07v-6.67c0-.29.24-.53.53-.53.28-.01.52.2.53.49,0,.02,0,.03,0,.05v6.18l-.05.49c0,.29-.24.53-.53.53"/><path id="Path_60869" class="cls-1" d="M.93,12.81c-.28.01-.52-.21-.53-.49,0-.02,0-.03,0-.05v-2.39c0-.29.24-.53.53-.53.29,0,.53.24.53.53v2.39c0,.29-.24.53-.53.53"/><path id="Path_60870" class="cls-1" d="M9.69,16c-.28-.02-.49-.26-.48-.53V6.6c0-.29.24-.53.53-.53.29,0,.53.24.53.53v8.37l-.05.49c0,.3-.24.53-.53.54"/><path id="Path_60871" class="cls-1" d="M14.41,3.66L2.6.08C2.43.03,2.25,0,2.06,0c-.36,0-.71.12-1,.34-.46.31-.73.83-.72,1.39v5.56c0,.27.21.48.47.49,0,0,0,0,.01,0,.27,0,.48-.21.49-.48,0,0,0,0,0,0V1.73c0-.24.11-.47.29-.64.14-.08.29-.13.45-.13.08,0,.17.02.24.05l11.86,3.58c.31.1.52.4.51.73v8.08c.01.24-.1.47-.3.6-.13.11-.29.17-.46.17-.08,0-.15-.02-.23-.05l-1.24-.38c-.05-.03-.12-.04-.18-.04-.2,0-.38.13-.44.33-.05.11-.05.25,0,.36.06.13.17.22.3.26l1.22.39.1.02c.15.05.3.07.46.07.29-.02.58-.08.84-.19l.15-.05h.03c.45-.35.72-.88.72-1.44V5.35c0-.77-.49-1.46-1.23-1.69"/></g></g></g></svg>