<?xml version="1.0" encoding="UTF-8"?><svg id="byGateway" xmlns="http://www.w3.org/2000/svg" viewBox="0 0 16 16"><defs><style>.cls-1{fill:#8A8BB5;}</style></defs><path id="Path_60909" class="cls-1" d="M7.53,1.52v5.87c.01.24.21.42.45.41.22-.01.4-.19.41-.41V1.52c.14-.09.25-.22.32-.37.18-.42-.01-.9-.43-1.08C8.18.02,8.07,0,7.96,0c-.45,0-.82.37-.82.82,0,.28.15.55.39.7"/><path id="Path_60910" class="cls-1" d="M4.25,3.12c.1.05.22.07.33.07.29,0,.55-.15.7-.39h.55v4.6c0,.23.19.41.42.42h.01c.24,0,.43-.19.43-.43V2.36c0-.24-.2-.43-.43-.43h-.99c-.24-.39-.75-.51-1.13-.27s-.51.75-.27,1.13c.09.14.22.25.37.32"/><path id="Path_60911" class="cls-1" d="M9.22,7.54c.05.19.22.33.42.33.03,0,.07,0,.1-.01.22-.05.36-.26.32-.47V2.8h.56c.09.14.22.25.37.32.1.05.21.07.33.07.45,0,.82-.37.82-.82,0-.45-.37-.82-.82-.82-.28,0-.55.15-.7.39h-.98c-.24,0-.43.2-.43.43v5.17s0,.01,0,.01Z"/><path id="Path_60912" class="cls-1" d="M13.36,4.59h-2.9v1.09h2.9c.3,0,.55.25.55.55v5.94c0,.3-.25.55-.55.55H2.64c-.3,0-.55-.25-.55-.55v-5.94c0-.3.25-.55.55-.55h2.78v-1.09h-2.78c-.91,0-1.64.74-1.64,1.64v5.94c0,.91.74,1.64,1.64,1.64h4.81v1.09h-2.84v1.09h6.78v-1.09h-2.84v-1.09h4.81c.9,0,1.64-.74,1.64-1.64v-5.94c0-.91-.74-1.64-1.64-1.64"/></svg>