<?xml version="1.0" encoding="UTF-8"?><svg id="byHardDiskCapacity" xmlns="http://www.w3.org/2000/svg" xmlns:xlink="http://www.w3.org/1999/xlink" viewBox="0 0 16 16"><defs><style>.cls-1{fill:none;}.cls-2{fill:#8A8BB5;}.cls-3{clip-path:url(#clippath);}</style><clipPath id="clippath"><rect class="cls-1" y="1.45" width="16" height="13.1"/></clipPath></defs><g class="cls-3"><g id="Group_15877"><path id="Path_60913" class="cls-2" d="M4.48,9.58c-.46,0-.83.37-.83.83s.37.83.83.83.83-.37.83-.83-.37-.83-.83-.83h0"/><path id="Path_60914" class="cls-2" d="M2.52,9.58c-.46,0-.83.37-.83.83s.37.83.83.83.83-.37.83-.83-.37-.83-.83-.83h0"/><path id="Path_60915" class="cls-2" d="M15.86,8.82l-3.29-6.57c-.26-.49-.76-.8-1.31-.8h-6.52c-.57,0-1.08.33-1.34.84L.13,8.84c-.09.19-.13.4-.13.61v3.62c0,.82.66,1.48,1.48,1.48h13.04c.82,0,1.48-.66,1.48-1.48v-3.62c0-.22-.05-.43-.14-.63M4.31,2.73c.08-.17.24-.28.43-.27h6.52c.2,0,.38.13.45.32l2.6,5.2H1.69l2.62-5.24ZM1,9.45c0-.26.21-.47.48-.47h13.05c.26,0,.48.21.48.47,0,0,0,0,0,0v3.62c0,.26-.21.47-.48.48H1.48c-.26,0-.48-.21-.48-.47,0,0,0,0,0,0v-3.62Z"/><path id="Path_60916" class="cls-2" d="M13.8,11.86H2.2c-.28,0-.5.22-.5.5s.22.5.5.5h11.6c.28,0,.5-.22.5-.5s-.22-.5-.5-.5"/></g></g></svg>