<?xml version="1.0" encoding="UTF-8"?><svg id="byIPAddress" xmlns="http://www.w3.org/2000/svg" xmlns:xlink="http://www.w3.org/1999/xlink" viewBox="0 0 16 16"><defs><style>.cls-1{fill:none;}.cls-2{fill:#8A8BB5;}.cls-3{clip-path:url(#clippath);}</style><clipPath id="clippath"><rect class="cls-1" x="2.84" width="10.33" height="16"/></clipPath></defs><path id="Rectangle_1680" class="cls-2" d="M6.09,2.8h.99v4.76h-.99V2.8Z"/><g id="Group_15882"><g class="cls-3"><g id="Group_15881"><path id="Path_60919" class="cls-2" d="M8.94,5.66h.44c.79-.02,1.41-.68,1.39-1.46-.02-.76-.63-1.37-1.39-1.39h-1.42v4.72h.98v-1.87ZM9.38,4.67h-.44v-.89h.44c.25,0,.44.2.44.44,0,.25-.2.44-.44.44h0"/><path id="Path_60920" class="cls-2" d="M8.49,13.24v-1.32l3.12-3.06c2.04-2,2.07-5.27.08-7.3-2-2.04-5.27-2.07-7.3-.08-2.04,2-2.07,5.27-.08,7.3.02.03.05.05.08.08l3.12,3.06v1.32c-.39.15-.7.45-.85.85h-3.83v.98h3.83c.27.74,1.09,1.12,1.83.85.39-.14.7-.45.85-.85h3.83v-.98h-3.83c-.15-.39-.45-.7-.85-.85M8,.98c2.31,0,4.18,1.87,4.18,4.18,0,1.13-.45,2.2-1.26,2.99l-2.93,2.87-2.93-2.87c-1.65-1.62-1.68-4.26-.06-5.92.79-.8,1.87-1.26,2.99-1.26M8,14.13c.25,0,.44.2.44.44s-.2.44-.44.44c-.25,0-.44-.2-.44-.44s.2-.44.44-.44h0"/></g></g></g></svg>