<?xml version="1.0" encoding="UTF-8"?><svg id="byNetworkDevices" xmlns="http://www.w3.org/2000/svg" xmlns:xlink="http://www.w3.org/1999/xlink" viewBox="0 0 16 16"><defs><style>.cls-1{fill:none;}.cls-2{fill:#8A8BB5;}.cls-3{clip-path:url(#clippath);}</style><clipPath id="clippath"><rect class="cls-1" y="1.21" width="16" height="13.58"/></clipPath></defs><path id="Path_60924" class="cls-2" d="M12.25,4.13v4.42h.94V3.19h-1.91v.94h.97Z"/><path id="Path_60925" class="cls-2" d="M3.75,4.13h.97v-.94h-1.91v5.36h.94v-4.42Z"/><g id="Group_15884"><g class="cls-3"><g id="Group_15883"><path id="Path_60926" class="cls-2" d="M4.72,4.85c0,.58.47,1.05,1.05,1.05h1.76v.63h-1.28v.94h3.5v-.94h-1.28v-.63h1.76c.58,0,1.05-.47,1.05-1.05v-2.59c0-.58-.47-1.05-1.05-1.05h-4.46c-.58,0-1.05.47-1.05,1.05v2.59ZM5.66,2.26c0-.06.05-.11.11-.11h4.46c.06,0,.11.05.11.11,0,0,0,0,0,0v2.59c0,.06-.05.11-.11.11,0,0,0,0,0,0h-4.46c-.06,0-.11-.05-.11-.11v-2.59Z"/><rect id="Rectangle_1682" class="cls-2" x="6.56" y="10.41" width="2.88" height=".94"/><path id="Path_60927" class="cls-2" d="M6.56,9.58c0-.58-.47-1.05-1.05-1.05H1.05c-.58,0-1.05.47-1.05,1.05v2.59c0,.58.47,1.05,1.05,1.05h1.76v.63h-1.28v.94h3.5v-.94h-1.28v-.63h1.76c.58,0,1.05-.47,1.05-1.05v-2.59h0ZM5.62,12.17c0,.06-.05.11-.11.11H1.05c-.06,0-.11-.05-.11-.11h0v-2.59c0-.06.05-.11.11-.11h4.46c.06,0,.11.05.11.11h0v2.59Z"/><path id="Path_60928" class="cls-2" d="M14.95,8.53h-4.46c-.58,0-1.05.47-1.05,1.05v2.59c0,.58.47,1.05,1.05,1.05h1.76v.63h-1.28v.94h3.5v-.94h-1.28v-.63h1.76c.58,0,1.05-.47,1.05-1.05v-2.59c0-.58-.47-1.05-1.05-1.05M15.06,12.17c0,.06-.05.11-.11.11,0,0,0,0,0,0h-4.46c-.06,0-.11-.05-.11-.11h0v-2.59c0-.06.05-.11.11-.11h4.46c.06,0,.11.05.11.11,0,0,0,0,0,0v2.59Z"/></g></g></g></svg>