<?xml version="1.0" encoding="UTF-8"?><svg id="Layer_1" xmlns="http://www.w3.org/2000/svg" xmlns:xlink="http://www.w3.org/1999/xlink" viewBox="0 0 16 16"><defs><style>.cls-1{fill:none;}.cls-2{fill:#8A8BB5;}.cls-3{clip-path:url(#clippath);}</style><clipPath id="clippath"><rect class="cls-1" x="0" y="0" width="16" height="16"/></clipPath></defs><g class="cls-3"><g id="byProcessorFamily"><path id="Path_60931" class="cls-2" d="M10.16,4.75h-4.33c-.6,0-1.08.49-1.08,1.08v4.33c0,.6.49,1.08,1.08,1.08h4.33c.6,0,1.08-.49,1.08-1.08v-4.33c0-.6-.49-1.08-1.08-1.08M5.84,9.66v-3.32c0-.28.23-.51.51-.51h3.32c.28,0,.51.23.51.5,0,0,0,0,0,0v3.32c0,.28-.23.51-.51.51h-3.32c-.28,0-.51-.23-.51-.51"/><path id="Path_60932" class="cls-2" d="M15.43,8.57c.32.01.58-.23.6-.55.01-.32-.23-.58-.55-.6-.02,0-.03,0-.05,0h-1.14v-1.71h1.14c.32.01.58-.23.6-.55.01-.32-.23-.58-.55-.6-.02,0-.03,0-.05,0h-1.14v-1.14c0-.95-.77-1.71-1.71-1.71h-1.14V.57C11.43.26,11.17,0,10.86,0s-.57.26-.57.57v1.14h-1.71V.57c.01-.32-.23-.58-.55-.6-.32-.01-.58.23-.6.55,0,.02,0,.03,0,.05v1.14h-1.71V.57c.01-.32-.23-.58-.55-.6s-.58.23-.6.55c0,.02,0,.03,0,.05v1.14h-1.14c-.95,0-1.71.77-1.71,1.71v1.14H.57c-.32.01-.56.28-.55.6.01.3.25.54.55.55h1.14v1.71H.57c-.32.01-.56.28-.55.6.01.3.25.54.55.55h1.14v1.71H.57c-.32.01-.56.28-.55.6.01.3.25.54.55.55h1.14v1.14c0,.95.77,1.71,1.71,1.71h1.14v1.14c-.01.32.23.58.55.6.32.01.58-.23.6-.55,0-.02,0-.03,0-.05v-1.14h1.71v1.14c-.01.32.23.58.55.6.32.01.58-.23.6-.55,0-.02,0-.03,0-.05v-1.14h1.71v1.14c0,.32.26.57.57.57s.57-.26.57-.57v-1.14h1.14c.95,0,1.71-.77,1.71-1.71v-1.14h1.14c.32.01.58-.23.6-.55.01-.32-.23-.58-.55-.6-.02,0-.03,0-.05,0h-1.14v-1.71h1.14ZM13.14,12.57c0,.31-.26.57-.57.57H3.43c-.32,0-.57-.26-.57-.57V3.43c0-.32.26-.57.57-.57h9.14c.31,0,.57.26.57.57v9.14Z"/></g></g></svg>