<?xml version="1.0" encoding="UTF-8"?><svg id="byServers" xmlns="http://www.w3.org/2000/svg" viewBox="0 0 16 16"><defs><style>.cls-1{fill:#8A8BB5;}</style></defs><path id="Path_60937" class="cls-1" d="M11.69,0h-7.38c-.69,0-1.25.56-1.25,1.25v12.49c0,.69.56,1.25,1.25,1.25h.43v.53c-.01.26.19.48.45.49.26.01.48-.19.49-.45,0-.01,0-.03,0-.04v-.53h4.64v.53c0,.26.21.47.47.47.26,0,.47-.21.47-.47h0v-.53h.43c.69,0,1.25-.56,1.25-1.25V1.25c0-.69-.56-1.25-1.25-1.25M12,13.74c0,.17-.14.31-.31.31h-7.38c-.17,0-.31-.14-.31-.31h0V1.25c0-.17.14-.31.31-.31h7.38c.17,0,.31.14.31.31v12.49Z"/><path id="Path_60938" class="cls-1" d="M5.28,3.61h5.42c.26.01.48-.19.49-.45s-.19-.48-.45-.49c-.01,0-.03,0-.04,0h-5.42c-.26-.01-.48.19-.49.45-.01.26.19.48.45.49.01,0,.03,0,.04,0"/><path id="Path_60939" class="cls-1" d="M11.16,5.04c0-.26-.21-.47-.47-.47h-5.42c-.26,0-.47.21-.47.47s.21.47.47.47h5.42c.26,0,.47-.21.47-.47"/><path id="Path_60940" class="cls-1" d="M11.16,6.94c0-.26-.21-.47-.47-.47h-5.42c-.26,0-.47.21-.47.47s.21.47.47.47h5.42c.26,0,.47-.21.47-.47"/><path id="Path_60941" class="cls-1" d="M8,10.01c-.74,0-1.33.6-1.33,1.33,0,.74.6,1.33,1.33,1.33s1.33-.6,1.33-1.33c0,0,0,0,0,0,0-.74-.6-1.33-1.33-1.33M8,11.93c-.32,0-.59-.26-.59-.58,0-.32.26-.59.58-.59.32,0,.59.26.59.58,0,0,0,0,0,0,0,.32-.26.58-.58.58"/></svg>