<?xml version="1.0" encoding="UTF-8"?><svg id="Layer_1" xmlns="http://www.w3.org/2000/svg" viewBox="0 0 16 16"><defs><style>.cls-1{fill:#2665c9;}.cls-2{fill:#8A8BB5;}.cls-3{fill:#3d5376;}.cls-4{fill:#adadad;}</style></defs><g id="byVirtualPlatforms"><g id="Group_15902"><g id="Group_15903"><path id="Path_60952" class="cls-4" d="M14.05,2.12c-1.94-.7-3.99-1.03-6.05-.98-2.06-.05-4.11.28-6.05.98C.42,2.76.1,3.49.1,3.99v6.22c0,.5.32,1.23,1.85,1.87.16.07.34,0,.4-.16.02-.04.02-.08.02-.12v-2.96c.84-.31,1.72-.53,2.61-.65.05.41.19.81.39,1.16.24.38.56.71.94.95v.27h-.64c-1.19,0-2.15.97-2.15,2.15,0,0,0,0,0,0v1.81c0,.17.14.31.31.31h8.33c.17,0,.31-.14.31-.31v-1.81c0-1.19-.97-2.15-2.15-2.15h-.64v-.27c.38-.24.7-.57.94-.95.21-.36.34-.75.39-1.16.89.12,1.76.34,2.61.65v2.96c0,.17.14.31.31.31h0s.08,0,.12-.02c1.53-.64,1.85-1.37,1.85-1.87V3.99c0-.5-.32-1.23-1.85-1.87M1.75,11.32c-.66-.35-1.04-.74-1.04-1.11v-5.08c.31.26.67.48,1.04.64v5.54ZM10.32,11.21c.85,0,1.54.68,1.54,1.53h0v1.51h-1.34v-.99c0-.17-.16-.3-.33-.29-.16,0-.28.13-.29.29v.99h-3.8v-.99c0-.17-.16-.3-.33-.29-.16,0-.28.13-.29.29v.99h-1.34v-1.51c0-.85.69-1.53,1.53-1.53h.64v.11c0,.17.07.34.19.47.4.4.93.63,1.49.64.56,0,1.09-.23,1.48-.63.13-.13.2-.3.2-.48v-.1h.64ZM6.93,11.31v-.69c.34.14.7.21,1.07.22.36,0,.72-.08,1.06-.22v.69s0,.03-.02.04c-.28.28-.65.44-1.04.45-.39,0-.77-.17-1.05-.45-.01-.01-.02-.03-.02-.04M15.28,10.21c0,.36-.37.76-1.04,1.1v-5.53c.38-.16.73-.38,1.04-.64v5.07ZM13.81,5.3c-.11.05-.19.16-.19.28v2.61c-.72-.25-1.46-.43-2.21-.55-.07.3-.34.51-.65.52h-.36c-.11.73-.54,1.37-1.18,1.74-.75.43-1.68.43-2.44,0-.64-.37-1.07-1.01-1.18-1.74h-.36c-.31,0-.58-.21-.65-.51-.75.12-1.5.3-2.22.55v-2.61c0-.12-.07-.24-.19-.28-.93-.39-1.47-.87-1.47-1.3s.54-.91,1.47-1.3c1.86-.67,3.84-.99,5.82-.93,1.98-.05,3.95.26,5.81.93.93.39,1.47.87,1.47,1.3s-.54.91-1.47,1.3"/><path id="Path_60953" class="cls-3" d="M5.72,4.99c.51-1.25,1.95-1.85,3.2-1.34.61.25,1.09.73,1.34,1.34h.54s.09.01.14.03c-.52-1.62-2.26-2.52-3.88-2-.95.3-1.7,1.05-2,2,.05-.02.1-.03.15-.03h.52Z"/><path id="Path_60954" class="cls-1" d="M11.48,5.61c0-.32-.23-.6-.55-.66-.04-.01-.09-.02-.14-.03h-5.6c-.05,0-.1.01-.15.03-.31.07-.53.34-.54.65v1.88c0,.05.02.11.03.16.07.3.34.52.65.52h1.72c.19,0,.37-.08.5-.21l.58-.6.58.61c.13.14.31.21.5.21h1.72c.31,0,.58-.22.65-.53.02-.05.03-.11.03-.16v-1.89ZM9.03,7.54l-.81-.85c-.12-.13-.32-.13-.44-.01,0,0,0,0-.01.01l-.8.85s-.03.02-.04.02h-1.72s-.06-.03-.06-.06v-1.88s.03-.06.06-.06c0,0,0,0,0,0h5.6s.06.03.06.06h0v1.88s-.03.06-.06.06c0,0,0,0,0,0h-1.73s-.03,0-.04-.02"/><path id="Path_60955" class="cls-2" d="M14.09,2.03c-1.95-.71-4.02-1.04-6.09-.99-2.08-.05-4.14.28-6.09.99-1.58.66-1.91,1.43-1.91,1.96v6.23c0,.53.33,1.3,1.91,1.96.21.09.45-.01.54-.22.02-.05.03-.1.03-.15v-2.89c.79-.28,1.6-.48,2.43-.6.06.39.19.77.39,1.11.22.38.54.69.93.9v.17h-.55c-1.24,0-2.25,1.01-2.25,2.25v1.81c0,.22.18.41.41.41h8.33c.22,0,.41-.18.41-.41v-1.81c0-1.24-1.01-2.25-2.25-2.25h-.57l-.02-.09c.39-.25.72-.59.97-.98.2-.34.33-.72.39-1.11.83.12,1.64.32,2.43.6v2.89c0,.22.18.41.41.41.05,0,.11-.01.16-.03,1.58-.66,1.91-1.43,1.91-1.96V3.99c0-.53-.33-1.3-1.91-1.96M1.66,11.15c-.54-.31-.84-.64-.84-.94v-4.87c.26.19.55.36.84.49v5.31ZM9.78,11.31h.55c.79,0,1.43.64,1.44,1.43v1.41h-1.14v-.89c0-.22-.18-.41-.41-.41s-.41.18-.41.41h0v.89h-3.6v-.89c0-.22-.18-.41-.41-.41s-.41.18-.41.41h0v.89h-1.15v-1.41c0-.79.64-1.43,1.43-1.44h.55c0,.21.08.4.21.55.42.42.98.66,1.57.67.58,0,1.14-.24,1.55-.66.15-.15.23-.34.23-.55M7.04,11.31v-.55c.31.11.64.17.96.18.33,0,.65-.06.97-.17v.52c-.25.26-.6.41-.97.42-.36,0-.7-.14-.97-.39M15.19,10.22c0,.29-.31.63-.85.94v-5.31c.3-.14.58-.3.85-.5v4.88ZM13.78,5.2c-.15.06-.25.21-.25.38v2.47c-.65-.21-1.32-.38-2-.49,0,.02,0,.05-.01.07-.07.36-.38.62-.75.63h-.49c-.13.65-.53,1.22-1.11,1.56-.72.41-1.61.41-2.34,0-.57-.34-.98-.9-1.11-1.56h-.49c-.35,0-.66-.25-.74-.59,0-.03-.02-.07-.02-.1-.68.11-1.35.28-2,.49v-2.47c0-.16-.1-.31-.25-.38-.89-.37-1.42-.82-1.42-1.21s.53-.84,1.41-1.21c1.85-.66,3.81-.98,5.78-.93,1.97-.05,3.92.26,5.78.93.88.37,1.41.82,1.41,1.21s-.53.84-1.41,1.21"/><path id="Path_60956" class="cls-2" d="M5.2,4.89h.7c.59-1.17,2.02-1.63,3.18-1.04.22.11.43.26.61.44.16.18.3.38.4.6h.72l.11.02s.06.02.09.04c-.56-1.67-2.36-2.57-4.03-2.01-.95.32-1.69,1.06-2.01,2.01.02,0,.03-.02.05-.02.06-.02.11-.03.17-.03"/><path id="Path_60957" class="cls-2" d="M11.58,5.61c0-.34-.24-.64-.57-.73-.03-.01-.06-.03-.09-.04l-.1-.02h-5.62c-.06,0-.12.01-.17.03-.02,0-.03.02-.05.02-.33.09-.56.39-.56.73v1.88s0,.06.02.08c0,.03.01.07.02.1.08.35.39.6.75.6h1.72c.22,0,.42-.09.57-.24l.51-.53.51.53c.15.16.35.24.57.24h1.72c.37,0,.69-.27.76-.63,0-.02,0-.05.01-.07,0-.03.01-.05.01-.08v-1.88ZM8.3,6.62c-.16-.17-.42-.17-.59-.01,0,0,0,0-.01.01l-.78.84-1.68.04-.04-1.85,5.56-.04.04,1.85h-1.7s-.8-.84-.8-.84Z"/><path id="Path_60958" class="cls-2" d="M8.34,8.64c-.06,0-.12.01-.18.04-.05.02-.1.03-.16.03-.05,0-.11-.01-.16-.03-.2-.1-.45-.01-.55.19,0,0,0,0,0,0-.05.1-.05.21-.02.32.04.1.11.19.21.23.16.08.34.12.51.12h.03c.17,0,.33-.04.48-.11.21-.1.3-.34.2-.55-.07-.15-.22-.24-.38-.24"/><path id="Path_60959" class="cls-2" d="M8.2,8.77c-.06.03-.12.04-.19.04-.07,0-.15-.01-.21-.04-.16-.07-.34,0-.41.17-.06.15,0,.32.14.4.15.07.31.1.47.1h.03c.15,0,.3-.04.44-.1.16-.07.23-.25.17-.41-.07-.16-.25-.23-.41-.17,0,0-.02,0-.03.01"/></g></g></g></svg>