<?xml version="1.0" encoding="UTF-8"?><svg id="componentType" xmlns="http://www.w3.org/2000/svg" xmlns:xlink="http://www.w3.org/1999/xlink" viewBox="0 0 16 16"><defs><style>.cls-1{fill:none;}.cls-2{fill:#8A8BB5;}.cls-3{clip-path:url(#clippath);}</style><clipPath id="clippath"><rect class="cls-1" y=".24" width="16" height="15.52"/></clipPath></defs><g class="cls-3"><g id="Group_15925"><path id="Path_60997" class="cls-2" d="M8.74,9.2c-.41-.4-1.06-.4-1.47,0l-2.07,2.07c-.32.31-.49.74-.49,1.19,0,.48.21.94.57,1.27l1.53,1.53c.66.66,1.74.67,2.4,0,0,0,0,0,0,0l1.59-1.59c.66-.67.66-1.75-.01-2.41l-2.06-2.07ZM10.12,12.47c0,.14-.05.28-.15.38l-1.58,1.58c-.2.2-.54.21-.74,0,0,0,0,0,0,0l-1.63-1.62c-.17-.21-.15-.51.03-.7l1.96-1.96,1.96,1.96c.1.1.15.23.15.36"/><path id="Path_60998" class="cls-2" d="M15.5,6.78l-1.59-1.59c-.67-.66-1.74-.66-2.4,0,0,0,0,0,0,0l-2.06,2.06c-.4.41-.4,1.06,0,1.47l.07.06,2,2c.67.66,1.75.66,2.41,0l1.5-1.51.09-.08c.66-.67.66-1.74,0-2.4,0,0,0,0,0,0M12.71,10.09c-.14,0-.28-.06-.37-.16l-1.99-1.91,1.99-1.99c.1-.1.23-.15.37-.15.14,0,.27.06.37.16l1.58,1.58c.1.1.15.23.15.37,0,.14-.06.27-.16.37l-1.58,1.58c-.1.1-.23.15-.37.15"/><path id="Path_60999" class="cls-2" d="M5.19,4.74l2.06,2.06c.41.4,1.06.4,1.47,0l2.07-2.07c.66-.67.66-1.75,0-2.41l-1.58-1.59c-.67-.66-1.75-.66-2.41,0l-1.59,1.59c-.62.62-.67,1.6-.11,2.27.03.05.06.1.1.14M7.99,1.42c.14,0,.27.06.37.15l1.58,1.58c.2.21.2.54,0,.74l-1.93,1.99-1.89-1.89-.08-.1c-.2-.2-.2-.54,0-.74l1.58-1.58c.1-.1.23-.15.37-.15"/><path id="Path_61000" class="cls-2" d="M6.56,7.27l-2.07-2.07c-.66-.66-1.74-.66-2.4,0,0,0,0,0,0,0l-1.59,1.59c-.32.32-.5.75-.49,1.21,0,.4.14.79.4,1.09.03.05.06.09.1.13l1.59,1.59c.32.32.75.5,1.2.49h0c.45,0,.88-.18,1.2-.5l2.07-2.06c.4-.41.4-1.06,0-1.47M1.19,8.01c0-.14.06-.27.15-.37l1.58-1.58c.1-.1.23-.15.37-.15.14,0,.27.06.37.16l1.99,1.93-1.99,1.99c-.11.11-.26.16-.41.15-.13,0-.25-.06-.33-.16l-1.5-1.49-.08-.11c-.1-.1-.15-.23-.15-.37"/></g></g></svg>