<?xml version="1.0" encoding="UTF-8"?><svg id="Layer_1" xmlns="http://www.w3.org/2000/svg" viewBox="0 0 16 16"><defs><style>.cls-1{fill:#2665c9;}.cls-2{fill:#8A8BB5;}.cls-3{fill:#3d5376;}</style></defs><path class="cls-3" d="M2.53,15.51c-.44,0-.88-.11-1.25-.33-.59-.34-1.01-.88-1.19-1.53-.18-.65-.09-1.34.24-1.92L5.78,1.79c.23-.41.57-.75.98-.98.38-.21.81-.32,1.24-.32.92,0,1.77.5,2.22,1.3l1.92,3.5-.97.99-2.12-3.82c-.22-.37-.61-.6-1.03-.6h-.31v.06c-.3.08-.57.28-.72.56L1.51,12.39c-.1.19-.15.38-.15.58,0,.31.11.61.33.84.22.23.52.35.85.35h10.91c.21,0,.41-.05.58-.15.57-.32.78-1.05.46-1.62l-.04-.15-1.38-2.48.97-.96,1.62,2.94h0c.21.38.32.81.32,1.23,0,1.4-1.14,2.53-2.53,2.53H2.53Z"/><path class="cls-1" d="M9.93,10.92c-.2,0-.38-.07-.51-.21l-2.34-2.35c-.13-.14-.19-.33-.19-.51,0-.19.08-.37.23-.5.14-.12.32-.19.49-.19s.36.07.49.18l1.85,1.85,1.73-1.72,2.44-2.47c.13-.12.31-.19.49-.19s.35.06.49.18c.15.13.23.3.24.5,0,.2-.05.38-.18.52l-.08.09-4.62,4.61c-.13.13-.31.21-.51.21h-.02Z"/><path class="cls-2" d="M2.53,15.51c-.44,0-.88-.11-1.25-.33-.59-.34-1.01-.88-1.19-1.53-.18-.65-.09-1.34.24-1.92L5.78,1.79c.23-.41.57-.75.98-.98.38-.21.81-.32,1.24-.32.92,0,1.77.5,2.22,1.3l1.92,3.5-.97.99-2.12-3.82c-.22-.37-.61-.6-1.03-.6h-.31v.06c-.3.08-.57.28-.72.56L1.51,12.39c-.1.19-.15.38-.15.58,0,.31.11.61.33.84.22.23.52.35.85.35h10.91c.21,0,.41-.05.58-.15.57-.32.78-1.05.46-1.62l-.04-.15-1.38-2.48.97-.96,1.62,2.94h0c.21.38.32.81.32,1.23,0,1.4-1.14,2.53-2.53,2.53H2.53Z"/><path class="cls-2" d="M9.93,10.92c-.2,0-.38-.07-.51-.21l-2.34-2.35c-.13-.14-.19-.33-.19-.51,0-.19.08-.37.23-.5.14-.12.32-.19.49-.19s.36.07.49.18l1.85,1.85,1.73-1.72,2.44-2.47c.13-.12.31-.19.49-.19s.35.06.49.18c.15.13.23.3.24.5,0,.2-.05.38-.18.52l-.08.09-4.62,4.61c-.13.13-.31.21-.51.21h-.02Z"/></svg>