<?xml version="1.0" encoding="UTF-8"?><svg id="Layer_1" xmlns="http://www.w3.org/2000/svg" viewBox="0 0 16 16"><defs><style>.cls-1{fill:#8A8BB5;}</style></defs><g id="configured"><g id="Group_16158"><g id="Group_16159"><path id="Path_61369" class="cls-1" d="M13.67,4.07h-.75v1.14h.76c.32,0,.58.25.58.57v6.21c0,.32-.26.57-.58.57H2.32c-.32,0-.58-.25-.58-.57v-6.21c0-.32.26-.57.58-.57h.82v-1.14h-.82c-.95,0-1.73.76-1.74,1.71v6.21c0,.95.78,1.72,1.74,1.71h5.1v1.15h-3.01v1.14h7.18v-1.14h-3.01v-1.14h5.1c.95,0,1.73-.76,1.74-1.71v-6.22c0-.95-.79-1.72-1.74-1.71"/><path id="Path_61370" class="cls-1" d="M8.03,6.45c.89,0,1.67-.58,1.93-1.42.06-.19.09-.4.09-.6,0-.14-.01-.28-.04-.41-.23-1.09-1.3-1.79-2.39-1.57-.79.16-1.4.78-1.57,1.57-.03.13-.04.27-.04.41,0,1.11.9,2.02,2.02,2.02,0,0,0,0,0,0M6.76,4.02c.23-.7.98-1.09,1.68-.86.7.23,1.09.98.86,1.68s-.98,1.09-1.68.86c-.55-.18-.93-.69-.92-1.27,0-.14.02-.28.06-.41"/><path id="Path_61371" class="cls-1" d="M4.8,6.22l-.51.81,1.44,1.53.76-.55.36.16.17.96h2.03l.17-.96.36-.16.76.55,1.44-1.53-.51-.81.15-.38.9-.18v-2.16l-.9-.19-.15-.38.51-.81-1.44-1.53-.76.55-.36-.16-.17-.96h-2.03l-.17.96-.36.16-.76-.55-1.44,1.53.51.81-.15.38-.9.19v2.17l.9.19.15.38ZM4.67,4.29l.64-.13.02-.04.51-1.32-.36-.58.36-.39.54.39,1.27-.56.12-.68h.51l.12.68,1.27.56.54-.39.36.39-.36.58.51,1.31.02.04.64.13v.54l-.64.13-.09.23-.44,1.12.36.58-.36.39-.54-.39-1.27.56-.12.68h-.51l-.12-.68-1.27-.56-.54.39-.36-.39.36-.58-.44-1.12-.09-.22-.64-.13v-.55Z"/></g></g></g></svg>