<svg xmlns="http://www.w3.org/2000/svg" xmlns:xlink="http://www.w3.org/1999/xlink" width="16" height="16" viewBox="0 0 16 16">
  <defs>
    <clipPath id="clip-path">
      <rect id="Rectangle_1698" data-name="Rectangle 1698" width="16" height="16" fill="none"/>
    </clipPath>
  </defs>
  <g id="configuration" clip-path="url(#clip-path)">
    <path id="Path_61001" data-name="Path 61001" d="M12.286,16a2,2,0,0,1-2-2V6.495A3.71,3.71,0,0,1,10.6.062a.571.571,0,0,1,.832.509V3.042l.857.343.857-.343V.571a.571.571,0,0,1,.832-.509A3.711,3.711,0,0,1,14.286,6.5V14A2,2,0,0,1,12.286,16Zm-2-14.248a2.569,2.569,0,0,0,.832,3.9.573.573,0,0,1,.311.509V14a.857.857,0,1,0,1.714,0V6.165a.573.573,0,0,1,.311-.509,2.568,2.568,0,0,0,.832-3.9V3.429a.571.571,0,0,1-.359.53L12.5,4.531a.568.568,0,0,1-.425,0l-1.429-.572a.571.571,0,0,1-.359-.53Z" fill="#8A8BB5"/>
    <path id="Path_61002" data-name="Path 61002" d="M8.613,16H7.386a1.147,1.147,0,0,1-1.139-1.055l-.072-.934a6.238,6.238,0,0,1-1.134-.471l-.712.61a1.148,1.148,0,0,1-1.552-.059l-.868-.869a1.148,1.148,0,0,1-.06-1.552l.61-.712a6.238,6.238,0,0,1-.471-1.134l-.934-.071A1.148,1.148,0,0,1,0,8.614V7.386A1.149,1.149,0,0,1,1.055,6.247l.934-.071a6.173,6.173,0,0,1,.47-1.135l-.61-.712a1.148,1.148,0,0,1,.06-1.552l.868-.868a1.148,1.148,0,0,1,1.552-.06l.712.61a6.238,6.238,0,0,1,1.134-.471l.072-.934A1.147,1.147,0,0,1,7.386,0H8A.572.572,0,1,1,8,1.143H7.386l-.1,1.338a.573.573,0,0,1-.441.512,5.111,5.111,0,0,0-1.563.649.567.567,0,0,1-.674-.051l-1.02-.874-.868.869.874,1.019a.57.57,0,0,1,.05.675A5.1,5.1,0,0,0,3,6.843a.572.572,0,0,1-.514.441l-1.337.1v1.23l1.337.1A.572.572,0,0,1,3,9.155a5.089,5.089,0,0,0,.648,1.562.572.572,0,0,1-.05.675L2.72,12.411l.868.869,1.02-.874a.571.571,0,0,1,.674-.051A5.107,5.107,0,0,0,6.845,13a.572.572,0,0,1,.441.512l.1,1.338H8.612a.572.572,0,1,1,1.14.088A1.147,1.147,0,0,1,8.613,16Z" fill="#8A8BB5"/>
    <path id="Path_61003" data-name="Path 61003" d="M4,8A3.984,3.984,0,0,1,7.334,4.056a.571.571,0,1,1,.189,1.126,2.858,2.858,0,1,0,1.429,5.513.571.571,0,1,1,.382,1.076A4,4,0,0,1,4,8Z" fill="#8A8BB5"/>
  </g>
</svg>
