<?xml version="1.0" encoding="UTF-8"?><svg id="Layer_1" xmlns="http://www.w3.org/2000/svg" xmlns:xlink="http://www.w3.org/1999/xlink" viewBox="0 0 16 16"><defs><style>.cls-1{fill:none;}.cls-2{fill:#adadad;}.cls-3{clip-path:url(#clippath);}</style><clipPath id="clippath"><rect class="cls-1" x=".59" width="14.82" height="16"/></clipPath></defs><g class="cls-3"><g id="consolidatedView"><path id="Path_61023" class="cls-2" d="M7.41,2.26c-.11.09-.21.18-.3.28-.4.42-.85,1.02-1.27,1.39-.25.22-.64.19-.86-.06-.19-.22-.2-.55-.01-.78L7.7.14c.15-.17.4-.18.57-.04,0,0,0,0,0,0,.8.92,1.7,1.77,2.5,2.69.16.15.29.33.38.52.09.32-.1.66-.43.75-.09.02-.18.03-.27.01-.23-.03-.49-.35-.65-.51-.34-.34-.64-.72-.97-1.07-.07-.07-.16-.18-.25-.2v4.12c.03.24.08.48.17.7.42.99,1.45,1.59,2.52,1.44.36-1.08,1.53-1.67,2.61-1.31,1.08.36,1.67,1.53,1.31,2.61-.36,1.08-1.53,1.67-2.61,1.31-.65-.22-1.15-.74-1.34-1.4-1.6.14-3.1-.82-3.65-2.33-.09-.25-.16-.51-.2-.78V2.26ZM14.21,9.16c0-.5-.4-.9-.9-.9s-.9.4-.9.9.4.9.9.9h0c.5,0,.9-.4.9-.9"/><path id="Path_61024" class="cls-2" d="M7.41,8.94l-.7.44c-.61.29-1.29.43-1.97.4-.22.69-.77,1.22-1.47,1.42-1.13.31-2.29-.36-2.59-1.48-.31-1.13.36-2.29,1.48-2.59,1.11-.3,2.25.34,2.58,1.44.68.07,1.35-.13,1.88-.56.13-.11.24-.28.34-.38.03-.02.03-.04.08-.03.28.85.83,1.59,1.56,2.09l.02,2.18c1.12.34,1.75,1.52,1.42,2.63-.34,1.12-1.52,1.75-2.63,1.42-1.12-.34-1.75-1.52-1.42-2.63,0,0,0,0,0,0,.22-.68.75-1.21,1.43-1.43v-2.9ZM3.61,9.16c0-.5-.4-.9-.9-.9s-.9.4-.9.9.4.9.9.9h0c.5,0,.9-.4.9-.9M8.91,13.88c0-.5-.4-.9-.9-.9s-.9.4-.9.9c0,.5.4.9.9.9h0c.5,0,.9-.4.9-.9"/></g></g></svg>