<?xml version="1.0" encoding="UTF-8"?><svg id="Layer_1" xmlns="http://www.w3.org/2000/svg" xmlns:xlink="http://www.w3.org/1999/xlink" viewBox="0 0 16 16"><defs><style>.cls-1{fill:none;}.cls-2{fill:#8A8BB5;}.cls-3{clip-path:url(#clippath);}</style><clipPath id="clippath"><rect class="cls-1" x=".51" width="14.99" height="16"/></clipPath></defs><g class="cls-3"><g id="consolidatedReports"><path id="Path_61017" class="cls-2" d="M11.16,7.33c-2.39,0-4.33,1.94-4.33,4.33s1.94,4.33,4.33,4.33,4.33-1.94,4.33-4.33-1.94-4.33-4.33-4.33M11.7,8.46l.11.02c1.28.26,2.28,1.26,2.53,2.54l.02.11h-1.95c-.4,0-.72-.33-.72-.73v-1.94ZM14.35,12.32c-.36,1.76-2.08,2.89-3.84,2.53-1.76-.36-2.89-2.08-2.53-3.84.26-1.27,1.25-2.27,2.53-2.53l.11-.02v1.94c0,.99.81,1.8,1.8,1.8h1.94v.12Z"/><path id="Path_61018" class="cls-2" d="M3.58,3.79c-.3,0-.54.24-.54.54s.24.54.54.54h1.26c.3,0,.54-.24.54-.54s-.24-.54-.54-.54h-1.26Z"/><path id="Path_61019" class="cls-2" d="M6.11,6.32h-2.53c-.3,0-.54.24-.54.54,0,.3.24.54.54.54h2.53c.3,0,.54-.24.54-.54s-.24-.54-.54-.54h0"/><path id="Path_61020" class="cls-2" d="M6.11,8.71h-2.53c-.3,0-.54.24-.54.54,0,.3.24.54.54.54h2.53c.3,0,.54-.24.54-.54,0-.3-.24-.54-.54-.54"/><path id="Path_61021" class="cls-2" d="M5.31,11.12h-1.73c-.3,0-.54.24-.54.54,0,.3.24.54.54.54h1.73c.3,0,.54-.24.54-.54s-.24-.54-.54-.54h0"/><path id="Path_61022" class="cls-2" d="M6.11,14.92h-3.79c-.4,0-.72-.32-.72-.72V1.81c0-.4.32-.72.72-.72h4.52v1.99c0,1,.81,1.8,1.81,1.81h1.99v.72c-.01.3.22.55.52.56.3.01.55-.22.56-.52,0-.02,0-.03,0-.05v-1.3c-.01-.07-.03-.13-.05-.19-.02-.06-.06-.11-.1-.16L7.75.16c-.06-.05-.13-.09-.2-.12-.06-.02-.12-.03-.18-.04H2.31C1.31,0,.51.81.51,1.81v12.39c0,1,.81,1.8,1.81,1.81h3.79c.3,0,.54-.24.54-.54s-.24-.54-.54-.54h0M7.91,1.85l1.95,1.94h-1.22c-.4,0-.73-.32-.73-.72,0,0,0,0,0,0v-1.22Z"/></g></g></svg>