<svg xmlns="http://www.w3.org/2000/svg" width="16" height="16" viewBox="0 0 16 16">
  <g id="currentConfiguration" transform="translate(-405.99 -208.991)">
    <g id="Group_15802" data-name="Group 15802" transform="translate(405.99 208.991)">
      <g id="Group_15801" data-name="Group 15801">
        <g id="Group_15803" data-name="Group 15803">
          <path id="Path_60822" data-name="Path 60822" d="M6.582,10.1a3.506,3.506,0,1,1,3.506-3.51A3.506,3.506,0,0,1,6.582,10.1m0-6.261A2.752,2.752,0,1,0,9.334,6.587,2.752,2.752,0,0,0,6.582,3.839Z" transform="translate(1.417 1.417)" fill="#adadad"/>
          <path id="Path_60823" data-name="Path 60823" d="M9.293,16H6.707l-.464-1.6a6.556,6.556,0,0,1-1.523-.633l-1.459.8L1.432,12.739l.8-1.459A6.556,6.556,0,0,1,1.6,9.757L0,9.293V6.707l1.6-.464A6.592,6.592,0,0,1,2.232,4.72l-.8-1.459L3.261,1.432l1.459.8A6.556,6.556,0,0,1,6.243,1.6L6.707,0H9.293l.464,1.6a6.574,6.574,0,0,1,1.523.633l1.459-.8,1.829,1.829-.8,1.459A6.574,6.574,0,0,1,14.4,6.243l1.6.464V9.293l-1.6.464a6.556,6.556,0,0,1-.633,1.523l.8,1.459-1.829,1.829-1.459-.8a6.574,6.574,0,0,1-1.523.633ZM7.41,15.064H8.59l.42-1.443.268-.062a5.648,5.648,0,0,0,1.744-.725l.233-.147,1.32.726.833-.833-.726-1.32.147-.234a5.648,5.648,0,0,0,.725-1.744l.062-.268L15.059,8.6V7.415L13.615,7l-.062-.268a5.648,5.648,0,0,0-.725-1.744l-.147-.233.726-1.32L12.574,2.6l-1.32.726-.233-.147a5.648,5.648,0,0,0-1.744-.725L9.009,2.39,8.59.946H7.41L6.991,2.39l-.268.062a5.648,5.648,0,0,0-1.744.725l-.234.147L3.425,2.6l-.833.833.726,1.32-.147.233A5.648,5.648,0,0,0,2.446,6.73L2.384,7,.94,7.415V8.6l1.443.419.062.268a5.648,5.648,0,0,0,.725,1.744l.147.234-.726,1.32.833.833,1.32-.726.234.147a5.648,5.648,0,0,0,1.744.725l.268.062Z" fill="#adadad"/>
        </g>
      </g>
    </g>
  </g>
</svg>
