<?xml version="1.0" encoding="UTF-8"?><svg id="Layer_1" xmlns="http://www.w3.org/2000/svg" xmlns:xlink="http://www.w3.org/1999/xlink" viewBox="0 0 13.53 16"><defs><style>.cls-1{fill:none;}.cls-2{fill:#8A8BB5;}.cls-3{clip-path:url(#clippath);}</style><clipPath id="clippath"><rect class="cls-1" width="13.53" height="16"/></clipPath></defs><g class="cls-3"><g id="currentAlarmsUnknowns"><path id="Path_61031" class="cls-2" d="M6.76,16c-1.15,0-2.08-.93-2.08-2.08v-.1H1.96c-.76,0-1.38-.62-1.38-1.39,0-.37.15-.72.4-.98.99-.98,1.54-2.32,1.54-3.72v-1.28c0-1.95,1.32-3.64,3.21-4.11l.08-.02V.95c.02-.53.46-.94.98-.92.5.02.91.42.92.92v1.38l.08.02c1.89.47,3.21,2.17,3.21,4.11v1.28c0,1.39.55,2.73,1.54,3.72.54.54.54,1.42,0,1.96-.26.26-.61.41-.98.41h-2.72v.1c0,1.15-.93,2.08-2.08,2.08M5.74,13.92c-.02.56.42,1.03.99,1.05.56.02,1.03-.42,1.05-.99,0-.02,0-.04,0-.06v-.1h-2.03v.1ZM6.76,3.29c-1.75,0-3.17,1.42-3.18,3.18v1.28c0,1.68-.66,3.28-1.85,4.47-.13.13-.13.33,0,.46.06.06.14.09.23.09h9.6c.18,0,.32-.14.32-.32,0-.09-.03-.17-.09-.23-1.19-1.18-1.86-2.79-1.85-4.47v-1.28c0-1.75-1.42-3.17-3.18-3.18"/><path id="Path_61032" class="cls-2" d="M.77,7.67c-.23,0-.43-.14-.5-.36C-.63,4.65.79,1.76,3.45.85c.06-.02.11-.03.17-.03.29,0,.53.24.53.53,0,.23-.14.43-.36.5C1.69,2.57.56,4.86,1.28,6.96c.09.28-.05.58-.33.67-.05.02-.11.03-.17.03"/><path id="Path_61033" class="cls-2" d="M12.75,7.67c-.06,0-.12,0-.17-.03-.28-.1-.42-.4-.33-.67.71-2.1-.41-4.39-2.51-5.11-.28-.1-.42-.4-.33-.67.07-.21.27-.36.5-.36.06,0,.12,0,.17.03,2.66.91,4.08,3.8,3.18,6.46-.07.21-.27.36-.5.36"/></g></g></svg>