<?xml version="1.0" encoding="UTF-8"?><svg id="Layer_1" xmlns="http://www.w3.org/2000/svg" viewBox="0 0 16 16"><defs><style>.cls-1{fill:#8A8BB5;}</style></defs><g id="dashboards"><g id="Group_15957"><path id="Path_61040" class="cls-1" d="M13.59,4.05c-.21-.21-.55-.24-.79-.07-.93.64-5.62,3.84-6.13,4.34-.74.72-.76,1.91-.04,2.65.72.74,1.91.76,2.65.04.01-.01.02-.02.04-.04.5-.5,3.71-5.19,4.34-6.13.17-.25.14-.58-.07-.79M8.44,10.09c-.24.24-.64.24-.88,0s-.24-.64,0-.88h0c.2-.19,1.53-1.14,3.16-2.28-1.14,1.64-2.09,2.97-2.28,3.16"/><path id="Path_61041" class="cls-1" d="M2.89,12.55l-.77.38c-.98-1.74-1.13-3.82-.42-5.68l.88.42c.29.18.68.09.86-.21.18-.29.09-.68-.21-.86-.02-.01-.04-.02-.06-.03-.01,0-.03-.01-.04-.02l-.87-.42c1.11-1.82,3.01-3,5.13-3.2v.94c0,.34.28.62.62.62s.62-.28.62-.62v-.94c.74.07,1.47.26,2.15.57.32.13.69-.02.82-.34.13-.31,0-.66-.31-.81-4.02-1.82-8.75-.04-10.57,3.98-1.14,2.52-.9,5.45.65,7.75.17.26.51.35.79.21l1.28-.62c.32-.13.48-.49.35-.81-.13-.32-.49-.48-.81-.35,0,0-.01,0-.02,0-.02,0-.05.02-.07.03"/><path id="Path_61042" class="cls-1" d="M15.29,6.36c-.14-.32-.5-.46-.82-.33-.32.14-.46.5-.33.82,0,0,0,.01,0,.02.88,1.95.78,4.2-.27,6.06l-.8-.38c-.31-.15-.68-.02-.83.3-.15.31-.02.68.3.83l1.31.62c.28.13.62.04.79-.22,1.54-2.29,1.79-5.21.65-7.72"/></g></g></svg>