<svg id="defaultConfiguration" xmlns="http://www.w3.org/2000/svg" xmlns:xlink="http://www.w3.org/1999/xlink" width="16" height="16" viewBox="0 0 16 16">
  <defs>
    <clipPath id="clip-path">
      <rect id="Rectangle_1831" data-name="Rectangle 1831" width="16" height="16" fill="none"/>
    </clipPath>
  </defs>
  <g id="Group_16169" data-name="Group 16169" clip-path="url(#clip-path)">
    <path id="Path_61400" data-name="Path 61400" d="M13.768,4.721l.8-1.459L12.739,1.433l-1.459.8A6.571,6.571,0,0,0,9.757,1.6L9.293,0H6.707L6.243,1.6a6.568,6.568,0,0,0-1.523.632l-1.459-.8L1.432,3.261l.8,1.459A6.568,6.568,0,0,0,1.6,6.243L0,6.707V9.293l1.6.464a6.568,6.568,0,0,0,.632,1.523l-.8,1.459,1.829,1.828,1.459-.8a6.571,6.571,0,0,0,1.523.633L6.707,16H9.293l.463-1.6a6.571,6.571,0,0,0,1.523-.633l1.459.8,1.829-1.829-.8-1.459A6.571,6.571,0,0,0,14.4,9.757L16,9.293V6.707l-1.6-.464a6.561,6.561,0,0,0-.632-1.522M15.059,8.6l-1.443.419-.062.268a5.646,5.646,0,0,1-.725,1.744l-.147.234.726,1.32-.833.833-1.32-.726-.233.147a5.636,5.636,0,0,1-1.744.725l-.268.062-.42,1.443H7.41l-.42-1.443-.268-.062a5.646,5.646,0,0,1-1.744-.725l-.234-.147-1.32.726-.833-.833.726-1.32-.147-.234a5.646,5.646,0,0,1-.725-1.744l-.062-.268L.94,8.6V7.415L2.384,7l.062-.27a5.636,5.636,0,0,1,.725-1.744l.147-.233-.726-1.32L3.425,2.6l1.32.724.234-.147a5.646,5.646,0,0,1,1.744-.725l.268-.062L7.41.946H8.59L9.009,2.39l.268.064a5.646,5.646,0,0,1,1.744.725l.233.147,1.32-.726.833.835-.726,1.32.147.233a5.646,5.646,0,0,1,.725,1.744L13.615,7l1.444.415Z" fill="#8A8BB5"/>
    <path id="Path_61401" data-name="Path 61401" d="M9.682,6.639a.525.525,0,0,0-.742-.028L7.343,8.23,6.714,7.6a.525.525,0,0,0-.742.742l.991.991a.53.53,0,0,0,.742,0l1.99-1.99-.013.009a.524.524,0,0,0,0-.714" fill="#8A8BB5"/>
    <path id="Path_61402" data-name="Path 61402" d="M7.828,3.657a4.306,4.306,0,1,0,4.307,4.306A4.311,4.311,0,0,0,7.828,3.657m0,7.57a3.264,3.264,0,1,1,3.264-3.264,3.267,3.267,0,0,1-3.264,3.264" fill="#8A8BB5"/>
  </g>
</svg>
