<svg id="delete" xmlns="http://www.w3.org/2000/svg" xmlns:xlink="http://www.w3.org/1999/xlink" width="16" height="15.999" viewBox="0 0 16 15.999">
  <defs>
    <clipPath id="clip-path">
      <rect id="Rectangle_1719" data-name="Rectangle 1719" width="16" height="15.999" fill="none"/>
    </clipPath>
  </defs>
  <g id="Group_15990" data-name="Group 15990" clip-path="url(#clip-path)">
    <path id="Path_61099" data-name="Path 61099" d="M8,16a8,8,0,1,1,8-8,8,8,0,0,1-8,8M8,1.431A6.569,6.569,0,1,0,14.567,8,6.569,6.569,0,0,0,8,1.431" fill="#8A8BB5"/>
    <path id="Path_61100" data-name="Path 61100" d="M5.644,11.145a.912.912,0,0,1-.694-1.5l.13-.134L6.7,7.883,5.076,6.26a.918.918,0,0,1,.677-1.529h.032a.906.906,0,0,1,.591.245L7.992,6.592,9.615,4.969A.914.914,0,1,1,10.9,6.27L9.284,7.885,10.909,9.5a.914.914,0,1,1-1.3,1.285L7.992,9.173,6.366,10.8a.922.922,0,0,1-.716.347Z" transform="translate(0.06 0.06)" fill="#8A8BB5"/>
  </g>
</svg>
