<?xml version="1.0" encoding="UTF-8"?><svg id="descriptor" xmlns="http://www.w3.org/2000/svg" xmlns:xlink="http://www.w3.org/1999/xlink" viewBox="0 0 16 16"><defs><style>.cls-1{fill:none;}.cls-2{fill:#8A8BB5;}.cls-3{clip-path:url(#clippath);}</style><clipPath id="clippath"><rect class="cls-1" x=".19" width="15.61" height="16"/></clipPath></defs><g class="cls-3"><g id="Group_16171"><path id="Path_61403" class="cls-2" d="M13.94,1.91h.59c.34,0,.66.13.9.37l.03.03c.22.23.34.54.34.87v11.54c0,.7-.57,1.27-1.27,1.27H3.33c-.34,0-.66-.13-.9-.37h0c-.24-.24-.37-.56-.37-.9v-.64h-.59c-.34,0-.66-.13-.9-.37h0c-.24-.24-.37-.56-.37-.9V1.27c0-.34.13-.66.37-.9h0C.8.13,1.13,0,1.47,0h11.21c.34,0,.66.13.9.37l.03.03c.22.23.34.54.34.87v.64ZM2.41,13.15s.08-.02.12-.02c.04,0,.08,0,.12.02h10.03c.09,0,.17-.04.24-.1.06-.06.1-.15.1-.24V1.27c0-.08-.03-.16-.08-.22l-.02-.02c-.06-.06-.15-.1-.24-.1H1.47c-.09,0-.17.04-.24.1h0c-.06.06-.1.15-.1.24v11.54c0,.09.04.17.1.24h0c.06.06.15.1.24.1h.94ZM2.99,14.09v.64c0,.09.04.18.1.24h0c.06.06.15.1.24.1h11.21c.09,0,.17-.04.24-.1.06-.06.1-.15.1-.24V3.18c0-.08-.03-.16-.08-.22l-.02-.02c-.06-.06-.15-.1-.24-.1h-.59v9.97c0,.7-.57,1.27-1.27,1.27H2.99Z"/><path id="Path_61404" class="cls-2" d="M10.51,9.45c.25-.01.47.18.48.44.01.25-.18.47-.44.48-.01,0-.03,0-.04,0H3.62c-.25.01-.47-.18-.48-.44-.01-.25.18-.47.44-.48.01,0,.03,0,.04,0h6.89Z"/><path id="Path_61405" class="cls-2" d="M10.51,3.72c.25-.01.47.18.48.44.01.25-.18.47-.44.48-.01,0-.03,0-.04,0H3.62c-.25.01-.47-.18-.48-.44-.01-.25.18-.47.44-.48.01,0,.03,0,.04,0h6.89Z"/><path id="Path_61406" class="cls-2" d="M10.51,6.58c.25-.01.47.18.48.44s-.18.47-.44.48c-.01,0-.03,0-.04,0H3.62c-.25.01-.47-.18-.48-.44s.18-.47.44-.48c.01,0,.03,0,.04,0h6.89Z"/></g></g></svg>