<svg xmlns="http://www.w3.org/2000/svg" xmlns:xlink="http://www.w3.org/1999/xlink" width="16" height="16" viewBox="0 0 16 16">
  <defs>
    <clipPath id="clip-path">
      <rect id="Rectangle_1755" data-name="Rectangle 1755" width="16" height="16" fill="none"/>
    </clipPath>
  </defs>
  <g id="detailedDiagnosis" transform="translate(-589 -440)">
    <g id="Group_16001" data-name="Group 16001" transform="translate(589 440)">
      <g id="Group_16000" data-name="Group 16000" clip-path="url(#clip-path)">
        <path id="Path_61116" data-name="Path 61116" d="M15.29,16a.712.712,0,0,1-.494-.2l-4.372-4.373-.071.055a6.415,6.415,0,1,1,1.128-1.128l-.055.071L15.8,14.8a.71.71,0,0,1-.51,1.2M6.418,1.418A5,5,0,1,0,9.953,2.883,5,5,0,0,0,6.418,1.418" fill="#adadad"/>
        <path id="Path_61117" data-name="Path 61117" d="M9.953,6.841A.562.562,0,0,1,9.4,7.4H8.2a.923.923,0,0,1-.9-.707l-.171-.669L6.375,8.649a.79.79,0,0,1-.685.573H5.609A.8.8,0,0,1,4.9,8.79L4.188,7.4H3.436a.558.558,0,0,1,0-1.116H4.3a.918.918,0,0,1,.826.506l.394.774.856-3a.762.762,0,0,1,.773-.581.779.779,0,0,1,.759.6l.424,1.7H9.38a.562.562,0,0,1,.558.558Z" fill="#adadad"/>
      </g>
    </g>
  </g>
</svg>
