<?xml version="1.0" encoding="UTF-8"?><svg id="Layer_1" xmlns="http://www.w3.org/2000/svg" xmlns:xlink="http://www.w3.org/1999/xlink" viewBox="0 0 16 16"><defs><style>.cls-1{fill:none;}.cls-2{fill:#8A8BB5;}.cls-3{clip-path:url(#clippath);}</style><clipPath id="clippath"><rect class="cls-1" x=".86" width="14.28" height="16"/></clipPath></defs><g class="cls-3"><g id="discovery"><path id="Path_61144" class="cls-2" d="M8,3.13c.49,0,.94-.23,1.24-.62.72.16,1.4.46,2,.88.29.21.7.14.91-.16s.14-.7-.16-.91c-.74-.52-1.57-.88-2.45-1.08-.17-.85-1-1.4-1.85-1.22-.85.17-1.4,1-1.22,1.85.15.73.79,1.25,1.54,1.26M8,.84c.4,0,.73.33.73.73s-.33.73-.73.73-.73-.33-.73-.73h0c0-.4.33-.73.73-.73"/><path id="Path_61145" class="cls-2" d="M8,12.86c-.49,0-.94.23-1.24.62-.72-.16-1.4-.46-2-.88-.29-.21-.7-.14-.91.16-.21.29-.14.7.16.91.74.52,1.57.88,2.45,1.08.18.85,1.01,1.39,1.85,1.22.85-.18,1.39-1.01,1.22-1.85-.15-.73-.79-1.25-1.53-1.25M8,15.17c-.4,0-.73-.33-.73-.73,0-.4.33-.73.73-.73.4,0,.73.33.73.73,0,.4-.33.73-.73.73,0,0,0,0,0,0"/><path id="Path_61146" class="cls-2" d="M13.57,9.65c-.86,0-1.57.7-1.57,1.57,0,.21.04.41.12.6-.5.54-1.09.97-1.76,1.28-.33.15-.47.54-.31.87.11.23.34.38.59.38.09,0,.19-.02.27-.06.82-.38,1.55-.92,2.16-1.59.82.27,1.7-.17,1.98-.99.27-.82-.17-1.7-.99-1.98-.16-.05-.33-.08-.49-.08M13.57,11.95c-.4,0-.73-.33-.73-.73s.33-.73.73-.73.73.33.73.73h0c0,.4-.33.73-.73.73"/><path id="Path_61147" class="cls-2" d="M2.65,9.67c-.18-.54-.27-1.1-.27-1.67,0-.17,0-.34.02-.5.02-.37-.25-.68-.62-.71-.01,0-.02,0-.03,0-.34,0-.62.26-.65.6-.02.2-.03.41-.03.61,0,.7.11,1.39.32,2.06-.64.58-.7,1.57-.12,2.21.58.64,1.57.7,2.21.12.64-.58.7-1.57.12-2.21-.25-.27-.58-.45-.95-.5M2.42,12.01c-.44,0-.79-.36-.79-.79s.36-.79.79-.79.79.36.79.79-.36.79-.79.79h0"/><path id="Path_61148" class="cls-2" d="M13.57,3.22c-.86,0-1.56.7-1.56,1.57,0,.78.57,1.44,1.34,1.55.18.54.27,1.1.28,1.67-.03.36.24.67.6.7.36.03.67-.24.7-.6,0-.03,0-.07,0-.1,0-.7-.11-1.39-.31-2.06.64-.57.7-1.56.12-2.2-.3-.33-.73-.52-1.17-.52M13.56,5.42c-.35,0-.64-.29-.64-.64s.29-.64.64-.64.64.29.64.64-.29.64-.64.64h0"/><path id="Path_61149" class="cls-2" d="M2.43,6.35c.86,0,1.57-.7,1.57-1.57,0-.21-.04-.41-.12-.6.5-.54,1.09-.98,1.76-1.29.33-.15.47-.54.32-.87s-.54-.47-.87-.32c-.82.38-1.55.92-2.16,1.59-.16-.05-.32-.08-.49-.09-.87,0-1.57.7-1.57,1.57s.7,1.57,1.57,1.57M2.43,3.99c.44,0,.79.36.79.79s-.36.79-.79.79-.79-.36-.79-.79.36-.79.79-.79h0"/><path id="Path_61150" class="cls-2" d="M10.82,6.82c0-1.56-1.27-2.82-2.83-2.83-.23,0-.45.03-.67.08-1.01.24-1.81,1.02-2.06,2.03-.25.98.04,2.02.76,2.73.23.26.35.59.33.94,0,.27.11.54.29.73v.44c0,.59.48,1.07,1.06,1.07h.59c.59,0,1.06-.48,1.06-1.07v-.44c.2-.22.31-.5.3-.8,0-.33.12-.65.35-.89.53-.53.83-1.25.82-2M8.7,9.77c0,.06-.05.11-.11.11,0,0,0,0,0,0h-1.17c-.06,0-.11-.05-.11-.17.01-.58-.21-1.14-.61-1.56-.48-.47-.67-1.17-.5-1.82.17-.66.69-1.17,1.35-1.33.15-.03.3-.05.45-.05,1.03,0,1.87.83,1.87,1.87,0,.5-.2.97-.55,1.32-.42.44-.65,1.03-.63,1.63M7.41,10.94v-.23h1.17v.23c0,.1-.06.18-.14.23h-.89c-.08-.05-.14-.13-.14-.23"/><path id="Path_61151" class="cls-2" d="M8.16,5.33c-.14,0-.27.02-.41.05-.58.14-1.04.59-1.19,1.17-.06.26.09.51.35.58h.11c.22.01.41-.14.46-.35.06-.23.25-.42.49-.48.06-.01.12-.02.19-.02.26-.01.47-.24.46-.5-.01-.25-.21-.44-.46-.46"/></g></g></svg>