<?xml version="1.0" encoding="UTF-8"?><svg id="domains" xmlns="http://www.w3.org/2000/svg" xmlns:xlink="http://www.w3.org/1999/xlink" viewBox="0 0 16 16"><defs><style>.cls-1{fill:none;}.cls-2{fill:#adadad;}.cls-3{clip-path:url(#clippath);}</style><clipPath id="clippath"><rect class="cls-1" x="0" width="15.99" height="16"/></clipPath></defs><g class="cls-3"><g id="Group_16415"><path id="Path_61587" class="cls-2" d="M14.18,11.5l.08-.15.09-.18.1-.2.09-.21v-.02c.05-.11.09-.21.12-.32s.08-.21.11-.32.06-.22.09-.33.06-.22.08-.34.03-.18.05-.27.03-.18.04-.27.02-.16.02-.25,0-.13,0-.2h-1.94c-.01.26-.04.51-.09.77-.05.26-.11.53-.19.78-.08.27-.18.53-.29.78-.1.23-.21.47-.34.7l1.97.02ZM13.59,12.41h-1.92c-.16.23-.34.46-.52.69s-.42.47-.65.72-.42.44-.65.65-.38.35-.59.53l.16-.03c.11-.02.22-.05.34-.08l.34-.09c.11-.03.22-.07.33-.11s.22-.08.32-.13.22-.1.32-.15.21-.1.31-.16.2-.11.29-.17l.29-.18c.09-.06.19-.13.29-.2.09-.06.18-.13.27-.21l.26-.22c.09-.08.17-.16.25-.23l.18-.19.17-.19.14-.16.06-.08h.01ZM6.71,14.99c-.2-.18-.4-.35-.59-.53s-.45-.43-.65-.64-.43-.47-.62-.71c-.19-.22-.36-.46-.51-.7h-1.94l.06.08.13.16c.12.13.23.26.36.38.08.08.16.15.24.23s.17.15.26.22.18.14.27.21c.09.07.19.14.29.2l.29.18c.1.06.2.12.29.17s.21.11.31.16l.32.15h.02c.11.04.21.08.32.12s.21.08.32.11l.33.09c.11.03.22.05.34.07l.15.03h0ZM1.8,11.5h1.95c-.13-.23-.24-.47-.34-.7-.11-.26-.21-.52-.29-.79-.08-.26-.14-.53-.19-.81-.04-.25-.07-.5-.09-.76H.9v.2c0,.07.02.17.03.25s.02.18.04.27.03.18.05.27c.02.11.05.22.08.34s.06.23.09.33.07.22.11.33.09.22.13.32l.09.2c.03.06.06.13.09.2l.09.19.08.15h.02ZM.9,7.55h1.97c.05-.53.16-1.05.33-1.55.08-.27.18-.53.29-.78.11-.24.23-.48.36-.71H1.8l-.08.15-.09.18c-.03.07-.06.13-.1.2s-.06.14-.09.21c-.04.11-.09.21-.12.31s-.08.22-.11.33-.07.22-.09.33-.05.23-.08.34-.03.18-.05.26-.03.18-.04.27-.02.16-.02.25,0,.13,0,.19l-.02.02ZM2.4,3.59h2.05c.16-.23.33-.46.52-.69.19-.24.39-.47.61-.71s.41-.44.64-.66.38-.36.59-.55h-.09l-.14.03-.34.08c-.11.03-.23.06-.34.09s-.22.07-.33.11-.22.09-.32.13-.22.1-.32.15-.21.1-.31.16-.2.11-.29.17-.19.12-.29.18-.19.13-.29.2c-.09.06-.18.13-.27.21-.09.07-.17.14-.26.22s-.16.15-.25.23l-.18.18-.17.19c-.05.05-.09.11-.13.16l-.06.09v.02ZM9.2,1c.2.18.39.36.59.55s.43.44.63.66.41.47.6.71.35.46.52.69h2.05l-.06-.08-.14-.16-.17-.19-.19-.2c-.08-.08-.16-.16-.25-.23s-.17-.15-.26-.22-.18-.14-.27-.21-.18-.13-.28-.2l-.29-.18c-.1-.06-.2-.12-.29-.17s-.21-.11-.31-.16-.21-.1-.32-.15c0,0-.02,0-.02,0-.1-.04-.21-.08-.32-.12s-.21-.08-.33-.11-.22-.07-.33-.09-.23-.06-.34-.08l-.14-.03h-.08ZM14.19,4.5h-2.08c.13.24.25.48.36.71.12.26.22.53.31.79.17.5.28,1.02.33,1.55h1.98v-.19l-.03-.25c0-.09-.02-.18-.04-.27-.01-.09-.03-.18-.05-.27-.02-.11-.05-.23-.08-.34s-.06-.22-.09-.34-.07-.22-.11-.33-.08-.22-.13-.32c-.03-.06-.06-.13-.09-.2s-.06-.13-.09-.2l-.09-.18-.08-.15h-.01ZM6.4.15l.39-.07c.13-.02.26-.04.39-.05s.27-.02.41-.03h.41c.27,0,.54,0,.81.04.13,0,.27.02.4.05l.4.07c.13.02.26.05.38.09s.25.07.38.11.25.08.37.12c.12.04.24.09.36.14l.03.02c.11.05.23.1.34.16l.34.18c.11.06.23.13.33.19s.22.13.33.21.21.14.31.21.2.16.29.24.2.17.29.25.19.18.29.27.18.18.26.27.17.19.25.29.16.2.23.29l.22.32c.07.11.14.21.2.32s.13.22.19.34.12.22.18.34.11.24.16.36.1.24.15.37.09.25.13.38.07.25.11.38.06.26.09.39.05.26.07.39.03.26.05.4.02.27.03.41,0,.28,0,.41v.41c0,.14-.02.27-.03.4s-.03.27-.05.4-.04.26-.07.39-.05.26-.09.38-.07.25-.11.38-.08.25-.12.37-.09.24-.14.36c0,.01-.01.03-.02.04-.05.12-.1.23-.16.35s-.12.23-.18.34-.13.23-.19.34-.14.22-.2.32-.14.21-.22.31-.15.2-.23.29-.17.2-.25.29-.18.19-.27.29-.18.18-.27.26-.19.17-.29.25-.2.16-.29.24l-.31.22c-.1.07-.21.14-.32.2s-.22.13-.34.19-.23.12-.35.18-.24.11-.35.16-.24.1-.37.15-.25.09-.38.13l-.39.12c-.13.03-.26.06-.39.09l-.39.07c-.13.02-.26.03-.4.05-.27.03-.54.04-.82.04h-.41c-.14,0-.27-.02-.4-.03s-.27-.03-.4-.05-.26-.04-.39-.07-.26-.05-.38-.09-.25-.07-.38-.1-.25-.08-.37-.12-.25-.09-.37-.14l-.03-.02c-.11-.05-.23-.1-.35-.16s-.23-.11-.34-.18l-.33-.19-.33-.21c-.11-.07-.21-.14-.31-.22l-.29-.23c-.1-.08-.2-.17-.29-.25s-.19-.18-.29-.27-.18-.18-.26-.27-.17-.19-.25-.29-.16-.2-.24-.29-.15-.2-.22-.31-.14-.21-.21-.32-.13-.22-.19-.34-.12-.23-.18-.35-.11-.23-.16-.35-.1-.24-.15-.37-.09-.25-.13-.38-.08-.26-.11-.38-.06-.26-.09-.39-.05-.26-.07-.4-.04-.26-.05-.4-.02-.27-.03-.41S0,8.15,0,8.02c0-.27,0-.54.04-.82.02-.14.03-.27.05-.4s.04-.26.07-.39.05-.26.09-.38.07-.25.11-.38.08-.25.12-.37.09-.24.14-.36c0,0,0-.02,0-.03.05-.12.1-.24.16-.35s.12-.23.18-.34c.06-.11.13-.23.19-.33s.13-.22.21-.33.14-.21.22-.31.15-.2.23-.29.17-.2.25-.29.18-.19.27-.29.18-.18.28-.27.19-.17.29-.25.2-.16.29-.23.2-.15.31-.22.21-.14.32-.21.22-.13.34-.19.22-.12.34-.18.24-.11.36-.16.24-.1.37-.14.25-.09.38-.13.25-.08.38-.11.26-.06.39-.09l.02-.02ZM8.45,1.52v2.07h1.98c-.12-.16-.25-.31-.38-.47s-.33-.37-.51-.55-.36-.38-.56-.56-.35-.32-.53-.49M8.45,4.49v3.05h3.75c-.03-.24-.07-.47-.12-.71-.06-.26-.14-.52-.23-.77-.1-.27-.21-.54-.35-.79-.13-.26-.29-.52-.44-.78h-2.61ZM8.45,8.45v3.05h2.73c.15-.25.29-.5.42-.77.12-.26.23-.52.32-.79.08-.25.15-.51.2-.77.05-.24.08-.48.09-.72h-3.77ZM8.45,12.4v2.11c.19-.16.38-.33.57-.5s.4-.38.59-.56.36-.38.53-.57.28-.32.4-.48h-2.08ZM7.54,14.51v-2.11h-2.09c.13.16.26.32.4.48s.34.38.53.56.38.38.59.57.37.33.57.5h0ZM7.54,11.5v-3.05h-3.78c.01.24.05.48.09.72.05.26.12.52.2.78.09.27.2.53.32.79.12.26.27.51.42.77h2.75ZM7.54,7.55v-3.05h-2.61c-.17.26-.31.52-.45.78-.13.26-.25.52-.35.79-.09.25-.17.51-.23.77-.05.23-.09.47-.12.71h3.75ZM7.54,3.59V1.52c-.18.16-.36.33-.53.49-.17.16-.39.37-.56.56s-.35.37-.5.55-.26.31-.38.47h1.97Z"/></g></g></svg>