<svg id="enableDisable" xmlns="http://www.w3.org/2000/svg" xmlns:xlink="http://www.w3.org/1999/xlink" width="16" height="16" viewBox="0 0 16 16">
  <defs>
    <clipPath id="clip-path">
      <rect id="Rectangle_1834" data-name="Rectangle 1834" width="16" height="16" fill="none"/>
    </clipPath>
  </defs>
  <g id="Group_16173" data-name="Group 16173" clip-path="url(#clip-path)">
    <path id="Path_61409" data-name="Path 61409" d="M1.213,4.376a1.363,1.363,0,1,1,.293-2.71l10.185,0a1.365,1.365,0,0,1,.021,2.724H1.366Z" fill="#8A8BB5"/>
    <path id="Path_61410" data-name="Path 61410" d="M16,3.022A3.022,3.022,0,1,1,12.978,0,3.022,3.022,0,0,1,16,3.022" fill="#8A8BB5"/>
    <path id="Path_61411" data-name="Path 61411" d="M14.787,14.331a1.363,1.363,0,1,0-.293-2.71l-10.185,0a1.365,1.365,0,0,0-.021,2.724H14.634Z" fill="#8A8BB5"/>
    <path id="Path_61412" data-name="Path 61412" d="M0,12.978A3.022,3.022,0,1,0,3.022,9.956,3.022,3.022,0,0,0,0,12.978" fill="#8A8BB5"/>
  </g>
</svg>
