<svg id="exportImportConfiguration" xmlns="http://www.w3.org/2000/svg" xmlns:xlink="http://www.w3.org/1999/xlink" width="16" height="16" viewBox="0 0 16 16">
  <defs>
    <clipPath id="clip-path">
      <rect id="Rectangle_1838" data-name="Rectangle 1838" width="16" height="16" fill="none"/>
    </clipPath>
  </defs>
  <g id="Group_16179" data-name="Group 16179" clip-path="url(#clip-path)">
    <path id="Path_61427" data-name="Path 61427" d="M16,9.293V6.707l-1.6-.464a6.561,6.561,0,0,0-.632-1.522l.8-1.459L12.739,1.433l-1.459.8A6.571,6.571,0,0,0,9.757,1.6L9.293,0H6.707L6.243,1.6a6.568,6.568,0,0,0-1.523.632l-1.459-.8L1.432,3.261l.8,1.459A6.568,6.568,0,0,0,1.6,6.243L0,6.707V9.293l1.6.464a6.568,6.568,0,0,0,.632,1.523l-.8,1.459,1.829,1.828,1.459-.8a6.571,6.571,0,0,0,1.523.633L6.707,16H9.293l.463-1.6a6.571,6.571,0,0,0,1.523-.633l1.459.8,1.829-1.829-.8-1.459A6.571,6.571,0,0,0,14.4,9.757Zm-2.384-.279-.062.268a5.636,5.636,0,0,1-.725,1.744l-.147.234.726,1.32-.833.833-1.32-.726-.233.147a5.636,5.636,0,0,1-1.744.725l-.268.062-.42,1.443H7.41l-.42-1.443-.268-.062a5.646,5.646,0,0,1-1.744-.725l-.234-.147-1.32.726-.833-.833.726-1.32-.147-.234a5.636,5.636,0,0,1-.725-1.744l-.062-.268L.94,8.6V7.415L2.384,7l.062-.27a5.646,5.646,0,0,1,.725-1.744l.147-.233-.726-1.32L3.425,2.6l1.32.724.234-.147a5.646,5.646,0,0,1,1.744-.725l.268-.062L7.41.946H8.59L9.009,2.39l.268.064a5.646,5.646,0,0,1,1.744.725l.233.147,1.32-.726.833.835-.726,1.32.147.233a5.646,5.646,0,0,1,.725,1.744L13.615,7l1.444.415V8.6Z" fill="#8A8BB5"/>
    <path id="Path_61428" data-name="Path 61428" d="M3.556,8.423H5.15v3.688H6.187V8.423H7.782L5.669,4.763Z" fill="#8A8BB5"/>
    <path id="Path_61429" data-name="Path 61429" d="M10.906,4.245H9.869V7.933H8.275l2.113,3.66L12.5,7.933H10.906Z" fill="#8A8BB5"/>
  </g>
</svg>
