<?xml version="1.0" encoding="UTF-8"?><svg id="externalMonitor" xmlns="http://www.w3.org/2000/svg" xmlns:xlink="http://www.w3.org/1999/xlink" viewBox="0 0 16 16"><defs><style>.cls-1{fill:none;}.cls-2{fill:#8A8BB5;}.cls-3{clip-path:url(#clippath);}</style><clipPath id="clippath"><rect class="cls-1" y="1.07" width="16" height="13.86"/></clipPath></defs><g class="cls-3"><g id="Group_16152"><path id="Path_61354" class="cls-2" d="M14.12,1.07H1.88c-1.04,0-1.87.84-1.88,1.88v7.61c0,1.04.84,1.87,1.88,1.87h5.5v1.25h-3.25v1.25h7.75v-1.25h-3.25v-1.25h5.5c1.03,0,1.87-.84,1.87-1.87V2.95c0-1.04-.84-1.87-1.88-1.88M14.75,10.55c0,.34-.28.62-.62.62H1.88c-.34,0-.62-.28-.62-.62V2.95c0-.34.28-.62.62-.62h12.25c.34,0,.62.28.62.62v7.61Z"/><path id="Path_61355" class="cls-2" d="M13.04,4.04c-.14-.14-.32-.21-.52-.21h-4.39c-.4.01-.72.35-.7.76.01.38.32.69.7.7h2.63l-3.42,3.42c-.28.28-.28.74,0,1.03.28.28.74.28,1.03,0h0l3.42-3.42v2.63c0,.4.33.73.73.73s.73-.33.73-.73h0v-4.39c0-.19-.07-.38-.21-.52"/></g></g></svg>