<?xml version="1.0" encoding="UTF-8"?><svg id="Layer_1" xmlns="http://www.w3.org/2000/svg" xmlns:xlink="http://www.w3.org/1999/xlink" viewBox="0 0 16 16"><defs><style>.cls-1{fill:none;}.cls-2{fill:#8A8BB5;}.cls-3{clip-path:url(#clippath);}</style><clipPath id="clippath"><rect class="cls-1" x=".17" width="15.65" height="16"/></clipPath></defs><g class="cls-3"><g id="filterBy"><path id="Path_61195" class="cls-2" d="M13.85,0H2.15C1.06.01.17.9.18,1.99c0,.47.17.92.47,1.28l4.62,5.39c.17.2.26.46.27.72v5.04c0,.54.28,1.05.74,1.33.25.15.53.23.82.23.24,0,.48-.06.7-.17l1.79-.89c.53-.26.87-.81.87-1.4v-4.15c0-.27.1-.52.27-.72l4.62-5.39c.71-.83.61-2.08-.22-2.79-.36-.31-.81-.47-1.29-.47h0ZM14.33,2.4l-4.62,5.39c-.38.45-.59,1.01-.59,1.6v4.15c0,.09-.05.17-.12.2l-1.79.89c-.07.04-.15.04-.22,0-.07-.04-.11-.11-.11-.19v-5.05c0-.59-.21-1.15-.59-1.6L1.67,2.4c-.23-.26-.2-.66.06-.89.12-.1.27-.16.42-.16h11.7c.35,0,.64.28.64.63,0,.15-.05.3-.16.42"/></g></g></svg>