<?xml version="1.0" encoding="UTF-8"?><svg id="historyOfAlarms" xmlns="http://www.w3.org/2000/svg" xmlns:xlink="http://www.w3.org/1999/xlink" viewBox="0 0 16 16"><defs><style>.cls-1{fill:none;}.cls-2{fill:#adadad;}.cls-3{clip-path:url(#clippath);}</style><clipPath id="clippath"><rect class="cls-1" x="1.67" width="12.66" height="16"/></clipPath></defs><g class="cls-3"><g id="Group_16376"><path id="Path_61487" class="cls-2" d="M4.05,16c-1.32,0-2.38-1.07-2.38-2.38V2.38C1.67,1.07,2.74,0,4.05,0h7.85c1.32,0,2.38,1.07,2.38,2.38v3.97c0,.26-.21.47-.47.47s-.47-.21-.47-.47h0v-3.97c0-.8-.65-1.45-1.45-1.45h-7.85c-.8,0-1.45.65-1.45,1.45v11.23c0,.8.65,1.45,1.45,1.45h2.56c.26,0,.47.21.47.47s-.21.47-.47.47h-2.56ZM4.73,3.37c-.26,0-.47-.21-.47-.47,0-.26.21-.47.47-.47h6.57c.26,0,.47.21.47.47,0,.26-.21.47-.47.47h-6.57ZM4.73,5.72c-.26,0-.47-.21-.47-.47,0-.26.21-.47.47-.47h2.74c.26,0,.47.21.47.47,0,.26-.21.47-.47.47h-2.74Z"/><path id="Path_61488" class="cls-2" d="M11.92,11.04v-.71c0-1.15-.74-2.16-1.83-2.51v-.55c0-.45-.37-.82-.82-.82-.45,0-.82.37-.82.82v.55c-1.09.35-1.83,1.37-1.83,2.51v.71c0,.7-.28,1.37-.77,1.86-.41.42-.41,1.08,0,1.49.2.19.46.3.74.31h1.24c.13.79.87,1.32,1.65,1.2.62-.1,1.1-.58,1.2-1.2h1.24c.58,0,1.06-.48,1.05-1.06,0-.28-.11-.54-.31-.74-.5-.49-.77-1.16-.77-1.86M9.28,14.88c-.34,0-.66-.1-.94-.29h1.88c-.28.19-.6.29-.94.29M6.85,13.54c.61-.69.94-1.58.94-2.5v-.71c.03-.82.72-1.45,1.53-1.42.77.03,1.4.65,1.42,1.42v.71c0,.92.33,1.81.94,2.5h-4.84Z"/><path id="Path_61489" class="cls-2" d="M4.89,11.26c.3-.11.46-.44.36-.74-.35-1.02.2-2.13,1.22-2.48,0,0,0,0,0,0h0c.3-.11.47-.44.36-.74-.08-.23-.3-.39-.55-.39-.06,0-.13.01-.19.03-1.63.56-2.49,2.33-1.94,3.96.08.24.3.39.55.39.06,0,.13-.01.19-.03"/><path id="Path_61490" class="cls-2" d="M14.01,8.52c-.36-.74-1.01-1.31-1.79-1.57-.06-.02-.12-.03-.19-.03-.32,0-.58.26-.58.59,0,.25.16.47.39.55,1.02.35,1.57,1.46,1.22,2.48,0,0,0,0,0,0-.08.31.1.63.41.71.28.08.58-.07.69-.34.27-.78.21-1.64-.15-2.38"/></g></g></svg>