<?xml version="1.0" encoding="UTF-8"?><svg id="Layer_1" xmlns="http://www.w3.org/2000/svg" xmlns:xlink="http://www.w3.org/1999/xlink" viewBox="0 0 16 16"><defs><style>.cls-1{fill:none;}.cls-2{fill:#8A8BB5;}.cls-3{clip-path:url(#clippath);}</style><clipPath id="clippath"><rect class="cls-1" x="0" width="15.99" height="16"/></clipPath></defs><g class="cls-3"><g id="hostsAndClusters"><path id="Path_61248" class="cls-2" d="M15.84,13.86c-.36-.72-1.25-1.02-1.97-.65l-2.4-2.4c.55-.67.89-1.49.98-2.36h.71c.25.62.96.92,1.58.66.62-.25.92-.96.66-1.58s-.96-.92-1.58-.66c-.3.12-.54.36-.66.66h-.71c-.09-.86-.43-1.68-.98-2.36l2.4-2.4c.72.36,1.6.07,1.97-.65.36-.72.07-1.6-.65-1.97-.72-.36-1.6-.07-1.97.65-.21.41-.21.9,0,1.32l-2.4,2.4c-.67-.55-1.49-.89-2.36-.98v-.71c.62-.25.92-.96.66-1.58-.25-.62-.96-.92-1.58-.66s-.92.96-.66,1.58c.12.3.36.54.66.66v.71c-.86.09-1.68.43-2.36.98l-2.4-2.4c.36-.72.07-1.6-.65-1.97C1.41-.2.53.09.17.81c-.36.72-.07,1.6.65,1.97.41.21.9.21,1.31,0l2.4,2.4c-.55.67-.89,1.49-.98,2.36h-.7c-.25-.62-.96-.92-1.58-.66-.62.25-.92.96-.66,1.58.25.62.96.92,1.58.66.3-.12.54-.36.66-.66h.71c.09.86.43,1.68.98,2.36l-2.4,2.4c-.73-.36-1.61-.07-1.97.66-.36.73-.07,1.61.66,1.97.73.36,1.61.07,1.97-.66.21-.42.21-.91,0-1.33l2.4-2.4c.67.55,1.49.89,2.36.98v.71c-.62.25-.92.96-.66,1.58s.96.92,1.58.66c.62-.25.92-.96.66-1.58-.12-.3-.36-.54-.66-.66v-.71c.86-.09,1.68-.43,2.36-.98l2.4,2.4c-.37.72-.08,1.6.64,1.97.21.1.43.16.67.16h0c.81,0,1.47-.66,1.47-1.47,0-.23-.05-.45-.16-.66M2.03,1.46c0,.3-.23.54-.53.55s-.54-.23-.55-.53.23-.54.53-.55c0,0,0,0,0,0,.15,0,.28.06.39.16.1.1.16.23.16.37M14.54,2.01c-.3,0-.54-.23-.54-.53s.23-.54.53-.54c.3,0,.54.23.54.53,0,.3-.23.54-.53.54h0M11.56,7.99c0,1.96-1.59,3.56-3.55,3.56s-3.56-1.59-3.56-3.55c0-1.96,1.59-3.56,3.55-3.56,0,0,0,0,0,0h0c1.96,0,3.56,1.59,3.56,3.55M7.73,1.73c0-.16.12-.29.28-.29.08,0,.15.03.21.08.11.11.11.29,0,.4-.11.11-.29.11-.4,0-.05-.05-.08-.12-.08-.19M8.3,14.26c0,.16-.12.29-.28.29-.16,0-.29-.12-.29-.28,0-.16.12-.29.28-.29,0,0,0,0,0,0,.08,0,.15.03.21.08.05.05.08.12.09.2M15.07,14.52c0,.3-.24.55-.54.55s-.55-.24-.55-.54.24-.55.54-.55c0,0,0,0,0,0,.3,0,.54.24.54.54M13.99,8c0-.16.12-.29.28-.3h0c.16,0,.29.13.29.29,0,.16-.13.29-.29.29-.16,0-.29-.12-.29-.28M1.45,8c0-.16.12-.29.28-.3,0,0,0,0,0,0,.08,0,.15.03.21.08.11.12.11.3,0,.41s-.3.11-.41,0c-.05-.05-.08-.12-.08-.19M2.02,14.51c0,.3-.24.54-.54.54s-.54-.24-.54-.54.24-.54.54-.54h0c.3,0,.54.24.54.54"/><path id="Path_61253" class="cls-2" d="M7.25,9.38s.03-.08.08-.08c0,0,0,0,0,0h2.76s.08.03.08.08c0,0,0,0,0,0v.69s-.04.08-.08.08c0,0,0,0,0,0h-2.76s-.08-.03-.08-.08c0,0,0,0,0,0v-.69Z"/><path id="Path_61256" class="cls-2" d="M7.25,7.73s.03-.08.08-.08c0,0,0,0,0,0h2.76s.08.03.08.08c0,0,0,0,0,0v.69s-.04.08-.08.08c0,0,0,0,0,0h-2.76s-.08-.03-.08-.08c0,0,0,0,0,0v-.69Z"/><path id="Path_61258" class="cls-2" d="M7.25,6.08s.03-.08.08-.08c0,0,0,0,0,0h2.76s.08.03.08.08c0,0,0,0,0,0v.69s-.04.08-.08.08c0,0,0,0,0,0h-2.76s-.08-.03-.08-.08c0,0,0,0,0,0v-.69Z"/><path id="Path_61255" class="cls-2" d="M6.43,10.15c.23,0,.42-.19.42-.42,0-.23-.19-.42-.42-.42s-.42.19-.42.42.19.42.42.42h0"/><path id="Path_61257" class="cls-2" d="M6.43,8.5c.23,0,.42-.19.42-.42,0-.23-.19-.42-.42-.42s-.42.19-.42.42.19.42.42.42h0"/><path id="Path_61259" class="cls-2" d="M6.43,6.85c.23,0,.42-.19.42-.42,0-.23-.19-.42-.42-.42s-.42.19-.42.42.19.42.42.42h0"/></g></g></svg>