<?xml version="1.0" encoding="UTF-8"?><svg id="Layer_1" xmlns="http://www.w3.org/2000/svg" xmlns:xlink="http://www.w3.org/1999/xlink" viewBox="0 0 16 16"><defs><style>.cls-1{fill:none;}.cls-2{fill:#adadad;}.cls-3{clip-path:url(#clippath);}</style><clipPath id="clippath"><rect class="cls-1" x=".5" width="15" height="16"/></clipPath></defs><g id="infrastructure"><g class="cls-3"><g id="Group_16382"><path id="Path_61500" class="cls-2" d="M3.28,2.87l1.46-.43v5.11h1.1V.9h4.3v6.65h1.1V2.44l1.46.43v4.67h1.1V2.46c0-.25-.16-.46-.4-.53l-2.17-.64V.35c0-.14-.07-.27-.18-.35h-5.77l-.44.04c-.07.09-.11.2-.11.31v.94l-2.17.64c-.23.07-.4.28-.39.53v5.09h1.1V2.87Z"/><path id="Path_61501" class="cls-2" d="M15.46,7.66c-.09-.07-.2-.1-.31-.11H.85c-.14,0-.27.07-.35.19v2.08l.02.07.11.09.92.31c.13.5.34.97.62,1.41l-.42.95c-.09.21-.05.45.12.61l1.37,1.37c.1.1.24.16.39.16.08,0,.15-.01.22-.05l.86-.43c.44.26.93.45,1.43.56l.37.97s.04.07.07.09l.06.06h2.67l.07-.02.09-.11.31-.93c.5-.13.98-.34,1.41-.62l.95.42c.07.03.15.05.22.05.15,0,.29-.06.39-.16l1.37-1.37c.16-.16.21-.4.12-.61l-.43-.86c.26-.44.45-.93.56-1.43l.97-.37s.07-.04.09-.06l.06-.06-.04-2.2ZM10.82,8.66c-.08,1.56-1.4,2.76-2.96,2.68-1.45-.07-2.61-1.23-2.68-2.68h5.64ZM14.6,9.09l-.83.32c-.17.07-.3.21-.34.39-.14.57-.36,1.12-.67,1.62-.1.15-.11.35-.04.51l.36.82-.83.84-.81-.36c-.07-.03-.15-.05-.23-.05-.1,0-.2.03-.29.08-.5.31-1.05.54-1.62.67-.18.04-.32.17-.39.34l-.32.83h-1.18l-.32-.83c-.06-.17-.21-.3-.39-.34-.57-.14-1.12-.36-1.63-.67-.09-.06-.19-.09-.29-.09-.08,0-.15.02-.22.05l-.82.36-.83-.83.36-.81c.08-.17.06-.36-.03-.52-.31-.5-.54-1.05-.68-1.63-.04-.18-.17-.32-.34-.39l-.84-.32v-.44h2.68c.09,2.17,1.92,3.85,4.09,3.76,2.04-.09,3.67-1.72,3.76-3.76h2.68v.44Z"/></g></g></g></svg>