<?xml version="1.0" encoding="UTF-8"?><svg id="Layer_1" xmlns="http://www.w3.org/2000/svg" xmlns:xlink="http://www.w3.org/1999/xlink" viewBox="0 0 16 16"><defs><style>.cls-1{fill:none;}.cls-2{fill:#adadad;}.cls-3{clip-path:url(#clippath);}</style><clipPath id="clippath"><rect class="cls-1" x=".62" width="14.76" height="16"/></clipPath></defs><g id="installationOnPremises"><g class="cls-3"><path class="cls-1" d="M3.58,6.31l.32.05c.38.05.7.32.82.68.05.15.11.31.18.45.18.34.14.75-.09,1.06l-.2.27c-.05.06-.04.15,0,.21.1.1.2.2.3.3.06.05.15.05.21,0l.26-.2c.3-.23.72-.27,1.06-.1.14.07.3.14.45.19.36.12.62.43.68.81l.05.33c.01.08.08.14.16.14h.43c.08,0,.14-.06.15-.14l.05-.33c.05-.38.32-.7.68-.82.15-.05.31-.11.45-.18h.04c.33-.16.72-.12,1.01.1l.27.2c.06.05.15.05.21,0l.3-.3c.05-.06.06-.15,0-.21l-.2-.26c-.23-.3-.27-.72-.1-1.06.07-.14.14-.29.19-.45.12-.36.43-.63.81-.68l.33-.05h0c.08,0,.14-.07.14-.15v-.43c0-.08-.06-.14-.14-.15l-.33-.05c-.38-.05-.7-.32-.81-.68-.05-.15-.11-.31-.18-.45-.18-.34-.15-.76.09-1.06l.2-.27c.05-.06.05-.15,0-.21-.1-.1-.2-.2-.31-.3-.06-.05-.15-.06-.21,0l-.26.2c-.3.23-.71.27-1.06.1-.14-.07-.29-.14-.45-.19-.36-.12-.62-.43-.68-.81l-.05-.33c-.01-.08-.08-.14-.16-.14h-.43c-.08,0-.14.06-.15.14l-.04.33c-.05.38-.32.7-.68.82-.14.05-.28.1-.41.17l-.04.02c-.34.17-.75.14-1.05-.09l-.27-.2c-.06-.05-.15-.04-.21,0-.1.1-.2.2-.3.3-.05.06-.06.15,0,.21l.2.26c.16.23.22.52.15.8,0,.09-.02.18-.05.26-.07.14-.14.3-.19.45-.12.36-.43.62-.81.68l-.33.05c-.08.01-.14.08-.14.16v.43c0,.08.06.14.14.15v-.03ZM7.99,3.49c1.35,0,2.45,1.1,2.45,2.45s-1.1,2.45-2.45,2.45-2.45-1.1-2.45-2.45,1.1-2.45,2.45-2.45Z"/><path class="cls-1" d="M7.99,7.41c.81,0,1.47-.66,1.47-1.47s-.66-1.47-1.47-1.47-1.47.66-1.47,1.47.66,1.47,1.47,1.47Z"/><path class="cls-2" d="M14.17,13.57h-7.78l.81,2.43h6.97c.67,0,1.21-.54,1.21-1.21s-.54-1.21-1.21-1.21h0Z"/><path class="cls-2" d="M1.83,13.57c-.67,0-1.21.54-1.21,1.21s.54,1.21,1.21,1.21h1.49l-.81-2.43h-.69,0Z"/><polygon class="cls-2" points="3.26 13.57 4.07 16 6.46 16 5.65 13.57 3.26 13.57"/><path class="cls-2" d="M3,7.25c.12.02.25.04.36.05.07,0,.13.06.15.12.07.22.16.43.26.63.03.06.02.14-.02.19l-.22.29c-.06.08-.12.18-.15.28-.1.29-.08.61.06.88.04.09.09.17.15.24h0c.13.14.26.27.39.4.07.06.15.11.23.14.37.21.83.17,1.17-.08.1-.07.2-.15.29-.22.06-.04.13-.05.19-.02.2.1.41.19.63.26.07.02.11.08.12.15l.05.36c.09.51.51.9,1.03.95h.56c.52-.03.95-.42,1.03-.94.02-.12.03-.25.05-.36,0-.07.06-.13.12-.15.22-.07.43-.16.63-.26.06-.03.14-.02.19.02l.29.22c.42.32,1.01.3,1.4-.05h0c.14-.13.27-.26.39-.41.35-.39.37-.97.06-1.39-.07-.1-.15-.2-.22-.29-.04-.06-.05-.13-.02-.19.1-.2.19-.41.26-.63.02-.07.08-.11.15-.12l.36-.05c.52-.07.92-.5.95-1.03h0v-.57h.01c-.03-.52-.42-.95-.94-1.03-.12-.02-.25-.04-.36-.05-.07,0-.13-.06-.15-.12-.07-.22-.16-.43-.26-.63-.03-.06-.02-.14.02-.19l.22-.29c.32-.42.3-1.01-.05-1.4h0c-.13-.14-.26-.27-.4-.4-.39-.35-.98-.38-1.4-.06-.1.07-.2.15-.29.22-.06.04-.13.05-.19.02-.2-.1-.41-.19-.63-.26-.07-.02-.11-.08-.12-.15l-.05-.36c-.07-.53-.5-.93-1.03-.96h-.57c-.53.03-.96.42-1.03.94-.02.12-.04.25-.05.36,0,.07-.06.13-.12.15-.22.07-.43.16-.63.26-.06.03-.14.03-.19-.02l-.29-.22c-.31-.24-.72-.29-1.08-.14-.09.04-.18.1-.26.16-.02,0-.04.02-.06.04h0c-.14.13-.27.26-.39.41-.24.28-.32.66-.21,1.02,0,.04,0,.08,0,.11.03.09.08.18.14.26.07.1.15.2.22.29.04.06.05.13.02.19-.1.2-.19.41-.26.63-.02.07-.08.11-.15.12l-.36.05c-.52.07-.92.5-.95,1.03h0v.57c.03.52.42.96.94,1.03ZM3.44,5.73c0-.08.06-.14.14-.16l.33-.05c.38-.05.69-.32.81-.68.05-.15.11-.31.19-.45.03-.08.05-.17.05-.26.07-.28.02-.57-.15-.8l-.2-.26c-.05-.06-.04-.15,0-.21.1-.11.2-.21.3-.3.06-.05.15-.06.21,0l.27.2c.3.23.71.27,1.05.09l.04-.02c.13-.07.27-.12.41-.17.36-.12.63-.44.68-.82l.04-.33c.01-.08.07-.14.15-.14h.43c.08,0,.14.07.16.14l.05.33c.05.38.32.69.68.81.15.05.3.11.45.19.34.17.75.13,1.06-.1l.26-.2c.06-.05.15-.04.21,0,.11.1.21.2.31.3.05.06.06.15,0,.21l-.2.27c-.23.31-.27.72-.09,1.06.07.15.13.3.18.45.12.36.44.63.81.68l.33.05c.08.01.14.07.14.15v.43c0,.08-.07.14-.14.16h0l-.33.04c-.38.05-.69.32-.81.68-.05.15-.11.3-.19.45-.17.34-.13.75.1,1.06l.2.26c.05.06.04.15,0,.21-.1.1-.2.21-.3.3-.06.05-.15.06-.21,0l-.27-.2c-.29-.22-.68-.26-1.01-.1h-.04c-.15.07-.3.13-.45.18-.36.12-.63.44-.68.82l-.05.33c-.01.08-.07.14-.15.14h-.43c-.08,0-.14-.07-.16-.14l-.05-.33c-.05-.38-.32-.69-.68-.81-.15-.05-.3-.11-.45-.19-.34-.17-.75-.13-1.06.1l-.26.2c-.06.05-.15.04-.21,0-.11-.1-.21-.2-.3-.3-.05-.06-.06-.15,0-.21l.2-.27c.23-.31.27-.72.09-1.06-.07-.15-.13-.3-.18-.45-.12-.36-.44-.63-.82-.68l-.32-.05c-.08,0-.14-.07-.14-.15v-.43.03Z"/><path class="cls-2" d="M7.99,8.39c1.35,0,2.45-1.1,2.45-2.45s-1.1-2.45-2.45-2.45-2.45,1.1-2.45,2.45,1.1,2.45,2.45,2.45ZM7.99,4.47c.81,0,1.47.66,1.47,1.47s-.66,1.47-1.47,1.47-1.47-.66-1.47-1.47.66-1.47,1.47-1.47Z"/></g></g></svg>