<?xml version="1.0" encoding="UTF-8"?><svg id="integrationConsole" xmlns="http://www.w3.org/2000/svg" xmlns:xlink="http://www.w3.org/1999/xlink" viewBox="0 0 16 16"><defs><style>.cls-1{fill:none;}.cls-2{fill:#2665c9;}.cls-3{fill:#8A8BB5;}.cls-4{clip-path:url(#clippath);}</style><clipPath id="clippath"><rect class="cls-1" x=".01" width="15.97" height="16"/></clipPath></defs><g id="Group_16361"><g class="cls-4"><g id="Group_16360"><path id="Path_61459" class="cls-3" d="M14.17,0H1.81C.82,0,.01.81.01,1.81v12.39c0,1,.81,1.8,1.81,1.8h12.35c1,0,1.81-.81,1.81-1.81V1.8c0-1-.82-1.8-1.81-1.8M14.66,14.19c0,.27-.22.48-.48.48H1.82c-.27,0-.48-.22-.48-.48V1.81c0-.27.22-.48.48-.48h12.36c.27,0,.48.22.48.48v12.38Z"/></g></g></g><path id="Path_61460" class="cls-3" d="M3.56,4.56l3.28,3.28-3.28,3.28.99,1,4.28-4.28L4.55,3.57l-.99.99Z"/><path id="Path_61461" class="cls-2" d="M8.27,11.84h5.18v-1.43h-5.18v1.43ZM13.44,11.83h-5.15v-1.4h5.15v1.4Z"/><rect id="Rectangle_1847" class="cls-3" x="8.29" y="10.43" width="5.15" height="1.4"/></svg>