<?xml version="1.0" encoding="UTF-8"?><svg id="Layer_1" xmlns="http://www.w3.org/2000/svg" xmlns:xlink="http://www.w3.org/1999/xlink" viewBox="0 0 16 16"><defs><style>.cls-1{fill:none;}.cls-2{fill:#adadad;}.cls-3{clip-path:url(#clippath);}</style><clipPath id="clippath"><rect class="cls-1" x=".82" width="14.36" height="16"/></clipPath></defs><g class="cls-3"><g id="ITSMCollaborationIntegration"><path id="Path_61277" class="cls-2" d="M8.11,2.75c-1.39,0-2.58,1-2.81,2.37-.01.06,0,.13.01.18h.77s0-.03.01-.05c.19-1.11,1.24-1.85,2.34-1.67.87.15,1.55.84,1.67,1.72h.81c-.15-1.45-1.36-2.55-2.82-2.56M6.86.75l-.05.66c-.28.08-.55.2-.81.34l-.51-.43c-.32-.28-.8-.26-1.11.04l-.62.62c-.3.3-.32.78-.05,1.11l.43.51c-.14.26-.25.53-.34.81l-.67.05c-.42.03-.75.39-.75.81v.15h.82v-.15l.95-.07c.18-.01.33-.14.36-.32.09-.39.25-.77.46-1.11.1-.15.08-.35-.03-.48l-.62-.73.62-.62.73.62c.14.12.33.13.48.04.34-.21.72-.37,1.11-.46.17-.04.3-.19.31-.37l.07-.95h.88l.07.95c.01.18.14.33.31.37.39.09.77.25,1.11.46.15.09.35.08.48-.04l.73-.62.62.62-.62.72c-.12.13-.13.33-.04.48.21.34.37.72.46,1.11.04.17.19.3.36.32l.95.07v.15h.81v-.15c0-.42-.33-.78-.75-.81l-.67-.05c-.08-.28-.2-.55-.33-.81l.43-.51c.27-.32.25-.8-.04-1.1l-.62-.62c-.3-.3-.78-.33-1.11-.05l-.5.43c-.26-.14-.53-.25-.81-.34l-.05-.67c-.03-.42-.38-.75-.81-.75h-.88c-.42,0-.78.33-.81.75"/><path id="Path_61278" class="cls-2" d="M15.12,10.1l-1.6-3.94c-.15-.39-.6-.58-.99-.43-.01,0-.02,0-.03.01l-1.24.55c-.26.11-.44.36-.46.64l-.18.1c-.05.03-.11.04-.17.03,0,0-2.31-.34-2.31-.34-.07-.01-.15-.02-.23-.02-.41,0-.81.16-1.11.45l-.09.08h-1.1c.02-.24-.09-.49-.29-.64l-.96-.76c-.13-.11-.3-.17-.47-.17h-.1c-.21.03-.39.14-.52.31l-2.31,3.13c-.25.33-.19.8.14,1.06l.96.76c.14.11.3.17.48.16h.1c.1-.02.19-.05.27-.1v.43l-.3.38c-.42.54-.32,1.32.22,1.74.21.17.47.26.74.26.13.53.61.9,1.15.9.05,0,.11,0,.16-.01.09.19.22.35.38.47.19.14.42.22.66.22.06,0,.11,0,.16-.01h.04c.1.17.24.33.41.44.46.3,1.07.23,1.44-.17.43.18.93.08,1.27-.25.17-.17.28-.4.32-.64.51-.07.9-.48.95-.99.26-.05.5-.19.67-.4.16-.19.26-.42.28-.67.23-.04.45-.15.61-.32.2-.2.31-.46.33-.74l.34-.05c.12.07.26.11.4.11.11,0,.21-.02.31-.07l1.24-.55c.38-.17.56-.6.4-.99M2.55,10.03l-.04.04-.67-.53,2.1-2.86.68.54-2.07,2.81ZM3.83,12.76c-.06.07-.14.11-.23.12-.16,0-.29-.13-.29-.29,0-.07.02-.13.06-.18l.68-.88c.06-.07.14-.11.23-.11.06,0,.12.02.17.06.13.1.15.28.06.41,0,0,0,0,0,0l-.68.88ZM5.63,12.81l-.7.87c-.08.11-.23.14-.34.06s-.14-.23-.06-.34c0,0,.01-.02.02-.02l.68-.88c.04-.05.1-.09.17-.09l.02-.29v.29c.06,0,.12.03.17.07.11.09.12.24.03.35M6.6,13.67h-.01s-.03.05-.03.05l-.49.66s-.08.06-.13.06c-.05,0-.09-.02-.13-.06-.04-.03-.06-.07-.07-.11,0-.05,0-.1.04-.13l.52-.65s.08-.06.13-.06c.04,0,.07.01.1.03.04.03.07.08.07.14,0,.03,0,.05,0,.05h0v.02ZM7.58,14.59l-.24.38c-.04.05-.1.09-.16.09-.05,0-.09-.02-.13-.05-.04-.03-.07-.07-.08-.12,0-.05,0-.1.03-.14l.26-.35h.16v-.1h0s.07.01.1.03c.05.03.09.09.09.16,0,.04-.01.08-.03.11M8.59,14.73s-.05.04-.08.05c.02-.09.04-.19.04-.29v-.1l.02.02c.05.04.08.1.09.16,0,.06-.02.12-.06.16M11.43,11.71s-.1.06-.15.06c-.04,0-.09-.01-.12-.04l-1.7-1.26c-.21-.16-.51-.11-.66.1-.16.21-.11.51.1.66h0l1.54,1.14c.06.04.1.11.11.18.01.07-.01.15-.06.2-.09.1-.24.12-.35.05l-1.46-1.06c-.21-.15-.51-.1-.66.11,0,0,0,0,0,0-.07.1-.1.23-.08.36.02.12.09.23.19.3l1.4,1s.06.07.07.12c0,.09-.06.17-.15.18,0,0,0,0-.01,0-.04,0-.07-.01-.1-.03l-1.38-1.08c-.08-.06-.18-.1-.29-.1-.15,0-.28.07-.37.18l-.03.05s-.09-.09-.15-.13c-.15-.11-.32-.18-.49-.21-.04-.31-.2-.59-.44-.78-.19-.16-.43-.25-.67-.26-.13-.67-.78-1.11-1.45-.98-.09.02-.19.05-.27.09-.05-.12-.13-.23-.22-.32l1.6-2.17c.13.07.27.1.41.1h.17c-.35.35-.35.92,0,1.27.07.07.15.13.24.17.61.29,1.32.28,1.92-.03l.22-.12c.11-.06.24-.04.33.03l2.16,1.73c.14.11.29.2.46.28.05.02.09.04.14.06.04.02.09.03.13.04.05.01.09.03.13.03,0,.02-.02.04-.04.06M12.08,10.73c-.05,0-.1,0-.16,0h-.12s-.11-.02-.11-.02l-.14-.04-.09-.03c-.09-.04-.17-.09-.25-.15l-2.16-1.73c-.22-.18-.5-.28-.78-.28-.2,0-.4.05-.58.14l-.22.12c-.17.09-.36.14-.55.14-.16,0-.32-.03-.46-.03h-.04l1.06-1.02c.14-.13.32-.19.51-.18h.04l2.29.34c.06,0,.12.01.18.01.21,0,.42-.05.6-.16l1.16,2.86-.17.02ZM13.27,10.71l-1.47-3.62.92-.41,1.46,3.61-.91.42Z"/></g></g></svg>