<?xml version="1.0" encoding="UTF-8"?><svg id="Layer_1" xmlns="http://www.w3.org/2000/svg" viewBox="0 0 16 16"><defs><style>.cls-1{fill:#adadad;fill-rule:evenodd;}</style></defs><g id="live"><g id="Group_16117"><path id="Path_61311" class="cls-1" d="M10.09,7.19l-2.27-1.31c-.44-.26-1.01-.1-1.27.34-.08.14-.12.3-.12.47v2.62c0,.51.41.93.93.93.17,0,.33-.04.47-.13l2.26-1.31c.44-.26.59-.83.33-1.27-.08-.14-.2-.25-.33-.33ZM7.54,8.99l1.71-.99-1.71-.99v1.97Z"/><path id="Path_61312" class="cls-1" d="M10.76,5.24c1.52,1.52,1.53,3.99,0,5.52,0,0,0,0,0,0-.22.21-.23.57-.02.79.21.22.57.23.79.02,0,0,0,0,.01-.01,1.96-1.96,1.97-5.13,0-7.09,0,0,0,0,0,0-.22-.22-.57-.23-.79,0-.22.22-.23.57,0,.79,0,0,0,0,.01.01h0Z"/><path id="Path_61313" class="cls-1" d="M5.24,10.76c-1.52-1.52-1.52-3.99,0-5.52,0,0,0,0,0,0,.23-.21.24-.56.03-.79-.21-.23-.56-.24-.79-.03-.01,0-.02.02-.03.03-1.96,1.96-1.97,5.13,0,7.09,0,0,0,0,0,0,.22.22.57.22.79,0s.22-.57,0-.79h0Z"/><path id="Path_61314" class="cls-1" d="M12.87,3.13c2.69,2.69,2.69,7.04,0,9.73,0,0,0,0,0,0-.22.21-.23.57-.01.79.21.22.57.23.79.01,0,0,0,0,.01-.01,3.12-3.12,3.12-8.19,0-11.31-.21-.22-.57-.23-.79-.01-.22.21-.23.57-.01.79,0,0,0,0,.01.01Z"/><path id="Path_61315" class="cls-1" d="M3.13,12.87c-2.69-2.68-2.69-7.04,0-9.73,0,0,0,0,0,0,.22-.22.22-.57,0-.79-.22-.22-.57-.22-.79,0h0C-.78,5.47-.78,10.53,2.34,13.66c.22.22.57.22.79,0,.22-.22.22-.57,0-.79Z"/></g></g></svg>