<?xml version="1.0" encoding="UTF-8"?><svg id="loggedInUsers" xmlns="http://www.w3.org/2000/svg" xmlns:xlink="http://www.w3.org/1999/xlink" viewBox="0 0 16 16"><defs><style>.cls-1{fill:none;}.cls-2{fill:#8A8BB5;}.cls-3{clip-path:url(#clippath);}</style><clipPath id="clippath"><rect class="cls-1" x="0" y="0" width="16" height="16"/></clipPath></defs><g class="cls-3"><g id="Group_16131"><path id="Path_61341" class="cls-2" d="M8,0C3.58,0,0,3.58,0,8s3.58,8,8,8,8-3.58,8-8S12.42,0,8,0M8,14.83c-1.47,0-2.9-.48-4.05-1.39.12-1.99,1.67-3.59,3.65-3.79h.02c.13.02.26.03.38.02.14,0,.27,0,.41-.02,2.01.2,3.55,1.86,3.6,3.87-1.16.85-2.57,1.31-4.01,1.3M6.16,6.67c0-1.02.82-1.84,1.84-1.85,1.02,0,1.84.82,1.85,1.84,0,.89-.63,1.65-1.5,1.81-.11,0-.23-.01-.34-.01h-.01c-.11,0-.22,0-.35,0-.86-.18-1.47-.93-1.48-1.8M13.23,12.4l-.13.15-.05-.19c-.4-1.51-1.45-2.77-2.88-3.42l-.13-.06.1-.1c1.17-1.18,1.16-3.09-.02-4.26-1.18-1.17-3.09-1.16-4.26.02-1.04,1.05-1.17,2.7-.29,3.9.09.12.18.23.28.33l.1.1-.13.06c-1.42.65-2.48,1.9-2.88,3.42l-.05.19-.12-.15C.34,9.5.72,5.19,3.6,2.77,6.49.34,10.8.71,13.23,3.6c2.14,2.54,2.14,6.25,0,8.79"/></g></g></svg>