<?xml version="1.0" encoding="UTF-8"?><svg id="Layer_1" xmlns="http://www.w3.org/2000/svg" xmlns:xlink="http://www.w3.org/1999/xlink" viewBox="0 0 16 16"><defs><style>.cls-1{fill:none;}.cls-2{fill:#adadad;}.cls-3{clip-path:url(#clippath);}</style><clipPath id="clippath"><rect class="cls-1" y="1.89" width="16" height="12.22"/></clipPath></defs><g id="logoMessages"><g class="cls-3"><g id="Group_16163"><path id="Path_61375" class="cls-2" d="M15.92,3.79s-.01-.04-.02-.06c-.05-.18-.12-.36-.21-.52h0c-.21-.38-.51-.71-.88-.94-.02-.01-.04-.02-.06-.03-.15-.09-.32-.16-.48-.22-.05-.02-.09-.03-.14-.05-.2-.05-.41-.08-.62-.09H2.5c-.21,0-.42.03-.62.09-.05.01-.09.03-.14.05-.17.05-.33.13-.49.22-.02.01-.04.02-.05.03-.37.23-.67.55-.88.94H.32c-.09.17-.17.34-.22.52,0,.02-.01.04-.02.06-.05.2-.08.4-.08.6v7.22c0,1.38,1.12,2.5,2.5,2.5h11c1.38,0,2.5-1.12,2.5-2.5v-7.22c0-.2-.03-.4-.08-.6M13.5,3.14c.26,0,.5.09.71.25l-5.55,3.45s-.09.04-.14.06c-.15.07-.31.11-.47.12-.02,0-.03,0-.05,0s-.03,0-.05,0c-.16,0-.32-.05-.47-.12-.05-.02-.1-.04-.14-.06L1.79,3.39c.2-.16.45-.24.71-.25h11ZM14.75,11.61c0,.69-.56,1.25-1.25,1.25H2.5c-.69,0-1.25-.56-1.25-1.25v-7.09l5.43,3.38c.81.5,1.83.5,2.64,0l5.43-3.38v7.09Z"/></g></g></g></svg>