<?xml version="1.0" encoding="UTF-8"?><svg id="Layer_1" xmlns="http://www.w3.org/2000/svg" xmlns:xlink="http://www.w3.org/1999/xlink" viewBox="0 0 16 16"><defs><style>.cls-1{fill:none;}.cls-2{fill:#8A8BB5;}.cls-3{clip-path:url(#clippath);}</style><clipPath id="clippath"><rect class="cls-1" y=".13" width="16" height="15.74"/></clipPath></defs><g id="maintenancePolicies"><g class="cls-3"><g id="Group_16355"><path id="Path_61471" class="cls-2" d="M15.42,10.87l-2.13-1.73-1.25-1.01-1.22-.99c.19-1.61-.97-3.06-2.57-3.25-.52-.06-1.05.02-1.53.23-.07.03-.12.07-.17.13-.16.19-.13.48.07.63l1.51,1.23-.22.7-.64.36-.03-.02-1.36-1.1-.13-.1c-.19-.16-.48-.13-.63.06-.01.01-.02.03-.03.04-.03.05-.05.1-.06.15-.34,1.58.67,3.14,2.25,3.48.51.11,1.04.08,1.54-.08l3.22,2.61,1.25,1.01.14.11c.68.55,1.67.45,2.22-.23.55-.68.45-1.67-.23-2.22h0M14.94,12.53c-.24.29-.66.34-.95.1l-.71-.57-1.25-1.01-2.85-2.32c-.13-.11-.31-.13-.47-.06-.13.06-.26.1-.4.13-1.07.23-2.14-.43-2.4-1.5,0-.02,0-.04-.01-.06l.07.06.96.78c.14.11.34.13.5.04l1.06-.59c.1-.06.18-.15.21-.26l.36-1.16c.06-.18,0-.37-.15-.49l-1.01-.84c1.12,0,2.02.91,2.02,2.03,0,.14-.02.29-.05.42-.03.17.03.34.16.45l2,1.62,1.25,1.01,1.56,1.27h0c.29.24.34.66.1.95"/><path id="Path_61472" class="cls-2" d="M3.01,9.89c-.29.01-.53-.21-.55-.5-.01-.29.21-.53.5-.55.02,0,.03,0,.05,0h1.77c.33.49.82.86,1.39,1.05h-3.15Z"/><path id="Path_61473" class="cls-2" d="M3.01,9.79c-.23,0-.42-.19-.42-.42,0-.23.19-.42.42-.42h1.77c.21.36.52.66.9.84h-2.67Z"/><path id="Path_61474" class="cls-2" d="M3.01,12.36c-.29,0-.52-.23-.52-.52s.23-.52.52-.52h3.27c.29,0,.52.23.52.52,0,.29-.23.52-.52.52h-3.27Z"/><path id="Path_61475" class="cls-2" d="M3.01,12.26c-.23.01-.43-.17-.44-.4s.17-.43.4-.44c.01,0,.03,0,.04,0h3.27c.23-.01.43.17.44.4s-.17.43-.4.44c-.01,0-.03,0-.04,0h-3.27Z"/><path id="Path_61476" d="M5.24,7.5l-.07-.06v.06h.07Z"/><path id="Path_61477" d="M5.24,7.5l-.07-.06v.06h.07Z"/><path id="Path_61478" class="cls-2" d="M3.01,7.4c-.29,0-.52-.23-.52-.52s.23-.52.52-.52h1.19s0,.02,0,.03c-.07.33-.09.68-.04,1.01h-1.14Z"/><path id="Path_61479" class="cls-2" d="M3.01,7.3c-.23.01-.43-.17-.44-.4-.01-.23.17-.43.4-.44.01,0,.03,0,.04,0h1.06c-.05.28-.07.56-.04.85h-1.02Z"/><path id="Path_61480" class="cls-2" d="M3.01,4.91c-.29,0-.52-.23-.52-.52s.23-.52.52-.52h1.62c.29,0,.52.23.52.52s-.23.52-.52.52h-1.62Z"/><path id="Path_61481" class="cls-2" d="M3.01,4.81c-.23.01-.43-.17-.44-.4s.17-.43.4-.44c.01,0,.03,0,.04,0h1.62c.23-.01.43.17.44.4.01.23-.17.43-.4.44-.01,0-.03,0-.04,0h-1.62Z"/><path id="Path_61482" class="cls-2" d="M2.39,15.87c-1.32,0-2.39-1.07-2.39-2.39V2.52C0,1.2,1.07.13,2.39.13h7.66c1.32,0,2.39,1.07,2.39,2.39v4.92l-1.08-.88.04-4.04c0-.74-.6-1.35-1.35-1.35H2.39c-.74,0-1.35.6-1.35,1.35v10.96c0,.74.6,1.35,1.34,1.35h7.66c.74,0,1.35-.6,1.35-1.34,0,0,0,0,0,0v-.85l1.08.88c-.05,1.31-1.12,2.35-2.43,2.36H2.39Z"/><path id="Path_61483" class="cls-2" d="M2.39,15.77c-1.26,0-2.29-1.03-2.29-2.29V2.52C.1,1.25,1.13.23,2.39.23h7.66c1.26,0,2.29,1.03,2.29,2.29v4.71l-.92-.74.07-3.96c0-.8-.65-1.45-1.45-1.45H2.39c-.8,0-1.45.65-1.45,1.45v10.96c0,.8.65,1.45,1.45,1.45h7.66c.8,0,1.45-.65,1.45-1.45v-.64l.92.74c-.11,1.23-1.13,2.17-2.36,2.18H2.39Z"/></g></g></g></svg>