<?xml version="1.0" encoding="UTF-8"?><svg id="Layer_1" xmlns="http://www.w3.org/2000/svg" viewBox="0 0 16 16"><defs><style>.cls-1{fill-rule:evenodd;}.cls-1,.cls-2{fill:#8A8BB5;}</style></defs><g id="managerLogs"><path id="Path_70" class="cls-2" d="M12.83,16H3.17c-1.01,0-1.83-.82-1.83-1.83V1.83C1.33.82,2.15,0,3.17,0h9.67c1.01,0,1.83.82,1.83,1.83v12.33c0,1.01-.82,1.83-1.84,1.83h0ZM3.16,1c-.46,0-.83.37-.83.83v12.33c0,.46.37.83.83.83h9.67c.46,0,.83-.37.83-.83V1.83c0-.46-.37-.83-.83-.83H3.16Z"/><path id="Path_71" class="cls-2" d="M5.49,14h-1.67c-.28,0-.5-.22-.5-.5v-3c0-.28.22-.5.5-.5s.5.22.5.5v2.5h1.17c.28,0,.5.22.5.5s-.22.5-.5.5Z"/><path id="Path_72" class="cls-2" d="M8.17,14h-.33c-.64,0-1.17-.52-1.17-1.17v-1.67c0-.64.52-1.17,1.17-1.17h.33c.64,0,1.17.52,1.17,1.17v1.67c0,.64-.52,1.17-1.17,1.17ZM7.83,11c-.09,0-.17.07-.17.17h0v1.67c0,.09.07.17.17.17h.33c.09,0,.17-.07.17-.16h0v-1.67c0-.09-.07-.17-.17-.17h-.33Z"/><path id="Path_73" class="cls-2" d="M12.17,14h-1c-.64,0-1.17-.52-1.17-1.17v-1.67c0-.64.52-1.17,1.17-1.17h1c.28,0,.5.22.5.5s-.22.5-.5.5h-1c-.09,0-.17.07-.17.17h0v1.67c0,.09.07.17.17.17h.5v-.36c-.26-.09-.4-.38-.31-.64.07-.2.26-.34.47-.34h.33c.28,0,.5.22.5.5v1.33c0,.28-.22.5-.5.5Z"/><g id="Group_15784"><g id="Group_15716"><g id="Group_15783"><path id="Path_74" class="cls-1" d="M8,5.21v.1c-.99,0-1.79-.8-1.79-1.79s.8-1.79,1.79-1.79,1.79.8,1.79,1.79h0c0,.99-.8,1.79-1.79,1.79v-.1ZM8,2.43c-.6,0-1.09.49-1.09,1.09,0,.6.49,1.09,1.09,1.09.6,0,1.09-.49,1.09-1.09,0-.6-.49-1.09-1.09-1.09h0Z"/><path id="Path_60773" class="cls-1" d="M7.99,1.82c.94,0,1.69.76,1.69,1.69s-.76,1.69-1.69,1.69-1.69-.76-1.69-1.69h0c0-.93.76-1.69,1.69-1.69h0ZM7.99,2.32c-.66,0-1.19.53-1.19,1.19s.53,1.19,1.19,1.19,1.19-.53,1.19-1.19h0c0-.66-.53-1.19-1.19-1.19"/><path id="Path_75" class="cls-1" d="M5.29,8.59c-.39,0-.72-.3-.73-.69.04-1.52,1.28-2.72,2.8-2.72h1.17c1.54-.04,2.83,1.17,2.89,2.71,0,.39-.33.7-.71.69h-5.42ZM7.47,5.9c-1.1-.03-2.03.82-2.08,1.92h5.22c-.05-1.08-.95-1.93-2.03-1.93h-1.12Z"/><path id="Path_60774" class="cls-1" d="M11.33,7.9c-.01.34-.29.6-.63.59h-5.4c-.34.01-.62-.25-.63-.59.05-1.49,1.3-2.66,2.79-2.62h1.08c1.49-.05,2.74,1.12,2.79,2.62M11.07,8.14h0s0,0,0,0ZM5.29,7.84s.04.08.08.08h5.24s.08-.03.09-.08c-.04-1.17-1.02-2.08-2.18-2.04h-1.06c-1.17-.04-2.14.88-2.18,2.04"/></g></g></g></g></svg>