<?xml version="1.0" encoding="UTF-8"?><svg id="Layer_1" xmlns="http://www.w3.org/2000/svg" viewBox="0 0 16 16"><defs><style>.cls-1{fill:#8A8BB5;}.cls-2{fill:#adadad;}</style></defs><g id="Manager"><path id="Path_364" class="cls-1" d="M7.62,14.15H1.26s-.07-.02-.1-.04c-.03-.03-.04-.06-.04-.1v-1.08c.08-.69.5-1.3,1.12-1.63,1.63-.95,3.5-1.42,5.39-1.35.31,0,.56-.25.56-.56,0-.31-.25-.56-.56-.56-2.11-.07-4.2.47-6.02,1.55C.68,10.9.08,11.86,0,12.93v1.08c0,.7.57,1.26,1.27,1.27h6.36c.31,0,.56-.25.56-.56,0-.31-.25-.56-.56-.56h0Z"/><path id="Path_365" class="cls-1" d="M7.62,0C5.36,0,3.53,1.83,3.53,4.09s1.83,4.09,4.09,4.09,4.09-1.83,4.09-4.09S9.89,0,7.62,0h0ZM7.62,1.12c1.64,0,2.98,1.33,2.98,2.98,0,1.64-1.33,2.98-2.98,2.98-1.64,0-2.98-1.33-2.98-2.98s1.33-2.98,2.98-2.98h0Z"/><path id="Path_366" class="cls-1" d="M12.09,9.44c-1.46,0-2.65,1.19-2.65,2.65s1.19,2.65,2.65,2.65,2.65-1.19,2.65-2.65h0c0-1.46-1.19-2.65-2.65-2.65ZM12.09,10.56c.85,0,1.54.69,1.54,1.54,0,.85-.69,1.54-1.54,1.54-.85,0-1.54-.69-1.54-1.54h0c0-.85.69-1.54,1.54-1.54Z"/><path id="Path_367" class="cls-1" d="M12.65,10v-1.26c0-.31-.25-.56-.56-.56-.31,0-.56.25-.56.56h0v1.26c0,.31.25.56.56.56.31,0,.56-.25.56-.56h0Z"/><path id="Path_368" class="cls-1" d="M13.97,11.01l.89-.89c.21-.23.2-.58-.03-.79-.21-.2-.54-.2-.76,0l-.89.89c-.22.22-.22.57,0,.79.22.22.57.22.79,0h0Z"/><path id="Path_369" class="cls-1" d="M14.18,12.65h1.26c.31,0,.56-.25.56-.56,0-.31-.25-.56-.56-.56h-1.26c-.31,0-.56.25-.56.56,0,.31.25.56.56.56h0,0Z"/><path id="Path_370" class="cls-1" d="M13.18,13.97l.89.89c.23.21.58.19.79-.03.2-.21.2-.54,0-.76l-.89-.89c-.23-.21-.58-.2-.79.03-.2.21-.2.55,0,.76h0Z"/><path id="Path_371" class="cls-1" d="M11.53,14.19v1.26c0,.31.25.56.56.56.31,0,.56-.25.56-.56v-1.26c0-.31-.25-.56-.56-.56-.31,0-.56.25-.56.56Z"/><path id="Path_372" class="cls-1" d="M10.22,13.18l-.89.89c-.21.23-.2.58.03.79.21.2.54.2.76,0l.89-.89c.21-.23.2-.58-.03-.79-.21-.2-.55-.2-.76,0h0Z"/><path id="Path_373" class="cls-1" d="M10,11.54h-1.26c-.31,0-.56.25-.56.56,0,.31.25.56.56.56h1.26c.31,0,.56-.25.56-.56,0-.31-.25-.56-.56-.56h0,0Z"/><path id="Path_374" class="cls-1" d="M11.01,10.22l-.89-.89c-.23-.21-.58-.19-.79.03-.2.21-.2.54,0,.76l.89.89c.22.22.57.22.79,0,.22-.22.22-.57,0-.79h0Z"/><path id="Path_364-2" class="cls-2" d="M7.62,14.15H1.26s-.07-.02-.1-.04c-.03-.03-.04-.06-.04-.1v-1.08c.08-.69.5-1.3,1.12-1.63,1.63-.95,3.5-1.42,5.39-1.35.31,0,.56-.25.56-.56,0-.31-.25-.56-.56-.56-2.11-.07-4.2.47-6.02,1.55C.68,10.9.08,11.86,0,12.93v1.08c0,.7.57,1.26,1.27,1.27h6.36c.31,0,.56-.25.56-.56,0-.31-.25-.56-.56-.56h0Z"/><path id="Path_365-2" class="cls-2" d="M7.62,0C5.36,0,3.53,1.83,3.53,4.09s1.83,4.09,4.09,4.09,4.09-1.83,4.09-4.09S9.89,0,7.62,0h0ZM7.62,1.12c1.64,0,2.98,1.33,2.98,2.98,0,1.64-1.33,2.98-2.98,2.98-1.64,0-2.98-1.33-2.98-2.98s1.33-2.98,2.98-2.98h0Z"/><path id="Path_366-2" class="cls-2" d="M12.09,9.44c-1.46,0-2.65,1.19-2.65,2.65s1.19,2.65,2.65,2.65,2.65-1.19,2.65-2.65h0c0-1.46-1.19-2.65-2.65-2.65ZM12.09,10.56c.85,0,1.54.69,1.54,1.54,0,.85-.69,1.54-1.54,1.54-.85,0-1.54-.69-1.54-1.54h0c0-.85.69-1.54,1.54-1.54Z"/><path id="Path_367-2" class="cls-2" d="M12.65,10v-1.26c0-.31-.25-.56-.56-.56-.31,0-.56.25-.56.56h0v1.26c0,.31.25.56.56.56.31,0,.56-.25.56-.56h0Z"/><path id="Path_368-2" class="cls-2" d="M13.97,11.01l.89-.89c.21-.23.2-.58-.03-.79-.21-.2-.54-.2-.76,0l-.89.89c-.22.22-.22.57,0,.79.22.22.57.22.79,0h0Z"/><path id="Path_369-2" class="cls-2" d="M14.18,12.65h1.26c.31,0,.56-.25.56-.56,0-.31-.25-.56-.56-.56h-1.26c-.31,0-.56.25-.56.56,0,.31.25.56.56.56h0,0Z"/><path id="Path_370-2" class="cls-2" d="M13.18,13.97l.89.89c.23.21.58.19.79-.03.2-.21.2-.54,0-.76l-.89-.89c-.23-.21-.58-.2-.79.03-.2.21-.2.55,0,.76h0Z"/><path id="Path_371-2" class="cls-2" d="M11.53,14.19v1.26c0,.31.25.56.56.56.31,0,.56-.25.56-.56v-1.26c0-.31-.25-.56-.56-.56-.31,0-.56.25-.56.56Z"/><path id="Path_372-2" class="cls-2" d="M10.22,13.18l-.89.89c-.21.23-.2.58.03.79.21.2.54.2.76,0l.89-.89c.21-.23.2-.58-.03-.79-.21-.2-.55-.2-.76,0h0Z"/><path id="Path_373-2" class="cls-2" d="M10,11.54h-1.26c-.31,0-.56.25-.56.56,0,.31.25.56.56.56h1.26c.31,0,.56-.25.56-.56,0-.31-.25-.56-.56-.56h0,0Z"/><path id="Path_374-2" class="cls-2" d="M11.01,10.22l-.89-.89c-.23-.21-.58-.19-.79.03-.2.21-.2.54,0,.76l.89.89c.22.22.57.22.79,0,.22-.22.22-.57,0-.79h0Z"/></g></svg>