<?xml version="1.0" encoding="UTF-8"?><svg id="Layer_1" xmlns="http://www.w3.org/2000/svg" xmlns:xlink="http://www.w3.org/1999/xlink" viewBox="0 0 16 16"><defs><style>.cls-1{fill:none;}.cls-2{clip-path:url(#clippath-1);}.cls-3{fill:#8A8BB5;}.cls-4{fill:#3d5376;}.cls-5{clip-path:url(#clippath);}</style><clipPath id="clippath"><path class="cls-1" d="M6,11.62c-.02-3.09,2.48-5.61,5.57-5.63,1.73,0,3.36.78,4.43,2.14V0H0v16h8.13c-1.34-1.06-2.12-2.67-2.13-4.37Z"/></clipPath><clipPath id="clippath-1"><path class="cls-1" d="M6,11.62c-.02-3.09,2.48-5.61,5.57-5.63,1.73,0,3.36.78,4.43,2.14V0H0v16h8.13c-1.34-1.06-2.12-2.67-2.13-4.37Z"/></clipPath></defs><g id="manageUnmanageDelete"><path id="Path_76" class="cls-3" d="M11.63,16c-2.42,0-4.37-1.96-4.37-4.37s1.96-4.37,4.37-4.37,4.37,1.96,4.37,4.37h0c0,2.42-1.96,4.37-4.37,4.37ZM11.63,8.5c-1.73,0-3.12,1.4-3.12,3.12s1.4,3.12,3.12,3.12,3.12-1.4,3.12-3.12h0c0-1.73-1.4-3.12-3.12-3.12Z"/><rect id="Rectangle_3" class="cls-3" x="9.75" y="11" width="3.75" height="1.25"/><g id="Group_37"><g id="Group_34"><g class="cls-5"><g id="Group_33"><path id="Path_77" class="cls-4" d="M13.5,12.25H0V0h4.63l1.25,1.25h7.62v11ZM1.25,11h11V2.5h-6.88l-1.25-1.25H1.25v9.75Z"/><rect id="Rectangle_4" class="cls-4" x=".63" y="3.75" width="12.25" height="1.25"/></g></g></g><g id="Group_36"><g class="cls-2"><g id="Group_35"><path id="Path_79" class="cls-3" d="M13.5,12.25H0V0h4.63l1.25,1.25h7.62v11ZM1.25,11h11V2.5h-6.88l-1.25-1.25H1.25v9.75Z"/><rect id="Rectangle_5" class="cls-3" x=".63" y="3.75" width="12.25" height="1.25"/></g></g></g></g></g></svg>