<?xml version="1.0" encoding="UTF-8"?><svg id="measureConfiguration" xmlns="http://www.w3.org/2000/svg" xmlns:xlink="http://www.w3.org/1999/xlink" viewBox="0 0 16 16"><defs><style>.cls-1{fill:none;}.cls-2{fill:#8A8BB5;}.cls-3{clip-path:url(#clippath);}</style><clipPath id="clippath"><rect class="cls-1" x=".47" width="15.06" height="16"/></clipPath></defs><g class="cls-3"><g id="Group_16356"><path id="Path_61484" class="cls-2" d="M.97,16h5c.28,0,.5-.22.5-.5V.5c0-.28-.22-.5-.5-.5H.97C.69,0,.47.22.47.5v15c0,.28.22.5.5.5M1.47,1h4v1.5h-2.5v1h2.5v1.5h-1.5v1h1.5v1.5h-2.5v1h2.5v1.5h-1.5v1h1.5v1.5h-2.5v1h2.5v1.5H1.47V1Z"/><path id="Path_61485" class="cls-2" d="M8.14,1.15l.1,1.34c.02.25.2.46.44.52.55.13,1.08.35,1.56.65.21.13.48.11.67-.05l1.02-.87.87.87-.87,1.02c-.16.19-.18.46-.05.68.3.48.52,1.01.65,1.56.06.24.26.42.51.44l1.34.1v1.23l-1.34.1c-.25.02-.46.2-.51.44-.13.55-.35,1.08-.65,1.56-.13.21-.11.49.05.68l.87,1.02-.87.87-1.02-.87c-.19-.16-.46-.18-.67-.05-.48.3-1.01.52-1.56.65-.24.06-.42.26-.44.51l-.1,1.34h-.24v1.14h.24c.6,0,1.09-.46,1.14-1.05l.07-.93c.39-.12.77-.28,1.13-.47l.71.61c.45.39,1.13.36,1.55-.06l.87-.87c.42-.42.45-1.1.06-1.55l-.61-.71c.19-.36.35-.74.47-1.14l.93-.07c.59-.05,1.05-.54,1.06-1.14v-1.23c0-.6-.46-1.09-1.05-1.14l-.93-.07c-.12-.39-.28-.77-.47-1.13l.61-.71c.39-.45.36-1.13-.06-1.55l-.87-.87c-.42-.42-1.1-.45-1.55-.06l-.71.61c-.36-.19-.74-.35-1.13-.47l-.07-.93c-.05-.59-.54-1.05-1.14-1.06h-.24v1.15h.24Z"/><path id="Path_61486" class="cls-2" d="M8.2,11.94c2.18-.37,3.65-2.43,3.28-4.61-.3-1.78-1.76-3.14-3.56-3.31v1.15c1.56.21,2.66,1.65,2.46,3.21-.17,1.24-1.12,2.23-2.36,2.44h-.02s-.05.01-.08.02v1.08c.09.03.19.04.29.02"/></g></g></svg>