<?xml version="1.0" encoding="UTF-8"?><svg id="Layer_1" xmlns="http://www.w3.org/2000/svg" viewBox="0 0 16 16"><defs><style>.cls-1{fill:#8A8BB5;}</style></defs><g id="measure"><path id="Path_81" class="cls-1" d="M2.86,13.71h6.86c.32,0,.57-.26.57-.57,0-.15-.06-.29-.17-.4L3.26,5.88c-.22-.22-.59-.22-.81,0-.11.11-.17.25-.17.4v6.86c0,.32.25.57.57.57,0,0,0,0,0,0h0ZM3.43,7.67l4.91,4.91H3.43v-4.91Z"/><g id="Group_41"><g id="Group_39"><path id="Path_82" class="cls-1" d="M15.83,15.03l-3.26-3.26V.57C12.57.26,12.32,0,12,0h-3.43c-.32,0-.57.26-.57.57v6.62L.98.17c-.22-.22-.58-.22-.81,0C.06.27,0,.42,0,.57v14.86c0,.32.26.57.57.57h14.86c.32,0,.57-.26.57-.57,0-.15-.06-.29-.17-.4h0ZM9.14,7.43h.57c.32-.01.56-.28.55-.6-.01-.3-.25-.54-.55-.55h-.57v-1.14h.57c.32-.01.56-.28.55-.6-.01-.3-.25-.54-.55-.55h-.57v-1.14h.57c.32,0,.57-.25.57-.57,0-.32-.25-.57-.57-.57h-.57v-.57h2.29v9.48l-2.29-2.29v-.91ZM1.14,14.85V1.95l12.91,12.91H1.14Z"/></g><g id="Group_40"><path id="Path_83" class="cls-1" d="M15.83,15.03l-3.26-3.26V.57C12.57.26,12.32,0,12,0h-3.43c-.32,0-.57.26-.57.57v6.62L.98.17c-.22-.22-.58-.22-.81,0C.06.27,0,.42,0,.57v14.86c0,.32.26.57.57.57h14.86c.32,0,.57-.26.57-.57,0-.15-.06-.29-.17-.4h0ZM9.14,7.43h.57c.32-.01.56-.28.55-.6-.01-.3-.25-.54-.55-.55h-.57v-1.14h.57c.32-.01.56-.28.55-.6-.01-.3-.25-.54-.55-.55h-.57v-1.14h.57c.32,0,.57-.25.57-.57,0-.32-.25-.57-.57-.57h-.57v-.57h2.29v9.48l-2.29-2.29v-.91ZM1.14,14.85V1.95l12.91,12.91H1.14Z"/></g></g></g></svg>