<?xml version="1.0" encoding="UTF-8"?><svg id="Layer_1" xmlns="http://www.w3.org/2000/svg" xmlns:xlink="http://www.w3.org/1999/xlink" viewBox="0 0 16 16"><defs><style>.cls-1{fill:url(#linear-gradient);}.cls-2{fill:#2665c9;}.cls-3{fill:#8A8BB5;}</style><linearGradient id="linear-gradient" x1="-1881.12" y1="21.12" x2="-1881.84" y2="21.36" gradientTransform="translate(2945.07 -25.24) scale(1.56)" gradientUnits="userSpaceOnUse"><stop offset="0" stop-color="#000" stop-opacity=".3"/><stop offset=".07" stop-color="#000" stop-opacity=".2"/><stop offset=".32" stop-color="#000" stop-opacity=".1"/><stop offset=".62" stop-color="#000" stop-opacity=".05"/><stop offset="1" stop-color="#000" stop-opacity="0"/></linearGradient></defs><path class="cls-1" d="M5.35.46c-.33,0-.62.21-.72.52L.04,14.53c-.14.39.06.82.45.96.08.03.17.04.25.04h3.78c.29-.05.52-.25.62-.53l.91-2.69,3.26,3.04c.13.11.31.17.48.18h4.24l-1.86-5.31h-5.42L10.1.46h-4.75Z"/><path class="cls-2" d="M5.35.46h4.73l-4.91,14.57c-.1.31-.39.51-.72.51H.76C.34,15.54,0,15.2,0,14.79c0-.08.01-.16.04-.24L4.63.97c.1-.31.39-.51.72-.51h0Z"/><path class="cls-2" d="M12.23,10.23h-7.51c-.19,0-.35.15-.35.35,0,.09.04.19.11.25l4.82,4.51c.14.13.32.2.52.2h4.25l-1.85-5.31h.01Z"/><path class="cls-3" d="M5.35.46c-.33,0-.62.21-.72.52L.04,14.53c-.14.39.06.82.45.96.08.03.17.04.25.04h3.78c.29-.05.52-.25.62-.53l.91-2.69,3.26,3.04c.13.11.31.17.48.18h4.24l-1.86-5.31h-5.42L10.1.46h-4.75Z"/><path class="cls-3" d="M11.39.97c-.1-.31-.39-.51-.72-.51h-5.28c.32,0,.61.2.71.51l4.58,13.57c.13.39-.08.82-.47.96-.08.02-.16.04-.24.04h5.28c.42,0,.75-.34.75-.76,0-.08-.01-.16-.04-.24L11.39.97Z"/></svg>