<?xml version="1.0" encoding="UTF-8"?><svg id="networkDevices" xmlns="http://www.w3.org/2000/svg" viewBox="0 0 16 16"><defs><style>.cls-1{fill:#8A8BB5;}</style></defs><path id="Path_133" class="cls-1" d="M6.22,7.49c-.24,0-.43-.19-.43-.43s.19-.43.43-.43h.66v-.48h-1.68c-.24,0-.43-.19-.43-.43v-3.67c0-.24.19-.43.43-.43h5.53c.24,0,.43.19.43.43v3.67c0,.24-.19.43-.43.43h-1.68v.48h.66c.24,0,.43.19.43.43s-.19.43-.43.43h-3.5ZM8.21,6.64v-.48h-.46v.48h.46ZM10.31,5.3v-2.82h-4.67v2.82h4.67Z"/><path id="Path_134" class="cls-1" d="M10.05,7.06c0-.18-.15-.33-.33-.33h-.76v-.68h1.78c.18,0,.33-.15.33-.33h0v-3.67c0-.18-.15-.33-.33-.33h-5.53c-.18,0-.33.15-.33.33h0v3.67c0,.18.15.33.33.33h1.78v.68h-.76c-.18,0-.33.14-.33.32,0,.18.14.33.32.33h3.5c.18,0,.33-.15.33-.33ZM8.31,6.74h-.67v-.68h.67v.68ZM7.31,5.4h-1.78v-3.02h4.87v3.02h-3.1Z"/><path id="Path_135" class="cls-1" d="M1.44,14.36c-.24,0-.43-.19-.43-.43s.19-.43.43-.43h.66v-.48H.43C.19,13.03,0,12.84,0,12.6v-3.67c0-.23.19-.43.43-.43h5.53c.23,0,.43.19.43.43v3.67c0,.23-.19.42-.43.43h-1.68v.48h.66c.24,0,.43.19.43.43s-.19.43-.43.43H1.44ZM3.42,13.51v-.48h-.47v.48h.47ZM5.52,12.18v-2.82H.85v2.82h4.67Z"/><path id="Path_136" class="cls-1" d="M5.95,12.93c.18,0,.33-.15.33-.33h0v-3.67c0-.18-.15-.33-.33-.33H.43c-.18,0-.33.15-.33.33H.1v3.67c0,.18.15.33.33.33h1.78v.68h-.76c-.18,0-.33.14-.33.32,0,.18.14.33.32.33h3.5c.18,0,.33-.14.33-.32,0-.18-.14-.33-.32-.33h-.77v-.68h1.78ZM3.52,13.61h-.67v-.68h.67v.68ZM3.85,12.28H.75v-3.02h4.87v3.02h-1.77Z"/><path id="Path_137" class="cls-1" d="M11.06,14.36c-.24,0-.43-.19-.43-.43s.19-.43.43-.43h.66v-.48h-1.68c-.23,0-.42-.19-.43-.43v-3.67c0-.23.19-.43.43-.43h5.52c.23,0,.42.19.43.43v3.67c0,.23-.19.42-.42.43h-1.68v.48h.66c.24,0,.43.19.43.43s-.19.43-.43.43h-3.49ZM13.04,13.51v-.48h-.46v.48h.46ZM15.14,12.18v-2.82h-4.67v2.82h4.67Z"/><path id="Path_138" class="cls-1" d="M15.9,12.6v-3.67c0-.18-.15-.33-.33-.33h-5.53c-.18,0-.33.15-.33.33h0v3.67c0,.18.15.33.33.33h1.78v.68h-.76c-.18,0-.33.14-.33.32,0,.18.14.33.32.33h3.5c.18,0,.33-.14.33-.32,0-.18-.14-.33-.32-.33h-.77v-.68h1.78c.18,0,.33-.14.33-.32h0ZM13.14,13.61h-.66v-.68h.67v.68ZM15.24,12.28h-4.87v-3.02h4.87v3.02Z"/><path id="Path_139" class="cls-1" d="M13.79,8.1c-.24,0-.43-.19-.43-.43v-2.39c0-.39-.32-.7-.71-.71h-.53c-.24,0-.43-.19-.43-.43s.19-.43.43-.43h.53c.86,0,1.56.7,1.56,1.56v2.39c0,.23-.19.42-.43.43h0Z"/><path id="Path_140" class="cls-1" d="M13.79,8c.18,0,.33-.15.33-.33v-2.39c0-.8-.65-1.46-1.46-1.46h-.53c-.18,0-.33.14-.33.32,0,.18.14.33.32.33h.53c.44,0,.81.36.81.81v2.39c0,.18.15.33.33.33h0,0Z"/><path id="Path_141" class="cls-1" d="M2.15,8.1c-.24,0-.43-.19-.43-.43v-2.39c0-.86.7-1.56,1.56-1.56h.53c.24,0,.43.19.43.43s-.19.43-.43.43h-.53c-.39,0-.7.32-.71.71v2.39c0,.24-.19.43-.43.43h0Z"/><path id="Path_142" class="cls-1" d="M2.48,7.68v-2.39c0-.44.36-.81.81-.81h.53c.18,0,.33-.14.33-.32,0-.18-.14-.33-.32-.33h-.53c-.8,0-1.46.65-1.46,1.46v2.39c0,.18.14.33.32.33.18,0,.33-.14.33-.32h0Z"/><path id="Path_143" class="cls-1" d="M7.04,11.53c-.24,0-.43-.19-.43-.43s.19-.43.43-.43h1.86c.24,0,.43.19.43.43s-.19.43-.43.43h-1.86Z"/><path id="Path_144" class="cls-1" d="M7.04,10.78c-.18,0-.33.15-.32.33,0,.18.15.32.32.32h1.86c.18,0,.33-.14.33-.32,0-.18-.14-.33-.32-.33h-1.87Z"/></svg>