<svg xmlns="http://www.w3.org/2000/svg" width="16" height="16" viewBox="0 0 16 16">
  <g id="overview" transform="translate(-241.4 -211.291)">
    <path id="Path_145" data-name="Path 145" d="M255.038,217.589c-.022-.032-.1-.138-.145-.2a8.76,8.76,0,0,0-1.38-1.424,3.927,3.927,0,0,0-5.348,0,8.733,8.733,0,0,0-1.381,1.424c-.047.058-.122.165-.144.2a.622.622,0,0,0,0,.718c.022.032.1.138.144.2a8.818,8.818,0,0,0,1.381,1.424,3.927,3.927,0,0,0,5.348,0,8.845,8.845,0,0,0,1.38-1.424c.047-.059.123-.166.145-.2a.626.626,0,0,0,0-.718Zm-4.2,2.14a4.062,4.062,0,0,1-2.9-1.781,3.243,3.243,0,0,1,5.79,0,4.063,4.063,0,0,1-2.889,1.781Z" fill="#adadad"/>
    <circle id="Ellipse_7" data-name="Ellipse 7" cx="1.188" cy="1.188" r="1.188" transform="translate(249.683 216.76)" fill="#adadad"/>
    <path id="Path_146" data-name="Path 146" d="M257.4,217.854a6.571,6.571,0,0,1-.859,3.248.625.625,0,1,1-1.085-.62,5.311,5.311,0,1,0-2.018,2.006.625.625,0,1,1,.612,1.09,6.557,6.557,0,0,1-7.372-.652l-4.212,4.184a.625.625,0,1,1-.881-.887l4.207-4.178a6.561,6.561,0,1,1,11.608-4.191Z" fill="#adadad"/>
  </g>
</svg>
