<svg xmlns="http://www.w3.org/2000/svg" width="16" height="16" viewBox="0 0 16 16">
  <g id="receiversAndSettings" transform="translate(-667 -683.647)">
    <g id="Group_200" data-name="Group 200" transform="translate(493.431 439.072)">
      <g id="Group_180" data-name="Group 180">
        <g id="Group_178" data-name="Group 178">
          <path id="Path_375" data-name="Path 375" d="M182.507,260.575h-1.875a.47.47,0,0,1-.455-.355l-.156-.625a1.455,1.455,0,0,0-2.321-.962l-.552.332a.469.469,0,0,1-.573-.07l-1.326-1.326a.469.469,0,0,1-.07-.573l.332-.552a1.455,1.455,0,0,0-.962-2.321l-.624-.156a.468.468,0,0,1-.356-.454v-1.875a.469.469,0,0,1,.356-.455l.624-.156a1.455,1.455,0,0,0,.962-2.321l-.332-.552a.469.469,0,0,1,.07-.573l1.326-1.326a.469.469,0,0,1,.573-.07l.552.332a1.455,1.455,0,0,0,2.321-.962l.156-.625a.47.47,0,0,1,.455-.355h1.875a.47.47,0,0,1,.455.355l.155.625a1.456,1.456,0,0,0,2.322.962l.551-.332a.469.469,0,0,1,.573.07l1.326,1.326a.469.469,0,0,1,.07.573l-.332.552a1.455,1.455,0,0,0,.962,2.321l.625.156a.468.468,0,0,1,.355.455v1.875a.467.467,0,0,1-.355.454l-.625.156a2.242,2.242,0,0,0-.306.1.469.469,0,1,1-.358-.867,3.336,3.336,0,0,1,.437-.143l.27-.067V252l-.269-.067a2.385,2.385,0,0,1-1.539-3.714l.143-.238-.808-.808-.237.143a2.385,2.385,0,0,1-3.714-1.538l-.068-.269H181l-.067.269a2.385,2.385,0,0,1-3.714,1.538l-.238-.143-.808.808.143.237a2.386,2.386,0,0,1-1.538,3.715l-.269.067v1.142l.269.067a2.385,2.385,0,0,1,1.538,3.714l-.143.238.808.808.238-.143a2.385,2.385,0,0,1,3.714,1.538l.067.27h1.142l.068-.27a3.2,3.2,0,0,1,.142-.437.469.469,0,1,1,.867.358,2.15,2.15,0,0,0-.1.306l-.155.625A.47.47,0,0,1,182.507,260.575Z" fill="#adadad"/>
        </g>
        <g id="Group_179" data-name="Group 179">
          <path id="Path_376" data-name="Path 376" d="M182.507,260.575h-1.875a.47.47,0,0,1-.455-.355l-.156-.625a1.455,1.455,0,0,0-2.321-.962l-.552.332a.469.469,0,0,1-.573-.07l-1.326-1.326a.469.469,0,0,1-.07-.573l.332-.552a1.455,1.455,0,0,0-.962-2.321l-.624-.156a.468.468,0,0,1-.356-.454v-1.875a.469.469,0,0,1,.356-.455l.624-.156a1.455,1.455,0,0,0,.962-2.321l-.332-.552a.469.469,0,0,1,.07-.573l1.326-1.326a.469.469,0,0,1,.573-.07l.552.332a1.455,1.455,0,0,0,2.321-.962l.156-.625a.47.47,0,0,1,.455-.355h1.875a.47.47,0,0,1,.455.355l.155.625a1.456,1.456,0,0,0,2.322.962l.551-.332a.469.469,0,0,1,.573.07l1.326,1.326a.469.469,0,0,1,.07.573l-.332.552a1.455,1.455,0,0,0,.962,2.321l.625.156a.468.468,0,0,1,.355.455v1.875a.467.467,0,0,1-.355.454l-.625.156a2.242,2.242,0,0,0-.306.1.469.469,0,1,1-.358-.867,3.336,3.336,0,0,1,.437-.143l.27-.067V252l-.269-.067a2.385,2.385,0,0,1-1.539-3.714l.143-.238-.808-.808-.237.143a2.385,2.385,0,0,1-3.714-1.538l-.068-.269H181l-.067.269a2.385,2.385,0,0,1-3.714,1.538l-.238-.143-.808.808.143.237a2.386,2.386,0,0,1-1.538,3.715l-.269.067v1.142l.269.067a2.385,2.385,0,0,1,1.538,3.714l-.143.238.808.808.238-.143a2.385,2.385,0,0,1,3.714,1.538l.067.27h1.142l.068-.27a3.2,3.2,0,0,1,.142-.437.469.469,0,1,1,.867.358,2.15,2.15,0,0,0-.1.306l-.155.625A.47.47,0,0,1,182.507,260.575Z" fill="#8A8BB5"/>
        </g>
      </g>
      <g id="Group_183" data-name="Group 183">
        <g id="Group_181" data-name="Group 181">
          <path id="Path_377" data-name="Path 377" d="M181.569,256.809a4.234,4.234,0,1,1,4.234-4.234.468.468,0,1,1-.937,0,3.3,3.3,0,1,0-3.3,3.3.468.468,0,1,1,0,.937Z" fill="#8A8BB5"/>
        </g>
        <g id="Group_182" data-name="Group 182">
          <path id="Path_378" data-name="Path 378" d="M181.569,256.809a4.234,4.234,0,1,1,4.234-4.234.468.468,0,1,1-.937,0,3.3,3.3,0,1,0-3.3,3.3.468.468,0,1,1,0,.937Z" fill="#8A8BB5"/>
        </g>
      </g>
      <g id="Group_186" data-name="Group 186">
        <g id="Group_184" data-name="Group 184">
          <path id="Path_379" data-name="Path 379" d="M185.335,260.575a4.235,4.235,0,1,1,4.234-4.234,4.235,4.235,0,0,1-4.234,4.234Zm0-7.531a3.3,3.3,0,1,0,3.3,3.3,3.3,3.3,0,0,0-3.3-3.3Z" fill="#8A8BB5"/>
        </g>
        <g id="Group_185" data-name="Group 185">
          <path id="Path_380" data-name="Path 380" d="M185.335,260.575a4.235,4.235,0,1,1,4.234-4.234,4.235,4.235,0,0,1-4.234,4.234Zm0-7.531a3.3,3.3,0,1,0,3.3,3.3,3.3,3.3,0,0,0-3.3-3.3Z" fill="#8A8BB5"/>
        </g>
      </g>
      <g id="Group_189" data-name="Group 189">
        <g id="Group_187" data-name="Group 187">
          <path id="Path_381" data-name="Path 381" d="M185.335,258.669a.469.469,0,0,1-.469-.469v-3.75a.469.469,0,0,1,.938,0v3.75A.469.469,0,0,1,185.335,258.669Z" fill="#8A8BB5"/>
        </g>
        <g id="Group_188" data-name="Group 188">
          <path id="Path_382" data-name="Path 382" d="M185.335,258.669a.469.469,0,0,1-.469-.469v-3.75a.469.469,0,0,1,.938,0v3.75A.469.469,0,0,1,185.335,258.669Z" fill="#8A8BB5"/>
        </g>
      </g>
      <g id="Group_192" data-name="Group 192">
        <g id="Group_190" data-name="Group 190">
          <path id="Path_383" data-name="Path 383" d="M185.335,258.669a.468.468,0,0,1-.332-.138l-1.325-1.325a.469.469,0,1,1,.663-.663l.994.994.994-.994a.469.469,0,1,1,.663.663l-1.326,1.325a.464.464,0,0,1-.331.138Z" fill="#8A8BB5"/>
        </g>
        <g id="Group_191" data-name="Group 191">
          <path id="Path_384" data-name="Path 384" d="M185.335,258.669a.468.468,0,0,1-.332-.138l-1.325-1.325a.469.469,0,1,1,.663-.663l.994.994.994-.994a.469.469,0,1,1,.663.663l-1.326,1.325a.464.464,0,0,1-.331.138Z" fill="#8A8BB5"/>
        </g>
      </g>
    </g>
  </g>
</svg>
