<svg xmlns="http://www.w3.org/2000/svg" xmlns:xlink="http://www.w3.org/1999/xlink" width="16" height="16" viewBox="0 0 16 16">
  <defs>
    <clipPath id="clip-path">
      <rect id="Rectangle_7" data-name="Rectangle 7" width="16" height="16" transform="translate(247.151 244.42)" fill="none"/>
    </clipPath>
  </defs>
  <g id="remoteControl" transform="translate(-51 -749)">
    <g id="g1191" transform="translate(-196.151 504.58)">
      <g id="g1193">
        <g id="Group_122" data-name="Group 122">
          <g id="Group_121" data-name="Group 121" clip-path="url(#clip-path)">
            <g id="g1195">
              <g id="g1201">
                <g id="Group_93" data-name="Group 93">
                  <g id="path1203">
                    <path id="Path_217" data-name="Path 217" d="M260.978,248.859a.469.469,0,0,1-.469-.469,1.329,1.329,0,0,0-1.328-1.327.469.469,0,0,1,0-.938,2.267,2.267,0,0,1,2.265,2.265.468.468,0,0,1-.468.469Z" fill="#adadad"/>
                  </g>
                </g>
                <g id="Group_94" data-name="Group 94">
                  <g id="path1203-2" data-name="path1203">
                    <path id="Path_218" data-name="Path 218" d="M260.978,248.859a.469.469,0,0,1-.469-.469,1.329,1.329,0,0,0-1.328-1.327.469.469,0,0,1,0-.938,2.267,2.267,0,0,1,2.265,2.265.468.468,0,0,1-.468.469Z" fill="#adadad"/>
                  </g>
                </g>
              </g>
              <g id="g1205">
                <g id="Group_95" data-name="Group 95">
                  <g id="path1207">
                    <path id="Path_219" data-name="Path 219" d="M262.683,248.859a.469.469,0,0,1-.469-.469,3.036,3.036,0,0,0-3.033-3.032.469.469,0,0,1,0-.938,3.975,3.975,0,0,1,3.97,3.97.469.469,0,0,1-.468.469Z" fill="#adadad"/>
                  </g>
                </g>
                <g id="Group_96" data-name="Group 96">
                  <g id="path1207-2" data-name="path1207">
                    <path id="Path_220" data-name="Path 220" d="M262.683,248.859a.469.469,0,0,1-.469-.469,3.036,3.036,0,0,0-3.033-3.032.469.469,0,0,1,0-.938,3.975,3.975,0,0,1,3.97,3.97.469.469,0,0,1-.468.469Z" fill="#adadad"/>
                  </g>
                </g>
              </g>
              <g id="g1209">
                <g id="Group_97" data-name="Group 97">
                  <g id="path1211">
                    <path id="Path_221" data-name="Path 221" d="M259.65,248.39a.468.468,0,1,1-.469-.469.468.468,0,0,1,.469.469" fill="#adadad"/>
                  </g>
                </g>
                <g id="Group_98" data-name="Group 98">
                  <g id="path1211-2" data-name="path1211">
                    <path id="Path_222" data-name="Path 222" d="M259.65,248.39a.468.468,0,1,1-.469-.469.468.468,0,0,1,.469.469" fill="#adadad"/>
                  </g>
                </g>
              </g>
              <g id="g1213">
                <g id="Group_99" data-name="Group 99">
                  <g id="path1215">
                    <path id="Path_223" data-name="Path 223" d="M253.79,260.42h-3.171a3.39,3.39,0,0,1-3.386-3.383l-.082-10.581a1.079,1.079,0,0,1,1.08-1.088h7.948a1.079,1.079,0,0,1,1.079,1.088l-.082,10.58a3.389,3.389,0,0,1-3.386,3.384Zm-5.559-14.114a.142.142,0,0,0-.142.142l.082,10.583h0a2.451,2.451,0,0,0,2.448,2.448h3.171a2.451,2.451,0,0,0,2.448-2.448h0l.082-10.583a.142.142,0,0,0-.141-.142Z" fill="#adadad"/>
                  </g>
                </g>
                <g id="Group_100" data-name="Group 100">
                  <g id="path1215-2" data-name="path1215">
                    <path id="Path_224" data-name="Path 224" d="M253.79,260.42h-3.171a3.39,3.39,0,0,1-3.386-3.383l-.082-10.581a1.079,1.079,0,0,1,1.08-1.088h7.948a1.079,1.079,0,0,1,1.079,1.088l-.082,10.58a3.389,3.389,0,0,1-3.386,3.384Zm-5.559-14.114a.142.142,0,0,0-.142.142l.082,10.583h0a2.451,2.451,0,0,0,2.448,2.448h3.171a2.451,2.451,0,0,0,2.448-2.448h0l.082-10.583a.142.142,0,0,0-.141-.142Z" fill="#adadad"/>
                  </g>
                </g>
              </g>
              <g id="g1217">
                <g id="Group_101" data-name="Group 101">
                  <g id="path1219">
                    <path id="Path_225" data-name="Path 225" d="M250.287,247.995a.562.562,0,1,1-.562-.562.562.562,0,0,1,.562.562" fill="#adadad"/>
                  </g>
                </g>
                <g id="Group_102" data-name="Group 102">
                  <g id="path1219-2" data-name="path1219">
                    <path id="Path_226" data-name="Path 226" d="M250.287,247.995a.562.562,0,1,1-.562-.562.562.562,0,0,1,.562.562" fill="#adadad"/>
                  </g>
                </g>
              </g>
              <g id="g1221">
                <g id="Group_103" data-name="Group 103">
                  <g id="path1223">
                    <path id="Path_227" data-name="Path 227" d="M255.158,247.995a.562.562,0,1,1-.562-.562.562.562,0,0,1,.562.562" fill="#adadad"/>
                  </g>
                </g>
                <g id="Group_104" data-name="Group 104">
                  <g id="path1223-2" data-name="path1223">
                    <path id="Path_228" data-name="Path 228" d="M255.158,247.995a.562.562,0,1,1-.562-.562.562.562,0,0,1,.562.562" fill="#adadad"/>
                  </g>
                </g>
              </g>
              <g id="g1225">
                <g id="Group_105" data-name="Group 105">
                  <g id="path1227">
                    <path id="Path_229" data-name="Path 229" d="M250.287,250.283a.562.562,0,1,1-.164-.4.562.562,0,0,1,.164.4" fill="#adadad"/>
                  </g>
                </g>
                <g id="Group_106" data-name="Group 106">
                  <g id="path1227-2" data-name="path1227">
                    <path id="Path_230" data-name="Path 230" d="M250.287,250.283a.562.562,0,1,1-.164-.4.562.562,0,0,1,.164.4" fill="#adadad"/>
                  </g>
                </g>
              </g>
              <g id="g1229">
                <g id="Group_107" data-name="Group 107">
                  <g id="path1231">
                    <path id="Path_231" data-name="Path 231" d="M252.723,250.283a.562.562,0,1,1-.562-.563.562.562,0,0,1,.562.563" fill="#adadad"/>
                  </g>
                </g>
                <g id="Group_108" data-name="Group 108">
                  <g id="path1231-2" data-name="path1231">
                    <path id="Path_232" data-name="Path 232" d="M252.723,250.283a.562.562,0,1,1-.562-.563.562.562,0,0,1,.562.563" fill="#adadad"/>
                  </g>
                </g>
              </g>
              <g id="g1233">
                <g id="Group_109" data-name="Group 109">
                  <g id="path1235">
                    <path id="Path_233" data-name="Path 233" d="M255.158,250.283a.562.562,0,1,1-.164-.4.562.562,0,0,1,.164.4" fill="#adadad"/>
                  </g>
                </g>
                <g id="Group_110" data-name="Group 110">
                  <g id="path1235-2" data-name="path1235">
                    <path id="Path_234" data-name="Path 234" d="M255.158,250.283a.562.562,0,1,1-.164-.4.562.562,0,0,1,.164.4" fill="#adadad"/>
                  </g>
                </g>
              </g>
              <g id="g1237">
                <g id="Group_111" data-name="Group 111">
                  <g id="path1239">
                    <path id="Path_235" data-name="Path 235" d="M250.287,252.186a.561.561,0,1,1-.164-.4.562.562,0,0,1,.164.4" fill="#adadad"/>
                  </g>
                </g>
                <g id="Group_112" data-name="Group 112">
                  <g id="path1239-2" data-name="path1239">
                    <path id="Path_236" data-name="Path 236" d="M250.287,252.186a.561.561,0,1,1-.164-.4.562.562,0,0,1,.164.4" fill="#adadad"/>
                  </g>
                </g>
              </g>
              <g id="g1241">
                <g id="Group_113" data-name="Group 113">
                  <g id="path1243">
                    <path id="Path_237" data-name="Path 237" d="M252.723,252.186a.562.562,0,1,1-.562-.562.562.562,0,0,1,.562.562" fill="#adadad"/>
                  </g>
                </g>
                <g id="Group_114" data-name="Group 114">
                  <g id="path1243-2" data-name="path1243">
                    <path id="Path_238" data-name="Path 238" d="M252.723,252.186a.562.562,0,1,1-.562-.562.562.562,0,0,1,.562.562" fill="#adadad"/>
                  </g>
                </g>
              </g>
              <g id="g1245">
                <g id="Group_115" data-name="Group 115">
                  <g id="path1247">
                    <path id="Path_239" data-name="Path 239" d="M255.158,252.186a.561.561,0,1,1-.164-.4.562.562,0,0,1,.164.4" fill="#adadad"/>
                  </g>
                </g>
                <g id="Group_116" data-name="Group 116">
                  <g id="path1247-2" data-name="path1247">
                    <path id="Path_240" data-name="Path 240" d="M255.158,252.186a.561.561,0,1,1-.164-.4.562.562,0,0,1,.164.4" fill="#adadad"/>
                  </g>
                </g>
              </g>
              <g id="g1249">
                <g id="Group_117" data-name="Group 117">
                  <g id="path1251">
                    <path id="Path_241" data-name="Path 241" d="M252.161,257.625a.469.469,0,0,1-.469-.469v-2.078a.469.469,0,0,1,.938,0v2.078a.469.469,0,0,1-.469.469Z" fill="#adadad"/>
                  </g>
                </g>
                <g id="Group_118" data-name="Group 118">
                  <g id="path1251-2" data-name="path1251">
                    <path id="Path_242" data-name="Path 242" d="M252.161,257.625a.469.469,0,0,1-.469-.469v-2.078a.469.469,0,0,1,.938,0v2.078a.469.469,0,0,1-.469.469Z" fill="#adadad"/>
                  </g>
                </g>
              </g>
              <g id="g1253">
                <g id="Group_119" data-name="Group 119">
                  <g id="path1255">
                    <path id="Path_243" data-name="Path 243" d="M253.183,256.586h-2.045a.469.469,0,0,1,0-.938h2.045a.469.469,0,0,1,0,.938Z" fill="#adadad"/>
                  </g>
                </g>
                <g id="Group_120" data-name="Group 120">
                  <g id="path1255-2" data-name="path1255">
                    <path id="Path_244" data-name="Path 244" d="M253.183,256.586h-2.045a.469.469,0,0,1,0-.938h2.045a.469.469,0,0,1,0,.938Z" fill="#adadad"/>
                  </g>
                </g>
              </g>
            </g>
          </g>
        </g>
      </g>
    </g>
  </g>
</svg>
