<?xml version="1.0" encoding="UTF-8"?><svg id="Layer_1" xmlns="http://www.w3.org/2000/svg" viewBox="0 0 16 16"><defs><style>.cls-1{fill:#8A8BB5;}</style></defs><g id="requestFlow"><path id="Path_266" class="cls-1" d="M14.4,10.66h-5.33c-.88,0-1.6.72-1.6,1.6v2.13c0,.88.72,1.6,1.6,1.6h5.33c.88,0,1.6-.72,1.6-1.6h0v-2.13c0-.88-.72-1.6-1.6-1.6h0ZM14.93,14.39c0,.29-.24.53-.53.53h-5.33c-.29,0-.53-.24-.53-.53v-2.13c0-.29.24-.53.53-.53h5.33c.29,0,.53.24.53.53v2.13Z"/><path id="Path_267" class="cls-1" d="M14.4,0h-5.33C8.18,0,7.47.72,7.47,1.6h0v2.13c0,.88.72,1.6,1.6,1.6h5.33c.88,0,1.6-.72,1.6-1.6h0V1.6C16,.72,15.28,0,14.4,0h0ZM14.93,3.73c0,.29-.24.53-.53.53h-5.33c-.29,0-.53-.24-.53-.53V1.6c0-.29.24-.53.53-.53h5.33c.29,0,.53.24.53.53v2.13Z"/><path id="Path_268" class="cls-1" d="M1.6,13.86h2.98l-1.22,1.22c-.21.2-.22.54-.01.75s.54.22.75.01h.01s2.13-2.14,2.13-2.14c.21-.21.21-.55,0-.75l-2.13-2.13c-.2-.21-.54-.22-.75-.01-.21.2-.22.54-.01.75h.01s1.22,1.24,1.22,1.24H1.6c-.29,0-.53-.24-.53-.53V3.73c0-.29.24-.53.53-.53h4.26c.29-.01.52-.26.51-.56-.01-.28-.23-.5-.51-.51H1.6C.72,2.13,0,2.85,0,3.73H0v8.53c0,.88.72,1.6,1.6,1.6h0Z"/><path id="Path_269" class="cls-1" d="M15.46,7.46H5.86c-.29,0-.53.24-.53.53,0,.29.24.53.53.53h9.6c.29,0,.53-.24.53-.53,0-.29-.24-.53-.53-.53Z"/></g></svg>