<?xml version="1.0" encoding="UTF-8"?><svg id="Layer_1" xmlns="http://www.w3.org/2000/svg" viewBox="0 0 16 16"><defs><style>.cls-1{fill:none;}.cls-2{fill:#8A8BB5;}</style></defs><path class="cls-1" d="M8.8,8.65c.97.34,1.99.5,3.01.46,1.02.04,2.04-.11,3-.47-.96-.35-1.98-.51-3-.46-1.03-.05-2.05.11-3.01.47Z"/><path class="cls-1" d="M8.69,12.63v1.82c1,.35,2.06.51,3.12.46,1.08.09,2.17-.1,3.15-.57v-1.72c-1.09.41-2.7.44-3.15.44s-2.04-.03-3.12-.44ZM9.64,14.32c-.29,0-.53-.24-.53-.53,0-.29.24-.53.53-.53s.53.24.53.53-.24.53-.53.53Z"/><path class="cls-1" d="M8.69,9.74v1.72c.98.44,2.05.62,3.12.54,1.08.09,2.16-.1,3.14-.56v-1.71c-1.09.41-2.69.44-3.14.44s-2.04-.03-3.12-.44ZM9.64,11.45c-.29,0-.53-.24-.53-.53,0-.29.24-.53.53-.53s.53.24.53.53-.24.53-.53.53Z"/><path class="cls-1" d="M1.91,2.68h7.45v-1.6H1.91c-.44,0-.8.36-.8.8s.36.8.8.8Z"/><path class="cls-2" d="M15.64,7.94c-.91-.77-3.27-.82-3.83-.82s-2.95.05-3.85.84c-.21.08-.35.28-.34.51v5.98c0,1.46,3.49,1.53,4.19,1.53s4.19-.07,4.19-1.53v-5.98s0-.03,0-.05c0-.22-.16-.41-.36-.48ZM14.96,14.35c-.98.46-2.07.66-3.15.57-1.06.04-2.12-.12-3.12-.46v-1.82c1.09.4,2.68.44,3.12.44s2.05-.03,3.14-.44v1.72ZM11.81,9.11c-1.02.04-2.05-.11-3.01-.46.96-.36,1.99-.52,3.01-.47,1.02-.04,2.04.11,3,.46-.96.35-1.98.51-3,.47ZM14.95,11.44c-.98.46-2.06.65-3.14.56-1.07.08-2.14-.11-3.12-.54v-1.72c1.09.4,2.68.44,3.12.44s2.04-.03,3.13-.44v1.71Z"/><path class="cls-2" d="M9.64,10.38c-.29,0-.53.24-.53.53,0,.29.24.53.53.53s.53-.24.53-.53-.24-.53-.53-.53Z"/><path class="cls-2" d="M9.64,13.25c-.29,0-.53.24-.53.53,0,.29.24.53.53.53s.53-.24.53-.53-.24-.53-.53-.53Z"/><path class="cls-2" d="M6.56,13.62H1.91c-.43,0-.79-.34-.8-.77V3.58c.24.11.51.17.8.17h8.78v2.13c0,.29.24.53.53.53s.53-.24.53-.53v-2.66c0-.29-.24-.53-.53-.53h-.8V.55c0-.29-.24-.53-.53-.53H1.9s-.06,0-.09,0C.79.05-.02.9,0,1.93c0,.12.02.23.04.34v10.57c.02,1.01.85,1.82,1.86,1.81h4.65c.29,0,.52-.23.52-.52s-.23-.52-.52-.52ZM1.91,1.09h7.45v1.6H1.91c-.44,0-.8-.36-.8-.8s.36-.8.8-.8Z"/></svg>