<?xml version="1.0" encoding="UTF-8"?><svg id="Layer_1" xmlns="http://www.w3.org/2000/svg" xmlns:xlink="http://www.w3.org/1999/xlink" viewBox="0 0 16 16"><defs><style>.cls-1{fill:none;}.cls-2{fill:#8A8BB5;}.cls-3{clip-path:url(#clippath);}</style><clipPath id="clippath"><rect class="cls-1" y=".04" width="16" height="15.92"/></clipPath></defs><g id="run"><g class="cls-3"><g id="Group_16366"><path id="Path_61502" class="cls-2" d="M8.25,11.54l-.25-.06c-.04-.13-.09-.26-.15-.43l.13-.17c.21-.28.19-.66-.04-.92-.08-.08-.16-.16-.24-.24-.13-.12-.3-.18-.48-.18-.15,0-.31.05-.43.14l-.22.14c-.12-.06-.25-.11-.41-.19l-.03-.21c-.05-.34-.33-.6-.68-.62h-.15c-.06,0-.12,0-.18,0-.34.02-.62.28-.67.61l-.06.25c-.13.04-.26.09-.43.15l-.16-.13c-.12-.1-.28-.15-.43-.15-.18,0-.35.07-.48.19-.08.08-.16.16-.23.24-.23.25-.25.63-.04.91l.11.15.07-.02-.05.08c-.06.11-.11.23-.14.36l-.04.04v.02s-.22.03-.22.03c-.34.05-.6.33-.62.68v.34c.02.34.28.62.61.67l.25.06c.04.13.09.26.15.43l-.13.17c-.21.28-.19.66.04.92.08.08.15.16.24.24.25.23.63.24.91.04l.22-.14c.12.06.25.12.41.19l.03.21c.05.34.33.6.68.62h.34c.34-.02.62-.28.67-.61l.02-.15.04-.1c.13-.04.26-.1.43-.15l.17.13c.12.1.28.15.43.15.18,0,.35-.07.48-.19.08-.08.16-.15.24-.24.23-.25.25-.63.04-.91l-.14-.22c.06-.11.11-.23.14-.35l.05-.04v-.02s.22-.03.22-.03c.34-.05.6-.33.62-.68v-.34c-.02-.34-.28-.62-.61-.67M7.37,13.08c-.03.1-.07.19-.12.28-.12.25-.1.54.07.76l.13.22c-.07.08-.15.15-.24.19l-.17-.13c-.22-.17-.51-.19-.76-.07-.09.05-.19.09-.28.12-.26.08-.46.31-.5.58l-.07.25h-.15l-.16-.04-.03-.21c-.04-.27-.23-.5-.49-.58-.1-.03-.19-.07-.28-.12-.25-.12-.54-.1-.76.07l-.22.13c-.08-.07-.15-.15-.2-.25l.13-.17c.16-.22.19-.51.07-.75-.05-.09-.08-.19-.12-.28-.09-.26-.31-.45-.59-.49l-.25-.07c0-.11,0-.21.04-.31l.21-.03c.27-.04.5-.23.58-.49.03-.1.07-.19.12-.28.12-.25.1-.54-.07-.76l-.13-.22c.07-.08.15-.15.24-.2l.17.13c.22.17.51.19.75.07.09-.05.19-.09.28-.12.26-.09.45-.31.49-.59l.07-.25h.15l.16.04.03.22c.04.27.23.49.49.58.1.03.19.07.28.12.24.13.54.1.76-.07l.22-.13c.08.07.15.15.2.25l-.13.17c-.16.22-.19.51-.07.75.05.09.08.19.12.29.08.26.31.45.58.49l.25.07c0,.11,0,.21-.03.31l-.22.03c-.27.04-.5.23-.58.49"/><path id="Path_61503" class="cls-2" d="M13.58,9.06l-.22-.11c-.07-.03-.12-.11-.12-.19,0-.11,0-.22,0-.34,0-.08.04-.16.12-.19l.22-.1c.39-.19.59-.63.47-1.05l-.06-.19c-.12-.35-.45-.59-.82-.59-.05,0-.11,0-.16.01l-.28.05c-.07,0-.13-.03-.17-.09-.06-.09-.13-.18-.2-.27-.05-.06-.06-.15-.02-.22l.12-.21c.21-.38.11-.86-.24-1.12l-.16-.12c-.15-.1-.32-.16-.5-.16-.24,0-.47.1-.64.27l-.17.18s-.09.07-.15.07c-.02,0-.05,0-.07-.01-.11-.04-.21-.07-.32-.11-.08-.02-.14-.09-.15-.17l-.03-.24c-.06-.43-.42-.76-.85-.77h-.2c-.43,0-.8.33-.85.76l-.03.24c0,.08-.07.15-.14.17-.11.03-.22.06-.32.1-.02,0-.05.01-.07.01-.06,0-.11-.03-.14-.07l-.17-.18c-.3-.32-.78-.37-1.14-.12l-.16.12c-.35.26-.45.74-.24,1.12l.12.22c.04.07.03.16-.02.22-.07.09-.14.18-.2.27-.04.06-.12.09-.19.09h-.02l-.24-.04c-.05-.01-.11-.02-.17-.02-.37,0-.71.24-.83.59l-.06.19c-.13.41.07.86.46,1.04l.22.11s.05.03.07.05c.06.07.16.11.25.11.08,0,.16-.03.22-.09.07-.06.11-.14.11-.23,0-.09-.03-.18-.09-.24-.08-.09-.17-.16-.28-.21l-.22-.11c-.09-.04-.14-.14-.11-.24l.05-.17c.03-.08.11-.13.19-.14h.07s.22.05.22.05c.05.01.11.02.16.02.29,0,.57-.15.73-.39.05-.08.1-.15.16-.22.22-.28.26-.66.09-.97l-.12-.22c-.05-.09-.03-.2.05-.26l.14-.11s.07-.04.11-.03c.06,0,.12.03.16.08l.16.17c.17.17.39.27.63.27.1,0,.21-.02.31-.05.08-.03.17-.06.26-.08.34-.09.59-.38.64-.74l.03-.24c.01-.1.1-.18.2-.18h.18c.1,0,.18.08.19.18l.03.25c.05.35.3.63.63.73.09.02.17.05.26.09.1.04.2.05.31.05.24,0,.47-.1.64-.28l.17-.18s.09-.06.15-.06c.04,0,.08.01.11.04l.14.1c.08.06.1.18.05.26l-.11.21c-.17.31-.13.69.09.96.06.07.11.14.16.22.16.25.43.4.73.4.06,0,.11,0,.16-.01l.28-.05c.09,0,.16.05.19.14l.06.17c.03.1-.03.21-.13.25l-.2.1c-.32.15-.52.48-.5.83v.27c-.02.35.18.68.5.83l.22.1c.09.04.14.15.11.24l-.05.17c-.04.09-.13.14-.22.13l-.26-.05c-.34-.06-.7.08-.89.38-.05.08-.1.15-.16.22-.22.28-.25.66-.08.97l.12.21c.05.09.03.2-.05.26l-.14.11s-.07.04-.11.03c-.06,0-.11-.02-.15-.06l-.17-.18c-.16-.17-.39-.27-.63-.27-.1,0-.21.02-.31.06-.08.03-.17.06-.26.08-.34.09-.59.38-.64.73l-.03.24c0,.08-.07.15-.16.17-.09.02-.16.07-.21.15-.05.07-.06.17-.04.25.04.15.17.26.33.26h.07c.36-.09.63-.39.68-.75l.03-.24c0-.08.07-.15.14-.17.11-.03.22-.06.32-.1.02,0,.05-.01.07-.01.06,0,.11.02.15.06l.17.18c.3.32.78.37,1.14.12l.16-.12c.35-.26.45-.74.24-1.11l-.12-.22c-.04-.07-.03-.16.02-.22.07-.09.14-.18.2-.27.04-.06.12-.09.19-.09h.02l.24.04c.05.01.11.02.17.02.37,0,.7-.24.83-.59l.06-.19c.13-.41-.07-.86-.46-1.04"/><path id="Path_61504" class="cls-2" d="M5.28,10.96c-.78,0-1.42.63-1.42,1.41,0,.78.63,1.42,1.41,1.42.78,0,1.42-.63,1.42-1.41,0,0,0,0,0,0,0-.78-.63-1.42-1.41-1.42M5.28,13.12c-.41,0-.74-.33-.74-.74,0-.41.33-.74.74-.74.41,0,.74.33.74.74,0,.41-.33.74-.74.74"/><path id="Path_61505" class="cls-2" d="M9.07,10.42c-.07,0-.13,0-.23-.01-.19,0-.34.15-.34.34,0,.08.03.15.07.21.06.07.14.11.23.12.09,0,.18.01.27.02,1.38,0,2.5-1.12,2.5-2.5s-1.12-2.5-2.5-2.5-2.5,1.12-2.5,2.5h0c0,.09,0,.18.01.27.02.18.18.31.37.3h0c.09,0,.18-.05.23-.13.06-.07.08-.16.07-.25,0-.07-.01-.13-.01-.2,0-1.01.82-1.83,1.83-1.83,1.01,0,1.83.82,1.83,1.83,0,1.01-.82,1.83-1.83,1.83h0"/><path id="Path_61506" class="cls-2" d="M.42,10.11c-.23,0-.42-.19-.42-.42C0,4.37,4.3.04,9.62.03c1.79,0,3.54.49,5.07,1.43l.29.18-.19-1.1c-.02-.11,0-.22.07-.31.06-.09.16-.15.27-.17.02,0,.05,0,.07,0,.2,0,.38.15.41.35l.38,2.14c.01.08,0,.16-.03.23,0,.01-.01.02-.02.03h0s-.02.04-.02.04h0s-.02.04-.02.04h-.01s-.01.02-.01.02c-.06.07-.15.11-.24.13l-2.13.38s-.05,0-.07,0c-.23,0-.42-.19-.42-.42,0-.09.03-.17.08-.24.06-.09.16-.15.27-.17l1.2-.21-.35-.21c-.48-.29-.98-.53-1.5-.73C8.15-.26,3.08,2.07,1.39,6.63c-.36.98-.55,2.01-.55,3.06,0,.23-.19.42-.42.42"/></g></g></g></svg>