<?xml version="1.0" encoding="UTF-8"?><svg id="Layer_1" xmlns="http://www.w3.org/2000/svg" viewBox="0 0 16 16"><defs><style>.cls-1{fill-rule:evenodd;}.cls-1,.cls-2{fill:#8A8BB5;}</style></defs><g id="sapABAP"><g id="ABAP"><path id="Path_3" class="cls-1" d="M5.89,4.88l.6,1.91c-.19.07-.4.1-.6.1-.21,0-.42-.03-.61-.11l.61-1.91h0Z"/><path id="Path_4" class="cls-1" d="M10.52,5.23c0,.59-.45.78-1.01.78h-.42v-1.54h.42c.56,0,1.01.19,1.01.76"/><path id="Path_5" class="cls-2" d="M0,2.12v7.58h8.08l7.92-7.58H0ZM9.75,6.85h-.51v1.34h-2.39l-.17-.58c-.54.17-1.12.17-1.67,0l-.24.59h-1.34l.06-.29-.06.05c-.4.28-.87.43-1.36.42h-.14c-.6,0-1.19-.14-1.72-.43l.49-.92c.39.25.84.37,1.3.36.18.02.36-.04.51-.15.06-.06.1-.15.1-.23,0-.24-.35-.35-.79-.48-.38-.1-.74-.26-1.07-.47-.36-.23-.56-.63-.54-1.05,0-.33.14-.65.38-.88.43-.38,1-.58,1.58-.56.62,0,1.22.14,1.78.4l-.55.91c-.36-.19-.75-.29-1.15-.3-.47-.02-.71.14-.71.31,0,.21.45.4.87.53.64.2,1.46.46,1.58,1.21l1.18-2.96h1.37l1.38,3.56v-3.56h1.58c1.51,0,2.21.49,2.21,1.61,0,1.01-.73,1.61-1.96,1.61"/><path id="Path_6" class="cls-2" d="M2.09,13.36H.99l-.18.52H.07l1.06-2.93h.82l1.07,2.93h-.76l-.17-.52ZM1.9,12.8l-.37-1.07-.35,1.07h.73ZM5.07,12.38c.16.03.31.12.41.25.24.32.2.77-.1,1.04-.21.15-.46.23-.72.22h-1.37v-2.93h1.32c.25-.02.5.05.7.2.29.25.34.68.12.98-.09.12-.22.2-.36.24M4.01,12.13h.47c.1,0,.19-.02.27-.08.12-.13.12-.33,0-.46-.08-.06-.17-.09-.27-.08h-.47v.61ZM4.54,13.3c.1,0,.2-.02.28-.08.07-.06.11-.15.1-.24,0-.09-.03-.18-.1-.24-.08-.06-.18-.09-.28-.09h-.52v.65h.52ZM7.83,13.35h-1.09l-.17.52h-.75l1.06-2.93h.83l1.06,2.93h-.76l-.18-.52ZM7.65,12.8l-.36-1.07-.36,1.07h.72ZM11.27,11.89c0,.16-.04.32-.12.47-.08.15-.21.26-.36.34-.19.09-.39.13-.6.13h-.44v1.05h-.72v-2.93h1.16c.2,0,.41.03.59.12.15.07.28.19.36.33.08.15.12.32.12.49M10.14,12.26c.11,0,.22-.03.3-.1.13-.16.13-.39,0-.56-.08-.07-.19-.1-.3-.09h-.39v.74h.39Z"/></g></g></svg>