<?xml version="1.0" encoding="UTF-8"?><svg id="Layer_1" xmlns="http://www.w3.org/2000/svg" viewBox="0 0 16 16"><defs><style>.cls-1{fill-rule:evenodd;}.cls-1,.cls-2{fill:#adadad;}</style></defs><g id="schedules"><g id="Group_194"><path id="Path_316" class="cls-2" d="M10.9,16c-2.82,0-5.1-2.28-5.1-5.1s2.28-5.1,5.1-5.1c2.04.03,3.88,1.24,4.7,3.11.28.63.41,1.3.4,1.99,0,2.82-2.28,5.1-5.1,5.1ZM10.9,6.67c-2.34,0-4.23,1.9-4.23,4.23s1.9,4.23,4.23,4.23c2.34,0,4.23-1.9,4.23-4.23s-1.9-4.23-4.23-4.23h0Z"/><path id="Path_317" class="cls-2" d="M10.9,5.9c-2.76,0-5,2.24-5,5s2.24,5,5,5,5-2.24,5-5-2.24-5-5-5ZM10.9,15.23c-2.39,0-4.33-1.94-4.33-4.33,0-2.39,1.94-4.33,4.33-4.33,2.39,0,4.33,1.94,4.33,4.33s-1.94,4.33-4.33,4.33h0Z"/><path id="Path_318" class="cls-2" d="M12.61,13.06c-.11,0-.23-.05-.31-.13l-1.67-1.67c-.08-.08-.13-.19-.13-.31v-3.33c0-.24.19-.43.43-.43.24,0,.43.19.43.43h0v3.2l1.54,1.5c.17.17.17.44,0,.61-.08.08-.19.13-.31.13h0Z"/><path id="Path_319" class="cls-2" d="M12.85,12.39c.13.13.13.34,0,.47s-.34.13-.47,0l-1.67-1.67c-.06-.06-.1-.15-.1-.24v-3.33c0-.18.15-.33.33-.34.18,0,.33.15.34.33h0v3.2l1.57,1.56Z"/><g id="Group_163"><g id="Group_159"><g id="Group_158"><g id="Group_157"><path id="Path_320" class="cls-1" d="M1.74,13.2c-.46,0-.91-.19-1.23-.52C.18,12.35,0,11.9,0,11.43V3.1c0-.97.77-1.76,1.74-1.77h11.17c.97,0,1.75.8,1.74,1.77v3c.01.24-.17.44-.41.45-.24.01-.44-.17-.45-.41,0-.01,0-.03,0-.04v-1.4H.85v6.73c0,.24.09.47.26.64.17.17.39.26.63.26h3.52c.24.01.42.21.41.45-.01.22-.19.4-.41.41H1.74ZM13.8,3.83v-.73c0-.49-.4-.89-.89-.9H1.74c-.49,0-.89.41-.89.9v.73h12.95ZM3.24,10.2c-.24,0-.43-.19-.43-.43,0-.24.19-.43.43-.43h1.29c.24,0,.43.19.43.43,0,.24-.19.43-.43.43h-1.29ZM3.24,7.37c-.24-.01-.42-.21-.41-.45.01-.22.19-.4.41-.41h1.29c.24.01.42.21.41.45-.01.22-.19.4-.41.41h-1.29ZM9.96.87c-.24-.01-.42-.21-.41-.45.01-.22.19-.4.41-.41h1.97c.24.01.42.21.41.45-.01.22-.19.4-.41.41h-1.97ZM2.73.87c-.24-.01-.42-.21-.41-.45.01-.22.19-.4.41-.41h1.97c.24.01.42.21.41.45-.01.22-.19.4-.41.41h-1.97Z"/><path id="Path_321" class="cls-1" d="M.1,11.43V3.1c0-.91.73-1.66,1.64-1.67h11.17c.91,0,1.65.75,1.64,1.67h0v3c0,.18-.13.34-.31.35s-.34-.13-.35-.31c0-.01,0-.02,0-.04v-1.5H.76v6.83c0,.26.1.52.29.71.18.19.44.29.7.29h3.52c.18.01.33.17.32.35,0,.17-.15.31-.32.32H1.75c-.44,0-.86-.18-1.16-.49-.31-.31-.48-.74-.48-1.18h0ZM13.9,3.93v-.83c0-.55-.44-1-.99-1H1.74c-.55,0-.99.45-.99,1v.83h13.14ZM2.74.77c-.18-.01-.33-.17-.32-.35,0-.17.15-.31.32-.32h1.97c.18.01.33.17.32.35,0,.17-.15.31-.32.32h-1.97ZM9.97.77c-.18-.01-.33-.17-.32-.35,0-.17.15-.31.32-.32h1.97c.18.01.33.17.32.35,0,.17-.15.31-.32.32h-1.97ZM3.25,7.27c-.18-.01-.33-.17-.32-.35,0-.17.15-.31.32-.32h1.28c.18.01.33.17.32.35,0,.17-.15.31-.32.32h-1.28ZM3.25,10.1c-.18,0-.33-.15-.34-.33,0-.18.15-.33.33-.34h1.29c.18,0,.33.15.33.34,0,.18-.15.33-.33.33h-1.28Z"/></g></g></g><g id="Group_162"><g id="Group_161"><g id="Group_160"><path id="Path_322" class="cls-2" d="M1.74,13.2c-.46,0-.91-.19-1.23-.52C.18,12.35,0,11.9,0,11.43V3.1c0-.97.77-1.76,1.74-1.77h11.17c.97,0,1.75.8,1.74,1.77v3c.01.24-.17.44-.41.45-.24.01-.44-.17-.45-.41,0-.01,0-.03,0-.04v-1.4H.85v6.73c0,.24.09.47.26.64.17.17.39.26.63.26h3.52c.24.01.42.21.41.45-.01.22-.19.4-.41.41H1.74ZM13.8,3.83v-.73c0-.49-.4-.89-.89-.9H1.74c-.49,0-.89.41-.89.9v.73h12.95ZM3.24,10.2c-.24,0-.43-.19-.43-.43,0-.24.19-.43.43-.43h1.29c.24,0,.43.19.43.43,0,.24-.19.43-.43.43h-1.29ZM3.24,7.37c-.24-.01-.42-.21-.41-.45.01-.22.19-.4.41-.41h1.29c.24.01.42.21.41.45-.01.22-.19.4-.41.41h-1.29ZM9.96.87c-.24-.01-.42-.21-.41-.45.01-.22.19-.4.41-.41h1.97c.24.01.42.21.41.45-.01.22-.19.4-.41.41h-1.97ZM2.73.87c-.24-.01-.42-.21-.41-.45.01-.22.19-.4.41-.41h1.97c.24.01.42.21.41.45-.01.22-.19.4-.41.41h-1.97Z"/><path id="Path_323" class="cls-2" d="M.1,11.43V3.1c0-.91.73-1.66,1.64-1.67h11.17c.91,0,1.65.75,1.64,1.67h0v3c0,.18-.13.34-.31.35s-.34-.13-.35-.31c0-.01,0-.02,0-.04v-1.5H.76v6.83c0,.26.1.52.29.71.18.19.44.29.7.29h3.52c.18.01.33.17.32.35,0,.17-.15.31-.32.32H1.75c-.44,0-.86-.18-1.16-.49-.31-.31-.48-.74-.48-1.18h0ZM13.9,3.93v-.83c0-.55-.44-1-.99-1H1.74c-.55,0-.99.45-.99,1v.83h13.14ZM2.74.77c-.18-.01-.33-.17-.32-.35,0-.17.15-.31.32-.32h1.97c.18.01.33.17.32.35,0,.17-.15.31-.32.32h-1.97ZM9.97.77c-.18-.01-.33-.17-.32-.35,0-.17.15-.31.32-.32h1.97c.18.01.33.17.32.35,0,.17-.15.31-.32.32h-1.97ZM3.25,7.27c-.18-.01-.33-.17-.32-.35,0-.17.15-.31.32-.32h1.28c.18.01.33.17.32.35,0,.17-.15.31-.32.32h-1.28ZM3.25,10.1c-.18,0-.33-.15-.34-.33,0-.18.15-.33.33-.34h1.29c.18,0,.33.15.33.34,0,.18-.15.33-.33.33h-1.28Z"/></g></g></g></g></g></g></svg>