<?xml version="1.0" encoding="UTF-8"?><svg id="Layer_1" xmlns="http://www.w3.org/2000/svg" viewBox="0 0 16 16"><defs><style>.cls-1{fill:#8A8BB5;}.cls-2{fill:#adadad;}</style></defs><g id="service"><g id="Group_197"><g id="Setting"><g id="Group_174"><g id="Group_170"><g id="Group_168"><path id="Path_341" class="cls-1" d="M8,11.93c-2.25,0-4.07-1.82-4.07-4.07,0-2.25,1.82-4.07,4.07-4.07,2.25,0,4.07,1.82,4.07,4.07h0c0,2.25-1.82,4.07-4.07,4.07ZM8,4.61c-1.79,0-3.25,1.45-3.25,3.25,0,1.79,1.45,3.25,3.25,3.25,1.79,0,3.25-1.45,3.25-3.25s-1.45-3.25-3.25-3.25h0Z"/><path id="Path_342" class="cls-1" d="M8,11.83c-2.19,0-3.97-1.78-3.97-3.97s1.78-3.97,3.97-3.97,3.97,1.78,3.97,3.97h0c0,2.19-1.78,3.97-3.97,3.97ZM8,4.51c-1.85,0-3.35,1.5-3.35,3.35s1.5,3.35,3.35,3.35,3.35-1.5,3.35-3.35h0c0-1.85-1.5-3.35-3.35-3.35Z"/></g><g id="Group_169"><path id="Path_343" class="cls-1" d="M8,11.93c-2.25,0-4.07-1.82-4.07-4.07,0-2.25,1.82-4.07,4.07-4.07,2.25,0,4.07,1.82,4.07,4.07h0c0,2.25-1.82,4.07-4.07,4.07ZM8,4.61c-1.79,0-3.25,1.45-3.25,3.25,0,1.79,1.45,3.25,3.25,3.25,1.79,0,3.25-1.45,3.25-3.25s-1.45-3.25-3.25-3.25h0Z"/><path id="Path_344" class="cls-1" d="M8,11.83c-2.19,0-3.97-1.78-3.97-3.97s1.78-3.97,3.97-3.97,3.97,1.78,3.97,3.97h0c0,2.19-1.78,3.97-3.97,3.97ZM8,4.51c-1.85,0-3.35,1.5-3.35,3.35s1.5,3.35,3.35,3.35,3.35-1.5,3.35-3.35h0c0-1.85-1.5-3.35-3.35-3.35Z"/></g></g><g id="Group_173"><g id="Group_171"><path id="Path_345" class="cls-2" d="M7.46,16c-.65,0-1.18-.53-1.18-1.18v-.93c-.43-.12-.85-.29-1.25-.51l-.65.65c-.46.46-1.21.46-1.67,0h0s-.76-.76-.76-.76c-.46-.46-.46-1.21,0-1.67h0s.61-.61.61-.61c-.24-.41-.43-.84-.56-1.29h-.83C.53,9.71,0,9.18,0,8.53v-1.07c0-.65.53-1.18,1.18-1.18h.75c.12-.48.31-.95.54-1.39l-.51-.51c-.46-.46-.46-1.2,0-1.66h0s.76-.76.76-.76c.46-.46,1.21-.46,1.67,0l.47.47c.45-.26.93-.46,1.43-.6v-.65C6.29.53,6.81,0,7.46,0h1.07c.65,0,1.18.53,1.18,1.18v.65c.5.14.98.34,1.43.6l.47-.47c.46-.46,1.21-.46,1.67,0l.76.76c.46.46.46,1.21,0,1.67h0s-.51.51-.51.51c.24.44.42.9.54,1.39h.75c.65,0,1.18.53,1.18,1.18v1.07c0,.65-.53,1.18-1.18,1.18h-.83c-.14.45-.33.88-.57,1.29l.61.61c.46.46.46,1.21,0,1.67h0s-.76.76-.76.76c-.46.46-1.21.46-1.67,0h0s-.65-.65-.65-.65c-.4.21-.82.38-1.25.51v.93c0,.65-.53,1.18-1.18,1.18h-1.07ZM4.96,12.47c.07,0,.15.02.21.06.5.3,1.04.52,1.6.65.19.04.32.21.32.4v1.25c0,.2.16.36.36.36h1.07c.2,0,.36-.16.36-.36v-1.24c0-.19.13-.36.32-.4.57-.13,1.11-.35,1.61-.65.06-.04.14-.06.21-.06.11,0,.21.04.29.12l.87.87c.07.07.16.11.26.11.1,0,.19-.04.26-.11l.76-.76c.14-.14.14-.37,0-.51h0s-.84-.84-.84-.84c-.14-.14-.16-.35-.05-.51.33-.5.57-1.05.72-1.63.05-.18.21-.31.39-.31h1.14c.2,0,.36-.16.37-.36v-1.07c0-.2-.16-.36-.37-.36h-1.07c-.19,0-.36-.14-.4-.33-.12-.61-.35-1.2-.68-1.73-.1-.16-.07-.37.06-.5l.73-.73c.07-.07.11-.16.11-.26,0-.1-.04-.19-.11-.26l-.76-.76c-.07-.07-.16-.11-.26-.11-.1,0-.19.04-.26.11l-.7.7c-.14.14-.35.16-.51.05-.54-.35-1.14-.6-1.76-.75-.19-.04-.32-.21-.32-.4v-.97c0-.2-.16-.36-.36-.36h-1.07c-.2,0-.36.16-.36.36v.97c0,.19-.13.36-.32.4-.63.14-1.22.4-1.76.75-.16.1-.37.08-.51-.05l-.7-.7c-.14-.14-.37-.14-.52,0l-.76.76c-.07.07-.11.16-.11.26,0,.1.04.19.11.26l.73.73c.13.13.16.34.06.5-.32.53-.55,1.12-.68,1.73-.04.19-.21.33-.4.33h-1.06c-.2,0-.36.16-.37.36v1.07c0,.2.16.36.37.36h1.14c.19,0,.35.12.4.31.15.58.39,1.13.72,1.63.11.16.08.38-.05.51l-.84.84c-.14.14-.14.37,0,.51,0,0,0,0,0,0l.76.76c.14.14.37.14.52,0l.87-.87c.07-.08.18-.12.28-.12h0Z"/><path id="Path_346" class="cls-2" d="M8.53,15.9h-1.07c-.6,0-1.08-.48-1.08-1.08v-1c-.48-.13-.93-.31-1.37-.55l-.7.7c-.42.42-1.1.42-1.53,0h0s-.76-.76-.76-.76c-.42-.42-.42-1.1,0-1.53h0s.66-.67.66-.67c-.26-.44-.47-.91-.61-1.4h-.9c-.6,0-1.08-.48-1.08-1.08v-1.07c0-.6.48-1.08,1.08-1.08h.83c.13-.52.33-1.03.59-1.5l-.56-.56c-.42-.42-.42-1.1,0-1.53h0s.76-.76.76-.76c.42-.42,1.11-.42,1.53,0l.53.53c.48-.29,1-.51,1.54-.65v-.73c0-.6.48-1.08,1.08-1.08h1.07c.6,0,1.08.48,1.08,1.08v.73c.54.15,1.06.37,1.54.65l.53-.53c.42-.42,1.11-.42,1.53,0l.76.76c.42.42.42,1.11,0,1.53l-.56.56c.26.47.46.98.59,1.5h.83c.6,0,1.08.48,1.08,1.08v1.07c0,.6-.48,1.08-1.08,1.08h-.9c-.15.49-.35.96-.61,1.4l.66.66c.42.42.42,1.11,0,1.53l-.76.76c-.42.42-1.1.42-1.52,0h0s-.7-.7-.7-.7c-.43.24-.89.42-1.37.55v1c0,.6-.48,1.08-1.08,1.08h-.01ZM4.97,12.57c.06,0,.11.02.16.04.51.31,1.06.53,1.63.66.14.03.24.16.24.3v1.25c0,.26.21.46.46.46h1.07c.26,0,.46-.21.46-.46v-1.24c0-.14.1-.27.24-.3.58-.13,1.13-.35,1.63-.66.12-.07.28-.05.38.05l.87.87c.18.18.47.18.65,0,0,0,0,0,0,0l.76-.76c.18-.18.18-.47,0-.66l-.84-.84c-.1-.1-.12-.26-.04-.39.33-.51.58-1.07.73-1.66.03-.14.16-.23.3-.23h1.14c.26,0,.46-.21.46-.46v-1.07c0-.26-.21-.46-.46-.46h-1.08c-.15,0-.27-.11-.3-.25-.13-.62-.36-1.22-.69-1.76-.07-.12-.05-.28.05-.38l.73-.73c.18-.18.18-.47,0-.66l-.76-.76c-.18-.18-.47-.18-.65,0l-.7.7c-.1.1-.26.12-.39.04-.55-.36-1.15-.62-1.79-.76-.14-.03-.24-.16-.24-.3v-.97c0-.26-.21-.46-.46-.46h-1.07c-.26,0-.46.21-.46.46v.97c0,.14-.1.27-.24.3-.64.14-1.25.4-1.79.76-.12.08-.28.06-.39-.04l-.7-.7c-.18-.18-.47-.18-.66,0l-.76.76c-.18.18-.18.47,0,.65,0,0,0,0,0,0l.73.73c.1.1.12.26.05.38-.33.54-.56,1.14-.69,1.76-.03.14-.15.25-.3.25h-1.08c-.25,0-.46.21-.46.46v1.07c0,.26.21.46.46.46h1.14c.14,0,.27.1.3.23.15.59.4,1.15.73,1.66.08.12.06.28-.04.39l-.84.84c-.18.18-.18.47,0,.65,0,0,0,0,0,0l.76.76c.18.18.47.18.65,0,0,0,0,0,0,0l.87-.87c.06-.06.14-.09.22-.09h0Z"/></g><g id="Group_172"><path id="Path_347" class="cls-1" d="M7.46,16c-.65,0-1.18-.53-1.18-1.18v-.93c-.43-.12-.85-.29-1.25-.51l-.65.65c-.46.46-1.21.46-1.67,0h0s-.76-.76-.76-.76c-.46-.46-.46-1.21,0-1.67h0s.61-.61.61-.61c-.24-.41-.43-.84-.56-1.29h-.83C.53,9.71,0,9.18,0,8.53v-1.07c0-.65.53-1.18,1.18-1.18h.75c.12-.48.31-.95.54-1.39l-.51-.51c-.46-.46-.46-1.2,0-1.66h0s.76-.76.76-.76c.46-.46,1.21-.46,1.67,0l.47.47c.45-.26.93-.46,1.43-.6v-.65C6.29.53,6.81,0,7.46,0h1.07c.65,0,1.18.53,1.18,1.18v.65c.5.14.98.34,1.43.6l.47-.47c.46-.46,1.21-.46,1.67,0l.76.76c.46.46.46,1.21,0,1.67h0s-.51.51-.51.51c.24.44.42.9.54,1.39h.75c.65,0,1.18.53,1.18,1.18v1.07c0,.65-.53,1.18-1.18,1.18h-.83c-.14.45-.33.88-.57,1.29l.61.61c.46.46.46,1.21,0,1.67h0s-.76.76-.76.76c-.46.46-1.21.46-1.67,0h0s-.65-.65-.65-.65c-.4.21-.82.38-1.25.51v.93c0,.65-.53,1.18-1.18,1.18h-1.07ZM4.96,12.47c.07,0,.15.02.21.06.5.3,1.04.52,1.6.65.19.04.32.21.32.4v1.25c0,.2.16.36.36.36h1.07c.2,0,.36-.16.36-.36v-1.24c0-.19.13-.36.32-.4.57-.13,1.11-.35,1.61-.65.06-.04.14-.06.21-.06.11,0,.21.04.29.12l.87.87c.07.07.16.11.26.11.1,0,.19-.04.26-.11l.76-.76c.14-.14.14-.37,0-.51h0s-.84-.84-.84-.84c-.14-.14-.16-.35-.05-.51.33-.5.57-1.05.72-1.63.05-.18.21-.31.39-.31h1.14c.2,0,.36-.16.37-.36v-1.07c0-.2-.16-.36-.37-.36h-1.07c-.19,0-.36-.14-.4-.33-.12-.61-.35-1.2-.68-1.73-.1-.16-.07-.37.06-.5l.73-.73c.07-.07.11-.16.11-.26,0-.1-.04-.19-.11-.26l-.76-.76c-.07-.07-.16-.11-.26-.11-.1,0-.19.04-.26.11l-.7.7c-.14.14-.35.16-.51.05-.54-.35-1.14-.6-1.76-.75-.19-.04-.32-.21-.32-.4v-.97c0-.2-.16-.36-.36-.36h-1.07c-.2,0-.36.16-.36.36v.97c0,.19-.13.36-.32.4-.63.14-1.22.4-1.76.75-.16.1-.37.08-.51-.05l-.7-.7c-.14-.14-.37-.14-.52,0l-.76.76c-.07.07-.11.16-.11.26,0,.1.04.19.11.26l.73.73c.13.13.16.34.06.5-.32.53-.55,1.12-.68,1.73-.04.19-.21.33-.4.33h-1.06c-.2,0-.36.16-.37.36v1.07c0,.2.16.36.37.36h1.14c.19,0,.35.12.4.31.15.58.39,1.13.72,1.63.11.16.08.38-.05.51l-.84.84c-.14.14-.14.37,0,.51,0,0,0,0,0,0l.76.76c.14.14.37.14.52,0l.87-.87c.07-.08.18-.12.28-.12h0Z"/><path id="Path_348" class="cls-1" d="M8.53,15.9h-1.07c-.6,0-1.08-.48-1.08-1.08v-1c-.48-.13-.93-.31-1.37-.55l-.7.7c-.42.42-1.1.42-1.53,0h0s-.76-.76-.76-.76c-.42-.42-.42-1.1,0-1.53h0s.66-.67.66-.67c-.26-.44-.47-.91-.61-1.4h-.9c-.6,0-1.08-.48-1.08-1.08v-1.07c0-.6.48-1.08,1.08-1.08h.83c.13-.52.33-1.03.59-1.5l-.56-.56c-.42-.42-.42-1.1,0-1.53h0s.76-.76.76-.76c.42-.42,1.11-.42,1.53,0l.53.53c.48-.29,1-.51,1.54-.65v-.73c0-.6.48-1.08,1.08-1.08h1.07c.6,0,1.08.48,1.08,1.08v.73c.54.15,1.06.37,1.54.65l.53-.53c.42-.42,1.11-.42,1.53,0l.76.76c.42.42.42,1.11,0,1.53l-.56.56c.26.47.46.98.59,1.5h.83c.6,0,1.08.48,1.08,1.08v1.07c0,.6-.48,1.08-1.08,1.08h-.9c-.15.49-.35.96-.61,1.4l.66.66c.42.42.42,1.11,0,1.53l-.76.76c-.42.42-1.1.42-1.52,0h0s-.7-.7-.7-.7c-.43.24-.89.42-1.37.55v1c0,.6-.48,1.08-1.08,1.08h-.01ZM4.97,12.57c.06,0,.11.02.16.04.51.31,1.06.53,1.63.66.14.03.24.16.24.3v1.25c0,.26.21.46.46.46h1.07c.26,0,.46-.21.46-.46v-1.24c0-.14.1-.27.24-.3.58-.13,1.13-.35,1.63-.66.12-.07.28-.05.38.05l.87.87c.18.18.47.18.65,0,0,0,0,0,0,0l.76-.76c.18-.18.18-.47,0-.66l-.84-.84c-.1-.1-.12-.26-.04-.39.33-.51.58-1.07.73-1.66.03-.14.16-.23.3-.23h1.14c.26,0,.46-.21.46-.46v-1.07c0-.26-.21-.46-.46-.46h-1.08c-.15,0-.27-.11-.3-.25-.13-.62-.36-1.22-.69-1.76-.07-.12-.05-.28.05-.38l.73-.73c.18-.18.18-.47,0-.66l-.76-.76c-.18-.18-.47-.18-.65,0l-.7.7c-.1.1-.26.12-.39.04-.55-.36-1.15-.62-1.79-.76-.14-.03-.24-.16-.24-.3v-.97c0-.26-.21-.46-.46-.46h-1.07c-.26,0-.46.21-.46.46v.97c0,.14-.1.27-.24.3-.64.14-1.25.4-1.79.76-.12.08-.28.06-.39-.04l-.7-.7c-.18-.18-.47-.18-.66,0l-.76.76c-.18.18-.18.47,0,.65,0,0,0,0,0,0l.73.73c.1.1.12.26.05.38-.33.54-.56,1.14-.69,1.76-.03.14-.15.25-.3.25h-1.08c-.25,0-.46.21-.46.46v1.07c0,.26.21.46.46.46h1.14c.14,0,.27.1.3.23.15.59.4,1.15.73,1.66.08.12.06.28-.04.39l-.84.84c-.18.18-.18.47,0,.65,0,0,0,0,0,0l.76.76c.18.18.47.18.65,0,0,0,0,0,0,0l.87-.87c.06-.06.14-.09.22-.09h0Z"/></g></g></g></g></g></g></svg>