<?xml version="1.0" encoding="UTF-8"?><svg id="Layer_1" xmlns="http://www.w3.org/2000/svg" viewBox="0 0 16 16"><defs><style>.cls-1{fill:none;}.cls-2{fill:#adadad;}</style></defs><g id="SNMPTraps"><g id="Group_16295"><circle id="Ellipse_10" class="cls-1" cx="1.72" cy="12.07" r=".78"/><circle id="Ellipse_11" class="cls-1" cx="7.99" cy="14.26" r=".78"/><circle id="Ellipse_12" class="cls-1" cx="14.27" cy="12.07" r=".78"/><path id="Path_354" class="cls-1" d="M15.05,6.45c0-1.14-.81-2.12-1.92-2.35-.19-.04-.34-.19-.37-.38-.23-1.39-1.43-2.4-2.83-2.41-.61,0-1.21.19-1.7.55-.2.15-.48.12-.64-.07-.86-1.01-2.37-1.13-3.38-.27-.54.46-.85,1.13-.84,1.83v.22c.02.25-.15.47-.4.51-1.31.19-2.22,1.41-2.02,2.72.17,1.17,1.18,2.04,2.37,2.05h9.31c1.32,0,2.4-1.07,2.4-2.4h0Z"/><path id="Path_355" class="cls-2" d="M7.53,12.61c-.91.26-1.44,1.21-1.18,2.12s1.21,1.44,2.12,1.18,1.44-1.21,1.18-2.12c-.16-.57-.61-1.02-1.18-1.18v-2.83h-.94v2.83ZM8.77,14.26c0,.43-.35.78-.78.78s-.78-.35-.78-.78.35-.78.78-.78h0c.43,0,.78.35.78.78Z"/><path id="Path_356" class="cls-2" d="M14.27,10.37c-.77,0-1.44.51-1.65,1.25h-1.65v-1.83h-.94v2.3c0,.26.21.47.47.47h2.13c.26.91,1.21,1.44,2.12,1.19.91-.26,1.44-1.21,1.19-2.12-.21-.74-.88-1.25-1.65-1.25h-.02ZM14.27,12.85c-.43,0-.78-.35-.78-.78s.35-.78.78-.78.78.35.78.78-.35.78-.78.78h0Z"/><path id="Path_357" class="cls-2" d="M5.03,11.62h-1.66c-.26-.91-1.21-1.44-2.12-1.18-.91.26-1.44,1.21-1.18,2.12s1.21,1.44,2.12,1.18c.57-.16,1.02-.61,1.18-1.18h2.13c.26,0,.47-.21.47-.47v-2.3h-.94v1.83ZM1.72,12.85c-.43,0-.78-.35-.78-.78s.35-.78.78-.78.78.35.78.78-.35.78-.78.78h0Z"/><path id="Path_358" class="cls-2" d="M10.96,9.79h1.69c1.84,0,3.34-1.49,3.34-3.33,0-1.47-.96-2.76-2.37-3.19-.42-1.7-1.95-2.89-3.7-2.89-.67,0-1.33.17-1.91.51-1.36-1.24-3.47-1.15-4.71.22-.53.59-.84,1.34-.87,2.14C.67,3.73-.37,5.57.12,7.34c.4,1.45,1.72,2.44,3.22,2.44h7.62ZM3.34,8.85c-1.32,0-2.4-1.08-2.4-2.4,0-1.19.87-2.2,2.05-2.37.25-.04.42-.26.4-.51v-.22c0-1.32,1.07-2.4,2.4-2.4.7,0,1.37.31,1.82.84.16.19.44.22.64.07.49-.36,1.09-.56,1.7-.55,1.4,0,2.6,1.02,2.83,2.41.03.19.18.35.37.38,1.3.26,2.14,1.53,1.87,2.83-.23,1.12-1.21,1.92-2.35,1.92H3.34Z"/></g></g></svg>