<?xml version="1.0" encoding="UTF-8"?><svg id="software" xmlns="http://www.w3.org/2000/svg" xmlns:xlink="http://www.w3.org/1999/xlink" viewBox="0 0 16 16"><defs><style>.cls-1{fill:none;}.cls-2{fill:#8A8BB5;}.cls-3{clip-path:url(#clippath);}</style><clipPath id="clippath"><rect class="cls-1" x="1.73" width="12.54" height="16"/></clipPath></defs><g class="cls-3"><g id="Group_16367"><path id="Path_61507" class="cls-2" d="M7.53,10.24h.07c.16,0,.3-.1.33-.26l.83-3.64c.04-.18-.07-.37-.33-.42-.16,0-.3.11-.33.27l-.83,3.64c-.04.18.08.37.26.41"/><path id="Path_61508" class="cls-2" d="M4.6,8.39l.05-.09-.05.09,2,1.12c.08.04.17.06.26.03.18-.05.29-.24.24-.42h0c-.02-.08-.08-.16-.15-.2l-1.48-.83,1.47-.82c.17-.09.23-.29.15-.46-.04-.08-.11-.14-.2-.17-.09-.03-.2-.02-.28.03l-2,1.11c-.16.09-.22.3-.13.46h0c.03.06.08.1.13.13"/><path id="Path_61509" class="cls-2" d="M10.59,8.09l-1.47.82c-.16.09-.22.28-.14.44v.02c.07.11.19.18.31.18.06,0,.11-.01.16-.04l2-1.12c.16-.09.22-.3.13-.46h0c-.03-.06-.08-.1-.13-.13l-2-1.11c-.08-.04-.17-.06-.26-.03-.18.05-.29.24-.24.42.02.09.08.17.17.21l1.47.82Z"/><path id="Path_61510" class="cls-2" d="M4.88,3.77v-.19l.45-.11c.12-.03.22-.12.24-.24.06-.26.16-.5.3-.73.07-.11.07-.24,0-.35l-.24-.39.36-.36.39.24c.11.06.24.06.34,0,.23-.14.47-.24.73-.3.12-.03.21-.12.24-.24l.11-.45h.51l.11.45c.03.12.12.21.24.24.26.06.5.16.73.3.11.06.24.06.34,0l.39-.24.36.36-.24.39c-.06.11-.06.24,0,.35.14.22.24.47.3.73.03.12.12.21.24.24l.45.11v.19h.66v-.45c0-.15-.1-.29-.25-.32l-.51-.12c-.06-.19-.13-.37-.22-.54l.28-.45c.08-.13.06-.3-.05-.41l-.73-.73c-.11-.11-.28-.13-.41-.04l-.45.28c-.17-.09-.35-.16-.54-.22l-.12-.51c-.03-.15-.17-.25-.32-.25h-1.03c-.15,0-.28.1-.32.25l-.12.51c-.19.06-.36.13-.54.22l-.45-.28c-.13-.08-.3-.06-.41.05l-.73.73c-.11.11-.13.28-.05.41l.28.45c-.09.17-.16.35-.22.54l-.51.12c-.15.03-.25.17-.25.32v.45h.66Z"/><path id="Path_61511" class="cls-2" d="M8.07,1.97c-1,0-1.83.8-1.86,1.8h.66c0-.66.54-1.2,1.2-1.2s1.2.54,1.2,1.2h.66c-.04-1-.86-1.8-1.86-1.8"/><path id="Path_61512" class="cls-2" d="M13.2,4.16H2.81c-.6,0-1.08.48-1.08,1.08v7.51c0,.6.49,1.08,1.08,1.08h3.75l-.34,1.48h-1.55v.69h6.65v-.68h-1.55l-.34-1.49h3.75c.6,0,1.08-.49,1.08-1.09v-7.5c0-.59-.48-1.08-1.07-1.08M6.93,15.31l.34-1.49h1.48l.34,1.49h-2.15ZM13.58,12.75c0,.22-.17.39-.39.4H2.81c-.22,0-.39-.18-.39-.4v-.89h11.17v.89ZM13.59,11.17H2.42v-5.93c0-.22.18-.39.39-.39h10.39c.22,0,.39.18.39.39v5.93Z"/></g></g></svg>