<?xml version="1.0" encoding="UTF-8"?><svg id="summary" xmlns="http://www.w3.org/2000/svg" xmlns:xlink="http://www.w3.org/1999/xlink" viewBox="0 0 16 16"><defs><style>.cls-1{fill:none;}.cls-2{fill:#8A8BB5;}.cls-3{clip-path:url(#clippath);}</style><clipPath id="clippath"><rect class="cls-1" x="1.91" width="12.19" height="16"/></clipPath></defs><g class="cls-3"><g id="Group_16354"><path id="Path_61467" class="cls-2" d="M13.56,3.32L10.54.47c-.32-.3-.74-.47-1.18-.47H3.63c-.95,0-1.72.77-1.72,1.72v12.56c0,.95.77,1.72,1.72,1.72h8.75c.95,0,1.72-.77,1.72-1.72V4.57c0-.47-.2-.92-.54-1.25M12.65,3.75h-2.33c-.09,0-.16-.07-.16-.16V1.39l2.49,2.36ZM12.38,15.06H3.63c-.43,0-.78-.35-.78-.78V1.72c0-.43.35-.78.78-.78h5.59v2.66c0,.6.49,1.09,1.09,1.09h2.84v9.59c0,.43-.35.78-.78.78"/><path id="Path_61468" class="cls-2" d="M11.34,6.25h-6.87c-.26-.01-.48.19-.49.45-.01.26.19.48.45.49.01,0,.03,0,.04,0h6.87c.26-.01.46-.23.45-.49-.01-.24-.2-.44-.45-.45"/><path id="Path_61469" class="cls-2" d="M11.34,8.75h-6.87c-.26-.01-.48.19-.49.45-.01.26.19.48.45.49.01,0,.03,0,.04,0h6.87c.26-.01.46-.23.45-.49-.01-.24-.2-.44-.45-.45"/><path id="Path_61470" class="cls-2" d="M11.34,11.32h-6.87c-.26,0-.47.21-.47.47s.21.47.47.47h6.87c.26,0,.47-.21.47-.47s-.21-.47-.47-.47"/></g></g></svg>