<?xml version="1.0" encoding="UTF-8"?><svg id="Layer_1" xmlns="http://www.w3.org/2000/svg" viewBox="0 0 16 16"><defs><style>.cls-1{fill:#8A8BB5;}</style></defs><path class="cls-1" d="M5.12,12.17l.12.07c.85.43,1.8.66,2.76.66s1.9-.23,2.74-.66c.35-.15.51-.55.36-.9-.11-.25-.35-.42-.63-.42-.1,0-.19.02-.35.09-.66.33-1.4.51-2.13.51s-1.47-.17-2.11-.5c-.11-.08-.25-.12-.38-.12-.23,0-.44.11-.57.3-.1.15-.14.33-.1.51s.14.33.3.44v.02h0Z"/><path class="cls-1" d="M14.84,7.32h-.78v-.78c0-1-.82-1.82-1.82-1.82h-3.71v-1.01c.32-.12.59-.35.77-.64.2-.34.26-.75.16-1.14-.17-.66-.76-1.12-1.45-1.12-.13,0-.25.02-.38.05-.39.1-.71.34-.92.69-.2.34-.26.75-.16,1.13.12.48.47.86.93,1.03v1.01h-3.71c-1,0-1.82.82-1.82,1.82v.78h-.78C.52,7.32,0,7.85,0,8.49v2.93C0,12.07.53,12.59,1.17,12.59h.78v.78c0,1,.82,1.82,1.82,1.82h8.46c1,0,1.82-.82,1.82-1.82v-.78h.78c.65,0,1.17-.52,1.17-1.17v-2.93c0-.65-.52-1.17-1.17-1.17h.02-.01ZM14.06,8.36h.78c.07,0,.13.06.13.13v2.92c0,.07-.06.13-.13.13h-.78v-3.18ZM7.55,2.31c0-.25.2-.45.45-.45s.45.2.45.45-.2.45-.45.45-.45-.2-.45-.45ZM2.99,6.54c0-.43.35-.78.78-.78h8.46c.43,0,.78.35.78.78v6.83c0,.43-.35.78-.78.78H3.77c-.43,0-.78-.35-.78-.78v-6.83ZM1.04,8.49c0-.07.06-.13.13-.13h.78v3.19h-.78c-.07,0-.13-.06-.13-.13,0,0,0-2.93,0-2.93Z"/><path class="cls-1" d="M6.02,9.68c.65,0,1.19-.53,1.19-1.18s-.53-1.19-1.19-1.19-1.19.53-1.19,1.19.53,1.18,1.19,1.18Z"/><path class="cls-1" d="M9.99,9.68c.65,0,1.18-.53,1.18-1.18s-.53-1.19-1.18-1.19-1.19.53-1.19,1.19.53,1.18,1.19,1.18Z"/></svg>