<svg xmlns="http://www.w3.org/2000/svg" xmlns:xlink="http://www.w3.org/1999/xlink" width="16" height="16" viewBox="0 0 16 16">
  <defs>
    <clipPath id="clip-path">
      <rect id="Rectangle_1848" data-name="Rectangle 1848" width="16" height="16" fill="none"/>
    </clipPath>
  </defs>
  <g id="systemsInDomain" transform="translate(0 0)">
    <g id="Group_16350" data-name="Group 16350" transform="translate(0 0)" clip-path="url(#clip-path)">
      <path id="Path_61456" data-name="Path 61456" d="M8,16a8,8,0,1,1,8-8c0,.245-.012.488-.034.729a4.757,4.757,0,0,0-.472-.548,5.054,5.054,0,0,0-.412-.369,5.044,5.044,0,0,0-.159-1.456L14.9,6.28H11.6s.029.35.037.472a5.182,5.182,0,0,0-.87.145c-.011-.178-.051-.617-.051-.617H5.286l-.009.09C5.224,6.914,5.2,7.462,5.2,8s.025,1.087.078,1.629l.009.091h2.2a4.937,4.937,0,0,0-.28.879H5.4l.019.117c.44,2.594,1.5,4.4,2.58,4.4a1.039,1.039,0,0,0,.416-.09q.055.059.112.115a4.943,4.943,0,0,0,.912.722A8.088,8.088,0,0,1,8,16M1.428,10.741a7.133,7.133,0,0,0,4.343,4.02l.282.092-.166-.245a9.816,9.816,0,0,1-1.365-3.923L4.508,10.6H1.368ZM1.076,6.357a6.9,6.9,0,0,0,0,3.287l.019.077H4.4l-.009-.109C4.345,9.066,4.32,8.523,4.32,8s.025-1.065.073-1.611L4.4,6.28H1.1Zm9.036-4.965a9.827,9.827,0,0,1,1.366,3.923l.012.085h3.14l-.06-.14a7.13,7.13,0,0,0-4.343-4.02l-.282-.093ZM8,.879c-1.078,0-2.14,1.811-2.58,4.4L5.4,5.4h5.2l-.02-.117c-.44-2.593-1.5-4.4-2.58-4.4M5.771,1.24A7.133,7.133,0,0,0,1.428,5.26l-.06.14h3.14l.013-.085A9.827,9.827,0,0,1,5.886,1.392l.166-.245Z" transform="translate(0 0)" fill="#8A8BB5"/>
      <path id="Path_61457" data-name="Path 61457" d="M11.845,7.636a4.051,4.051,0,1,0,4.05,4.05,4.055,4.055,0,0,0-4.05-4.05" transform="translate(0.098 0.096)" fill="#8A8BB5"/>
      <path id="Path_61458" data-name="Path 61458" d="M13.237,9.924,11.211,11.98l-.8-.8a.667.667,0,0,0-.942.942l1.258,1.258a.672.672,0,0,0,.943,0L14.2,10.854l-.016.012a.667.667,0,0,0-.943-.942" transform="translate(0.117 0.123)" fill="#fff"/>
    </g>
  </g>
</svg>
