<?xml version="1.0" encoding="UTF-8"?><svg id="Layer_1" xmlns="http://www.w3.org/2000/svg" xmlns:xlink="http://www.w3.org/1999/xlink" viewBox="0 0 16 16"><defs><style>.cls-1{fill:none;}.cls-2{fill:#8A8BB5;}.cls-3{clip-path:url(#clippath);}</style><clipPath id="clippath"><rect class="cls-1" y=".44" width="16" height="15.12"/></clipPath></defs><g id="systems"><g class="cls-3"><g id="Group_16353"><path id="Path_61464" class="cls-2" d="M14.52.44H1.49C.67.44,0,1.1,0,1.92v9.42c0,.82.67,1.49,1.49,1.49h4.54l-.37,1.61h-1.97v1.12h8.61v-1.11h-1.97l-.37-1.61h4.55c.82,0,1.49-.67,1.49-1.49V1.93c0-.82-.66-1.48-1.48-1.49M6.82,14.44l.36-1.61h1.64l.36,1.61h-2.37ZM1.13,9.24V1.92c0-.2.16-.37.36-.37,0,0,0,0,0,0h13.03c.2,0,.36.16.36.37v7.31H1.13ZM1.12,10.36h13.76v.98c0,.2-.16.36-.36.37H1.49c-.2,0-.37-.16-.37-.37v-.98Z"/><path id="Path_61465" class="cls-2" d="M2.74,4.87h0c.13,0,.26-.05.36-.14l1.28-1.28c.17-.22.12-.53-.1-.7-.18-.13-.42-.13-.6,0l-1.29,1.28c-.19.2-.19.51.01.71.09.09.21.14.34.14"/><path id="Path_61466" class="cls-2" d="M6.21,2.85c-.13,0-.26.05-.35.15l-3.21,3.21c-.09.09-.15.22-.15.35,0,.27.22.49.49.5,0,0,0,0,0,0h0c.13,0,.26-.05.35-.14l3.21-3.21c.19-.2.19-.51,0-.71-.09-.09-.21-.14-.34-.14"/></g></g></g></svg>