<?xml version="1.0" encoding="UTF-8"?><svg id="Layer_1" xmlns="http://www.w3.org/2000/svg" xmlns:xlink="http://www.w3.org/1999/xlink" viewBox="0 0 16 16"><defs><style>.cls-1{fill:none;}.cls-2{fill:#fff;}.cls-3{fill:#8A8BB5;}.cls-4{clip-path:url(#clippath);}</style><clipPath id="clippath"><rect class="cls-1" y=".03" width="16" height="15.94"/></clipPath></defs><g id="systemsNotInDomain"><g class="cls-4"><g id="Group_16348"><path id="Path_61453" class="cls-3" d="M7.97,15.97C3.57,15.97,0,12.4,0,8,0,3.6,3.57.03,7.97.03c4.4,0,7.97,3.57,7.97,7.97,0,.24-.01.49-.03.73-.14-.19-.3-.38-.47-.55-.13-.13-.27-.25-.41-.37.02-.49-.04-.98-.16-1.45l-.02-.08h-3.29s.03.35.04.47c-.29.02-.58.07-.87.14-.01-.18-.05-.61-.05-.61h-5.41v.09c-.06.54-.09,1.09-.09,1.62s.03,1.08.08,1.62v.09h2.2c-.12.28-.21.58-.28.88h-1.8l.02.12c.44,2.58,1.49,4.39,2.57,4.39.14,0,.28-.03.41-.09.04.04.07.08.11.11.27.27.58.52.91.72-.47.09-.95.13-1.43.13M1.42,10.73c.79,1.9,2.37,3.36,4.33,4l.28.09-.16-.24c-.73-1.19-1.19-2.52-1.36-3.9v-.09H1.36l.06.14ZM1.07,6.36c-.26,1.08-.26,2.2,0,3.28l.02.08h3.29v-.11c-.06-.54-.09-1.09-.09-1.61s.02-1.05.07-1.61v-.11s-3.28,0-3.28,0l-.02.08ZM10.07,1.42c.73,1.19,1.19,2.52,1.36,3.91v.09h3.14l-.06-.14c-.79-1.9-2.37-3.36-4.33-4l-.28-.09.16.24ZM7.97.91c-1.07,0-2.13,1.8-2.57,4.39l-.02.12h5.18l-.02-.12c-.44-2.58-1.5-4.39-2.57-4.39M5.75,1.27c-1.95.64-3.53,2.1-4.33,4l-.06.14h3.13v-.08c.18-1.38.64-2.72,1.37-3.91l.16-.24-.28.09Z"/><path id="Path_61454" class="cls-3" d="M11.97,7.62c-2.23,0-4.03,1.81-4.03,4.03s1.81,4.03,4.03,4.03,4.03-1.81,4.03-4.03c0-2.23-1.81-4.03-4.03-4.03"/><path id="Path_61455" class="cls-2" d="M10.57,13.67c-.34,0-.62-.28-.62-.62,0-.15.05-.29.14-.4.01-.02.08-.09.08-.09l.94-.94-.94-.94c-.23-.26-.21-.65.05-.88.24-.21.6-.21.83,0l.94.94.94-.94c.25-.23.65-.22.88.04.22.24.22.61,0,.85l-.94.94.94.94c.11.12.17.28.16.44-.01.34-.3.61-.64.6-.15,0-.29-.06-.4-.17l-.94-.94-.94.94c-.12.14-.3.23-.48.23"/></g></g></g></svg>