<?xml version="1.0" encoding="UTF-8"?><svg id="Layer_1" xmlns="http://www.w3.org/2000/svg" viewBox="0 0 16 16"><defs><style>.cls-1{fill:#8A8BB5;}</style></defs><g id="testFrequency"><path id="Path_519" class="cls-1" d="M8,8c-1.02,0-1.84.82-1.84,1.84,0,.78.49,1.48,1.23,1.74v4.42h1.23v-4.42c.96-.34,1.46-1.39,1.12-2.35-.26-.74-.96-1.23-1.74-1.23h0ZM8,10.46c-.34,0-.62-.27-.62-.61s.27-.62.61-.62.62.27.62.61h0c0,.34-.28.62-.61.62Z"/><path id="Path_520" class="cls-1" d="M8,4.92c-1.36,0-2.46,1.1-2.46,2.46h1.23c0-.68.55-1.23,1.23-1.23s1.23.55,1.23,1.23h1.23c0-1.36-1.1-2.46-2.46-2.46h0Z"/><path id="Path_521" class="cls-1" d="M8,2.46c-2.72,0-4.92,2.21-4.92,4.92h1.23c0-2.04,1.65-3.69,3.69-3.69s3.69,1.65,3.69,3.69h1.23c0-2.72-2.21-4.92-4.92-4.92Z"/><path id="Path_522" class="cls-1" d="M8,0C3.92,0,.62,3.31.62,7.38h1.23C1.85,3.99,4.6,1.23,8,1.23s6.15,2.76,6.15,6.15h1.23c0-4.08-3.31-7.38-7.38-7.38Z"/></g></svg>