<?xml version="1.0" encoding="UTF-8"?><svg id="Layer_1" xmlns="http://www.w3.org/2000/svg" viewBox="0 0 16 16"><defs><style>.cls-1{fill:#adadad;}</style></defs><g id="thresholds"><g id="path1593"><g id="Group_315"><path id="Path_555" class="cls-1" d="M8.48,12.79h0c-1,0-1.77-1.4-2.58-4.68-.96-3.92-1.66-3.97-1.67-3.97s-.7.05-1.67,3.97l-.91-.22c.8-3.28,1.58-4.68,2.58-4.68s1.77,1.4,2.58,4.68c.96,3.92,1.66,3.97,1.67,3.97s.7-.05,1.67-3.97c.8-3.28,1.58-4.68,2.58-4.68s1.77,1.4,2.58,4.68l-.91.22c-.96-3.92-1.66-3.97-1.67-3.97s-.7.05-1.67,3.97c-.8,3.28-1.58,4.68-2.58,4.68Z"/></g><g id="Group_316"><path id="Path_556" class="cls-1" d="M8.48,12.79h0c-1,0-1.77-1.4-2.58-4.68-.96-3.92-1.66-3.97-1.67-3.97s-.7.05-1.67,3.97l-.91-.22c.8-3.28,1.58-4.68,2.58-4.68s1.77,1.4,2.58,4.68c.96,3.92,1.66,3.97,1.67,3.97s.7-.05,1.67-3.97c.8-3.28,1.58-4.68,2.58-4.68s1.77,1.4,2.58,4.68l-.91.22c-.96-3.92-1.66-3.97-1.67-3.97s-.7.05-1.67,3.97c-.8,3.28-1.58,4.68-2.58,4.68Z"/></g></g><g id="path1597"><g id="Group_317"><rect id="Rectangle_14" class="cls-1" x=".47" y="7.53" width="15.53" height=".94"/></g><g id="Group_318"><rect id="Rectangle_15" class="cls-1" x=".47" y="7.53" width="15.53" height=".94"/></g></g><g id="path1601"><g id="Group_319"><rect id="Rectangle_16" class="cls-1" x="0" y="1.28" width=".94" height="13.44"/></g><g id="Group_320"><rect id="Rectangle_17" class="cls-1" x="0" y="1.28" width=".94" height="13.44"/></g></g></g></svg>