<?xml version="1.0" encoding="UTF-8"?><svg id="Layer_1" xmlns="http://www.w3.org/2000/svg" viewBox="0 0 16 16"><defs><style>.cls-1{fill:#8A8BB5;}</style></defs><g id="topologies"><path id="Path_557" class="cls-1" d="M15.12,10.94c-1.16-1.15-3.03-1.14-4.18.02-1.15,1.16-1.14,3.03.02,4.18.55.55,1.29.85,2.07.86h.04c1.64-.03,2.95-1.38,2.92-3.03-.01-.76-.32-1.49-.85-2.03h0ZM11.6,14.46c-.78-.8-.77-2.08.03-2.86.36-.35.85-.56,1.35-.58h.08c1.11.02,2,.94,1.98,2.06-.02,1.11-.94,2-2.06,1.98-.52-.01-1.02-.22-1.39-.59h0Z"/><path id="Path_558" class="cls-1" d="M5.07.88C3.91-.27,2.03-.26.88.9c-1.15,1.16-1.14,3.03.02,4.18.54.54,1.27.85,2.04.86h.07c1.64-.03,2.95-1.38,2.92-3.02-.01-.76-.32-1.49-.85-2.03h0ZM2.96.96c.53,0,1.04.21,1.42.58.59.57.76,1.44.44,2.19-.42,1.03-1.59,1.53-2.62,1.11s-1.53-1.59-1.11-2.62c.31-.76,1.05-1.26,1.87-1.26h0Z"/><path id="Path_559" class="cls-1" d="M15.76,1.83C15.29.74,14.22.02,13.03,0c-.79.01-1.54.33-2.1.88-1.03,1.03-1.16,2.65-.31,3.83l-5.92,5.92c-.37-.27-.8-.45-1.26-.52v-3.54c0-.26-.22-.47-.48-.47-.26,0-.46.21-.47.47v3.53C.88,10.37-.22,11.89.04,13.5c.1.61.39,1.18.83,1.62.54.56,1.28.87,2.05.86,1.46.01,2.72-1.04,2.97-2.48h3.53c.26,0,.47-.21.47-.47s-.21-.47-.47-.47h-3.53c-.07-.45-.25-.89-.52-1.26l5.93-5.93c1.18.85,2.81.72,3.83-.31.86-.84,1.11-2.13.63-3.23ZM4.39,14.46c-.79.78-2.06.77-2.84-.02-.78-.79-.77-2.06.02-2.84.36-.36.85-.57,1.36-.58h.08c1.12.03,2,.97,1.96,2.09-.02.51-.22.99-.58,1.35h0ZM11.6,4.4c-.79-.78-.8-2.06-.02-2.85s2.06-.8,2.85-.02c0,0,.01.01.02.02.59.57.76,1.44.44,2.19-.4,1.03-1.56,1.53-2.59,1.13-.26-.1-.5-.26-.7-.46h0Z"/></g></svg>