<?xml version="1.0" encoding="UTF-8"?><svg id="Layer_1" xmlns="http://www.w3.org/2000/svg" viewBox="0 0 16 16"><defs><style>.cls-1{fill:#8A8BB5;}</style></defs><g id="trapPriority"><path id="Path_810" class="cls-1" d="M4.66.85c.27.27.27.7,0,.97h0l-2.42,2.42c-.13.13-.3.2-.48.2h-.04c-.2-.01-.38-.1-.5-.26L.16,2.84c-.25-.29-.21-.72.08-.96.29-.25.72-.21.96.08,0,.01.02.02.03.03h0l.58.73,1.88-1.88c.27-.27.7-.27.97,0h0Z"/><path id="Path_811" class="cls-1" d="M6.87,3.71h8.39c.38.01.69-.28.71-.66s-.28-.69-.66-.71c-.02,0-.03,0-.05,0H6.87c-.38-.01-.69.28-.71.66s.28.69.66.71c.02,0,.03,0,.05,0Z"/><path id="Path_812" class="cls-1" d="M3.69,6.31l-1.88,1.88-.58-.73c-.23-.3-.65-.36-.96-.14s-.36.65-.14.96c0,0,.01.02.02.03H.17l1.06,1.33c.12.15.3.25.5.26h.04c.18,0,.35-.07.48-.2l2.42-2.42c.25-.28.23-.71-.05-.97-.26-.24-.66-.24-.92,0h0Z"/><path id="Path_813" class="cls-1" d="M15.26,7.81H6.87c-.38,0-.68.3-.69.68s.3.68.68.69h8.4c.38,0,.68-.31.68-.69,0-.38-.31-.68-.68-.68Z"/><path id="Path_814" class="cls-1" d="M3.69,11.77l-1.88,1.87-.58-.73c-.25-.29-.68-.32-.96-.07-.27.23-.32.63-.11.92l1.06,1.34c.12.15.3.25.5.26h.04c.18,0,.35-.07.48-.2l2.42-2.42c.27-.26.29-.69.03-.97-.26-.27-.69-.29-.97-.03,0,0-.01.01-.02.02h0s0,.01,0,.01Z"/><path id="Path_815" class="cls-1" d="M15.26,13.27H6.87c-.38,0-.68.31-.68.68,0,.36.28.66.63.68.02,0,.04,0,.05,0h8.39c.38.03.71-.25.73-.63s-.25-.71-.63-.73c-.02,0-.03,0-.05,0h-.05Z"/></g></svg>