<?xml version="1.0" encoding="UTF-8"?><svg id="Layer_1" xmlns="http://www.w3.org/2000/svg" viewBox="0 0 16 16"><defs><style>.cls-1{fill:#adadad;}</style></defs><path class="cls-1" d="M13.28,0H2.73C1.22,0,0,1.22,0,2.73v10.54c0,1.51,1.22,2.73,2.73,2.73h10.54c1.51,0,2.73-1.22,2.73-2.73V2.73C16.01,1.22,14.79,0,13.28,0ZM15.15,13.28c0,1.04-.84,1.87-1.88,1.88H2.73c-1.04,0-1.87-.84-1.88-1.88V2.73c0-1.04.84-1.87,1.88-1.88h10.54c1.04,0,1.87.84,1.88,1.88v10.54h0Z"/><path class="cls-1" d="M8.24,5.97h0c-.13-.13-.34-.13-.47,0l-2.25,2.25c-.06.06-.1.15-.1.23,0,.18.15.33.33.34h.42v3.42c0,.18.15.33.33.33h3c.18,0,.33-.15.33-.33v-3.42h.42c.09,0,.17-.04.24-.1.13-.13.13-.34,0-.47,0,0-2.25-2.25-2.25-2.25Z"/><path class="cls-1" d="M11.26,3.27h-6.51c-.39,0-.7.31-.7.7s.31.7.7.7h6.51c.39,0,.7-.31.7-.7s-.31-.7-.7-.7Z"/></svg>