<svg id="upgrade" xmlns="http://www.w3.org/2000/svg" width="16" height="16" viewBox="0 0 16 16">
  <path id="Path_1" data-name="Path 1" d="M13.28,0H2.73A2.727,2.727,0,0,0,0,2.73V13.27A2.727,2.727,0,0,0,2.73,16H13.27A2.727,2.727,0,0,0,16,13.27V2.73A2.712,2.712,0,0,0,13.28,0Zm1.87,13.28a1.884,1.884,0,0,1-1.88,1.88H2.73A1.884,1.884,0,0,1,.85,13.28V2.73A1.884,1.884,0,0,1,2.73.85H13.27a1.884,1.884,0,0,1,1.88,1.88V13.27h0Z" fill="#8a8bb5"/>
  <path id="Path_2" data-name="Path 2" d="M8.24,5.97h0a.332.332,0,0,0-.47,0L5.52,8.22a.345.345,0,0,0-.1.23.349.349,0,0,0,.33.34h.42v3.42a.333.333,0,0,0,.33.33h3a.333.333,0,0,0,.33-.33V8.79h.42a.369.369,0,0,0,.24-.1.332.332,0,0,0,0-.47L8.24,5.97Z" fill="#8a8bb5"/>
  <path id="Path_3" data-name="Path 3" d="M11.26,3.27H4.75a.7.7,0,0,0,0,1.4h6.51a.7.7,0,0,0,0-1.4Z" fill="#8a8bb5"/>
</svg>
