<?xml version="1.0" encoding="UTF-8"?><svg id="userReports" xmlns="http://www.w3.org/2000/svg" xmlns:xlink="http://www.w3.org/1999/xlink" viewBox="0 0 16 16"><defs><style>.cls-1{fill:none;}.cls-2{fill:#8A8BB5;}.cls-3{clip-path:url(#clippath);}</style><clipPath id="clippath"><rect class="cls-1" x=".5" width="15.01" height="16"/></clipPath></defs><g class="cls-3"><g id="Group_16421"><path id="Path_61605" class="cls-2" d="M7.11,10.39H3.07c-.26-.01-.48.19-.49.45-.01.26.19.48.45.49.01,0,.03,0,.04,0h4.05c.26.01.48-.19.49-.45.01-.26-.19-.48-.45-.49-.01,0-.03,0-.04,0"/><path id="Path_61606" class="cls-2" d="M7.11,12.6H3.07c-.26-.01-.48.19-.49.45-.01.26.19.48.45.49.01,0,.03,0,.04,0h4.05c.26.01.48-.19.49-.45.01-.26-.19-.48-.45-.49-.01,0-.03,0-.04,0"/><path id="Path_61607" class="cls-2" d="M3.09,8.6c.27,0,.49-.23.49-.5v-1.48s0-.07,0-.1c-.05-.27-.31-.45-.59-.4-.24.05-.41.25-.41.5v1.49c0,.28.22.5.5.5"/><path id="Path_61608" class="cls-2" d="M5.57,8.11v-1.99c-.04-.27-.29-.47-.56-.43-.22.03-.4.21-.43.43v1.98c-.04.27.15.53.43.56.27.04.53-.15.56-.43,0-.04,0-.09,0-.13"/><path id="Path_61609" class="cls-2" d="M7.06,8.6c.27,0,.49-.22.49-.49v-2.98s0-.07,0-.1c0-.28-.23-.5-.51-.49-.28,0-.5.23-.49.51,0,.03,0,.06,0,.09v2.97c0,.28.22.5.5.5"/><path id="Path_61610" class="cls-2" d="M12.41,6.32c-.99,0-1.79.81-1.79,1.8,0,.99.81,1.79,1.8,1.79.99,0,1.79-.81,1.79-1.79,0-.99-.8-1.79-1.79-1.79,0,0,0,0,0,0Z"/><path id="Path_61611" class="cls-2" d="M12.7,10.22h-1.07c-1.47-.05-2.7,1.11-2.75,2.58.01.33.29.59.62.58h5.33c.33.01.61-.25.62-.58,0,0,0,0,0,0-.05-1.47-1.28-2.62-2.75-2.58M15.18,13.05s0,0,0,0h0Z"/><path id="Path_61612" class="cls-2" d="M10.96,15.06H2.21c-.43,0-.78-.35-.78-.78V1.72c0-.43.35-.78.78-.78h5.59v2.66c0,.6.49,1.09,1.09,1.09h2.84v.7h.94v-.82c0-.47-.19-.92-.54-1.25L9.13.47c-.32-.3-.74-.47-1.18-.47H2.21C1.27,0,.5.77.5,1.72v12.56c0,.95.77,1.72,1.72,1.72h8.75c.91,0,1.66-.7,1.72-1.61h-.94c-.06.38-.38.67-.77.67M8.75,1.39l2.49,2.36h-2.33c-.09,0-.16-.07-.16-.16h0V1.39Z"/></g></g></svg>