<svg id="viewTestConfiguration" xmlns="http://www.w3.org/2000/svg" xmlns:xlink="http://www.w3.org/1999/xlink" width="16" height="16" viewBox="0 0 16 16">
  <defs>
    <clipPath id="clip-path">
      <rect id="Rectangle_1858" data-name="Rectangle 1858" width="16" height="16" fill="none"/>
    </clipPath>
  </defs>
  <g id="Group_16364" data-name="Group 16364" clip-path="url(#clip-path)">
    <path id="Path_61499" data-name="Path 61499" d="M13.768,4.721l.8-1.459L12.739,1.433l-1.459.8A6.571,6.571,0,0,0,9.757,1.6L9.293,0H6.707L6.243,1.6a6.568,6.568,0,0,0-1.523.632l-1.459-.8L1.432,3.261l.8,1.459A6.568,6.568,0,0,0,1.6,6.243L0,6.707V9.293l1.6.464a6.568,6.568,0,0,0,.632,1.523l-.8,1.459,1.829,1.828,1.459-.8a6.571,6.571,0,0,0,1.523.633L6.707,16H9.293l.463-1.6a6.571,6.571,0,0,0,1.523-.633l1.459.8,1.829-1.829-.8-1.459A6.571,6.571,0,0,0,14.4,9.757L16,9.293V6.707l-1.6-.464a6.561,6.561,0,0,0-.632-1.522M15.059,8.6l-1.443.419-.062.268a5.646,5.646,0,0,1-.725,1.744l-.147.234.726,1.32-.833.833-1.32-.726-.233.147a5.636,5.636,0,0,1-1.744.725l-.268.062-.42,1.443H7.41l-.42-1.443-.268-.062a5.646,5.646,0,0,1-1.744-.725l-.234-.147-1.32.726-.833-.833.726-1.32-.147-.234a5.646,5.646,0,0,1-.725-1.744l-.062-.268L.94,8.6V7.415L2.384,7l.062-.27a5.636,5.636,0,0,1,.725-1.744l.147-.233-.726-1.32L3.425,2.6l1.32.724.234-.147a5.646,5.646,0,0,1,1.744-.725l.268-.062L7.41.946H8.59L9.009,2.39l.268.064a5.646,5.646,0,0,1,1.744.725l.233.147,1.32-.726.833.835-.726,1.32.147.233a5.646,5.646,0,0,1,.725,1.744L13.615,7l1.444.415Z" fill="#8A8BB5"/>
    <path id="Path_61500" data-name="Path 61500" d="M8.03,8.993A.993.993,0,1,1,9.023,8a.994.994,0,0,1-.993.993" fill="#8A8BB5"/>
    <path id="Path_61501" data-name="Path 61501" d="M11.94,7.743c-.02-.029-.09-.129-.136-.186A8.354,8.354,0,0,0,10.493,6.2a4.431,4.431,0,0,0-1.772-.9,3.306,3.306,0,0,0-.716-.083H8A4,4,0,0,0,5.507,6.2,8.322,8.322,0,0,0,4.194,7.56c-.016.02-.036.046-.055.072-.034.046-.067.093-.079.111a.446.446,0,0,0,0,.515c.02.029.09.128.134.183.02.026.044.056.07.087A8.148,8.148,0,0,0,5.507,9.8,4,4,0,0,0,8,10.78,4,4,0,0,0,10.493,9.8a8.373,8.373,0,0,0,1.313-1.355c.044-.055.114-.154.134-.183a.446.446,0,0,0,0-.515M10.927,8.1A4.08,4.08,0,0,1,8,9.885a3.345,3.345,0,0,1-2.208-1.03A7.9,7.9,0,0,1,5.07,8.1l0,0-.071-.1L5.073,7.9A4.08,4.08,0,0,1,8,6.116l.057,0a2.445,2.445,0,0,1,.64.105,4.984,4.984,0,0,1,2.237,1.684l.071.1Z" fill="#8A8BB5"/>
  </g>
</svg>
