<?xml version="1.0" encoding="UTF-8"?><svg id="Layer_1" xmlns="http://www.w3.org/2000/svg" viewBox="0 0 16 16"><defs><style>.cls-1{fill-rule:evenodd;}.cls-1,.cls-2{fill:#adadad;}</style></defs><g id="view"><path id="Path_588" class="cls-2" d="M8,3.02C3.76,3.02.46,7.39.32,7.57l-.32.43.32.42c.14.19,3.45,4.55,7.68,4.55s7.54-4.37,7.68-4.55l.32-.42-.32-.43c-.14-.19-3.45-4.55-7.68-4.55ZM8,11.56c-2.82,0-5.3-2.53-6.19-3.56.89-1.03,3.36-3.56,6.19-3.56s5.3,2.53,6.19,3.56c-.89,1.03-3.36,3.56-6.19,3.56Z"/><path id="Path_589" class="cls-1" d="M8,5.87c-1.18,0-2.13.95-2.14,2.13,0,1.18.95,2.13,2.13,2.14,1.18,0,2.13-.95,2.14-2.13,0-1.18-.95-2.13-2.13-2.14h0,0ZM8,8.71c-.39,0-.71-.32-.71-.71,0-.39.32-.71.71-.71.39,0,.71.32.71.71h0c0,.39-.32.71-.71.71Z"/></g></svg>