<svg id="viewBackgroundReports" xmlns="http://www.w3.org/2000/svg" xmlns:xlink="http://www.w3.org/1999/xlink" width="15.997" height="16" viewBox="0 0 15.997 16">
  <defs>
    <clipPath id="clip-path">
      <rect id="Rectangle_1865" data-name="Rectangle 1865" width="15.997" height="16" fill="none"/>
    </clipPath>
  </defs>
  <g id="Group_16377" data-name="Group 16377" clip-path="url(#clip-path)">
    <path id="Path_61561" data-name="Path 61561" d="M6.618,10.394H2.571a.469.469,0,0,0,0,.937H6.617a.469.469,0,0,0,0-.937" fill="#adadad"/>
    <path id="Path_61562" data-name="Path 61562" d="M6.618,12.6H2.571a.469.469,0,0,0,0,.937H6.617a.469.469,0,0,0,0-.937" fill="#adadad"/>
    <path id="Path_61563" data-name="Path 61563" d="M12.187,5.691V4.569A1.725,1.725,0,0,0,11.65,3.32L8.637.47A1.714,1.714,0,0,0,7.455,0H1.719A1.721,1.721,0,0,0,0,1.719V14.281A1.721,1.721,0,0,0,1.719,16h8.749a1.721,1.721,0,0,0,1.719-1.719v-.97H11.25v.97a.781.781,0,0,1-.781.781H1.719a.782.782,0,0,1-.782-.781V1.719A.782.782,0,0,1,1.719.937H7.312V3.592A1.1,1.1,0,0,0,8.406,4.686H11.25v1ZM8.406,3.75a.157.157,0,0,1-.157-.157h0v-2.2l2.49,2.357Z" fill="#adadad"/>
    <path id="Path_61564" data-name="Path 61564" d="M2.594,8.6a.5.5,0,0,1-.5-.5V6.617a.5.5,0,1,1,.991,0V8.106a.5.5,0,0,1-.493.5" fill="#adadad"/>
    <path id="Path_61565" data-name="Path 61565" d="M4.581,8.6a.5.5,0,0,1-.5-.5V6.123a.5.5,0,0,1,.991,0v1.99a.5.5,0,0,1-.493.491" fill="#adadad"/>
    <path id="Path_61566" data-name="Path 61566" d="M6.569,8.6a.5.5,0,0,1-.5-.5V5.132a.5.5,0,1,1,.991,0V8.111a.5.5,0,0,1-.493.493" fill="#adadad"/>
    <path id="Path_61567" data-name="Path 61567" d="M11.622,10.5A1.093,1.093,0,1,1,12.715,9.4,1.093,1.093,0,0,1,11.622,10.5" fill="#adadad"/>
    <path id="Path_61568" data-name="Path 61568" d="M15.911,9.126c-.022-.033-.1-.137-.149-.205a9.184,9.184,0,0,0-1.439-1.484,4.882,4.882,0,0,0-1.943-.989,3.524,3.524,0,0,0-.786-.091A4.407,4.407,0,0,0,8.861,7.438a9.217,9.217,0,0,0-1.45,1.485l-.06.084c-.037.049-.073.1-.088.122a.49.49,0,0,0,0,.564c.023.033.1.137.148.2.022.028.049.06.076.1a8.9,8.9,0,0,0,1.367,1.39,4,4,0,0,0,5.465,0A9.252,9.252,0,0,0,15.76,9.9c.047-.062.124-.169.146-.2a.488.488,0,0,0,0-.565M14.8,9.521a4.479,4.479,0,0,1-3.208,1.954,3.681,3.681,0,0,1-2.424-1.13,8.624,8.624,0,0,1-.791-.831L8.3,9.4l.085-.1a4.483,4.483,0,0,1,3.207-1.964h.062a2.614,2.614,0,0,1,.7.112A5.465,5.465,0,0,1,14.811,9.3l.078.112Z" fill="#adadad"/>
  </g>
</svg>
