<?xml version="1.0" encoding="UTF-8"?><svg id="Layer_1" xmlns="http://www.w3.org/2000/svg" xmlns:xlink="http://www.w3.org/1999/xlink" viewBox="0 0 16 16"><defs><style>.cls-1{fill:none;}.cls-2{fill-rule:evenodd;}.cls-2,.cls-3{fill:#8A8BB5;}.cls-4{clip-path:url(#clippath);}</style><clipPath id="clippath"><rect class="cls-1" y=".83" width="16" height="14.34"/></clipPath></defs><g id="virtualMachines"><g class="cls-4"><g id="Group_16428"><path id="Path_61629" class="cls-2" d="M8.26.9c-.16-.09-.36-.09-.52,0l-3.65,2.11c-.16.09-.26.26-.26.45v4.22c0,.19.1.36.26.45l3.65,2.1c.16.09.36.09.52,0l3.65-2.1c.16-.09.26-.27.26-.45V3.46c0-.19-.1-.36-.26-.45l-3.65-2.11ZM4.87,7.38v-3.01l2.61,1.51v3.01l-2.61-1.51ZM8,4.97l-2.61-1.51,2.61-1.51,2.64,1.53-2.64,1.49ZM8.52,5.87l2.61-1.47v2.98l-2.61,1.51v-3.01Z"/><path id="Path_61630" class="cls-3" d="M1.04,3.02c0-.6.48-1.08,1.08-1.08h1.73c.29,0,.52-.23.52-.52,0-.29-.23-.52-.52-.52h-1.73C.95.89,0,1.84,0,3.02v7.24c0,1.17.95,2.12,2.12,2.12h5.36v1.76h-3.15c-.29,0-.52.23-.52.52,0,.29.23.52.52.52h7.35c.29,0,.52-.23.52-.52,0-.29-.23-.52-.52-.52h-3.15v-1.76h5.36c1.17,0,2.12-.95,2.12-2.12V3.02c0-1.17-.95-2.12-2.12-2.12h-1.74c-.29,0-.52.23-.52.52,0,.29.23.52.52.52h1.74c.6,0,1.08.48,1.08,1.08h0v7.24c0,.6-.49,1.08-1.08,1.08H2.12c-.6,0-1.08-.48-1.08-1.08V3.02Z"/></g></g></g></svg>