<svg id="webActive" xmlns="http://www.w3.org/2000/svg" xmlns:xlink="http://www.w3.org/1999/xlink" width="16" height="16" viewBox="0 0 16 16">
  <defs>
    <clipPath id="clip-path">
      <rect id="Rectangle_1874" data-name="Rectangle 1874" width="16" height="16" fill="none"/>
    </clipPath>
  </defs>
  <g id="Group_16377" data-name="Group 16377" clip-path="url(#clip-path)">
    <path id="Path_61491" data-name="Path 61491" d="M8.182,15.475H7.738a7.738,7.738,0,1,1,7.738-7.738,7.4,7.4,0,0,1-.061.856.483.483,0,0,1-.188.311.5.5,0,0,1-.3.1h-.058a.491.491,0,0,1-.432-.522,6.336,6.336,0,0,0,.054-.742,6.823,6.823,0,0,0-.221-1.688l-.061-.236H10.536l.033.344c.052.541.077,1.058.077,1.58a.492.492,0,1,1-.983,0,15.567,15.567,0,0,0-.087-1.644l-.029-.281H5.918l-.029.281a16,16,0,0,0,0,3.289l.029.282h1.82a.491.491,0,0,1,0,.975H6.069l.087.387a10.3,10.3,0,0,0,1.319,3.322l.091.141h.167c.014,0,.319.005.545.005.149,0,.2,0,.228,0h.031a.5.5,0,0,1,.495.457.488.488,0,0,1-.453.522h-.4m-6.287-4.36A6.768,6.768,0,0,0,5.642,14.15l.677.224-.3-.652a12.9,12.9,0,0,1-.9-2.825l-.053-.258H1.621ZM1.2,6.048a6.519,6.519,0,0,0,0,3.379l.061.234H4.927L4.9,9.318c-.051-.548-.075-1.064-.075-1.578s.026-1.064.075-1.584l.037-.344H1.264ZM9.426,1.741a12.735,12.735,0,0,1,.912,2.838l.049.253h3.466L13.58,4.36A6.771,6.771,0,0,0,9.808,1.31l-.677-.221ZM7.462,1.16a10.581,10.581,0,0,0-1.3,3.289l-.088.387H9.389L9.3,4.449A10.516,10.516,0,0,0,7.993,1.16L7.727.74Zm-1.817.161a6.767,6.767,0,0,0-3.75,3.037l-.274.472H5.075l.052-.252a12.723,12.723,0,0,1,.9-2.831l.3-.656Z" fill="#8A8BB5" fill-rule="evenodd"/>
    <path id="Path_61492" data-name="Path 61492" d="M11.766,15.689,9.078,9.775a.528.528,0,0,1,.7-.7l5.915,2.689a.527.527,0,0,1,.018.952l-1.836.918a.526.526,0,0,0-.237.236l-.917,1.836a.526.526,0,0,1-.952-.018" fill="#8A8BB5"/>
  </g>
</svg>
