<?xml version="1.0" encoding="UTF-8"?><svg id="Layer_1" xmlns="http://www.w3.org/2000/svg" viewBox="0 0 16 16"><defs><style>.cls-1{fill:#8A8BB5;}</style></defs><g id="webDispatcher"><path id="Path_43" class="cls-1" d="M8,0C3.58,0,0,3.58,0,8s3.58,8,8,8c.18,0,.33-.15.33-.33,0-.18-.15-.33-.33-.33-1.1,0-2.09-1.24-2.7-3.1.35-.07.71-.11,1.07-.14.18-.03.31-.19.28-.38-.02-.17-.18-.3-.35-.29-.4.03-.79.09-1.19.17-.27-1.06-.42-2.16-.44-3.25h2.99v.67c0,.18.15.33.33.33s.33-.15.33-.33v-.67h2.27c.18,0,.33-.15.33-.33s-.15-.33-.33-.33h-2.27v-3.01c.86,0,1.71-.08,2.55-.25.23.9.37,1.82.42,2.74.01.18.17.32.35.31h0c.18-.01.32-.17.31-.35h0c-.05-.97-.19-1.93-.43-2.87.76-.2,1.49-.46,2.2-.79.96,1.2,1.51,2.68,1.58,4.22h-1.15c-.18,0-.33.15-.33.33s.15.33.33.33h1.16c-.01.33-.05.66-.11.98-.03.18.08.35.26.39h0c.18.03.35-.09.39-.26,0,0,0,0,0,0,.09-.48.13-.96.13-1.44C16,3.59,12.42,0,8,0h0ZM7.66.71v3.28c-.79-.02-1.57-.11-2.35-.26.55-1.64,1.39-2.79,2.35-3.01h0ZM6.11.92c-.67.76-1.17,1.66-1.45,2.64-.66-.17-1.3-.39-1.93-.65.92-.96,2.09-1.64,3.38-1.99h0ZM.68,7.67c.07-1.54.62-3.02,1.58-4.22.71.33,1.44.6,2.2.79-.28,1.12-.43,2.27-.45,3.43H.68ZM6.11,15.07c-1.3-.34-2.47-1.04-3.4-2.01.62-.29,1.26-.52,1.93-.69.29,1,.79,1.91,1.47,2.69h0ZM4.45,11.74c-.76.19-1.5.46-2.2.8-.95-1.2-1.5-2.68-1.57-4.22h3.32c.02,1.15.17,2.3.45,3.42h0ZM4.67,7.67c.02-1.1.17-2.2.44-3.27.84.17,1.69.26,2.55.25v3.01h-2.99ZM8.33,3.98V.71c.95.22,1.8,1.36,2.35,3.01-.77.16-1.56.24-2.35.26h0ZM11.34,3.56c-.29-.98-.78-1.88-1.45-2.64,1.29.34,2.46,1.03,3.38,1.99-.62.27-1.27.48-1.93.65h0Z"/><path id="Path_849" class="cls-1" d="M12,15.66v-1.67h-3.33c-.37,0-.66-.3-.67-.67v-2c0-.37.3-.67.67-.67h3.33v-1.67c0-.18.15-.33.33-.33.09,0,.17.04.24.1l3.33,3.33c.13.13.13.34,0,.47,0,0,0,0,0,0h0l-3.33,3.33c-.13.13-.34.14-.47,0-.07-.06-.1-.15-.1-.24h0Z"/></g></svg>