<?xml version="1.0" encoding="UTF-8"?><svg id="zones" xmlns="http://www.w3.org/2000/svg" xmlns:xlink="http://www.w3.org/1999/xlink" viewBox="0 0 16 16"><defs><style>.cls-1{fill:none;}.cls-2{fill:#8A8BB5;}.cls-3{clip-path:url(#clippath);}</style><clipPath id="clippath"><rect class="cls-1" x="0" y="0" width="16" height="16"/></clipPath></defs><g class="cls-3"><g id="Group_16347"><path id="Path_61448" class="cls-2" d="M8,16C3.58,16,0,12.42,0,8,0,3.58,3.58,0,8,0c4.42,0,8,3.58,8,8,0,2.12-.84,4.15-2.34,5.65-1.5,1.5-3.54,2.35-5.66,2.35ZM1.36,6.26c-.95,3.66,1.24,7.39,4.89,8.35,2.34.61,4.84-.06,6.55-1.77l.08-.08-.09-.07c-.08-.07-.15-.14-.22-.21-.45-.56-.52-1.33-.18-1.96.08-.19.14-.38.17-.58.03-.28-.02-.37-.04-.4-.13-.1-.28-.17-.43-.22l-.2-.08c-.3-.13-.58-.28-.86-.45-.25-.13-.48-.32-.65-.54-.51-.71.08-1.84.21-2.06.31-.62.93-1.01,1.62-1.04.1,0,.2,0,.3.03.23.05.46.12.69.21.22.1.45.16.69.17h.1c.07,0,.13-.01.2,0h.16l-.06-.14c-.23-.55-.53-1.06-.89-1.53l-.06-.08-.08.06c-.17.13-.38.2-.6.2-.21,0-.43-.05-.63-.12-.08-.03-.16-.05-.24-.07-.1.02-.21.06-.3.11-.23.13-.49.21-.76.22-.09,0-.17-.01-.25-.03-.32-.1-.6-.31-.79-.59-.2-.23-.3-.53-.26-.83.03-.18.11-.34.23-.48.16-.2.33-.38.52-.56l.12-.11-.16-.05c-1.01-.34-2.08-.43-3.13-.29l-.12.02.04.11c.09.26.19.51.28.74.21.43.31.91.29,1.38-.01.66-.54,1.18-1.2,1.19-.12,0-.25.01-.37.05l-.14.1c-.18.16-.39.28-.62.35-.12.03-.24.05-.36.05-.1,0-.2,0-.3-.02l-.05.19c.19.09.4.15.61.19l.23.02c.62,0,1.2.33,1.52.86.06.12.12.24.16.37l.05.13.16.04c.09-.06.19-.12.29-.16.15-.06.31-.09.47-.09.34,0,.67.12.95.31.36.22.63.56.78.96.18.5.03,1.06-.37,1.42l-.95.81c-.34.29-.33.35-.33.39,0,.02.02.12.03.17.22.51-.02,1.1-.54,1.32-.08.03-.16.06-.24.07h-.08l-.02.08c-.03.13-.04.26-.05.39-.06.78-.46,1.29-1.05,1.35h-.09c-.55-.04-1-.44-1.11-.98-.04-.15-.06-.3-.07-.46,0-.12-.03-.24-.06-.36-.07-.14-.15-.28-.25-.4-.21-.25-.37-.54-.46-.85-.05-.24-.06-.48-.03-.72.02-.12.02-.24,0-.36-.07-.17-.18-.31-.32-.43-.19-.18-.35-.39-.48-.62-.15-.32-.21-.68-.17-1.04,0-.08,0-.15,0-.23v-.05l-.09-.06c-.46-.33-.88-.69-1.27-1.1-.05-.05-.1-.11-.16-.18l-.2-.23.02.32ZM3.5,6.42l.14.1c.23.14.4.35.5.6.07.24.09.5.06.75-.03.14-.02.29.03.43.09.14.19.27.31.38.27.25.48.56.59.91.06.25.07.51.04.77-.01.12-.01.24,0,.36.06.16.15.3.26.43.17.21.31.44.41.69l.13.46.09-.37c.09-.39.39-.71.77-.83l.1-.03-.03-.1c-.03-.13-.04-.26-.04-.39.06-.49.33-.94.74-1.22l1.16-1h-.21c-.06-.14-.17-.26-.3-.34-.08-.06-.18-.1-.28-.11h-.04l-.11.08c-.2.17-.45.27-.71.3-.44,0-.85-.25-1.05-.65-.06-.12-.12-.25-.16-.38-.03-.08-.06-.15-.09-.22-.1-.19-.22-.22-.64-.27l-.26-.03c-.46-.07-.9-.23-1.29-.48l-.11.17ZM13.51,10.88c-.19.52-.2.64-.05.81l.08.08.09.07.06-.09c.74-1.11,1.13-2.42,1.13-3.75,0-.41-.04-.83-.11-1.23l-.02-.09h-.09c-.06.01-.12.02-.18.02h-.11c-.08,0-.15,0-.22,0-.06,0-.11,0-.17,0h-.01c-.37,0-.74-.09-1.09-.24-.17-.07-.34-.12-.51-.16-.29.02-.55.19-.68.45-.14.23-.22.49-.26.76.08.11.18.2.29.26.22.14.45.26.69.37l.16.06c.38.11.72.33.98.63.24.35.33.78.26,1.2-.03.25-.09.49-.18.72h0l-.06.13ZM5.65,1.54c-1.51.55-2.79,1.61-3.6,3,.02.11.04.21.07.32l.04.14c.09.21.22.39.38.54.07.08.16.16.24.24l.15-.13c-.06-.08-.1-.16-.13-.25-.09-.28-.03-.6.15-.83.35-.37.84-.57,1.34-.57.1,0,.2,0,.29.02.12.01.17.02.22.02.1-.03.19-.08.26-.15l.16-.12c.27-.17.57-.26.89-.27l.21-.02v-.09c0-.3-.08-.59-.22-.86-.13-.32-.24-.61-.35-.91v-.14l-.13.06ZM11.09,2.42c-.13.13-.27.26-.38.38l-.06.07.11.13.08-.02.16-.07c.22-.12.45-.2.7-.23h.28s.07-.17.07-.17c-.18-.13-.37-.26-.56-.37l-.07-.04-.34.33Z"/></g></g></svg>